<?xml version="1.0" encoding="UTF-8"?>
<svg id="Layer_1" data-name="Layer 1" xmlns="http://www.w3.org/2000/svg" viewBox="0 0 980.76 682.35">
  <defs>
    <style>
      .cls-2 { fill: #fffaf2; }
    </style>
  </defs>
  <path class="cls-2" d="M849.2,229.82l-14.61-14.61c-.89-.89-2.11-1.4-3.38-1.4h-34.33c-1.26,0-2.49.52-3.38,1.4l-7.18,7.18c-1.87,1.87-4.9,1.87-6.77,0l-7.18-7.18c-.89-.89-2.11-1.4-3.37-1.4h-34.33c-1.28,0-2.49.52-3.4,1.4l-14.59,14.61c-.91.89-1.4,2.11-1.4,3.38v41.43c0,1.21.44,2.37,1.26,3.25l62.86,68.23c1.9,2.05,5.15,2.05,7.05,0l62.87-68.23c.8-.88,1.26-2.04,1.26-3.25v-41.43c0-1.26-.52-2.49-1.4-3.38ZM843.5,271.86c0,1.21-.46,2.37-1.25,3.25l-55.76,60.51c-1.9,2.06-5.14,2.06-7.05,0l-55.76-60.51c-.82-.88-1.26-2.04-1.26-3.25v-35.71c0-1.28.5-2.49,1.4-3.39l10.44-10.45c.9-.89,2.11-1.4,3.39-1.4h28.43c1.26,0,2.49.52,3.38,1.4l10.12,10.1c1.87,1.89,4.9,1.89,6.77,0l10.1-10.1c.91-.89,2.11-1.4,3.4-1.4h28.43c1.28,0,2.49.52,3.39,1.4l10.45,10.45c.88.9,1.4,2.11,1.4,3.39v35.71Z"/>
  <path class="cls-2" d="M851.67,185.66h-137.43c-12.75,0-23.09,10.33-23.09,23.08v137.43c0,12.77,10.34,23.1,23.09,23.1h137.43c12.75,0,23.09-10.33,23.09-23.1v-137.43c0-12.75-10.33-23.08-23.09-23.08ZM867.65,346.18c0,8.83-7.18,15.99-15.99,15.99h-137.43c-8.83,0-15.98-7.17-15.98-15.99v-137.43c0-8.8,7.15-15.98,15.98-15.98h137.43c8.81,0,15.99,7.18,15.99,15.98v137.43Z"/>
  <path class="cls-2" d="M456.52,185.67h-129.58c-14.91,0-27.01,12.09-27.01,27.01v129.6c0,2.23.27,4.4.78,6.48,2.91,11.79,13.55,20.53,26.22,20.53h129.58c14.92,0,27.02-12.1,27.02-27.01v-129.6c0-14.92-12.1-27.01-27.02-27.01ZM307.03,304.57c20.3-7.8,47.13-20.85,66.63-40.49,10.69-10.76,19.86-15.96,28.06-15.73,3.29.05,6.44.99,9.54,2.55.01,0,.09.05.21.13.05.04.13.07.22.12,2.54,1.62,15.89,10.57,15.48,20.94-.34,8.81-11.02,15.81-19.92,20.14-3,1.46-9.36,3.94-17.42,7.1-21.17,8.31-55,21.6-82.79,37.42v-32.18ZM476.43,342.28c0,10.97-8.93,19.9-19.91,19.9h-129.58c-10.1,0-18.48-7.58-19.73-17.35,28.36-16.57,64.87-30.9,85.2-38.87,8.53-3.34,14.67-5.75,17.94-7.33,15.49-7.55,23.55-16.38,23.92-26.26.01-.27.01-.52.01-.78.04.04.07.09.1.13,11.49,12.57,24.19,26.46,42.03,33.83v36.75ZM476.43,297.73c-15.14-7.14-26.47-19.55-36.79-30.82-12.47-13.61-23.21-25.36-37.77-25.66-10.27-.23-21.12,5.63-33.24,17.83-16.11,16.21-39.48,29.03-61.59,37.84v-84.24c0-10.98,8.94-19.91,19.91-19.91h129.58c10.98,0,19.91,8.93,19.91,19.91v85.06Z"/>
  <path class="cls-2" d="M264.84,185.67H127.42c-12.77,0-23.1,10.33-23.1,23.09v8.7s.01,124.8.01,124.8c0,1.87.2,3.7.55,5.44h-.52c.16,2.49.71,4.88,1.62,7.1,3.41,8.49,11.72,14.48,21.43,14.48h137.43c9.08,0,16.93-5.24,20.69-12.84,1.08-2.18,1.83-4.58,2.17-7.09.16-1.03.23-2.09.23-3.16v-137.43c0-12.75-10.33-23.09-23.09-23.09ZM232.55,362.17h-72.85c-.9-3.21-1.38-6.6-1.38-10.1,0-20.83,16.96-37.81,37.81-37.81s37.81,16.98,37.81,37.81c0,3.5-.48,6.89-1.38,10.1ZM280.83,231.75l-55.02,74.22c-.98,1.31-.69,3.17.64,4.14.3.23.62.46.93.69,1.31,1,3.17.71,4.15-.6l49.3-66.52v43.56l-42.2,30.17c-1.33.94-1.65,2.81-.69,4.12.22.32.46.63.67.96.94,1.35,2.81,1.65,4.14.69l38.08-27.23v25.68l-33.56,10.58c-1.56.5-2.45,2.17-1.93,3.71.12.37.23.75.35,1.12.49,1.56,2.15,2.43,3.71,1.93l31.44-9.91v17.12c0,1.07-.11,2.1-.31,3.11l-29.61-.27c-1.67-.01-3,1.35-3,3.02v1.05c-.04,1.65,1.25,3.02,2.93,3.04l26.31.23c-2.93,3.55-7.35,5.8-12.31,5.8h-24.96c.76-3.25,1.15-6.62,1.15-10.1,0-24.75-20.14-44.91-44.91-44.91s-44.91,20.15-44.91,44.91c0,3.48.39,6.85,1.17,10.1h-24.97c-5.63,0-10.57-2.91-13.43-7.3l27.37.25c1.67.02,2.98-1.35,2.98-3.02v-.04c0-.34,0-.67.02-1.01.04-1.66-1.28-3.02-2.93-3.04l-29.92-.27c-.07-.52-.09-1.03-.09-1.56v-18.72l31.67,10.6c1.56.52,3.25-.32,3.74-1.88.13-.37.25-.75.37-1.1.55-1.55-.3-3.23-1.86-3.77l-33.92-11.34v-26.21l38.61,28.61c1.31.98,3.18.71,4.14-.62.22-.32.46-.63.69-.94.99-1.3.71-3.17-.6-4.14l-42.83-31.74v-45.37l50.04,70c.94,1.34,2.81,1.65,4.12.69.31-.23.63-.46.96-.67,1.35-.94,1.65-2.81.69-4.14l-55.82-78.08v-18.61c0-8.81,7.18-15.99,16-15.99h14.74l34.11,108.16c.5,1.57,2.17,2.46,3.71,1.94.37-.13.75-.25,1.12-.36,1.56-.48,2.43-2.15,1.93-3.71l-33.42-106.03h44.39l-.94,104.53c0,1.67,1.37,2.99,3.04,2.99h.01c.34,0,.69.01,1.03.01,1.65.04,3.02-1.28,3.02-2.93l.94-104.59h44.57l-35.55,106.25c-.52,1.56.32,3.25,1.88,3.74.37.13.73.25,1.11.37,1.55.55,3.23-.3,3.75-1.86l36.31-108.51h11.66c8.81,0,15.99,7.18,15.99,15.99v22.99Z"/>
  <path class="cls-2" d="M656.06,185.67h-137.43c-12.77,0-23.1,10.33-23.1,23.08v137.43c0,12.77,10.33,23.1,23.1,23.1h137.43c12.75,0,23.09-10.33,23.09-23.1v-137.43c0-12.75-10.33-23.08-23.09-23.08ZM672.05,346.18c0,8.83-7.18,16-15.99,16h-137.43c-8.83,0-16-7.18-16-16v-12.9c8.19,3.51,16.36,6.23,29.35,6.23,8.21,0,16.8-3.34,25.91-6.88,11.42-4.46,23.23-9.08,36.17-8.26,11.08.67,18.44,3.69,26.23,6.88,8.68,3.55,17.67,7.25,31.71,7.42,7.21.07,13.78-1.08,20.03-2.76v10.27ZM672.05,328.53c-6.31,1.84-12.9,3.16-19.94,3.03-12.69-.16-20.67-3.43-29.12-6.88-7.97-3.27-16.21-6.66-28.46-7.41-14.51-.9-27.61,4.2-39.2,8.71-8.47,3.31-16.48,6.41-23.33,6.41-13.08,0-20.58-2.96-29.35-6.87v-26.18c8.19,3.54,16.36,6.25,29.35,6.25,8.21,0,16.8-3.35,25.91-6.91,11.42-4.46,23.23-9.06,36.17-8.26,11.08.69,18.44,3.7,26.23,6.89,8.68,3.57,17.67,7.24,31.71,7.44,7.19.1,13.78-1.07,20.03-2.77v26.53ZM672.05,294.61c-6.32,1.85-12.9,3.14-19.94,3.05-12.69-.17-20.67-3.44-29.12-6.91-7.97-3.26-16.21-6.64-28.46-7.4-14.51-.91-27.61,4.2-39.2,8.71-8.47,3.31-16.48,6.43-23.33,6.43-13.07,0-20.58-2.96-29.35-6.89v-26.16c8.19,3.52,16.36,6.24,29.35,6.24,8.21,0,16.8-3.35,25.91-6.91,11.42-4.44,23.25-9.06,36.17-8.24,11.08.67,18.44,3.69,26.23,6.88,8.68,3.55,17.67,7.25,31.71,7.42,7.19.11,13.78-1.05,20.03-2.77v26.53ZM672.05,260.72c-6.31,1.84-12.87,3.16-19.94,3.03-12.69-.16-20.67-3.44-29.12-6.91-7.97-3.27-16.21-6.64-28.46-7.41-14.49-.89-27.61,4.23-39.2,8.74-8.47,3.31-16.48,6.41-23.33,6.41-13.07,0-20.58-2.96-29.35-6.87v-26.16c8.19,3.52,16.36,6.23,29.35,6.23,8.21,0,16.8-3.35,25.91-6.91,11.42-4.46,23.25-9.07,36.17-8.26,11.08.69,18.44,3.7,26.23,6.89,8.68,3.57,17.67,7.24,31.71,7.42,7.21.07,13.8-1.06,20.03-2.77v26.55ZM672.05,226.79c-6.31,1.85-12.87,3.14-19.94,3.04-12.69-.16-20.67-3.43-29.12-6.89-7.97-3.26-16.21-6.64-28.46-7.4-14.49-.91-27.61,4.2-39.2,8.71-8.47,3.31-16.48,6.43-23.33,6.43-13.07,0-20.58-2.98-29.35-6.89v-15.04c0-8.8,7.18-15.98,16-15.98h137.43c8.81,0,15.99,7.18,15.99,15.98v18.04Z"/>
  <g>
    <g>
      <path class="cls-2" d="M259.38,478.7l-14.91-65.02c-.33-1.61-2.15-3.02-3.78-3.02h-2.38c-1.61,0-3.34,1.41-3.78,3.02l-9.83,42.23-5.19,22.9c-.53,2.48,1.2,4.65,3.79,4.65h3.13c1.62,0,3.34-1.4,3.78-3.02l3.78-16.85h11.02l3.67,16.85c.44,1.62,2.17,3.02,3.79,3.02h3.13c2.59,0,4.32-2.27,3.78-4.75ZM236.49,452.89l3.02-17.29c2.05,9.18,1.83,12.1,3.01,17.29h-6.04Z"/>
      <path class="cls-2" d="M285.84,410.65h-11.02c-2.15,0-3.88,1.73-3.88,3.9v65.01c0,2.17,1.73,3.9,3.88,3.9h11.02c12.96,0,19.01-7.34,19.01-21.39v-30.02c0-14.05-6.05-21.39-19.01-21.39ZM293.94,462.06c0,7.24-2.37,10.7-8.1,10.7h-4.21v-51.41h4.21c5.72,0,8.1,3.46,8.1,10.7v30.02Z"/>
      <path class="cls-2" d="M352.26,410.55h-3.13c-1.62,0-3.45,1.4-3.78,3.01l-9.62,41.15-9.61-41.15c-.44-1.61-2.15-3.01-3.79-3.01h-3.01c-2.71,0-4.43,2.26-3.79,4.74l15.34,65.02c.32,1.73,2.05,3.02,3.78,3.02h2.27c1.62,0,3.34-1.29,3.78-3.02l15.33-65.02c.54-2.48-1.19-4.74-3.78-4.74Z"/>
      <path class="cls-2" d="M395.13,421.35c2.17,0,3.9-1.73,3.9-3.88v-2.92c0-2.17-1.73-3.9-3.9-3.9h-23.32c-2.17,0-3.9,1.73-3.9,3.9v65.01c0,2.17,1.73,3.9,3.9,3.9h23.32c2.17,0,3.9-1.73,3.9-3.9v-2.92c0-2.15-1.73-3.88-3.9-3.88h-16.52v-20.41h13.61c2.15,0,3.88-1.73,3.88-3.88v-2.92c0-2.17-1.73-3.9-3.88-3.9h-13.61v-20.3h16.52Z"/>
      <path class="cls-2" d="M443.84,410.65h-3.02c-2.15,0-3.88,1.73-3.88,3.9v35.63l-15.02-37.15c-.42-1.19-2.15-2.38-3.56-2.38h-2.6c-2.05,0-3.88,1.73-3.88,3.9v65.01c0,2.17,1.84,3.9,3.88,3.9h3.13c2.06,0,3.9-1.73,3.9-3.9v-35.63l15,37.15c.44,1.19,2.27,2.38,3.57,2.38h2.48c2.17,0,3.9-1.73,3.9-3.9v-65.01c0-2.17-1.73-3.9-3.9-3.9Z"/>
      <path class="cls-2" d="M493.85,410.55h-28.3c-2.15,0-3.88,1.72-3.88,3.88v3.02c0,2.15,1.73,3.88,3.88,3.88h8.75v58.1c0,2.17,1.73,3.9,3.9,3.9h2.92c2.15,0,3.88-1.73,3.88-3.9v-58.1h8.86c2.15,0,3.88-1.73,3.88-3.88v-3.02c0-2.17-1.73-3.88-3.88-3.88Z"/>
      <path class="cls-2" d="M526.78,410.65c-11.77,0-17.71,7.45-17.71,21.07v30.56c0,8.53,2.38,13.5,5.72,16.85,3.57,3.45,8.11,4.32,11.99,4.32s8.53-.87,12.1-4.32c3.34-3.35,5.61-8.32,5.61-16.85v-30.56c0-13.72-5.83-21.07-17.71-21.07ZM533.69,462.28c0,7.34-2.37,10.48-6.91,10.48s-6.91-3.35-6.91-10.48v-30.56c0-7.02,2.15-10.37,6.91-10.37s6.91,3.13,6.91,10.37v30.56Z"/>
      <path class="cls-2" d="M589.53,410.55h-3.02c-2.05,0-3.78,1.72-3.78,3.88v49.14c0,5.19-1.51,9.07-7.03,9.07s-7.02-3.35-7.02-9.07v-49.14c0-2.17-1.73-3.88-3.88-3.88h-3.02c-2.06,0-3.78,1.72-3.78,3.88v49.14c0,11.45,4.74,19.77,17.7,19.77s17.71-7.67,17.71-19.77v-49.14c0-2.17-1.73-3.88-3.88-3.88Z"/>
      <path class="cls-2" d="M639.75,447.17c3.35-3.35,4.54-8.76,4.54-15.45,0-14.47-4.65-21.16-17.92-21.16h-13.61c-2.17,0-3.88,1.72-3.88,3.88v65.01c0,2.17,1.72,3.9,3.88,3.9h3.02c2.05,0,3.78-1.73,3.78-3.9v-26.46h4.86c5.29,0,8.31,3.02,8.31,8.43v18.03c0,2.17,1.73,3.9,3.88,3.9h3.02c2.17,0,3.9-1.73,3.9-3.9v-18.03c0-5.61-1.51-10.04-4.65-13.39.33-.33.54-.54.86-.86ZM624.42,442.09h-4.86v-20.74h6.81c5.61,0,7.24,3.02,7.24,10.37s-3.13,10.37-9.18,10.37Z"/>
      <path class="cls-2" d="M664.06,410.65h-3.02c-2.17,0-3.9,1.73-3.9,3.9v65.01c0,2.17,1.73,3.9,3.9,3.9h3.02c2.05,0,3.88-1.73,3.88-3.9v-65.01c0-2.17-1.84-3.9-3.88-3.9Z"/>
      <path class="cls-2" d="M709.84,437.11h3.02c2.17,0,3.88-1.73,3.88-3.88v-1.51c0-13.72-6.15-21.16-17.81-21.16s-17.82,7.02-17.82,19.22c0,10.7,7.45,16.53,14.58,22.14v-.11c5.29,4.1,10.26,8.11,10.26,13.18,0,5.72-2.49,7.67-7.02,7.67-1.51,0-3.35-.22-4.54-1.4-1.51-1.29-2.49-3.78-2.49-8.97v-1.4c0-2.15-1.83-3.88-3.88-3.88h-3.02c-2.15,0-3.88,1.73-3.88,3.88v1.4c0,14.14,5.94,21.07,17.82,21.07s17.81-6.48,17.81-18.58c0-10.47-7.24-15.98-14.36-21.49h.11c-5.29-4.1-10.59-8.31-10.59-13.82s2.49-8.11,7.03-8.11,7.02,3.24,7.02,10.37v1.51c0,2.15,1.73,3.88,3.88,3.88Z"/>
      <path class="cls-2" d="M755.2,410.55h-28.29c-2.17,0-3.9,1.72-3.9,3.88v3.02c0,2.15,1.73,3.88,3.9,3.88h8.74v58.1c0,2.17,1.73,3.9,3.9,3.9h2.92c2.15,0,3.88-1.73,3.88-3.9v-58.1h8.86c2.17,0,3.88-1.73,3.88-3.88v-3.02c0-2.17-1.72-3.88-3.88-3.88Z"/>
    </g>
    <g>
      <path class="cls-2" d="M773.76,411.72c-6.66,0-12.08-5.42-12.08-12.08s5.42-12.08,12.08-12.08,12.08,5.42,12.08,12.08-5.42,12.08-12.08,12.08ZM773.76,390.01c-5.31,0-9.63,4.32-9.63,9.63s4.32,9.63,9.63,9.63,9.63-4.32,9.63-9.63-4.32-9.63-9.63-9.63Z"/>
      <path class="cls-2" d="M773.16,398.66c.67,0,1.17-.13,1.46-.39.29-.25.45-.66.45-1.25s-.16-.98-.45-1.24c-.29-.25-.78-.37-1.46-.37h-1.37v3.25h1.37M771.79,400.9v3.15c0,.9-.73,1.63-1.63,1.63h0c-.9,0-1.63-.73-1.63-1.63v-9.06c0-1.08.88-1.96,1.96-1.96h3.02c1.67,0,2.88.28,3.66.85.78.55,1.17,1.44,1.17,2.65,0,.83-.2,1.52-.6,2.06-.4.53-1.01.93-1.83,1.18.45.11.85.34,1.2.7.36.36.71.9,1.07,1.63l.66,1.34c.51,1.03-.24,2.24-1.39,2.24h0c-.59,0-1.13-.34-1.39-.87l-1.12-2.27c-.31-.63-.63-1.07-.94-1.29-.32-.23-.75-.36-1.28-.36h-.92"/>
    </g>
  </g>
</svg>
