<svg width="41" height="47" viewBox="0 0 41 47" fill="none" xmlns="http://www.w3.org/2000/svg">
<path d="M36.7194 0H4.29735C2.34481 0 0.761963 1.56548 0.761963 3.49659V43.2273C0.761963 45.1585 2.34481 46.7239 4.29735 46.7239H36.7194C38.6719 46.7239 40.2548 45.1585 40.2548 43.2273V3.49659C40.2548 1.56548 38.6719 0 36.7194 0Z" fill="none"/>
<path d="M6.25932 42.9989L5.33027 38.9925C5.30987 38.8935 5.19583 38.8063 5.09476 38.8063H4.94641C4.84628 38.8063 4.73872 38.8935 4.71091 38.9925L4.09896 41.5941L3.77537 43.0054C3.74199 43.1585 3.84955 43.2915 4.01088 43.2915H4.20651C4.30758 43.2915 4.41421 43.2053 4.44202 43.1053L4.67753 42.0673H5.36458L5.59267 43.1053C5.61955 43.2053 5.72711 43.2915 5.82817 43.2915H6.02381C6.18514 43.2915 6.2927 43.1512 6.25932 42.9989ZM4.8333 41.4079L5.02152 40.3423C5.14854 40.9081 5.13556 41.0879 5.20974 41.4079H4.8333Z" fill="black"/>
<path d="M7.90781 38.8054H7.22076C7.08631 38.8054 6.97876 38.9118 6.97876 39.0457V43.0512C6.97876 43.1842 7.08631 43.2915 7.22076 43.2915H7.90781C8.71539 43.2915 9.09183 42.8394 9.09183 41.9737V40.1241C9.09183 39.2584 8.71539 38.8063 7.90781 38.8063V38.8054ZM8.4122 41.9737C8.4122 42.4194 8.26478 42.6331 7.90781 42.6331H7.64541V39.4657H7.90781C8.26478 39.4657 8.4122 39.6784 8.4122 40.125V41.9746V41.9737Z" fill="black"/>
<path d="M12.045 38.7999H11.8494C11.7483 38.7999 11.6343 38.8861 11.6139 38.9861L11.0149 41.5216L10.4159 38.9861C10.389 38.887 10.2815 38.7999 10.1804 38.7999H9.99221C9.82346 38.7999 9.71591 38.9393 9.7567 39.0925L10.7126 43.0989C10.7321 43.2053 10.8397 43.2851 10.9481 43.2851H11.09C11.1911 43.2851 11.2977 43.2053 11.3255 43.0989L12.2805 39.0925C12.3148 38.9393 12.2063 38.7999 12.045 38.7999Z" fill="black"/>
<path d="M14.7161 39.4648C14.8505 39.4648 14.959 39.3584 14.959 39.2254V39.0457C14.959 38.9127 14.8515 38.8054 14.7161 38.8054H13.2632C13.1287 38.8054 13.0203 38.9118 13.0203 39.0457V43.0512C13.0203 43.1842 13.1278 43.2915 13.2632 43.2915H14.7161C14.8505 43.2915 14.959 43.1851 14.959 43.0512V42.8715C14.959 42.7385 14.8515 42.6321 14.7161 42.6321H13.6869V41.374H14.5353C14.6697 41.374 14.7773 41.2676 14.7773 41.1346V40.9549C14.7773 40.8219 14.6697 40.7147 14.5353 40.7147H13.6869V39.4638H14.7161V39.4648Z" fill="black"/>
<path d="M17.7509 38.8054H17.5627C17.4282 38.8054 17.3207 38.9118 17.3207 39.0457V41.241L16.3851 38.9521C16.3582 38.8788 16.2507 38.8054 16.1635 38.8054H16.0013C15.8742 38.8054 15.7593 38.9118 15.7593 39.0457V43.0512C15.7593 43.1842 15.8742 43.2915 16.0013 43.2915H16.1969C16.3249 43.2915 16.4398 43.1851 16.4398 43.0512V40.8559L17.3744 43.1448C17.4013 43.2181 17.5163 43.2915 17.597 43.2915H17.7518C17.8863 43.2915 17.9947 43.1851 17.9947 43.0512V39.0457C17.9947 38.9127 17.8872 38.8054 17.7518 38.8054H17.7509Z" fill="black"/>
<path d="M20.8661 38.7999H19.1026C18.9681 38.7999 18.8606 38.9063 18.8606 39.0393V39.2254C18.8606 39.3584 18.9681 39.4648 19.1026 39.4648H19.6478V43.0448C19.6478 43.1778 19.7553 43.2851 19.8907 43.2851H20.0724C20.2069 43.2851 20.3144 43.1787 20.3144 43.0448V39.4648H20.8661C21.0006 39.4648 21.1081 39.3584 21.1081 39.2254V39.0393C21.1081 38.9063 21.0006 38.7999 20.8661 38.7999Z" fill="black"/>
<path d="M22.9181 38.8054C22.1846 38.8054 21.8147 39.2648 21.8147 40.103V41.9866C21.8147 42.512 21.963 42.8183 22.1717 43.0246C22.3942 43.2374 22.677 43.2906 22.919 43.2906C23.161 43.2906 23.4503 43.2374 23.6728 43.0246C23.8805 42.8183 24.0223 42.512 24.0223 41.9866V40.103C24.0223 39.2575 23.6589 38.8054 22.919 38.8054H22.9181ZM23.3483 41.9866C23.3483 42.4387 23.2009 42.6321 22.9181 42.6321C22.6353 42.6321 22.4878 42.4258 22.4878 41.9866V40.103C22.4878 39.6702 22.6223 39.4638 22.9181 39.4638C23.2138 39.4638 23.3483 39.6573 23.3483 40.103V41.9866Z" fill="black"/>
<path d="M26.8273 38.7999H26.639C26.512 38.7999 26.4035 38.9063 26.4035 39.0393V42.0673C26.4035 42.3873 26.309 42.6266 25.9659 42.6266C25.6228 42.6266 25.5283 42.4203 25.5283 42.0673V39.0393C25.5283 38.9063 25.4207 38.7999 25.2863 38.7999H25.0981C24.9701 38.7999 24.8625 38.9063 24.8625 39.0393V42.0673C24.8625 42.7725 25.1583 43.2851 25.965 43.2851C26.7716 43.2851 27.0683 42.8128 27.0683 42.0673V39.0393C27.0683 38.9063 26.9608 38.7999 26.8263 38.7999H26.8273Z" fill="black"/>
<path d="M29.9557 41.0558C30.1643 40.8495 30.2385 40.5157 30.2385 40.1039C30.2385 39.2126 29.9492 38.7999 29.1221 38.7999H28.2737C28.1393 38.7999 28.0317 38.9063 28.0317 39.0393V43.0448C28.0317 43.1778 28.1393 43.2851 28.2737 43.2851H28.462C28.589 43.2851 28.6975 43.1787 28.6975 43.0448V41.4144H29.0007C29.3298 41.4144 29.519 41.6005 29.519 41.9343V43.0448C29.519 43.1778 29.6265 43.2851 29.761 43.2851H29.9492C30.0836 43.2851 30.1921 43.1787 30.1921 43.0448V41.9343C30.1921 41.5886 30.0975 41.3153 29.9028 41.109C29.9232 41.0888 29.9371 41.0751 29.9566 41.0558H29.9557ZM29.0007 40.7422H28.6975V39.4648H29.1221C29.4717 39.4648 29.5727 39.6509 29.5727 40.1039C29.5727 40.5569 29.3771 40.7431 29.0007 40.7431V40.7422Z" fill="black"/>
<path d="M31.4695 38.8054H31.2813C31.1468 38.8054 31.0383 38.9118 31.0383 39.0457V43.0512C31.0383 43.1842 31.1459 43.2915 31.2813 43.2915H31.4695C31.5965 43.2915 31.7115 43.1851 31.7115 43.0512V39.0457C31.7115 38.9127 31.5965 38.8054 31.4695 38.8054Z" fill="black"/>
<path d="M34.3217 40.4359H34.5099C34.6443 40.4359 34.7519 40.3295 34.7519 40.1965V40.103C34.7519 39.2575 34.3689 38.799 33.642 38.799C32.9151 38.799 32.5312 39.2318 32.5312 39.9829C32.5312 40.6422 32.9958 41.0017 33.4399 41.3474V41.341C33.7691 41.5941 34.0787 41.8408 34.0787 42.1525C34.0787 42.5056 33.9239 42.6248 33.6411 42.6248C33.5465 42.6248 33.4325 42.6111 33.3583 42.5386C33.2637 42.4588 33.2035 42.3057 33.2035 41.9866V41.9004C33.2035 41.7674 33.0894 41.661 32.9615 41.661H32.7732C32.6388 41.661 32.5312 41.7674 32.5312 41.9004V41.9866C32.5312 42.8577 32.9012 43.2841 33.642 43.2841C34.3829 43.2841 34.7519 42.8843 34.7519 42.1388C34.7519 41.4941 34.3013 41.1539 33.8571 40.8146H33.8636C33.5345 40.5615 33.2044 40.302 33.2044 39.9636C33.2044 39.6252 33.3592 39.4638 33.642 39.4638C33.9248 39.4638 34.0797 39.6638 34.0797 40.103V40.1965C34.0797 40.3295 34.1872 40.4359 34.3217 40.4359Z" fill="black"/>
<path d="M37.1476 38.7999H35.385C35.2506 38.7999 35.1421 38.9063 35.1421 39.0393V39.2254C35.1421 39.3584 35.2496 39.4648 35.385 39.4648H35.9293V43.0448C35.9293 43.1778 36.0368 43.2851 36.1722 43.2851H36.3539C36.4884 43.2851 36.5959 43.1787 36.5959 43.0448V39.4648H37.1476C37.282 39.4648 37.3896 39.3584 37.3896 39.2254V39.0393C37.3896 38.9063 37.282 38.7999 37.1476 38.7999Z" fill="black"/>
<path d="M35.7819 24.0241L34.4273 22.6843C34.3448 22.6027 34.2317 22.5559 34.1139 22.5559H30.9309C30.8141 22.5559 30.7 22.6036 30.6175 22.6843L29.9518 23.3427C29.7784 23.5142 29.4974 23.5142 29.3241 23.3427L28.6583 22.6843C28.5758 22.6027 28.4627 22.5559 28.3459 22.5559H25.1628C25.0441 22.5559 24.9319 22.6036 24.8476 22.6843L23.4948 24.0241C23.4104 24.1057 23.365 24.2175 23.365 24.334V28.1332C23.365 28.2442 23.4058 28.3506 23.4818 28.4312L29.3101 34.6881C29.4863 34.8761 29.7877 34.8761 29.9638 34.6881L35.7931 28.4312C35.8672 28.3506 35.9099 28.2442 35.9099 28.1332V24.334C35.9099 24.2185 35.8617 24.1057 35.7801 24.0241H35.7819ZM35.2534 27.8792C35.2534 27.9902 35.2108 28.0965 35.1375 28.1772L29.9675 33.7261C29.7914 33.915 29.4909 33.915 29.3139 33.7261L24.1438 28.1772C24.0678 28.0965 24.027 27.9902 24.027 27.8792V24.6045C24.027 24.4871 24.0734 24.3762 24.1568 24.2937L25.1248 23.3354C25.2082 23.2538 25.3204 23.207 25.4391 23.207H28.0751C28.192 23.207 28.306 23.2547 28.3885 23.3354L29.3268 24.2616C29.5002 24.4349 29.7812 24.4349 29.9545 24.2616L30.891 23.3354C30.9754 23.2538 31.0866 23.207 31.2063 23.207H33.8423C33.9609 23.207 34.0731 23.2547 34.1566 23.3354L35.1255 24.2937C35.2071 24.3762 35.2553 24.4871 35.2553 24.6045V27.8792H35.2534Z" fill="black"/>
<path d="M36.011 19.9745H23.2686C22.0864 19.9745 21.1277 20.9218 21.1277 22.091V34.6936C21.1277 35.8646 22.0864 36.8119 23.2686 36.8119H36.011C37.1931 36.8119 38.1519 35.8646 38.1519 34.6936V22.091C38.1519 20.9218 37.1941 19.9745 36.011 19.9745ZM37.4926 34.6945C37.4926 35.5042 36.8269 36.1608 36.01 36.1608H23.2676C22.4489 36.1608 21.786 35.5033 21.786 34.6945V22.0919C21.786 21.2849 22.4489 20.6265 23.2676 20.6265H36.01C36.8269 20.6265 37.4926 21.2849 37.4926 22.0919V34.6945Z" fill="black"/>
<path d="M36.0112 20.6265H23.2688C22.4501 20.6265 21.7871 21.2849 21.7871 22.0919V34.6945C21.7871 35.5042 22.4501 36.1608 23.2688 36.1608H36.0112C36.828 36.1608 37.4937 35.5033 37.4937 34.6945V22.0919C37.4937 21.2849 36.828 20.6265 36.0112 20.6265ZM35.9129 28.1332C35.9129 28.2441 35.8702 28.3505 35.7961 28.4312L29.9668 34.688C29.7906 34.876 29.4902 34.876 29.3131 34.688L23.4848 28.4312C23.4088 28.3505 23.368 28.2441 23.368 28.1332V24.334C23.368 24.2184 23.4134 24.1056 23.4978 24.024L24.8506 22.6843C24.9349 22.6026 25.0462 22.5559 25.1658 22.5559H28.3488C28.4647 22.5559 28.5788 22.6036 28.6613 22.6843L29.327 23.3427C29.5004 23.5142 29.7814 23.5142 29.9547 23.3427L30.6205 22.6843C30.703 22.6026 30.8161 22.5559 30.9339 22.5559H34.1169C34.2337 22.5559 34.3478 22.6036 34.4303 22.6843L35.7849 24.024C35.8674 24.1056 35.9147 24.2175 35.9147 24.334V28.1332H35.9129Z" fill="#FCC436"/>
<path d="M35.2535 24.6045V27.8792C35.2535 27.9901 35.2109 28.0965 35.1376 28.1772L29.9676 33.7261C29.7915 33.915 29.491 33.915 29.3139 33.7261L24.1439 28.1772C24.0679 28.0965 24.0271 27.9901 24.0271 27.8792V24.6045C24.0271 24.4871 24.0735 24.3762 24.1569 24.2936L25.1249 23.3354C25.2083 23.2537 25.3205 23.207 25.4392 23.207H28.0752C28.192 23.207 28.3061 23.2547 28.3886 23.3354L29.3269 24.2615C29.5003 24.4349 29.7813 24.4349 29.9546 24.2615L30.8911 23.3354C30.9755 23.2537 31.0867 23.207 31.2063 23.207H33.8424C33.961 23.207 34.0732 23.2547 34.1567 23.3354L35.1256 24.2936C35.2072 24.3762 35.2554 24.4871 35.2554 24.6045H35.2535Z" fill="#F26F4F"/>
<path d="M35.6466 1.91284H23.632C22.2496 1.91284 21.1277 3.02152 21.1277 4.38971V16.2743C21.1277 16.4788 21.1527 16.6778 21.2 16.8685C21.4698 17.9497 22.4564 18.7511 23.6311 18.7511H35.6457C37.029 18.7511 38.1509 17.6415 38.1509 16.2743V4.38971C38.1509 3.02152 37.029 1.91284 35.6457 1.91284H35.6466ZM21.786 12.8171C23.6682 12.1018 26.1558 10.9051 27.9639 9.1041C28.955 8.11739 29.8053 7.64054 30.5656 7.66163C30.8706 7.66622 31.1627 7.75242 31.4501 7.89547C31.451 7.89547 31.4585 7.90006 31.4696 7.90739C31.4742 7.91106 31.4816 7.91381 31.49 7.9184C31.7255 8.06695 32.9633 8.88769 32.9253 9.83863C32.8938 10.6465 31.9035 11.2884 31.0783 11.6855C30.8002 11.8194 30.2105 12.0468 29.4631 12.3366C27.5003 13.0986 24.3636 14.3174 21.7869 15.7681V12.8171H21.786ZM37.4926 16.2743C37.4926 17.2802 36.6646 18.0991 35.6466 18.0991H23.632C22.6956 18.0991 21.9186 17.404 21.8027 16.5081C24.4322 14.9886 27.8174 13.6745 29.7024 12.9437C30.4933 12.6374 31.0625 12.4164 31.3657 12.2715C32.802 11.5791 33.5493 10.7694 33.5836 9.86339C33.5845 9.83864 33.5845 9.81571 33.5845 9.79187C33.5882 9.79554 33.591 9.80012 33.5938 9.80379C34.6591 10.9565 35.8367 12.2302 37.4908 12.9061V16.2761L37.4926 16.2743ZM37.4926 12.1899C36.0889 11.5351 35.0383 10.3971 34.0815 9.36362C32.9253 8.11556 31.9295 7.03806 30.5795 7.01055C29.6273 6.98946 28.6213 7.52683 27.4975 8.64559C26.0038 10.1321 23.8369 11.3077 21.7869 12.1156V4.39063C21.7869 3.38374 22.6158 2.56484 23.633 2.56484H35.6475C36.6656 2.56484 37.4936 3.38374 37.4936 4.39063V12.1908L37.4926 12.1899Z" fill="black"/>
<path d="M37.4927 12.9052V16.2753C37.4927 17.2812 36.6647 18.1001 35.6466 18.1001H23.6321C22.6956 18.1001 21.9186 17.405 21.8027 16.5091C24.4323 14.9896 27.8174 13.6755 29.7024 12.9446C30.4933 12.6384 31.0626 12.4174 31.3658 12.2725C32.802 11.5801 33.5493 10.7704 33.5836 9.86437C33.5846 9.83961 33.5846 9.81669 33.5846 9.79285C33.5883 9.79651 33.5911 9.8011 33.5938 9.80477C34.6592 10.9575 35.8367 12.2312 37.4908 12.907L37.4927 12.9052Z" fill="#FCC436"/>
<path d="M32.9242 9.83868C32.8927 10.6466 31.9025 11.2885 31.0773 11.6856C30.7991 11.8194 30.2094 12.0469 29.4621 12.3366C27.4992 13.0987 24.3626 14.3174 21.7859 15.7681V12.8172C23.6681 12.1019 26.1557 10.9052 27.9638 9.10415C28.9549 8.11744 29.8052 7.64059 30.5655 7.66168C30.8705 7.66627 31.1626 7.75246 31.45 7.89552C31.4509 7.89552 31.4584 7.9001 31.4695 7.90744C31.4741 7.91111 31.4815 7.91386 31.4899 7.91844C31.7254 8.067 32.9632 8.88773 32.9252 9.83868H32.9242Z" fill="#F26F4F"/>
<path d="M37.4928 4.38981V12.19C36.089 11.5352 35.0385 10.3972 34.0817 9.36372C32.9255 8.11566 31.9297 7.03816 30.5797 7.01065C29.6274 6.98956 28.6214 7.52693 27.4977 8.64569C26.004 10.1322 23.8371 11.3078 21.7871 12.1157V4.39073C21.7871 3.38384 22.616 2.56494 23.6331 2.56494H35.6477C36.6658 2.56494 37.4937 3.38384 37.4937 4.39073L37.4928 4.38981Z" fill="#80CFD5"/>
<path d="M17.749 1.91376H5.00754C3.82351 1.91376 2.86572 2.86104 2.86572 4.03115V4.82896L2.86665 16.2734C2.86665 16.4448 2.88519 16.6127 2.91765 16.7722H2.86943C2.88427 17.0006 2.93526 17.2197 3.01964 17.4233C3.33581 18.2018 4.10631 18.7511 5.00661 18.7511H17.749C18.5909 18.7511 19.3187 18.2706 19.6674 17.5737C19.7675 17.3738 19.837 17.1537 19.8686 16.9235C19.8834 16.8291 19.8899 16.7319 19.8899 16.6337V4.03115C19.8899 2.86195 18.9321 1.91376 17.749 1.91376ZM14.7551 18.0982H8.00051C7.91707 17.8039 7.87256 17.493 7.87256 17.172C7.87256 15.2619 9.44508 13.7048 11.3783 13.7048C13.3115 13.7048 14.884 15.2619 14.884 17.172C14.884 17.493 14.8395 17.8039 14.756 18.0982H14.7551ZM19.2316 6.13938L14.1302 12.9455C14.0393 13.0656 14.0662 13.2362 14.1895 13.3251C14.2173 13.3462 14.247 13.3673 14.2757 13.3884C14.3972 13.4801 14.5697 13.4535 14.6605 13.3334L19.2316 7.23338V11.2279L15.3188 13.9946C15.1955 14.0808 15.1659 14.2522 15.2549 14.3724C15.2753 14.4017 15.2975 14.4301 15.317 14.4604C15.4041 14.5842 15.5775 14.6117 15.7008 14.5237L19.2316 12.0266V14.3815L16.1199 15.3518C15.9753 15.3976 15.8928 15.5507 15.941 15.692C15.9521 15.7259 15.9623 15.7607 15.9734 15.7947C16.0189 15.9377 16.1728 16.0175 16.3174 15.9717L19.2325 15.0629V16.6328C19.2325 16.7309 19.2223 16.8254 19.2038 16.918L16.4584 16.8933C16.3035 16.8923 16.1802 17.0171 16.1802 17.1702V17.2665C16.1765 17.4178 16.2961 17.5434 16.4519 17.5453L18.8913 17.5664C18.6196 17.8919 18.2098 18.0982 17.7499 18.0982H15.4357C15.5061 17.8002 15.5423 17.4912 15.5423 17.172C15.5423 14.9024 13.6749 13.0537 11.3783 13.0537C9.08162 13.0537 7.21425 14.9015 7.21425 17.172C7.21425 17.4912 7.25041 17.8002 7.32274 18.0982H5.00754C4.48553 18.0982 4.02749 17.8314 3.76232 17.4288L6.30004 17.4517C6.45488 17.4536 6.57635 17.3279 6.57635 17.1748V17.1711C6.57635 17.1399 6.57635 17.1097 6.5782 17.0785C6.58191 16.9263 6.45952 16.8016 6.30653 16.7997L3.53237 16.775C3.52588 16.7273 3.52403 16.6805 3.52403 16.6319V14.9152L6.46045 15.8873C6.60509 15.935 6.76178 15.8579 6.80722 15.7149C6.81927 15.681 6.8304 15.6461 6.84152 15.614C6.89252 15.4719 6.81371 15.3178 6.66906 15.2683L3.52403 14.2284V11.8249L7.10392 14.4485C7.22538 14.5384 7.39876 14.5136 7.48778 14.3916C7.50817 14.3623 7.53043 14.3339 7.55175 14.3054C7.64354 14.1862 7.61758 14.0147 7.49612 13.9258L3.52496 11.0152V6.85466L8.16463 13.2738C8.25178 13.3967 8.42517 13.4251 8.54663 13.3371C8.57537 13.316 8.60504 13.2949 8.63564 13.2756C8.76081 13.1894 8.78863 13.0179 8.69962 12.896L3.52403 5.73589V4.02932C3.52403 3.22143 4.18975 2.56301 5.00754 2.56301H6.37422L9.53687 12.4815C9.58323 12.6255 9.73807 12.7071 9.88086 12.6594C9.91516 12.6475 9.9504 12.6365 9.9847 12.6264C10.1293 12.5824 10.21 12.4292 10.1637 12.2862L7.06498 2.56301H11.1808L11.0936 12.1486C11.0936 12.3017 11.2207 12.4228 11.3755 12.4228H11.3764C11.4079 12.4228 11.4404 12.4237 11.4719 12.4237C11.6249 12.4274 11.7519 12.3063 11.7519 12.155L11.8391 2.56392H15.9716L12.6754 12.3072C12.6272 12.4503 12.7051 12.6053 12.8497 12.6502C12.884 12.6621 12.9174 12.6731 12.9526 12.6841C13.0964 12.7346 13.2521 12.6566 13.3003 12.5136L16.667 2.56301H17.7481C18.5649 2.56301 19.2307 3.22143 19.2307 4.02932V6.13755L19.2316 6.13938Z" fill="black"/>
<path d="M14.1303 12.9455C14.0395 13.0656 14.0663 13.2362 14.1897 13.3251C14.2175 13.3462 14.2471 13.3673 14.2759 13.3884C14.3974 13.4801 14.5698 13.4535 14.6607 13.3334L19.2317 7.23336V11.2279L15.319 13.9945C15.1957 14.0807 15.166 14.2522 15.255 14.3724C15.2754 14.4017 15.2977 14.4301 15.3171 14.4604C15.4043 14.5842 15.5777 14.6117 15.701 14.5237L19.2317 12.0266V14.3815L16.1201 15.3517C15.9754 15.3976 15.8929 15.5507 15.9411 15.6919C15.9523 15.7259 15.9625 15.7607 15.9736 15.7947C16.019 15.9377 16.1729 16.0175 16.3176 15.9716L19.2327 15.0629V16.6328C19.2327 16.7309 19.2225 16.8254 19.2039 16.918L16.4585 16.8932C16.3037 16.8923 16.1803 17.017 16.1803 17.1702V17.2665C16.1766 17.4178 16.2962 17.5434 16.452 17.5452L18.8915 17.5663C18.6198 17.8919 18.21 18.0982 17.7501 18.0982H15.4358C15.5063 17.8002 15.5424 17.4911 15.5424 17.172C15.5424 14.9024 13.6751 13.0537 11.3784 13.0537C9.08176 13.0537 7.2144 14.9015 7.2144 17.172C7.2144 17.4911 7.25056 17.8002 7.32288 18.0982H5.00768C4.48567 18.0982 4.02764 17.8314 3.76246 17.4288L6.30018 17.4517C6.45502 17.4535 6.57649 17.3279 6.57649 17.1748V17.1711C6.57649 17.1399 6.57649 17.1097 6.57834 17.0785C6.58205 16.9263 6.45966 16.8015 6.30667 16.7997L3.53252 16.7749C3.52602 16.7273 3.52417 16.6805 3.52417 16.6319V14.9152L6.46059 15.8873C6.60523 15.935 6.76193 15.8579 6.80736 15.7149C6.81941 15.6809 6.83054 15.6461 6.84166 15.614C6.89266 15.4719 6.81385 15.3178 6.66921 15.2683L3.52417 14.2284V11.8249L7.10406 14.4485C7.22552 14.5383 7.39891 14.5136 7.48792 14.3916C7.50831 14.3623 7.53057 14.3338 7.55189 14.3054C7.64369 14.1862 7.61772 14.0147 7.49626 13.9258L3.5251 11.0151V6.85464L8.16477 13.2738C8.25192 13.3966 8.42531 13.4251 8.54677 13.337C8.57551 13.316 8.60518 13.2949 8.63578 13.2756C8.76095 13.1894 8.78877 13.0179 8.69976 12.896L3.52417 5.73587V4.0293C3.52417 3.22141 4.18989 2.56299 5.00768 2.56299H6.37436L9.53701 12.4815C9.58337 12.6254 9.73821 12.707 9.881 12.6594C9.91531 12.6474 9.95054 12.6364 9.98485 12.6264C10.1295 12.5823 10.2102 12.4292 10.1638 12.2861L7.06512 2.56299H11.1809L11.0938 12.1486C11.0938 12.3017 11.2208 12.4228 11.3756 12.4228H11.3766C11.4081 12.4228 11.4405 12.4237 11.4721 12.4237C11.625 12.4274 11.7521 12.3063 11.7521 12.155L11.8392 2.56391H15.9717L12.6756 12.3072C12.6273 12.4503 12.7052 12.6053 12.8499 12.6502C12.8842 12.6621 12.9176 12.6731 12.9528 12.6841C13.0965 12.7346 13.2523 12.6566 13.3005 12.5136L16.6671 2.56299H17.7482C18.5651 2.56299 19.2308 3.22141 19.2308 4.0293V6.13753L14.1294 12.9436L14.1303 12.9455Z" fill="#F26F4F"/>
<path d="M14.8831 17.172C14.8831 17.493 14.8386 17.8038 14.7551 18.0982H8.00051C7.91706 17.8038 7.87256 17.493 7.87256 17.172C7.87256 15.2619 9.44508 13.7048 11.3783 13.7048C13.3115 13.7048 14.884 15.2619 14.884 17.172H14.8831Z" fill="#FCC436"/>
<path d="M17.749 19.9745H5.00754C3.82351 19.9745 2.86572 20.9218 2.86572 22.091V34.6936C2.86572 35.8646 3.82351 36.8119 5.00754 36.8119H17.7499C18.9321 36.8119 19.8908 35.8646 19.8908 34.6936V22.091C19.8908 20.9218 18.933 19.9745 17.7499 19.9745H17.749ZM19.2316 34.6936C19.2316 35.5033 18.5659 36.1608 17.749 36.1608H5.00754C4.18883 36.1608 3.52403 35.5024 3.52403 34.6936V33.5106C4.2834 33.8325 5.04092 34.0819 6.24534 34.0819C7.00656 34.0819 7.80302 33.7756 8.64769 33.451C9.70655 33.042 10.8016 32.6183 12.0013 32.6935C13.0287 32.755 13.7111 33.0319 14.4334 33.3244C15.2382 33.65 16.0717 33.9893 17.3735 34.0049C18.042 34.0113 18.6512 33.9058 19.2307 33.7518V34.6936H19.2316ZM19.2316 33.0759C18.6465 33.2447 18.0355 33.3657 17.3828 33.3538C16.2062 33.3391 15.4663 33.0393 14.6828 32.7229C13.9438 32.423 13.1798 32.1121 12.044 32.0434C10.6986 31.9608 9.48402 32.4285 8.4094 32.8421C7.62407 33.1456 6.88139 33.4299 6.24627 33.4299C5.0335 33.4299 4.3381 33.1585 3.52496 32.7999V30.3992C4.28433 30.7238 5.04184 30.9723 6.24627 30.9723C7.00749 30.9723 7.80395 30.6651 8.64862 30.3386C9.70747 29.9296 10.8025 29.5078 12.0023 29.5812C13.0296 29.6444 13.712 29.9205 14.4343 30.213C15.2391 30.5404 16.0726 30.8769 17.3744 30.8953C18.0411 30.9044 18.6521 30.7971 19.2316 30.6412V33.0741V33.0759ZM19.2316 29.9645C18.6456 30.1341 18.0355 30.2524 17.3828 30.2442C16.2062 30.2286 15.4663 29.9287 14.6828 29.6105C13.9438 29.3116 13.1798 29.0016 12.044 28.9319C10.6986 28.8485 9.48402 29.3171 8.4094 29.7306C7.62407 30.0342 6.88139 30.3203 6.24627 30.3203C5.03443 30.3203 4.3381 30.0489 3.52496 29.6885V27.2895C4.28433 27.6123 5.04184 27.8618 6.24627 27.8618C7.00749 27.8618 7.80395 27.5546 8.64862 27.2281C9.70747 26.8209 10.8043 26.3973 12.0023 26.4725C13.0296 26.5339 13.712 26.8109 14.4343 27.1034C15.2391 27.4289 16.0726 27.7682 17.3744 27.7838C18.0411 27.7939 18.6521 27.6875 19.2316 27.5298V29.9627V29.9645ZM19.2316 26.8567C18.6465 27.0254 18.0383 27.1465 17.3828 27.1346C16.2062 27.1199 15.4663 26.8191 14.6828 26.5009C13.9438 26.201 13.1798 25.892 12.044 25.8214C10.7005 25.7398 9.48402 26.2093 8.4094 26.6229C7.62407 26.9264 6.88139 27.2107 6.24627 27.2107C5.03443 27.2107 4.3381 26.9392 3.52496 26.5807V24.1818C4.28433 24.5046 5.04184 24.7531 6.24627 24.7531C7.00749 24.7531 7.80395 24.4459 8.64862 24.1194C9.70747 23.7104 10.8043 23.2877 12.0023 23.362C13.0296 23.4252 13.712 23.7013 14.4343 23.9938C15.2391 24.3212 16.0726 24.6577 17.3744 24.6742C18.0429 24.6806 18.654 24.577 19.2316 24.4202V26.8549V26.8567ZM19.2316 23.7462C18.6465 23.9158 18.0383 24.0341 17.3828 24.025C16.2062 24.0103 15.4663 23.7104 14.6828 23.3931C13.9438 23.0942 13.1798 22.7842 12.044 22.7145C10.7005 22.6311 9.48402 23.0997 8.4094 23.5133C7.62407 23.8168 6.88139 24.1029 6.24627 24.1029C5.03443 24.1029 4.3381 23.8296 3.52496 23.4711V22.0919C3.52496 21.2849 4.19068 20.6265 5.00846 20.6265H17.7509C18.5677 20.6265 19.2334 21.2849 19.2334 22.0919V23.7462H19.2316Z" fill="black"/>
<path d="M19.2317 33.7518V34.6936C19.2317 35.5033 18.566 36.1608 17.7492 36.1608H5.00768C4.18897 36.1608 3.52417 35.5024 3.52417 34.6936V33.5106C4.28354 33.8325 5.04106 34.0819 6.24548 34.0819C7.0067 34.0819 7.80316 33.7756 8.64783 33.451C9.70669 33.042 10.8017 32.6184 12.0015 32.6935C13.0288 32.755 13.7112 33.0319 14.4335 33.3245C15.2383 33.65 16.0719 33.9893 17.3736 34.0049C18.0421 34.0113 18.6513 33.9058 19.2308 33.7518H19.2317Z" fill="#013534"/>
<path d="M19.2315 30.6421V33.075C18.6465 33.2437 18.0355 33.3647 17.3827 33.3528C16.2061 33.3382 15.4662 33.0383 14.6827 32.7219C13.9438 32.422 13.1798 32.1112 12.0439 32.0424C10.6986 31.9599 9.48397 32.4276 8.40935 32.8411C7.62402 33.1447 6.88134 33.4289 6.24621 33.4289C5.03344 33.4289 4.33805 33.1575 3.5249 32.7989V30.3982C4.28427 30.7228 5.04179 30.9713 6.24621 30.9713C7.00744 30.9713 7.80389 30.6641 8.64857 30.3377C9.70742 29.9287 10.8024 29.5068 12.0022 29.5802C13.0295 29.6435 13.712 29.9195 14.4342 30.212C15.239 30.5394 16.0726 30.876 17.3744 30.8943C18.041 30.9035 18.652 30.7962 19.2315 30.6403V30.6421Z" fill="#066E6B"/>
<path d="M19.2315 27.5316V29.9645C18.6456 30.1341 18.0355 30.2524 17.3827 30.2442C16.2061 30.2286 15.4662 29.9287 14.6827 29.6105C13.9438 29.3116 13.1798 29.0016 12.0439 28.9319C10.6986 28.8485 9.48397 29.3171 8.40935 29.7306C7.62402 30.0342 6.88134 30.3203 6.24621 30.3203C5.03437 30.3203 4.33805 30.0489 3.5249 29.6885V27.2895C4.28427 27.6123 5.04179 27.8618 6.24621 27.8618C7.00744 27.8618 7.80389 27.5546 8.64857 27.2281C9.70742 26.8209 10.8043 26.3973 12.0022 26.4725C13.0295 26.5339 13.712 26.8109 14.4342 27.1034C15.239 27.4289 16.0726 27.7682 17.3744 27.7838C18.041 27.7939 18.652 27.6875 19.2315 27.5298V27.5316Z" fill="#118B88"/>
<path d="M19.2315 24.422V26.8567C18.6465 27.0254 18.0382 27.1465 17.3827 27.1346C16.2061 27.1199 15.4662 26.8191 14.6827 26.5009C13.9438 26.201 13.1798 25.892 12.0439 25.8214C10.7004 25.7398 9.48397 26.2093 8.40935 26.6229C7.62402 26.9264 6.88134 27.2107 6.24621 27.2107C5.03437 27.2107 4.33805 26.9392 3.5249 26.5807V24.1818C4.28427 24.5045 5.04179 24.7531 6.24621 24.7531C7.00744 24.7531 7.80389 24.4459 8.64857 24.1194C9.70742 23.7104 10.8043 23.2877 12.0022 23.3619C13.0295 23.4252 13.712 23.7012 14.4342 23.9938C15.239 24.3211 16.0726 24.6577 17.3744 24.6742C18.0429 24.6806 18.6539 24.577 19.2315 24.4202V24.422Z" fill="#36B3AF"/>
<path d="M19.2315 22.0909V23.7452C18.6465 23.9149 18.0382 24.0332 17.3827 24.024C16.2061 24.0094 15.4662 23.7095 14.6827 23.3922C13.9438 23.0932 13.1798 22.7833 12.0439 22.7136C10.7004 22.6302 9.48397 23.0988 8.40935 23.5123C7.62402 23.8159 6.88134 24.102 6.24621 24.102C5.03437 24.102 4.33805 23.8287 3.5249 23.4701V22.0909C3.5249 21.284 4.19063 20.6255 5.00841 20.6255H17.7508C18.5677 20.6255 19.2334 21.284 19.2334 22.0909H19.2315Z" fill="#80CFD5"/>
<path d="M38.3039 38.8715C37.8885 38.8715 37.551 38.5377 37.551 38.1269C37.551 37.7161 37.8885 37.3823 38.3039 37.3823C38.7193 37.3823 39.0568 37.7161 39.0568 38.1269C39.0568 38.5377 38.7193 38.8715 38.3039 38.8715ZM38.3039 37.5336C37.9729 37.5336 37.704 37.7995 37.704 38.1269C37.704 38.4543 37.9729 38.7202 38.3039 38.7202C38.6349 38.7202 38.9038 38.4543 38.9038 38.1269C38.9038 37.7995 38.6349 37.5336 38.3039 37.5336Z" fill="black"/>
<path d="M38.2666 38.0664C38.3083 38.0664 38.3389 38.0581 38.3574 38.0425C38.376 38.0278 38.3853 38.0013 38.3853 37.9655C38.3853 37.9297 38.3751 37.905 38.3574 37.8894C38.3389 37.8747 38.3083 37.8664 38.2666 37.8664H38.1813V38.0664H38.2666ZM38.1813 38.2048V38.3992C38.1813 38.4552 38.1358 38.5001 38.0793 38.5001C38.0227 38.5001 37.9773 38.4552 37.9773 38.3992V37.8408C37.9773 37.7738 38.032 37.7206 38.0988 37.7206H38.287C38.3908 37.7206 38.4669 37.7381 38.5151 37.7729C38.5642 37.8068 38.5874 37.8609 38.5874 37.9361C38.5874 37.9875 38.5753 38.0297 38.5503 38.0627C38.5253 38.0948 38.4873 38.1205 38.4363 38.1351C38.4641 38.1416 38.4891 38.1562 38.5114 38.1782C38.5336 38.2002 38.5559 38.2333 38.5781 38.2791L38.6198 38.3616C38.6514 38.4249 38.605 38.5001 38.5336 38.5001C38.4965 38.5001 38.4631 38.479 38.4465 38.4469L38.3769 38.3066C38.3574 38.2681 38.338 38.2406 38.3185 38.2268C38.299 38.2122 38.2721 38.2048 38.2388 38.2048H38.1813Z" fill="black"/>
</svg>
