<?xml version="1.0" encoding="UTF-8" standalone="no"?>
<svg
   version="1.1"
   id="svg1"
   width="920"
   height="440"
   viewBox="280 268 920 440"
   xmlns:xlink="http://www.w3.org/1999/xlink"
   xmlns="http://www.w3.org/2000/svg">
  <defs id="defs1">
    <clipPath clipPathUnits="userSpaceOnUse" id="clipPath2">
      <path d="M 0,682.348 H 980.762 V 0 H 0 Z" transform="translate(-853.1851,-162.9746)" id="path2" />
    </clipPath>
    <clipPath clipPathUnits="userSpaceOnUse" id="clipPath4">
      <path d="M 0,682.348 H 980.762 V 0 H 0 Z" transform="translate(-843.49652,-410.49151)" id="path4" />
    </clipPath>
    <clipPath clipPathUnits="userSpaceOnUse" id="clipPath6">
      <path d="M 0,682.348 H 980.762 V 0 H 0 Z" transform="translate(-867.65282,-336.17091)" id="path6" />
    </clipPath>
    <clipPath clipPathUnits="userSpaceOnUse" id="clipPath8">
      <path d="M 0,682.348 H 980.762 V 0 H 0 Z" transform="translate(-850.60525,-407.72121)" id="path8" />
    </clipPath>
    <clipPath clipPathUnits="userSpaceOnUse" id="clipPath10">
      <path d="M 0,682.348 H 980.762 V 0 H 0 Z" transform="translate(-843.49652,-446.19951)" id="path10" />
    </clipPath>
    <clipPath clipPathUnits="userSpaceOnUse" id="clipPath12">
      <path d="M 0,682.348 H 980.762 V 0 H 0 Z" transform="translate(-476.42541,-384.61411)" id="path12" />
    </clipPath>
    <clipPath clipPathUnits="userSpaceOnUse" id="clipPath14">
      <path d="M 0,682.348 H 980.762 V 0 H 0 Z" transform="translate(-476.42541,-376.81841)" id="path14" />
    </clipPath>
    <clipPath clipPathUnits="userSpaceOnUse" id="clipPath16">
      <path d="M 0,682.348 H 980.762 V 0 H 0 Z" transform="translate(-427.16451,-410.25631)" id="path16" />
    </clipPath>
    <clipPath clipPathUnits="userSpaceOnUse" id="clipPath18">
      <path d="M 0,682.348 H 980.762 V 0 H 0 Z" transform="translate(-476.42541,-469.67251)" id="path18" />
    </clipPath>
    <clipPath clipPathUnits="userSpaceOnUse" id="clipPath20">
      <path d="M 0,682.348 H 980.762 V 0 H 0 Z" transform="translate(-280.8304,-450.59391)" id="path20" />
    </clipPath>
    <clipPath clipPathUnits="userSpaceOnUse" id="clipPath22">
      <path d="M 0,682.348 H 980.762 V 0 H 0 Z" transform="translate(-225.81241,-376.37781)" id="path22" />
    </clipPath>
    <clipPath clipPathUnits="userSpaceOnUse" id="clipPath24">
      <path d="M 0,682.348 H 980.762 V 0 H 0 Z" transform="translate(-233.92921,-330.28301)" id="path24" />
    </clipPath>
    <clipPath clipPathUnits="userSpaceOnUse" id="clipPath26">
      <path d="M 0,682.348 H 980.762 V 0 H 0 Z" transform="translate(-672.05032,-455.55581)" id="path26" />
    </clipPath>
    <clipPath clipPathUnits="userSpaceOnUse" id="clipPath28">
      <path d="M 0,682.348 H 980.762 V 0 H 0 Z" transform="translate(-672.05032,-346.44571)" id="path28" />
    </clipPath>
    <clipPath clipPathUnits="userSpaceOnUse" id="clipPath30">
      <path d="M 0,682.348 H 980.762 V 0 H 0 Z" transform="translate(-672.05032,-380.34661)" id="path30" />
    </clipPath>
    <clipPath clipPathUnits="userSpaceOnUse" id="clipPath32">
      <path d="M 0,682.348 H 980.762 V 0 H 0 Z" transform="translate(-672.05032,-414.26991)" id="path32" />
    </clipPath>
    <clipPath clipPathUnits="userSpaceOnUse" id="clipPath34">
      <path d="M 0,682.348 H 980.762 V 0 H 0 Z" transform="translate(-672.05032,-448.18581)" id="path34" />
    </clipPath>
    <clipPath clipPathUnits="userSpaceOnUse" id="clipPath36">
      <path d="M 0,682.348 H 980.762 V 0 H 0 Z" transform="translate(-672.05032,-473.59651)" id="path36" />
    </clipPath>
    <clipPath clipPathUnits="userSpaceOnUse" id="clipPath38">
      <path d="M 0,682.348 H 980.762 V 0 H 0 Z" transform="translate(-236.48761,-229.4579)" id="path38" />
    </clipPath>
    <clipPath clipPathUnits="userSpaceOnUse" id="clipPath40">
      <path d="M 0,682.348 H 980.762 V 0 H 0 Z" transform="translate(-293.9377,-220.28551)" id="path40" />
    </clipPath>
    <clipPath clipPathUnits="userSpaceOnUse" id="clipPath42">
      <path d="M 0,682.348 H 980.762 V 0 H 0 Z" transform="translate(-352.25821,-271.7948)" id="path42" />
    </clipPath>
    <clipPath clipPathUnits="userSpaceOnUse" id="clipPath44">
      <path d="M 0,682.348 H 980.762 V 0 H 0 Z" transform="translate(-395.12831,-261.0011)" id="path44" />
    </clipPath>
    <clipPath clipPathUnits="userSpaceOnUse" id="clipPath46">
      <path d="M 0,682.348 H 980.762 V 0 H 0 Z" transform="translate(-443.84121,-271.69691)" id="path46" />
    </clipPath>
    <clipPath clipPathUnits="userSpaceOnUse" id="clipPath48">
      <path d="M 0,682.348 H 980.762 V 0 H 0 Z" transform="translate(-493.84891,-271.7948)" id="path48" />
    </clipPath>
    <clipPath clipPathUnits="userSpaceOnUse" id="clipPath50">
      <path d="M 0,682.348 H 980.762 V 0 H 0 Z" transform="translate(-533.69401,-220.0679)" id="path50" />
    </clipPath>
    <clipPath clipPathUnits="userSpaceOnUse" id="clipPath52">
      <path d="M 0,682.348 H 980.762 V 0 H 0 Z" transform="translate(-589.53382,-271.7948)" id="path52" />
    </clipPath>
    <clipPath clipPathUnits="userSpaceOnUse" id="clipPath54">
      <path d="M 0,682.348 H 980.762 V 0 H 0 Z" transform="translate(-624.41741,-240.26251)" id="path54" />
    </clipPath>
    <clipPath clipPathUnits="userSpaceOnUse" id="clipPath56">
      <path d="M 0,682.348 H 980.762 V 0 H 0 Z" transform="translate(-664.05581,-271.69691)" id="path56" />
    </clipPath>
    <clipPath clipPathUnits="userSpaceOnUse" id="clipPath58">
      <path d="M 0,682.348 H 980.762 V 0 H 0 Z" transform="translate(-709.84182,-245.23501)" id="path58" />
    </clipPath>
    <clipPath clipPathUnits="userSpaceOnUse" id="clipPath60">
      <path d="M 0,682.348 H 980.762 V 0 H 0 Z" transform="translate(-755.20352,-271.7948)" id="path60" />
    </clipPath>
    <clipPath clipPathUnits="userSpaceOnUse" id="clipPath62">
      <path d="M 0,682.348 H 980.762 V 0 H 0 Z" transform="translate(-773.76152,-292.33921)" id="path62" />
    </clipPath>
    <clipPath clipPathUnits="userSpaceOnUse" id="clipPath64">
      <path d="M 0,682.348 H 980.762 V 0 H 0 Z" transform="translate(-771.78962,-281.44751)" id="path64" />
    </clipPath>
  </defs>
  <g id="layer-MC0">
    <path id="path3" d="m 0,0 c 0,-1.21 -0.455,-2.367 -1.254,-3.248 l -55.765,-60.507 c -1.897,-2.06 -5.145,-2.06 -7.049,0 l -55.757,60.507 c -0.822,0.881 -1.262,2.038 -1.262,3.248 v 35.708 c 0,1.277 0.5,2.487 1.403,3.39 l 10.439,10.447 c 0.904,0.888 2.114,1.403 3.391,1.403 h 28.435 c 1.261,0 2.486,-0.515 3.375,-1.403 l 10.118,-10.103 c 1.866,-1.89 4.898,-1.89 6.765,0 l 10.103,10.103 c 0.911,0.888 2.113,1.403 3.398,1.403 h 28.427 c 1.277,0 2.487,-0.515 3.39,-1.403 L -1.396,39.098 C -0.515,38.195 0,36.985 0,35.708 Z M 5.705,42.033 -8.908,56.646 c -0.889,0.888 -2.113,1.404 -3.375,1.404 H -46.61 c -1.262,0 -2.487,-0.516 -3.375,-1.404 l -7.176,-7.176 c -1.867,-1.867 -4.899,-1.867 -6.765,0 l -7.176,7.176 c -0.889,0.888 -2.113,1.404 -3.368,1.404 h -34.326 c -1.285,0 -2.487,-0.516 -3.398,-1.404 l -14.591,-14.613 c -0.911,-0.889 -1.404,-2.114 -1.404,-3.375 V -2.77 c 0,-1.21 0.441,-2.367 1.262,-3.249 l 62.859,-68.227 c 1.904,-2.046 5.152,-2.046 7.049,0 L 5.847,-6.019 c 0.799,0.882 1.262,2.039 1.262,3.249 v 41.428 c 0,1.261 -0.515,2.486 -1.404,3.375" style="fill:#000000;fill-opacity:1;fill-rule:nonzero;stroke:none" transform="matrix(1.3333333,0,0,-1.3333333,1124.662,362.47533)" clip-path="url(#clipPath4)" />
    <path id="path5" d="m 0,0 c 0,-8.826 -7.176,-15.995 -15.987,-15.995 h -137.426 c -8.826,0 -15.98,7.169 -15.98,15.995 v 137.433 c 0,8.804 7.154,15.98 15.98,15.98 H -15.987 C -7.176,153.413 0,146.237 0,137.433 Z m -15.987,160.514 h -137.426 c -12.746,0 -23.088,-10.335 -23.088,-23.081 V 0 c 0,-12.769 10.342,-23.103 23.088,-23.103 h 137.426 c 12.754,0 23.088,10.334 23.088,23.103 v 137.433 c 0,12.746 -10.334,23.081 -23.088,23.081" style="fill:#000000;fill-opacity:1;fill-rule:nonzero;stroke:none" transform="matrix(1.3333333,0,0,-1.3333333,1156.8704,461.56947)" clip-path="url(#clipPath6)" />
    <path id="path7" d="m 0,0 c 0,-1.21 -0.463,-2.367 -1.262,-3.248 l -62.866,-68.228 c -1.897,-2.046 -7.049,0 -7.049,0 l -62.858,68.228 c -0.822,0.881 -1.262,2.038 -1.262,3.248 v 41.428 c 0,1.262 0.492,2.486 1.403,3.375 l 14.591,14.613 c 0.911,0.889 2.113,1.404 3.398,1.404 h 34.326 c 1.255,0 2.479,-0.515 3.368,-1.404 l 7.176,-7.176 c 1.867,-1.867 4.898,-1.867 6.765,0 l 7.176,7.176 c 0.889,0.889 2.113,1.404 3.375,1.404 h 34.327 c 1.262,0 2.486,-0.515 3.375,-1.404 L -1.404,44.803 C -0.515,43.914 0,42.69 0,41.428 Z m 1.06,81.862 h -137.425 c -8.826,0 -15.98,-7.176 -15.98,-15.979 V -71.55 c 0,-8.826 7.154,-15.995 15.98,-15.995 H 1.06 c 8.812,0 15.988,7.169 15.988,15.995 V 65.883 c 0,8.803 -7.176,15.979 -15.988,15.979" style="fill:#fcc436;fill-opacity:1;fill-rule:nonzero;stroke:none" transform="matrix(1.3333333,0,0,-1.3333333,1134.1403,366.16907)" clip-path="url(#clipPath8)" />
    <path id="path9" d="m 0,0 v -35.708 c 0,-1.21 -0.455,-2.367 -1.254,-3.248 l -55.765,-60.507 c -1.897,-2.06 -5.145,-2.06 -7.049,0 l -55.757,60.507 c -0.822,0.881 -1.262,2.038 -1.262,3.248 V 0 c 0,1.277 0.5,2.487 1.403,3.39 l 10.439,10.447 c 0.904,0.888 2.114,1.404 3.391,1.404 h 28.435 c 1.261,0 2.486,-0.516 3.375,-1.404 L -63.926,3.734 c 1.866,-1.89 4.898,-1.89 6.765,0 l 10.103,10.103 c 0.911,0.888 2.113,1.404 3.398,1.404 h 28.427 c 1.277,0 2.487,-0.516 3.39,-1.404 L -1.396,3.39 C -0.515,2.487 0,1.277 0,0" style="fill:#f26f4f;fill-opacity:1;fill-rule:nonzero;stroke:none" transform="matrix(1.3333333,0,0,-1.3333333,1124.662,314.86467)" clip-path="url(#clipPath10)" />
    <path id="path11" d="M 0,0 C -15.143,7.139 -26.471,19.549 -36.791,30.824 -49.261,44.43 -59.999,56.183 -74.56,56.489 -84.827,56.721 -95.677,50.859 -107.803,38.658 -123.91,22.446 -147.282,9.625 -169.392,0.814 v 84.244 c 0,10.977 8.938,19.908 19.907,19.908 H -19.907 C -8.931,104.966 0,96.035 0,85.058 Z m 0,-44.542 c 0,-10.969 -8.931,-19.9 -19.907,-19.9 h -129.578 c -10.103,0 -18.481,7.58 -19.728,17.347 28.36,16.569 64.867,30.899 85.2,38.874 8.527,3.337 14.673,5.749 17.936,7.332 15.487,7.55 23.552,16.376 23.925,26.262 0.015,0.269 0.015,0.516 0.015,0.784 0.037,-0.037 0.074,-0.089 0.104,-0.126 C -30.541,13.456 -17.847,-0.426 0,-7.796 Z M -169.392,-6.84 c 20.303,7.796 47.132,20.848 66.629,40.487 10.693,10.76 19.855,15.965 28.062,15.733 3.285,-0.052 6.444,-0.993 9.535,-2.553 0.015,0 0.09,-0.053 0.209,-0.127 0.052,-0.038 0.127,-0.068 0.217,-0.12 2.539,-1.62 15.89,-10.566 15.479,-20.938 C -49.597,16.831 -60.282,9.834 -69.183,5.503 -72.185,4.047 -78.54,1.561 -86.604,-1.598 -107.773,-9.909 -141.6,-23.193 -169.392,-39.016 Z m 149.485,118.907 h -129.578 c -14.912,0 -27.009,-12.089 -27.009,-27.009 v -129.6 c 0,-2.232 0.269,-4.398 0.784,-6.481 2.913,-11.791 13.546,-20.527 26.225,-20.527 h 129.578 c 14.919,0 27.016,12.097 27.016,27.008 v 129.6 c 0,14.92 -12.097,27.009 -27.016,27.009" style="fill:#000000;fill-opacity:1;fill-rule:nonzero;stroke:none" transform="matrix(1.3333333,0,0,-1.3333333,635.23387,396.97853)" clip-path="url(#clipPath12)" />
    <path id="path13" d="m 0,0 v -36.746 c 0,-10.969 -8.931,-19.9 -19.907,-19.9 h -129.578 c -10.103,0 -18.481,7.579 -19.728,17.346 28.36,16.57 64.867,30.899 85.2,38.874 8.527,3.338 14.673,5.75 17.936,7.333 15.487,7.549 23.552,16.376 23.925,26.262 0.015,0.269 0.015,0.515 0.015,0.784 0.037,-0.037 0.074,-0.089 0.104,-0.127 C -30.541,21.252 -17.847,7.37 0,0" style="fill:#fcc436;fill-opacity:1;fill-rule:nonzero;stroke:none" transform="matrix(1.3333333,0,0,-1.3333333,635.23387,407.3728)" clip-path="url(#clipPath14)" />
    <path id="path15" d="m 0,0 c -0.336,-8.811 -11.021,-15.808 -19.922,-20.139 -3.002,-1.456 -9.357,-3.943 -17.421,-7.101 -21.17,-8.311 -54.996,-21.595 -82.789,-37.418 v 32.176 c 20.304,7.796 47.133,20.848 66.63,40.487 10.693,10.76 19.855,15.965 28.061,15.733 3.286,-0.052 6.445,-0.993 9.536,-2.554 0.015,0 0.09,-0.052 0.209,-0.127 0.052,-0.037 0.127,-0.067 0.217,-0.119 C -12.941,19.318 0.411,10.372 0,0" style="fill:#f26f4f;fill-opacity:1;fill-rule:nonzero;stroke:none" transform="matrix(1.3333333,0,0,-1.3333333,569.55267,362.78893)" clip-path="url(#clipPath16)" />
    <path id="path17" d="m 0,0 v -85.058 c -15.143,7.138 -26.471,19.549 -36.791,30.824 -12.47,13.605 -23.208,25.358 -37.769,25.665 -10.267,0.231 -21.117,-5.631 -33.243,-17.832 -16.107,-16.211 -39.479,-29.032 -61.589,-37.843 V 0 c 0,10.977 8.938,19.907 19.907,19.907 H -19.907 C -8.931,19.907 0,10.977 0,0" style="fill:#80cfd5;fill-opacity:1;fill-rule:nonzero;stroke:none" transform="matrix(1.3333333,0,0,-1.3333333,635.23387,283.56733)" clip-path="url(#clipPath18)" />
    <path id="path19" d="m 0,0 -55.018,-74.216 c -0.978,-1.307 -0.687,-3.174 0.642,-4.137 0.299,-0.231 0.62,-0.455 0.926,-0.687 1.307,-1 3.174,-0.709 4.152,0.605 L 0,-11.918 v -43.563 l -42.197,-30.167 c -1.329,-0.941 -1.65,-2.808 -0.687,-4.122 0.224,-0.321 0.456,-0.635 0.672,-0.956 0.941,-1.352 2.808,-1.65 4.137,-0.694 L 0,-64.195 v -25.68 l -33.565,-10.581 c -1.56,-0.5 -2.449,-2.173 -1.934,-3.711 0.12,-0.373 0.232,-0.747 0.351,-1.12 0.485,-1.561 2.151,-2.434 3.711,-1.934 L 0,-97.312 v -17.122 c 0,-1.068 -0.112,-2.098 -0.306,-3.106 l -29.615,0.268 c -1.673,0.015 -3.002,-1.351 -3.002,-3.024 v -1.045 c -0.037,-1.651 1.255,-3.017 2.927,-3.039 l 26.315,-0.232 c -2.927,-3.547 -7.348,-5.802 -12.306,-5.802 H -40.95 c 0.762,3.248 1.15,6.623 1.15,10.103 0,24.754 -20.139,44.908 -44.907,44.908 -24.754,0 -44.908,-20.154 -44.908,-44.908 0,-3.48 0.388,-6.855 1.172,-10.103 h -24.97 c -5.63,0 -10.566,2.912 -13.426,7.296 l 27.367,-0.247 c 1.666,-0.022 2.98,1.352 2.98,3.017 v 0.037 c 0,0.336 0,0.672 0.022,1.008 0.038,1.658 -1.277,3.024 -2.934,3.039 l -29.921,0.269 c -0.067,0.515 -0.09,1.031 -0.09,1.561 v 18.72 l 31.668,-10.603 c 1.561,-0.516 3.249,0.321 3.741,1.881 0.127,0.374 0.254,0.747 0.374,1.098 0.552,1.546 -0.299,3.233 -1.86,3.771 l -33.923,11.343 v 26.209 l 38.605,-28.606 c 1.315,-0.979 3.181,-0.71 4.145,0.619 0.224,0.321 0.455,0.628 0.687,0.941 0.993,1.3 0.709,3.166 -0.605,4.137 l -42.832,31.735 v 45.371 l 50.045,-69.997 c 0.941,-1.337 2.808,-1.65 4.122,-0.695 0.314,0.232 0.635,0.463 0.956,0.672 1.351,0.941 1.65,2.808 0.694,4.137 l -55.817,78.084 v 18.608 c 0,8.812 7.176,15.988 16.002,15.988 h 14.74 l 34.11,-108.162 c 0.501,-1.568 2.166,-2.457 3.712,-1.942 0.373,0.127 0.746,0.254 1.12,0.359 1.56,0.478 2.434,2.15 1.934,3.711 l -33.416,106.034 h 44.392 l -0.94,-104.526 c 0,-1.672 1.366,-2.987 3.039,-2.987 h 0.015 c 0.336,0 0.694,-0.014 1.03,-0.014 1.65,-0.038 3.017,1.276 3.017,2.934 l 0.941,104.593 h 44.571 L -70.699,-67.272 c -0.515,-1.56 0.321,-3.248 1.882,-3.741 0.373,-0.127 0.731,-0.254 1.105,-0.373 1.546,-0.553 3.233,0.299 3.748,1.859 l 36.313,108.506 h 11.664 C -7.176,38.979 0,31.803 0,22.991 Z m -48.283,-130.414 h -72.849 c -0.904,3.211 -1.382,6.601 -1.382,10.103 0,20.826 16.958,37.806 37.807,37.806 20.848,0 37.806,-16.98 37.806,-37.806 0,-3.502 -0.478,-6.892 -1.382,-10.103 M -15.987,46.08 h -137.426 c -12.769,0 -23.103,-10.335 -23.103,-23.089 v -8.662 l 0.015,-0.037 v -124.798 c 0,-1.867 0.201,-3.697 0.552,-5.437 l -0.515,0.015 c 0.164,-2.501 0.71,-4.898 1.621,-7.116 3.405,-8.49 11.715,-14.479 21.43,-14.479 h 137.426 c 9.08,0 16.928,5.242 20.691,12.844 1.083,2.18 1.83,4.577 2.166,7.086 0.157,1.031 0.231,2.091 0.231,3.159 V 22.991 c 0,12.754 -10.334,23.089 -23.088,23.089" style="fill:#000000;fill-opacity:1;fill-rule:nonzero;stroke:none" transform="matrix(1.3333333,0,0,-1.3333333,374.44053,309.00547)" clip-path="url(#clipPath20)" />
    <path id="path21" d="m 0,0 c -0.978,-1.307 -0.687,-3.174 0.642,-4.137 0.299,-0.231 0.62,-0.455 0.926,-0.687 1.307,-1 3.174,-0.709 4.152,0.605 L 55.018,62.298 V 18.735 L 12.821,-11.432 c -1.329,-0.941 -1.65,-2.808 -0.687,-4.122 0.224,-0.321 0.456,-0.635 0.672,-0.956 0.941,-1.351 2.808,-1.65 4.137,-0.694 l 38.075,27.225 v -25.68 L 21.453,-26.24 c -1.56,-0.5 -2.449,-2.173 -1.934,-3.711 0.12,-0.373 0.232,-0.747 0.351,-1.12 0.485,-1.561 2.151,-2.434 3.711,-1.934 l 31.437,9.909 v -17.122 c 0,-1.068 -0.112,-2.098 -0.306,-3.106 l -29.615,0.268 c -1.673,0.015 -3.002,-1.351 -3.002,-3.024 v -1.045 c -0.037,-1.65 1.255,-3.017 2.927,-3.039 l 26.315,-0.232 c -2.927,-3.547 -7.348,-5.802 -12.306,-5.802 H 14.068 c 0.762,3.248 1.15,6.624 1.15,10.103 0,24.754 -20.139,44.908 -44.907,44.908 -24.754,0 -44.908,-20.154 -44.908,-44.908 0,-3.479 0.388,-6.855 1.172,-10.103 h -24.97 c -5.63,0 -10.566,2.912 -13.426,7.296 l 27.367,-0.247 c 1.666,-0.022 2.98,1.352 2.98,3.017 v 0.037 c 0,0.336 0,0.672 0.022,1.008 0.038,1.658 -1.277,3.024 -2.934,3.039 l -29.921,0.269 c -0.067,0.515 -0.09,1.031 -0.09,1.561 v 18.72 l 31.668,-10.603 c 1.561,-0.516 3.249,0.321 3.741,1.881 0.127,0.374 0.254,0.747 0.374,1.098 0.552,1.546 -0.299,3.233 -1.86,3.771 l -33.923,11.343 v 26.209 l 38.605,-28.606 c 1.315,-0.979 3.181,-0.71 4.145,0.619 0.224,0.321 0.455,0.628 0.687,0.941 0.993,1.3 0.709,3.166 -0.605,4.137 l -42.832,31.735 v 45.371 l 50.045,-69.997 c 0.941,-1.337 2.808,-1.65 4.122,-0.695 0.314,0.232 0.635,0.463 0.956,0.672 1.351,0.941 1.65,2.808 0.694,4.137 l -55.817,78.084 v 18.608 c 0,8.812 7.176,15.988 16.002,15.988 h 14.74 L -49.545,5.033 c 0.501,-1.568 2.166,-2.457 3.712,-1.942 0.373,0.127 0.746,0.254 1.12,0.359 1.56,0.478 2.434,2.15 1.934,3.711 l -33.416,106.034 h 44.392 L -32.743,8.669 c 0,-1.672 1.366,-2.987 3.039,-2.987 h 0.015 c 0.336,0 0.694,-0.014 1.03,-0.014 1.65,-0.038 3.017,1.276 3.017,2.934 l 0.941,104.593 H 19.87 L -15.681,6.944 c -0.515,-1.56 0.321,-3.248 1.882,-3.741 0.373,-0.127 0.731,-0.254 1.105,-0.373 1.546,-0.553 3.233,0.299 3.748,1.859 l 36.313,108.506 h 11.664 c 8.811,0 15.987,-7.176 15.987,-15.988 V 74.216 Z" style="fill:#f26f4f;fill-opacity:1;fill-rule:nonzero;stroke:none" transform="matrix(1.3333333,0,0,-1.3333333,301.0832,407.96027)" clip-path="url(#clipPath22)" />
    <path id="path23" d="m 0,0 c 0,-3.502 -0.478,-6.892 -1.381,-10.103 h -72.85 c -0.904,3.211 -1.381,6.601 -1.381,10.103 0,20.826 16.957,37.806 37.806,37.806 C -16.958,37.806 0,20.826 0,0" style="fill:#fcc436;fill-opacity:1;fill-rule:nonzero;stroke:none" transform="matrix(1.3333333,0,0,-1.3333333,311.9056,469.42)" clip-path="url(#clipPath24)" />
    <path id="path25" d="m 0,0 c -6.31,-1.852 -12.873,-3.144 -19.945,-3.039 -12.694,0.157 -20.669,3.427 -29.122,6.892 -7.975,3.263 -16.211,6.638 -28.464,7.4 -14.494,0.911 -27.614,-4.204 -39.196,-8.714 -8.467,-3.308 -16.48,-6.429 -23.334,-6.429 -13.068,0 -20.58,2.979 -29.354,6.892 v 15.039 c 0,8.803 7.176,15.979 16.002,15.979 H -15.987 C -7.176,34.02 0,26.844 0,18.041 Z m 0,-33.923 c -6.31,-1.845 -12.873,-3.159 -19.945,-3.032 -12.694,0.157 -20.669,3.442 -29.122,6.907 -7.975,3.271 -16.211,6.638 -28.464,7.408 -14.494,0.888 -27.614,-4.227 -39.196,-8.737 -8.467,-3.308 -16.48,-6.414 -23.334,-6.414 -13.068,0 -20.58,2.964 -29.354,6.869 v 26.158 c 8.192,-3.517 16.361,-6.228 29.354,-6.228 8.206,0 16.801,3.353 25.911,6.907 11.417,4.458 23.245,9.073 36.171,8.259 11.081,-0.694 18.436,-3.696 26.232,-6.892 8.684,-3.569 17.667,-7.243 31.713,-7.422 7.213,-0.075 13.799,1.06 20.034,2.77 z m 0,-33.894 c -6.325,-1.852 -12.896,-3.143 -19.945,-3.054 -12.694,0.172 -20.669,3.443 -29.122,6.907 -7.975,3.263 -16.211,6.639 -28.464,7.4 -14.509,0.911 -27.614,-4.204 -39.196,-8.714 -8.467,-3.308 -16.48,-6.429 -23.334,-6.429 -13.068,0 -20.58,2.964 -29.354,6.892 v 26.157 c 8.192,-3.517 16.361,-6.235 29.354,-6.235 8.206,0 16.801,3.353 25.911,6.908 11.417,4.435 23.245,9.057 36.171,8.236 11.081,-0.672 18.436,-3.689 26.232,-6.885 8.684,-3.554 17.667,-7.251 31.713,-7.422 7.19,-0.112 13.784,1.045 20.034,2.77 z m 0,-33.923 c -6.31,-1.844 -12.896,-3.159 -19.945,-3.032 -12.694,0.157 -20.669,3.428 -29.122,6.885 -7.975,3.271 -16.211,6.661 -28.464,7.407 -14.509,0.904 -27.614,-4.204 -39.196,-8.714 -8.467,-3.308 -16.48,-6.414 -23.334,-6.414 -13.083,0 -20.58,2.964 -29.354,6.87 v 26.18 c 8.192,-3.54 16.361,-6.25 29.354,-6.25 8.206,0 16.801,3.352 25.911,6.907 11.417,4.458 23.23,9.057 36.171,8.258 11.081,-0.694 18.436,-3.696 26.232,-6.892 8.684,-3.569 17.667,-7.243 31.713,-7.445 7.19,-0.104 13.784,1.068 20.034,2.771 z m 0,-17.645 c 0,-8.826 -7.176,-16.002 -15.987,-16.002 h -137.426 c -8.826,0 -16.002,7.176 -16.002,16.002 v 12.903 c 8.192,-3.509 16.361,-6.227 29.354,-6.227 8.206,0 16.801,3.338 25.911,6.884 11.417,4.458 23.23,9.08 36.171,8.259 11.081,-0.672 18.436,-3.689 26.232,-6.885 8.684,-3.554 17.667,-7.25 31.713,-7.422 7.213,-0.075 13.784,1.083 20.034,2.763 z M -15.987,41.122 h -137.426 c -12.769,0 -23.103,-10.335 -23.103,-23.081 v -137.426 c 0,-12.769 10.334,-23.103 23.103,-23.103 h 137.426 c 12.754,0 23.088,10.334 23.088,23.103 V 18.041 c 0,12.746 -10.334,23.081 -23.088,23.081" style="fill:#000000;fill-opacity:1;fill-rule:nonzero;stroke:none" transform="matrix(1.3333333,0,0,-1.3333333,896.06707,302.3896)" clip-path="url(#clipPath26)" />
    <path id="path27" d="m 0,0 v -10.275 c 0,-8.826 -7.176,-16.002 -15.987,-16.002 h -137.426 c -8.826,0 -16.002,7.176 -16.002,16.002 V 2.628 c 8.192,-3.509 16.361,-6.227 29.354,-6.227 8.206,0 16.801,3.338 25.911,6.885 11.417,4.457 23.23,9.08 36.171,8.258 11.081,-0.672 18.436,-3.689 26.232,-6.885 8.684,-3.554 17.667,-7.25 31.713,-7.422 C -12.821,-2.838 -6.25,-1.68 0,0" style="fill:#013534;fill-opacity:1;fill-rule:nonzero;stroke:none" transform="matrix(1.3333333,0,0,-1.3333333,896.06707,447.86973)" clip-path="url(#clipPath28)" />
    <path id="path29" d="m 0,0 v -26.531 c -6.31,-1.844 -12.896,-3.158 -19.945,-3.031 -12.694,0.156 -20.669,3.427 -29.122,6.884 -7.975,3.271 -16.211,6.661 -28.464,7.408 -14.509,0.903 -27.614,-4.204 -39.196,-8.714 -8.467,-3.308 -16.48,-6.415 -23.334,-6.415 -13.083,0 -20.58,2.965 -29.354,6.87 v 26.18 c 8.192,-3.54 16.361,-6.25 29.354,-6.25 8.206,0 16.801,3.353 25.911,6.907 11.417,4.458 23.23,9.058 36.171,8.259 11.081,-0.695 18.436,-3.697 26.232,-6.893 8.684,-3.569 17.667,-7.243 31.713,-7.444 C -12.844,-2.875 -6.25,-1.702 0,0" style="fill:#066e6b;fill-opacity:1;fill-rule:nonzero;stroke:none" transform="matrix(1.3333333,0,0,-1.3333333,896.06707,402.66853)" clip-path="url(#clipPath30)" />
    <path id="path31" d="m 0,0 v -26.531 c -6.325,-1.852 -12.896,-3.143 -19.945,-3.054 -12.694,0.172 -20.669,3.442 -29.122,6.907 -7.975,3.263 -16.211,6.639 -28.464,7.4 -14.509,0.911 -27.614,-4.204 -39.196,-8.714 -8.467,-3.308 -16.48,-6.429 -23.334,-6.429 -13.068,0 -20.58,2.964 -29.354,6.892 V 2.628 c 8.192,-3.517 16.361,-6.235 29.354,-6.235 8.206,0 16.801,3.353 25.911,6.908 11.417,4.435 23.245,9.057 36.171,8.236 11.081,-0.672 18.436,-3.689 26.232,-6.885 8.684,-3.554 17.667,-7.251 31.713,-7.422 C -12.844,-2.882 -6.25,-1.725 0,0" style="fill:#118b88;fill-opacity:1;fill-rule:nonzero;stroke:none" transform="matrix(1.3333333,0,0,-1.3333333,896.06707,357.43747)" clip-path="url(#clipPath32)" />
    <path id="path33" d="m 0,0 v -26.553 c -6.31,-1.845 -12.873,-3.159 -19.945,-3.032 -12.694,0.157 -20.669,3.442 -29.122,6.907 -7.975,3.271 -16.211,6.639 -28.464,7.408 -14.494,0.888 -27.614,-4.227 -39.196,-8.737 -8.467,-3.308 -16.48,-6.414 -23.334,-6.414 -13.068,0 -20.58,2.964 -29.354,6.87 V 2.606 c 8.192,-3.517 16.361,-6.228 29.354,-6.228 8.206,0 16.801,3.353 25.911,6.908 11.417,4.457 23.245,9.072 36.171,8.258 11.081,-0.694 18.436,-3.696 26.232,-6.892 8.684,-3.569 17.667,-7.243 31.713,-7.422 C -12.821,-2.845 -6.235,-1.71 0,0" style="fill:#36b3af;fill-opacity:1;fill-rule:nonzero;stroke:none" transform="matrix(1.3333333,0,0,-1.3333333,896.06707,312.21627)" clip-path="url(#clipPath34)" />
    <path id="path35" d="m 0,0 v -18.041 c -6.31,-1.852 -12.873,-3.143 -19.945,-3.039 -12.694,0.157 -20.669,3.428 -29.122,6.892 -7.975,3.264 -16.211,6.639 -28.464,7.4 -14.494,0.911 -27.614,-4.204 -39.196,-8.714 -8.467,-3.308 -16.48,-6.429 -23.334,-6.429 -13.068,0 -20.58,2.979 -29.354,6.892 V 0 c 0,8.804 7.176,15.98 16.002,15.98 H -15.987 C -7.176,15.98 0,8.804 0,0" style="fill:#80cfd5;fill-opacity:1;fill-rule:nonzero;stroke:none" transform="matrix(1.3333333,0,0,-1.3333333,896.06707,278.33533)" clip-path="url(#clipPath36)" />
    <path id="path37" d="M 0,0 3.025,17.289 C 5.07,8.106 4.853,5.19 6.039,0 Z M 22.893,-25.809 7.986,39.214 C 7.66,40.824 5.832,42.239 4.211,42.239 H 1.828 c -1.61,0 -3.34,-1.415 -3.776,-3.025 l -9.825,-42.228 -5.19,-22.904 c -0.533,-2.481 1.197,-4.646 3.786,-4.646 h 3.134 c 1.621,0 3.34,1.404 3.776,3.025 l 3.775,16.854 H 8.53 l 3.667,-16.854 c 0.435,-1.621 2.165,-3.025 3.787,-3.025 h 3.133 c 2.59,0 4.32,2.274 3.776,4.755" style="fill:#000000;fill-opacity:1;fill-rule:nonzero;stroke:none" transform="matrix(1.3333333,0,0,-1.3333333,315.3168,603.85347)" clip-path="url(#clipPath38)" />
    <path id="path39" d="m 0,0 c 0,-7.236 -2.372,-10.696 -8.095,-10.696 h -4.211 v 51.412 h 4.211 C -2.372,40.716 0,37.256 0,30.02 Z m -8.095,51.411 h -11.022 c -2.155,0 -3.885,-1.73 -3.885,-3.895 v -65.012 c 0,-2.165 1.73,-3.895 3.885,-3.895 h 11.022 c 12.959,0 19.008,7.344 19.008,21.391 v 30.02 c 0,14.047 -6.049,21.391 -19.008,21.391" style="fill:#000000;fill-opacity:1;fill-rule:nonzero;stroke:none" transform="matrix(1.3333333,0,0,-1.3333333,391.91693,616.08333)" clip-path="url(#clipPath40)" />
    <path id="path41" d="m 0,0 h -3.134 c -1.621,0 -3.449,-1.404 -3.775,-3.014 l -9.619,-41.151 -9.607,41.151 C -26.571,-1.404 -28.29,0 -29.922,0 h -3.014 c -2.709,0 -4.428,-2.263 -3.786,-4.744 l 15.341,-65.023 c 0.316,-1.73 2.046,-3.025 3.776,-3.025 h 2.274 c 1.621,0 3.341,1.295 3.776,3.025 L 3.776,-4.744 C 4.32,-2.263 2.59,0 0,0" style="fill:#000000;fill-opacity:1;fill-rule:nonzero;stroke:none" transform="matrix(1.3333333,0,0,-1.3333333,469.6776,547.40427)" clip-path="url(#clipPath42)" />
    <path id="path43" d="M 0,0 C 2.165,0 3.895,1.73 3.895,3.884 V 6.8 c 0,2.166 -1.73,3.896 -3.895,3.896 h -23.317 c -2.166,0 -3.896,-1.73 -3.896,-3.896 v -65.012 c 0,-2.165 1.73,-3.895 3.896,-3.895 H 0 c 2.165,0 3.895,1.73 3.895,3.895 v 2.916 c 0,2.155 -1.73,3.885 -3.895,3.885 h -16.517 v 20.412 h 13.612 c 2.154,0 3.884,1.73 3.884,3.884 v 2.916 c 0,2.166 -1.73,3.896 -3.884,3.896 H -16.517 V 0 Z" style="fill:#000000;fill-opacity:1;fill-rule:nonzero;stroke:none" transform="matrix(1.3333333,0,0,-1.3333333,526.83773,561.79587)" clip-path="url(#clipPath44)" />
    <path id="path45" d="M 0,0 H -3.025 C -5.179,0 -6.909,-1.73 -6.909,-3.895 V -39.53 L -21.925,-2.383 C -22.349,-1.197 -24.079,0 -25.483,0 h -2.6 c -2.046,0 -3.885,-1.73 -3.885,-3.895 v -65.013 c 0,-2.165 1.839,-3.895 3.885,-3.895 h 3.133 c 2.057,0 3.896,1.73 3.896,3.895 v 35.635 L -6.05,-70.42 c 0.435,-1.186 2.274,-2.383 3.569,-2.383 H 0 c 2.165,0 3.895,1.73 3.895,3.895 V -3.895 C 3.895,-1.73 2.165,0 0,0" style="fill:#000000;fill-opacity:1;fill-rule:nonzero;stroke:none" transform="matrix(1.3333333,0,0,-1.3333333,591.78827,547.5348)" clip-path="url(#clipPath46)" />
    <path id="path47" d="m 0,0 h -28.301 c -2.154,0 -3.884,-1.719 -3.884,-3.884 v -3.025 c 0,-2.155 1.73,-3.885 3.884,-3.885 h 8.748 v -58.103 c 0,-2.165 1.73,-3.895 3.896,-3.895 h 2.916 c 2.154,0 3.884,1.73 3.884,3.895 v 58.103 H 0 c 2.154,0 3.884,1.73 3.884,3.885 v 3.025 C 3.884,-1.719 2.154,0 0,0" style="fill:#000000;fill-opacity:1;fill-rule:nonzero;stroke:none" transform="matrix(1.3333333,0,0,-1.3333333,658.4652,547.40427)" clip-path="url(#clipPath48)" />
    <path id="path49" d="m 0,0 c 0,-7.344 -2.372,-10.478 -6.909,-10.478 -4.646,0 -6.909,3.351 -6.909,10.478 v 30.564 c 0,7.018 2.154,10.369 6.909,10.369 C -2.263,40.933 0,37.8 0,30.564 Z m -6.909,51.629 c -11.773,0 -17.714,-7.453 -17.714,-21.065 V 0 c 0,-8.53 2.383,-13.503 5.723,-16.854 3.569,-3.449 8.106,-4.32 11.991,-4.32 3.993,0 8.53,0.871 12.099,4.32 3.341,3.351 5.615,8.324 5.615,16.854 v 30.564 c 0,13.721 -5.833,21.065 -17.714,21.065" style="fill:#000000;fill-opacity:1;fill-rule:nonzero;stroke:none" transform="matrix(1.3333333,0,0,-1.3333333,711.592,616.37347)" clip-path="url(#clipPath50)" />
    <path id="path51" d="M 0,0 H -3.025 C -5.07,0 -6.8,-1.719 -6.8,-3.884 v -49.138 c 0,-5.19 -1.513,-9.074 -7.029,-9.074 -5.288,0 -7.018,3.351 -7.018,9.074 v 49.138 c 0,2.165 -1.73,3.884 -3.885,3.884 h -3.025 c -2.056,0 -3.775,-1.719 -3.775,-3.884 v -49.138 c 0,-11.446 4.744,-19.77 17.703,-19.77 12.534,0 17.713,7.671 17.713,19.77 V -3.884 C 3.884,-1.719 2.154,0 0,0" style="fill:#000000;fill-opacity:1;fill-rule:nonzero;stroke:none" transform="matrix(1.3333333,0,0,-1.3333333,786.04507,547.40427)" clip-path="url(#clipPath52)" />
    <path id="path53" d="m 0,0 h -4.864 v 20.739 h 6.812 c 5.614,0 7.235,-3.025 7.235,-10.37 C 9.183,3.025 6.05,0 0,0 m 15.331,-5.081 c 3.351,3.351 4.537,8.759 4.537,15.45 0,14.472 -4.646,21.163 -17.92,21.163 h -13.612 c -2.165,0 -3.885,-1.719 -3.885,-3.884 v -65.012 c 0,-2.166 1.72,-3.896 3.885,-3.896 h 3.025 c 2.045,0 3.775,1.73 3.775,3.896 v 26.462 H 0 c 5.288,0 8.313,-3.025 8.313,-8.433 v -18.029 c 0,-2.166 1.73,-3.896 3.884,-3.896 h 3.025 c 2.165,0 3.895,1.73 3.895,3.896 v 18.029 c 0,5.614 -1.512,10.043 -4.646,13.394 0.327,0.327 0.544,0.544 0.86,0.86" style="fill:#000000;fill-opacity:1;fill-rule:nonzero;stroke:none" transform="matrix(1.3333333,0,0,-1.3333333,832.55653,589.44733)" clip-path="url(#clipPath54)" />
    <path id="path55" d="M 0,0 H -3.025 C -5.19,0 -6.92,-1.73 -6.92,-3.895 v -65.013 c 0,-2.165 1.73,-3.895 3.895,-3.895 H 0 c 2.046,0 3.884,1.73 3.884,3.895 V -3.895 C 3.884,-1.73 2.046,0 0,0" style="fill:#000000;fill-opacity:1;fill-rule:nonzero;stroke:none" transform="matrix(1.3333333,0,0,-1.3333333,885.40773,547.5348)" clip-path="url(#clipPath56)" />
    <path id="path57" d="M 0,0 H 3.025 C 5.19,0 6.909,1.73 6.909,3.884 v 1.513 c 0,13.72 -6.147,21.163 -17.811,21.163 -11.458,0 -17.823,-7.018 -17.823,-19.216 0,-10.695 7.453,-16.527 14.58,-22.142 v 0.109 c 5.288,-4.102 10.261,-8.106 10.261,-13.176 0,-5.724 -2.492,-7.671 -7.018,-7.671 -1.513,0 -3.352,0.217 -4.538,1.403 -1.512,1.295 -2.491,3.776 -2.491,8.966 v 1.404 c 0,2.154 -1.828,3.884 -3.885,3.884 h -3.025 c -2.154,0 -3.884,-1.73 -3.884,-3.884 v -1.404 c 0,-14.145 5.941,-21.065 17.823,-21.065 11.446,0 17.811,6.485 17.811,18.584 0,10.467 -7.235,15.984 -14.362,21.49 h 0.109 c -5.288,4.102 -10.587,8.312 -10.587,13.818 0,5.625 2.491,8.106 7.029,8.106 4.744,0 7.018,-3.242 7.018,-10.369 V 3.884 C -3.884,1.73 -2.154,0 0,0" style="fill:#000000;fill-opacity:1;fill-rule:nonzero;stroke:none" transform="matrix(1.3333333,0,0,-1.3333333,946.45573,582.81733)" clip-path="url(#clipPath58)" />
    <path id="path59" d="m 0,0 h -28.29 c -2.165,0 -3.895,-1.719 -3.895,-3.884 v -3.025 c 0,-2.155 1.73,-3.885 3.895,-3.885 h 8.737 v -58.103 c 0,-2.165 1.73,-3.895 3.896,-3.895 h 2.916 c 2.154,0 3.884,1.73 3.884,3.895 v 58.103 H 0 c 2.165,0 3.884,1.73 3.884,3.885 v 3.025 C 3.884,-1.719 2.165,0 0,0" style="fill:#000000;fill-opacity:1;fill-rule:nonzero;stroke:none" transform="matrix(1.3333333,0,0,-1.3333333,1006.938,547.40427)" clip-path="url(#clipPath60)" />
    <path id="path61" d="m 0,0 c -5.309,0 -9.628,-4.319 -9.628,-9.628 0,-5.309 4.319,-9.629 9.628,-9.629 5.309,0 9.628,4.32 9.628,9.629 C 9.628,-4.319 5.309,0 0,0 m 0,-21.71 c -6.662,0 -12.081,5.42 -12.081,12.082 0,6.661 5.419,12.081 12.081,12.081 6.662,0 12.081,-5.42 12.081,-12.081 C 12.081,-16.29 6.662,-21.71 0,-21.71" style="fill:#000000;fill-opacity:1;fill-rule:nonzero;stroke:none" transform="matrix(1.3333333,0,0,-1.3333333,1031.682,520.01173)" clip-path="url(#clipPath62)" />
    <path id="path63" d="m 0,0 v -3.152 c 0,-0.901 -0.73,-1.632 -1.631,-1.632 -0.901,0 -1.632,0.731 -1.632,1.632 v 9.059 c 0,1.08 0.876,1.955 1.956,1.955 H 1.717 C 3.385,7.862 4.6,7.58 5.372,7.016 6.157,6.464 6.537,5.581 6.537,4.366 6.537,3.532 6.341,2.846 5.936,2.306 5.532,1.778 4.931,1.374 4.109,1.128 4.563,1.018 4.955,0.785 5.311,0.429 5.667,0.074 6.022,-0.466 6.378,-1.202 L 7.043,-2.54 C 7.555,-3.572 6.804,-4.784 5.652,-4.784 5.06,-4.784 4.52,-4.447 4.259,-3.916 L 3.14,-1.644 C 2.833,-1.018 2.514,-0.576 2.196,-0.356 1.877,-0.123 1.447,0 0.92,0 H 0 m 1.374,2.245 c 0.674,0 1.165,0.134 1.459,0.392 0.295,0.245 0.454,0.662 0.454,1.251 0,0.577 -0.159,0.981 -0.454,1.239 C 2.539,5.372 2.048,5.495 1.374,5.495 H 0 v -3.25 z" style="fill:#000000;fill-opacity:1;fill-rule:nonzero;stroke:none" transform="matrix(1.3333333,0,0,-1.3333333,1029.0528,534.534)" clip-path="url(#clipPath64)" />
  </g>
</svg>
