<svg width="40" height="42" viewBox="0 0 40 42" fill="none" xmlns="http://www.w3.org/2000/svg">
<path d="M4.93158 3.08643H12.1282V12.1101H4.93158C4.25032 12.1083 3.5976 11.8364 3.11654 11.354C2.63547 10.8716 2.36532 10.2182 2.36533 9.53692V5.65965C2.36532 4.97839 2.63547 4.32494 3.11654 3.84257C3.5976 3.36019 4.25032 3.08827 4.93158 3.08643Z" fill="#FE5722"/>
<path d="M24.4365 3.08643V12.1101H15.1617V3.08643H24.4365Z" fill="#FE5722"/>
<path d="M37.2328 5.65965V9.53692C37.2328 10.2182 36.9627 10.8716 36.4816 11.354C36.0006 11.8364 35.3478 12.1083 34.6666 12.1101H27.4699V3.08643H34.6666C35.3478 3.08827 36.0006 3.36019 36.4816 3.84257C36.9627 4.32494 37.2328 4.97839 37.2328 5.65965Z" fill="#FE5722"/>
<path d="M27.47 12.1102V24.3556H24.4365V12.1102H15.1617V24.3556H12.1282V12.1102H6.44484V37.0614C6.44484 37.8566 6.76076 38.6193 7.32311 39.1817C7.88546 39.744 8.64817 40.06 9.44345 40.06H30.1548C30.95 40.06 31.7127 39.744 32.2751 39.1817C32.8374 38.6193 33.1534 37.8566 33.1534 37.0614V12.1102H27.47ZM16.9539 34.3556C16.9376 34.9162 16.7034 35.4483 16.301 35.8389C15.8987 36.2295 15.3599 36.4479 14.7991 36.4477H12.4699C11.9092 36.4479 11.3704 36.2295 10.968 35.8389C10.5657 35.4483 10.3315 34.9162 10.3151 34.3556V28.7768H16.9539V34.3556ZM29.2831 34.3556C29.2667 34.9162 29.0325 35.4483 28.6302 35.8389C28.2278 36.2295 27.689 36.4479 27.1282 36.4477H24.7991C24.2383 36.4479 23.6995 36.2295 23.2972 35.8389C22.8948 35.4483 22.6606 34.9162 22.6443 34.3556V28.7768H29.2831V34.3556Z" fill="#64CBB9"/>
<path d="M38.5508 27.0754V31.8941C38.5508 32.785 38.1979 33.6396 37.5693 34.2708C36.9406 34.9021 36.0875 35.2586 35.1966 35.2623H33.1534V27.0754H38.5508Z" fill="#FE5722"/>
<path d="M6.44484 27.0754V35.2623H4.4016C3.51072 35.2586 2.65758 34.9021 2.02894 34.2708C1.40029 33.6396 1.04734 32.785 1.04735 31.8941V27.0754H6.44484Z" fill="#FE5722"/>
<path d="M16.9539 28.7769V34.3557C16.9376 34.9162 16.7034 35.4483 16.301 35.8389C15.8987 36.2296 15.3599 36.4479 14.7991 36.4477H12.4699C11.9092 36.4479 11.3704 36.2296 10.968 35.8389C10.5657 35.4483 10.3315 34.9162 10.3151 34.3557V28.7769H16.9539Z" fill="#64CBB9"/>
<path d="M29.2831 28.7769V34.3557C29.2667 34.9162 29.0325 35.4483 28.6302 35.8389C28.2278 36.2296 27.689 36.4479 27.1282 36.4477H24.7991C24.2383 36.4479 23.6995 36.2296 23.2972 35.8389C22.8948 35.4483 22.6606 34.9162 22.6443 34.3557V28.7769H29.2831Z" fill="#64CBB9"/>
<path d="M15.1617 0.757324V24.3557H12.1073V0.757324H15.1617Z" fill="#64CBB9"/>
<path d="M27.4909 0.757324V24.3557H24.4365V0.757324H27.4909Z" fill="#64CBB9"/>
<path d="M7.67913 3.08643H4.93158C4.25032 3.08827 3.5976 3.36019 3.11654 3.84257C2.63547 4.32494 2.36532 4.97839 2.36533 5.65965V9.53692C2.36532 10.2182 2.63547 10.8716 3.11654 11.354C3.5976 11.8364 4.25032 12.1083 4.93158 12.1101H7.72098C7.03972 12.1083 6.387 11.8364 5.90594 11.354C5.42487 10.8716 5.15472 10.2182 5.15473 9.53692V5.65965C5.15461 4.98556 5.419 4.33834 5.89107 3.85715C6.36313 3.37595 7.00517 3.09921 7.67913 3.08643Z" fill="#BE4119"/>
<path d="M9.23424 12.1102H6.44484V35.1785C6.69021 35.2308 6.94014 35.2589 7.191 35.2622H9.23424V12.1102Z" fill="#689237"/>
<path d="M14.8967 0.757324H12.1073V3.08647H14.8967V0.757324Z" fill="#39833C"/>
<path d="M24.7015 0.757324H24.4365V3.08647H27.2259H24.7015V0.757324Z" fill="#39833C"/>
<path d="M3.83675 27.0754H1.04735V31.8941C1.04734 32.785 1.40029 33.6396 2.02894 34.2708C2.65758 34.9021 3.51072 35.2586 4.4016 35.2623H6.44484V35.1786C5.70337 35.0055 5.04218 34.5869 4.56871 33.9906C4.09523 33.3943 3.83727 32.6555 3.83675 31.8941V27.0754Z" fill="#BE4119"/>
<path d="M9.23424 35.2622H6.44484V37.0614C6.44484 37.8567 6.76076 38.6194 7.32311 39.1817C7.88546 39.7441 8.64817 40.06 9.44345 40.06H12.2328C11.4376 40.06 10.6749 39.7441 10.1125 39.1817C9.55016 38.6194 9.23424 37.8567 9.23424 37.0614V35.2622Z" fill="#689237"/>
<path d="M6.44484 35.1785V35.2622H7.191C6.94014 35.2589 6.69021 35.2308 6.44484 35.1785Z" fill="#4E6D29"/>
<path d="M33.1534 35.2622H30.3639V37.0614C30.3639 37.8567 30.048 38.6194 29.4857 39.1817C28.9233 39.7441 28.1606 40.06 27.3653 40.06H30.1547C30.95 40.06 31.7127 39.7441 32.2751 39.1817C32.8374 38.6194 33.1534 37.8567 33.1534 37.0614V35.2622Z" fill="#FFFF94"/>
<path d="M38.5508 27.0754H35.7614V31.8941C35.7609 32.6555 35.503 33.3943 35.0295 33.9906C34.556 34.5869 33.8948 35.0055 33.1534 35.1786V35.2623H35.1966C36.0875 35.2586 36.9406 34.9021 37.5693 34.2708C38.1979 33.6396 38.5508 32.785 38.5508 31.8941V27.0754Z" fill="#FFAE44"/>
<path d="M27.4909 0.757324H27.2259V3.08647H27.4909V0.757324Z" fill="#98FFA0"/>
<path d="M27.2259 0.757324H24.7015V3.08647H27.2259V0.757324Z" fill="#72FF78"/>
<path d="M34.6666 3.08643H31.919C32.593 3.09921 33.235 3.37595 33.7071 3.85715C34.1792 4.33834 34.4436 4.98556 34.4434 5.65965V9.53692C34.4434 10.2182 34.1733 10.8716 33.6922 11.354C33.2112 11.8364 32.5584 12.1083 31.8772 12.1101H34.6666C35.3479 12.1083 36.0006 11.8364 36.4816 11.354C36.9627 10.8716 37.2329 10.2182 37.2328 9.53692V5.65965C37.2329 4.97839 36.9627 4.32494 36.4816 3.84257C36.0006 3.36019 35.3479 3.08827 34.6666 3.08643Z" fill="#FFAE44"/>
<path d="M33.1533 12.1102H30.3639V35.2622H32.4072C32.658 35.2589 32.908 35.2308 33.1533 35.1785V12.1102Z" fill="#FFFF94"/>
<path d="M33.1533 35.1785C32.908 35.2308 32.658 35.2589 32.4072 35.2622H33.1533V35.1785Z" fill="white"/>
<path d="M12.1282 12.8076H4.93158C4.06538 12.8057 3.23529 12.4603 2.62345 11.8472C2.0116 11.234 1.66798 10.4032 1.66798 9.537V5.65973C1.66798 4.79353 2.0116 3.9627 2.62345 3.34955C3.23529 2.7364 4.06538 2.39101 4.93158 2.38916H12.1282C12.3132 2.38916 12.4906 2.46263 12.6213 2.59341C12.7521 2.72419 12.8256 2.90156 12.8256 3.08651V12.1102C12.8256 12.2952 12.7521 12.4725 12.6213 12.6033C12.4906 12.7341 12.3132 12.8076 12.1282 12.8076ZM4.93158 3.78386C4.43585 3.78753 3.96156 3.98656 3.61167 4.33776C3.26177 4.68896 3.06451 5.16399 3.06268 5.65973V9.537C3.06451 10.0327 3.26177 10.5078 3.61167 10.859C3.96156 11.2102 4.43585 11.4092 4.93158 11.4129H11.4309V3.78386H4.93158Z" fill="black"/>
<path d="M24.4365 12.8076H15.1617C14.9768 12.8076 14.7994 12.7341 14.6686 12.6033C14.5378 12.4725 14.4644 12.2952 14.4644 12.1102V3.08651C14.4644 2.90156 14.5378 2.72419 14.6686 2.59341C14.7994 2.46263 14.9768 2.38916 15.1617 2.38916H24.4365C24.6214 2.38916 24.7988 2.46263 24.9296 2.59341C25.0603 2.72419 25.1338 2.90156 25.1338 3.08651V12.1102C25.1338 12.2018 25.1158 12.2925 25.0807 12.3771C25.0457 12.4617 24.9943 12.5386 24.9296 12.6033C24.8648 12.6681 24.7879 12.7194 24.7033 12.7545C24.6187 12.7895 24.528 12.8076 24.4365 12.8076ZM15.8591 11.4129H23.7391V3.78386H15.8591V11.4129Z" fill="black"/>
<path d="M34.6666 12.8076H27.4699C27.285 12.8076 27.1076 12.7341 26.9768 12.6033C26.8461 12.4725 26.7726 12.2952 26.7726 12.1102V3.08651C26.7726 2.90156 26.8461 2.72419 26.9768 2.59341C27.1076 2.46263 27.285 2.38916 27.4699 2.38916H34.6666C35.5328 2.39101 36.3629 2.7364 36.9747 3.34955C37.5866 3.9627 37.9302 4.79353 37.9302 5.65973V9.537C37.9302 10.4032 37.5866 11.234 36.9747 11.8472C36.3629 12.4603 35.5328 12.8057 34.6666 12.8076ZM28.1673 11.4129H34.6457C34.8929 11.4138 35.138 11.366 35.3667 11.2722C35.5955 11.1784 35.8036 11.0405 35.9791 10.8663C36.1546 10.6921 36.294 10.4851 36.3895 10.257C36.485 10.0289 36.5346 9.78426 36.5355 9.537V5.65973C36.5337 5.16399 36.3364 4.68896 35.9865 4.33776C35.6366 3.98656 35.1623 3.78753 34.6666 3.78386H28.1673V11.4129Z" fill="black"/>
<path d="M27.47 12.1102V24.3556H24.4365V12.1102H15.1617V24.3556H12.1282V12.1102H6.44484V37.0614C6.44484 37.8566 6.76076 38.6193 7.32311 39.1817C7.88546 39.744 8.64817 40.06 9.44345 40.06H30.1548C30.95 40.06 31.7127 39.744 32.2751 39.1817C32.8374 38.6193 33.1534 37.8566 33.1534 37.0614V12.1102H27.47ZM16.9539 34.3556C16.9376 34.9162 16.7034 35.4483 16.301 35.8389C15.8987 36.2295 15.3599 36.4479 14.7991 36.4477H12.4699C11.9092 36.4479 11.3704 36.2295 10.968 35.8389C10.5657 35.4483 10.3315 34.9162 10.3151 34.3556V28.7768H16.9539V34.3556ZM29.2831 34.3556C29.2667 34.9162 29.0325 35.4483 28.6302 35.8389C28.2278 36.2295 27.689 36.4479 27.1282 36.4477H24.7991C24.2383 36.4479 23.6995 36.2295 23.2972 35.8389C22.8948 35.4483 22.6606 34.9162 22.6443 34.3556V28.7768H29.2831V34.3556Z" stroke="black" stroke-width="2" stroke-linecap="round" stroke-linejoin="round"/>
<path d="M35.1966 35.9596H33.1533C32.9684 35.9596 32.791 35.8861 32.6602 35.7553C32.5295 35.6246 32.456 35.4472 32.456 35.2622V27.0753C32.456 26.8904 32.5295 26.713 32.6602 26.5822C32.791 26.4515 32.9684 26.378 33.1533 26.378H38.5508C38.7358 26.378 38.9132 26.4515 39.0439 26.5822C39.1747 26.713 39.2482 26.8904 39.2482 27.0753V31.894C39.2482 32.9699 38.8218 34.0019 38.0623 34.7639C37.3029 35.5259 36.2724 35.9559 35.1966 35.9596ZM33.8507 34.5649H35.1966C35.9025 34.5612 36.5783 34.2782 37.0761 33.7777C37.574 33.2772 37.8535 32.6 37.8535 31.894V27.7727H33.8507V34.5649Z" fill="black"/>
<path d="M6.44483 35.9596H4.4016C3.32576 35.9559 2.29525 35.5259 1.53583 34.7639C0.776403 34.0019 0.349985 32.9699 0.349991 31.894V27.0753C0.349991 26.8904 0.423461 26.713 0.55424 26.5822C0.685018 26.4515 0.862392 26.378 1.04734 26.378H6.44483C6.62978 26.378 6.80716 26.4515 6.93793 26.5822C7.06871 26.713 7.14218 26.8904 7.14218 27.0753V35.2622C7.14218 35.3538 7.12415 35.4445 7.0891 35.5291C7.05406 35.6137 7.00269 35.6906 6.93793 35.7553C6.87318 35.8201 6.7963 35.8715 6.7117 35.9065C6.62709 35.9415 6.53641 35.9596 6.44483 35.9596ZM1.74469 27.7727V31.894C1.74468 32.6 2.02416 33.2772 2.52203 33.7777C3.0199 34.2782 3.69566 34.5612 4.4016 34.5649H5.74748V27.7727H1.74469Z" fill="black"/>
<path d="M14.7991 37.1451H12.4699C11.7248 37.1435 11.0097 36.851 10.477 36.33C9.94422 35.809 9.63594 35.1006 9.61777 34.3557V28.7769C9.61777 28.5919 9.69124 28.4146 9.82202 28.2838C9.9528 28.153 10.1302 28.0795 10.3151 28.0795H16.9539C17.1388 28.0795 17.3162 28.153 17.447 28.2838C17.5778 28.4146 17.6512 28.5919 17.6512 28.7769V34.3557C17.6331 35.1006 17.3248 35.809 16.7921 36.33C16.2593 36.851 15.5442 37.1435 14.7991 37.1451ZM11.0125 29.4742V34.3557C11.0303 34.7307 11.1915 35.0845 11.4628 35.344C11.734 35.6035 12.0945 35.749 12.4699 35.7504H14.7991C15.1745 35.749 15.535 35.6035 15.8062 35.344C16.0775 35.0845 16.2387 34.7307 16.2565 34.3557V29.4742H11.0125Z" fill="black"/>
<path d="M27.1282 37.1451H24.7991C24.0539 37.1435 23.3388 36.851 22.8061 36.33C22.2734 35.809 21.9651 35.1006 21.9469 34.3557V28.7769C21.9469 28.5919 22.0204 28.4146 22.1512 28.2838C22.282 28.153 22.4593 28.0795 22.6443 28.0795H29.2831C29.468 28.0795 29.6454 28.153 29.7762 28.2838C29.9069 28.4146 29.9804 28.5919 29.9804 28.7769V34.3557C29.9622 35.1006 29.654 35.809 29.1212 36.33C28.5885 36.851 27.8734 37.1435 27.1282 37.1451ZM23.3416 29.4742V34.3557C23.3595 34.7307 23.5207 35.0845 23.7919 35.344C24.0631 35.6035 24.4237 35.749 24.7991 35.7504H27.1282C27.5036 35.749 27.8642 35.6035 28.1354 35.344C28.4066 35.0845 28.5678 34.7307 28.5857 34.3557V29.4742H23.3416Z" fill="black"/>
<path d="M15.1617 25.053H12.1282C11.9433 25.053 11.7659 24.9796 11.6351 24.8488C11.5044 24.718 11.4309 24.5406 11.4309 24.3557V0.757348C11.4309 0.572399 11.5044 0.395025 11.6351 0.264247C11.7659 0.133468 11.9433 0.0599976 12.1282 0.0599976H15.1826C15.3676 0.0599976 15.545 0.133468 15.6757 0.264247C15.8065 0.395025 15.88 0.572399 15.88 0.757348V24.3557C15.88 24.449 15.8613 24.5415 15.825 24.6275C15.7886 24.7135 15.7354 24.7913 15.6684 24.8563C15.6014 24.9214 15.522 24.9723 15.435 25.0061C15.348 25.0399 15.255 25.0558 15.1617 25.053ZM12.8047 23.6583H14.4644V1.4547H12.8256L12.8047 23.6583Z" fill="black"/>
<path d="M27.4699 25.053H24.4365C24.2515 25.053 24.0741 24.9796 23.9434 24.8488C23.8126 24.718 23.7391 24.5406 23.7391 24.3557V0.757348C23.7391 0.572399 23.8126 0.395025 23.9434 0.264247C24.0741 0.133468 24.2515 0.0599976 24.4365 0.0599976H27.4699C27.6549 0.0599976 27.8323 0.133468 27.963 0.264247C28.0938 0.395025 28.1673 0.572399 28.1673 0.757348V24.3557C28.1673 24.5406 28.0938 24.718 27.963 24.8488C27.8323 24.9796 27.6549 25.053 27.4699 25.053ZM25.1129 23.6583H26.7726V1.4547H25.1338L25.1129 23.6583Z" fill="black"/>
</svg>
