<svg width="36" height="36" viewBox="0 0 36 36" fill="none" xmlns="http://www.w3.org/2000/svg">
<rect width="36" height="36" rx="2" fill="white"/>
<path d="M10.1527 10H14.6427L16.0897 13.618L13.7647 15.168C13.6278 15.2593 13.5155 15.3831 13.4379 15.5282C13.3603 15.6734 13.3197 15.8354 13.3197 16C13.3227 16.094 13.3197 16.001 13.3197 16.001V16.022C13.3202 16.0667 13.3222 16.1114 13.3257 16.156C13.331 16.2387 13.3427 16.3487 13.3607 16.486C13.3997 16.756 13.4747 17.128 13.6207 17.566C13.9147 18.446 14.4907 19.585 15.6127 20.707C16.7347 21.829 17.8737 22.405 18.7527 22.699C19.1917 22.845 19.5627 22.919 19.8347 22.959C19.9881 22.9813 20.1427 22.9947 20.2977 22.999L20.3107 23H20.3187C20.3187 23 20.4307 22.994 20.3197 23C20.5054 22.9999 20.6873 22.9481 20.8452 22.8504C21.0031 22.7528 21.1307 22.6131 21.2137 22.447L21.8837 21.107L26.3197 21.847V26.167C24.2087 26.472 18.5067 26.773 14.0267 22.293C9.54671 17.813 9.84671 12.11 10.1527 10ZM15.3927 16.486L17.1997 15.282C17.5815 15.0274 17.864 14.6492 18 14.211C18.1361 13.7727 18.1172 13.301 17.9467 12.875L16.4997 9.257C16.3512 8.88591 16.095 8.56781 15.764 8.34376C15.433 8.11971 15.0424 7.99997 14.6427 8H10.1007C9.19171 8 8.33671 8.631 8.18771 9.617C7.84771 11.859 7.38671 18.481 12.6127 23.707C17.8387 28.933 24.4607 28.471 26.7027 28.132C27.6887 27.982 28.3197 27.128 28.3197 26.219V21.847C28.3198 21.3736 28.1519 20.9155 27.8459 20.5542C27.5399 20.1929 27.1157 19.9519 26.6487 19.874L22.2127 19.135C21.7908 19.0646 21.3574 19.1313 20.9762 19.3253C20.595 19.5193 20.2861 19.8304 20.0947 20.213L19.7487 20.906C19.6264 20.8756 19.5053 20.8406 19.3857 20.801C18.7657 20.595 17.9047 20.171 17.0267 19.293C16.1487 18.415 15.7247 17.554 15.5187 16.933C15.4702 16.786 15.4284 16.6369 15.3937 16.486H15.3927Z" fill="#FF6F4C"/>
</svg>
