<svg width="20" height="20" viewBox="0 0 20 20" fill="none" xmlns="http://www.w3.org/2000/svg">
<g clip-path="url(#clip0_10_11)">
<mask id="mask0_10_11" style="mask-type:luminance" maskUnits="userSpaceOnUse" x="0" y="0" width="20" height="20">
<path d="M20 0H0V20H20V0Z" fill="white"/>
</mask>
<g mask="url(#mask0_10_11)">
<path d="M10.6254 20H9.37536C9.1316 19.9698 8.8868 19.9438 8.64617 19.9089C6.66331 19.6241 4.90962 18.8332 3.40906 17.505C1.66422 15.9607 0.575129 14.0399 0.158451 11.7448C0.0912621 11.3751 0.054282 11.0002 0.00219727 10.628C0.00219727 10.2114 0.00219727 9.79491 0.00219727 9.37837C0.0141767 9.3086 0.0287606 9.23934 0.0381358 9.1701C0.0844912 8.82906 0.110534 8.48386 0.177723 8.14699C0.712633 5.46344 2.10486 3.32454 4.35023 1.77085C6.55289 0.248409 9.0066 -0.289444 11.6421 0.146878C14.2385 0.576431 16.3521 1.8651 17.9475 3.95559C19.6168 6.14241 20.2595 8.62757 19.9053 11.3533C19.6449 13.3615 18.8183 15.1281 17.4678 16.6375C15.9287 18.3558 14.0177 19.4335 11.741 19.8449C11.3728 19.911 10.9978 19.948 10.6254 20ZM10.004 18.7504C14.8229 18.7473 18.7449 14.8272 18.7506 10.0094C18.7563 5.19166 14.8182 1.25279 9.99673 1.25591C5.17525 1.25904 1.25588 5.17917 1.25015 9.99693C1.24442 14.8147 5.18254 18.7535 10.004 18.7504Z" fill="#FCC436"/>
<path d="M14.1931 13.2651L13.291 14.1685C13.2639 14.1435 13.2254 14.1091 13.1868 14.0732C11.9535 12.8403 10.7208 11.6063 9.48884 10.3712C9.4235 10.3048 9.38383 10.2174 9.37686 10.1244C9.37061 8.04179 9.36904 5.95911 9.37217 3.87643C9.37217 3.84467 9.37529 3.81239 9.3779 3.76709H10.6253V3.99514C10.6253 5.84942 10.6243 7.70371 10.6222 9.55799C10.6198 9.61826 10.6307 9.67832 10.6541 9.73393C10.6775 9.78953 10.7129 9.83931 10.7576 9.87976C11.8514 10.9669 12.9431 12.0561 14.0327 13.1475C14.0827 13.1912 14.1364 13.2306 14.1931 13.2651Z" fill="#FCC436"/>
</g>
</g>
<defs>
<clipPath id="clip0_10_11">
<rect width="20" height="20" fill="white"/>
</clipPath>
</defs>
</svg>
