<svg width="40" height="40" viewBox="0 0 40 40" fill="none" xmlns="http://www.w3.org/2000/svg">
<path d="M22.8181 3.93299V12.6266C21.0033 11.9336 18.9968 11.9336 17.1819 12.6266V3.93299C19.0455 3.5955 20.9545 3.5955 22.8181 3.93299Z" fill="#EFEFEF"/>
<path d="M22.8181 27.3735V36.0739C20.9545 36.4114 19.0455 36.4114 17.1819 36.0739V27.3735C18.9968 28.0664 21.0033 28.0664 22.8181 27.3735Z" fill="#EFEFEF"/>
<path d="M12.1067 20C12.1054 20.9611 12.2816 21.9142 12.6265 22.8112H3.93296C3.59547 20.9477 3.59547 19.0387 3.93296 17.1751H12.6265C12.2816 18.0769 12.1054 19.0345 12.1067 20Z" fill="#EFEFEF"/>
<path d="M36.3201 20C36.3223 20.9429 36.2375 21.8839 36.067 22.8112H27.3734C28.0664 20.9964 28.0664 18.9899 27.3734 17.1751H36.067C36.2381 18.1069 36.3229 19.0526 36.3201 20Z" fill="#EFEFEF"/>
<path d="M22.8181 0.684021V3.933C20.9545 3.59551 19.0455 3.59551 17.1819 3.933V0.684021H22.8181Z" fill="#EFEFEF"/>
<path d="M22.8181 36.0739V39.316H17.1819V36.0739C19.0455 36.4113 20.9545 36.4113 22.8181 36.0739Z" fill="#EFEFEF"/>
<path d="M3.67989 20C3.67772 20.9429 3.76244 21.8839 3.93297 22.8112H0.68399V17.1819H3.93297C3.76225 18.1115 3.67754 19.0549 3.67989 20Z" fill="#EFEFEF"/>
<path d="M39.316 17.1819V22.8181H36.067C36.4045 20.9545 36.4045 19.0455 36.067 17.1819H39.316Z" fill="#EFEFEF"/>
<path d="M12.6266 22.8181H3.93298C4.51103 26.1215 6.09314 29.1665 8.46389 31.5385C10.8346 33.9104 13.8788 35.4941 17.182 36.0739V27.3735C16.145 26.9772 15.2033 26.3666 14.4184 25.5817C13.6334 24.7967 13.0228 23.855 12.6266 22.8181Z" fill="#FE5722"/>
<path d="M36.067 22.8181C35.4909 26.1223 33.9093 29.1683 31.5383 31.5406C29.1672 33.9129 26.122 35.496 22.8181 36.0739V27.3735C23.8557 26.9783 24.7979 26.3681 25.583 25.583C26.3681 24.7979 26.9783 23.8557 27.3735 22.8181H36.067Z" fill="#FE5722"/>
<path d="M36.067 17.182H27.3735C26.9772 16.145 26.3666 15.2033 25.5817 14.4184C24.7967 13.6334 23.855 13.0228 22.8181 12.6266V3.93298C26.121 4.51044 29.1655 6.09251 31.5365 8.46349C33.9075 10.8345 35.4896 13.879 36.067 17.182Z" fill="#FE5722"/>
<path d="M17.182 3.93298V12.6266C16.1454 13.0236 15.2041 13.6344 14.4193 14.4193C13.6344 15.2041 13.0236 16.1454 12.6266 17.182H3.93298C4.50951 13.8786 6.09127 10.8336 8.46241 8.46241C10.8336 6.09127 13.8786 4.50951 17.182 3.93298Z" fill="#FE5722"/>
<path d="M6.66895 17.1751L6.66211 17.1819H6.66895V17.1751Z" fill="#BE4119"/>
<path d="M11.2791 1.88781C8.84341 1.87984 6.49953 2.81642 4.74006 4.50067C3.06527 6.14247 2.05588 8.345 1.90566 10.6855C1.75543 13.026 2.47495 15.3395 3.92611 17.1819C4.13175 16.0078 4.46904 14.8606 4.93158 13.762C4.57368 12.4776 4.49437 11.1316 4.69898 9.81417C4.90358 8.4967 5.38738 7.23816 6.11795 6.12288C6.84852 5.00759 7.80899 4.06131 8.93503 3.34742C10.0611 2.63354 11.3267 2.16854 12.647 1.98357C12.1937 1.92105 11.7367 1.88906 11.2791 1.88781Z" fill="#64CBB9"/>
<path d="M4.95213 13.7278C4.48958 14.8264 4.1523 15.9736 3.94666 17.1478H6.68263C5.87649 16.1391 5.28735 14.9748 4.95213 13.7278Z" fill="#BE4119"/>
<path d="M3.9261 23.1532C2.50941 24.9481 1.78759 27.1937 1.89313 29.4779C1.99867 31.7621 2.92449 33.9316 4.50066 35.5882C5.37794 36.5005 6.43068 37.2259 7.59557 37.7207C8.76045 38.2156 10.0134 38.4697 11.279 38.4678C11.7367 38.4671 12.1938 38.4351 12.647 38.3721C10.5927 38.0834 8.69215 37.1211 7.24348 35.6361C6.09709 34.436 5.28636 32.9555 4.8926 31.3433C4.49883 29.731 4.53586 28.0435 4.99998 26.4501C4.56232 25.4316 4.23221 24.3702 4.01502 23.2832L3.93294 23.2011" fill="#64CBB9"/>
<path d="M6.66896 22.8181H3.93298C3.93298 22.9617 3.99454 23.1053 4.0219 23.249C4.23909 24.336 4.5692 25.3974 5.00685 26.4159C5.34451 25.2338 5.91161 24.1298 6.6758 23.1669L6.77156 23.2627C6.77156 23.119 6.70316 22.9754 6.68264 22.8317" fill="#BE4119"/>
<path d="M3.41997 17.1819H0.690826V22.8181H3.41997V17.1819Z" fill="#64CBB9"/>
<path d="M28.7209 1.88781C28.2633 1.88906 27.8063 1.92105 27.3529 1.98357C28.6677 2.17193 29.9273 2.63802 31.0479 3.35087C32.1686 4.06371 33.1247 5.00696 33.8526 6.11791C34.5805 7.22886 35.0636 8.48204 35.2696 9.79413C35.4757 11.1062 35.4001 12.4471 35.0479 13.7278C35.5115 14.826 35.8488 15.9733 36.0533 17.1477C37.4961 15.3096 38.2124 13.0051 38.0661 10.673C37.9198 8.34093 36.921 6.14407 35.2599 4.50067C33.5005 2.81642 31.1566 1.87984 28.7209 1.88781Z" fill="white"/>
<path d="M35.0479 13.7278C34.7191 14.9863 34.1321 16.1626 33.3242 17.182H36.0602C35.8557 16.0076 35.5184 14.8602 35.0547 13.762" fill="#FFAE44"/>
<path d="M33.3311 17.1751V17.1819H33.3379L33.3311 17.1751Z" fill="#FFAE44"/>
<path d="M36.0739 23.1532L35.9918 23.2353C35.7736 24.3243 35.4435 25.3878 35.0068 26.409C35.3911 27.6984 35.4927 29.0556 35.3049 30.3878C35.117 31.7201 34.644 32.9962 33.9182 34.1291C33.1924 35.262 32.2308 36.225 31.099 36.9525C29.9672 37.68 28.6918 38.1549 27.3598 38.3447C27.8131 38.4078 28.2701 38.4398 28.7278 38.4405C29.9914 38.4459 31.2432 38.1961 32.408 37.706C33.5728 37.2159 34.6265 36.4955 35.5061 35.5882C37.0823 33.9316 38.0081 31.7621 38.1137 29.4779C38.2192 27.1937 37.4974 24.9481 36.0807 23.1532" fill="white"/>
<path d="M36.067 22.8181H33.331C33.331 22.9617 33.2695 23.1053 33.2421 23.249L33.3379 23.1532C34.1036 24.1177 34.6708 25.2243 35.0068 26.409C35.4435 25.3879 35.7736 24.3243 35.9918 23.2353C35.9918 23.0917 36.0602 22.948 36.0807 22.8044" fill="#FFAE44"/>
<path d="M39.316 17.1819H36.58V22.8181H39.316V17.1819Z" fill="white"/>
<path d="M20 28.5773C18.26 28.582 16.56 28.0563 15.1265 27.0701C13.693 26.0839 12.5943 24.6841 11.9767 23.0574C11.6057 22.081 11.4178 21.0445 11.4227 20C11.4222 18.9507 11.6122 17.9101 11.9836 16.9288C12.4146 15.8006 13.0791 14.7762 13.9337 13.9227C14.7884 13.0693 15.8137 12.4061 16.9425 11.9767C18.242 11.4809 19.6426 11.3086 21.0235 11.4746C22.4045 11.6405 23.7243 12.1398 24.8693 12.9294C26.0143 13.719 26.9501 14.7752 27.5961 16.007C28.2421 17.2387 28.5788 18.6091 28.5773 20C28.5782 21.1266 28.3569 22.2424 27.9262 23.2834C27.4955 24.3245 26.8637 25.2704 26.0671 26.067C25.2704 26.8637 24.3245 27.4954 23.2834 27.9262C22.2424 28.3569 21.1266 28.5782 20 28.5773ZM20 12.7907C19.053 12.7898 18.1151 12.9756 17.24 13.3376C16.365 13.6996 15.5699 14.2306 14.9002 14.9002C14.2306 15.5698 13.6996 16.3649 13.3376 17.24C12.9756 18.1151 12.7898 19.053 12.7907 20C12.7878 20.8768 12.9478 21.7466 13.2626 22.5649C13.7827 23.9306 14.7055 25.106 15.9087 25.9353C17.1119 26.7646 18.5387 27.2087 20 27.2087C21.4613 27.2087 22.8881 26.7646 24.0913 25.9353C25.2945 25.106 26.2173 23.9306 26.7373 22.5649C27.0521 21.7466 27.2122 20.8768 27.2093 20C27.2121 18.538 26.77 17.1098 25.9416 15.9051C25.1133 14.7005 23.9379 13.7764 22.5718 13.2558C21.7508 12.9425 20.8787 12.7847 20 12.7907Z" fill="black"/>
<path d="M17.1819 13.3106C17.0444 13.3116 16.9101 13.2684 16.7989 13.1874C16.707 13.1253 16.6316 13.0419 16.5792 12.9441C16.5268 12.8464 16.4989 12.7374 16.4979 12.6266V3.93299C16.4953 3.77103 16.5502 3.61339 16.6529 3.48813C16.7556 3.36287 16.8995 3.27813 17.0588 3.249C19.0047 2.90699 20.9953 2.90699 22.9412 3.249C23.1005 3.27813 23.2443 3.36287 23.347 3.48813C23.4497 3.61339 23.5047 3.77103 23.502 3.93299V12.6266C23.5017 12.7375 23.4744 12.8466 23.4225 12.9446C23.3706 13.0426 23.2957 13.1266 23.2041 13.1892C23.1126 13.2518 23.0072 13.2912 22.897 13.304C22.7869 13.3168 22.6753 13.3026 22.5718 13.2627C20.915 12.6334 19.085 12.6334 17.4282 13.2627C17.3501 13.295 17.2664 13.3113 17.1819 13.3106ZM17.8659 4.51439V11.6895C19.2664 11.3337 20.7336 11.3337 22.134 11.6895V4.51439C20.7182 4.31606 19.2817 4.31606 17.8659 4.51439Z" fill="black"/>
<path d="M20 37.0109C19.0115 37.0129 18.0249 36.9259 17.052 36.751C16.8927 36.7219 16.7488 36.6371 16.6461 36.5119C16.5434 36.3866 16.4885 36.229 16.4911 36.067V27.3734C16.4914 27.2625 16.5187 27.1534 16.5706 27.0554C16.6225 26.9574 16.6975 26.8735 16.789 26.8109C16.8806 26.7483 16.986 26.7089 17.0961 26.696C17.2063 26.6832 17.3179 26.6974 17.4214 26.7373C19.0782 27.3666 20.9082 27.3666 22.565 26.7373C22.6685 26.6974 22.7801 26.6832 22.8902 26.696C23.0004 26.7089 23.1058 26.7483 23.1973 26.8109C23.2889 26.8735 23.3638 26.9574 23.4157 27.0554C23.4676 27.1534 23.4949 27.2625 23.4952 27.3734V36.0739C23.4979 36.2358 23.4429 36.3935 23.3402 36.5187C23.2375 36.644 23.0937 36.7287 22.9343 36.7579C21.9658 36.93 20.9837 37.0147 20 37.0109ZM17.8591 35.4925C19.2749 35.6908 20.7114 35.6908 22.1272 35.4925V28.3105C20.7268 28.6663 19.2596 28.6663 17.8591 28.3105V35.4925Z" fill="black"/>
<path d="M12.6265 23.5021H3.93295C3.77098 23.5047 3.61334 23.4498 3.48808 23.3471C3.36283 23.2444 3.27809 23.1005 3.24895 22.9412C2.90241 20.9957 2.90241 19.0043 3.24895 17.0588C3.27809 16.8995 3.36283 16.7557 3.48808 16.6529C3.61334 16.5502 3.77098 16.4953 3.93295 16.498H12.6265C12.7374 16.4983 12.8466 16.5256 12.9446 16.5775C13.0426 16.6294 13.1265 16.7043 13.1891 16.7959C13.2517 16.8874 13.2911 16.9928 13.3039 17.1029C13.3167 17.2131 13.3026 17.3247 13.2626 17.4282C12.9487 18.2492 12.7887 19.121 12.7907 20C12.7878 20.8769 12.9478 21.7466 13.2626 22.565C13.3018 22.6682 13.3154 22.7793 13.3023 22.8889C13.2892 22.9984 13.2498 23.1032 13.1874 23.1943C13.1261 23.2874 13.0429 23.3641 12.9452 23.4178C12.8474 23.4714 12.738 23.5004 12.6265 23.5021ZM4.51434 22.1341H11.6894C11.5106 21.4369 11.421 20.7198 11.4227 20C11.4216 19.278 11.5112 18.5587 11.6894 17.8591H4.51434C4.31367 19.2747 4.31367 20.7116 4.51434 22.1272V22.1341Z" fill="black"/>
<path d="M36.067 23.5021H27.3735C27.2626 23.5011 27.1536 23.4732 27.0559 23.4208C26.9582 23.3684 26.8747 23.293 26.8126 23.2011C26.7502 23.1101 26.7108 23.0053 26.6977 22.8957C26.6846 22.7861 26.6982 22.675 26.7374 22.5718C27.053 21.7513 27.2131 20.8792 27.2093 20C27.2122 19.1187 27.0522 18.2445 26.7374 17.4214C26.6974 17.3179 26.6833 17.2063 26.6961 17.0961C26.7089 16.986 26.7483 16.8806 26.8109 16.789C26.8735 16.6975 26.9574 16.6225 27.0554 16.5706C27.1534 16.5187 27.2626 16.4914 27.3735 16.4911H36.067C36.229 16.4885 36.3867 16.5434 36.5119 16.6461C36.6372 16.7488 36.7219 16.8927 36.751 17.052C37.0976 18.9975 37.0976 20.9889 36.751 22.9343C36.7234 23.0949 36.6392 23.2404 36.5138 23.3445C36.3884 23.4485 36.23 23.5044 36.067 23.5021ZM28.3105 22.1341H35.4857C35.6863 20.7184 35.6863 19.2816 35.4857 17.8659H28.3105C28.4882 18.5634 28.5778 19.2803 28.5773 20C28.579 20.7198 28.4894 21.4369 28.3105 22.1341Z" fill="black"/>
<path d="M22.8181 4.61696H22.6949C20.9121 4.30232 19.0879 4.30232 17.3051 4.61696C17.2068 4.63549 17.1056 4.63223 17.0087 4.60742C16.9118 4.5826 16.8215 4.53682 16.7442 4.47332C16.667 4.40901 16.6049 4.32848 16.5623 4.23745C16.5198 4.14642 16.4978 4.04713 16.498 3.94665V0.683995C16.498 0.502588 16.57 0.328611 16.6983 0.200337C16.8266 0.0720635 17.0005 0 17.182 0H22.8181C22.9995 0 23.1735 0.0720635 23.3017 0.200337C23.43 0.328611 23.5021 0.502588 23.5021 0.683995V3.93297C23.5021 4.11438 23.43 4.28835 23.3017 4.41663C23.1735 4.5449 22.9995 4.61696 22.8181 4.61696ZM17.8659 1.36799V3.1327C19.2831 2.95487 20.7169 2.95487 22.1341 3.1327V1.36799H17.8659Z" fill="black"/>
<path d="M22.818 40H17.1819C17.0005 40 16.8265 39.9279 16.6983 39.7996C16.57 39.6714 16.4979 39.4974 16.4979 39.316V36.0738C16.4963 35.9727 16.5171 35.8724 16.5589 35.7802C16.6007 35.688 16.6624 35.6063 16.7396 35.5408C16.8168 35.4754 16.9076 35.4279 17.0054 35.4018C17.1031 35.3757 17.2055 35.3716 17.305 35.3899C19.0879 35.7045 20.9121 35.7045 22.6949 35.3899C22.7937 35.3723 22.8952 35.3766 22.9921 35.4026C23.089 35.4286 23.1791 35.4756 23.2558 35.5403C23.3321 35.6039 23.3937 35.6833 23.4362 35.7731C23.4787 35.8629 23.5012 35.9608 23.502 36.0602V39.3023C23.5038 39.3933 23.4875 39.4837 23.4539 39.5683C23.4204 39.6528 23.3703 39.7299 23.3066 39.7948C23.2429 39.8598 23.1669 39.9114 23.083 39.9466C22.9991 39.9819 22.909 40 22.818 40ZM17.8659 38.632H22.134V36.8741C20.7169 37.0519 19.2831 37.0519 17.8659 36.8741V38.632Z" fill="black"/>
<path d="M3.93297 23.5021H0.683995C0.502588 23.5021 0.328611 23.43 0.200337 23.3017C0.0720635 23.1734 0 22.9995 0 22.8181V17.1819C0 17.0005 0.0720635 16.8266 0.200337 16.6983C0.328611 16.57 0.502588 16.498 0.683995 16.498H3.93297C4.03416 16.4963 4.13446 16.5171 4.22663 16.5589C4.3188 16.6007 4.40054 16.6624 4.46597 16.7396C4.5314 16.8168 4.57889 16.9076 4.605 17.0054C4.63111 17.1032 4.63519 17.2055 4.61696 17.3051C4.29774 19.0875 4.29774 20.9125 4.61696 22.6949C4.63519 22.7945 4.63111 22.8968 4.605 22.9946C4.57889 23.0924 4.5314 23.1832 4.46597 23.2604C4.40054 23.3376 4.3188 23.3993 4.22663 23.4411C4.13446 23.4829 4.03416 23.5037 3.93297 23.5021ZM1.36799 22.1341H3.1327C2.95033 20.7172 2.95033 19.2828 3.1327 17.8659H1.36799V22.1341Z" fill="black"/>
<path d="M39.316 23.5021H36.067C35.9658 23.5037 35.8655 23.4829 35.7734 23.4411C35.6812 23.3993 35.5994 23.3376 35.534 23.2604C35.4686 23.1832 35.4211 23.0924 35.395 22.9946C35.3689 22.8968 35.3648 22.7945 35.383 22.6949C35.7022 20.9125 35.7022 19.0875 35.383 17.3051C35.3648 17.2055 35.3689 17.1032 35.395 17.0054C35.4211 16.9076 35.4686 16.8168 35.534 16.7396C35.5994 16.6624 35.6812 16.6007 35.7734 16.5589C35.8655 16.5171 35.9658 16.4963 36.067 16.498H39.316C39.4974 16.498 39.6714 16.57 39.7996 16.6983C39.9279 16.8266 40 17.0005 40 17.1819V22.8181C40 22.9995 39.9279 23.1734 39.7996 23.3017C39.6714 23.43 39.4974 23.5021 39.316 23.5021ZM36.8673 22.1341H38.632V17.8659H36.8673C37.0497 19.2828 37.0497 20.7172 36.8673 22.1341Z" fill="black"/>
<path d="M36.0739 17.8659C35.9208 17.8644 35.7722 17.8141 35.6498 17.7223C35.579 17.6663 35.52 17.5969 35.4762 17.5181C35.4323 17.4392 35.4045 17.3525 35.3944 17.2628C35.3842 17.1732 35.3919 17.0824 35.4169 16.9958C35.442 16.9091 35.4839 16.8282 35.5404 16.7578C36.9171 15.079 37.6203 12.9482 37.5133 10.7797C37.4064 8.61115 36.4969 6.55988 34.9616 5.02465C33.4264 3.48941 31.3751 2.57991 29.2066 2.47296C27.0381 2.366 24.9073 3.06923 23.2284 4.44594C23.1616 4.51946 23.0795 4.57752 22.9879 4.61609C22.8963 4.65466 22.7974 4.67281 22.6981 4.66927C22.5988 4.66573 22.5014 4.64059 22.4128 4.5956C22.3242 4.55061 22.2464 4.48685 22.185 4.40875C22.1235 4.33066 22.0798 4.24011 22.0569 4.14341C22.034 4.0467 22.0324 3.94617 22.0523 3.84879C22.0722 3.75142 22.1131 3.65956 22.1721 3.57959C22.2311 3.49962 22.3068 3.43347 22.394 3.38575C24.3379 1.82827 26.788 1.04271 29.2751 1.17953C31.7622 1.31635 34.1114 2.36594 35.8727 4.12725C37.634 5.88855 38.6836 8.23775 38.8204 10.7249C38.9573 13.212 38.1717 15.6621 36.6142 17.606C36.5498 17.6875 36.4677 17.7533 36.374 17.7983C36.2804 17.8434 36.1778 17.8665 36.0739 17.8659Z" fill="black"/>
<path d="M28.7004 39.1108C26.4155 39.1171 24.1946 38.356 22.394 36.9494C22.2507 36.8369 22.1579 36.6721 22.1361 36.4912C22.1143 36.3104 22.1652 36.1282 22.2777 35.9849C22.3902 35.8416 22.555 35.7489 22.7358 35.7271C22.9167 35.7053 23.0988 35.7562 23.2421 35.8687C24.921 37.2454 27.0518 37.9486 29.2203 37.8416C31.3888 37.7347 33.4401 36.8252 34.9753 35.2899C36.5106 33.7547 37.4201 31.7034 37.527 29.5349C37.634 27.3664 36.9308 25.2356 35.554 23.5568C35.4773 23.4905 35.4163 23.4081 35.3754 23.3154C35.3344 23.2227 35.3146 23.1221 35.3173 23.0208C35.32 22.9195 35.3452 22.82 35.391 22.7297C35.4369 22.6393 35.5022 22.5602 35.5823 22.4982C35.6625 22.4361 35.7554 22.3927 35.8543 22.371C35.9533 22.3492 36.0559 22.3498 36.1546 22.3725C36.2534 22.3953 36.3458 22.4397 36.4253 22.5025C36.5048 22.5654 36.5693 22.6451 36.6142 22.736C37.8097 24.2193 38.5594 26.0116 38.7763 27.9043C38.9931 29.797 38.6681 31.7124 37.8392 33.4277C37.0102 35.143 35.7112 36.5877 34.0934 37.5937C32.4756 38.5998 30.6055 39.1259 28.7004 39.1108Z" fill="black"/>
<path d="M17.1819 36.7579H17.0657C13.6218 36.1531 10.4481 34.5014 7.97691 32.0278C5.5057 29.5541 3.85715 26.3788 3.25582 22.9343C3.23872 22.8353 3.24366 22.7337 3.27029 22.6368C3.29692 22.5398 3.34458 22.45 3.40989 22.3736C3.4752 22.2972 3.55654 22.2361 3.64813 22.1947C3.73972 22.1533 3.83931 22.1326 3.93981 22.134H12.6265C12.7643 22.1345 12.8988 22.1765 13.0123 22.2546C13.1258 22.3327 13.2131 22.4433 13.2627 22.5718C13.6246 23.5203 14.1827 24.3816 14.9005 25.0995C15.6184 25.8173 16.4797 26.3754 17.4282 26.7373C17.5567 26.7869 17.6673 26.8742 17.7454 26.9877C17.8235 27.1012 17.8655 27.2357 17.8659 27.3734V36.0739C17.8669 36.1738 17.846 36.2728 17.8047 36.3638C17.7633 36.4547 17.7025 36.5356 17.6265 36.6005C17.5017 36.704 17.3441 36.7598 17.1819 36.7579ZM4.76745 23.502C5.42505 26.3618 6.87376 28.9789 8.94806 31.0544C11.0224 33.1299 13.6386 34.5801 16.498 35.2394V27.8317C14.5704 26.9714 13.0286 25.4295 12.1683 23.502H4.76745Z" fill="black"/>
<path d="M22.818 36.7579C22.6559 36.7598 22.4983 36.704 22.3734 36.6005C22.2975 36.5356 22.2367 36.4547 22.1953 36.3638C22.154 36.2728 22.133 36.1738 22.134 36.0739V27.3734C22.1344 27.2357 22.1765 27.1012 22.2546 26.9877C22.3327 26.8742 22.4432 26.7869 22.5718 26.7373C23.5209 26.3766 24.3829 25.8188 25.1008 25.1008C25.8188 24.3829 26.3766 23.5209 26.7373 22.5718C26.7869 22.4433 26.8742 22.3327 26.9877 22.2546C27.1012 22.1765 27.2357 22.1345 27.3734 22.134H36.067C36.1675 22.1326 36.2671 22.1533 36.3587 22.1947C36.4503 22.2361 36.5316 22.2972 36.5969 22.3736C36.6622 22.45 36.7099 22.5398 36.7365 22.6368C36.7632 22.7337 36.7681 22.8353 36.751 22.9343C36.1503 26.3783 34.5018 29.5532 32.0303 32.0258C29.5589 34.4985 26.3849 36.1486 22.9412 36.751L22.818 36.7579ZM23.502 27.8659V35.2394C26.3624 34.5823 28.9799 33.1329 31.0545 31.057C33.1292 28.9811 34.5772 26.3628 35.2325 23.502H27.8317C26.9752 25.4322 25.4321 26.9752 23.502 27.8317V27.8659Z" fill="black"/>
<path d="M36.067 17.8659H27.3735C27.2357 17.8655 27.1012 17.8235 26.9877 17.7454C26.8742 17.6673 26.787 17.5567 26.7374 17.4282C26.3755 16.4797 25.8173 15.6184 25.0995 14.9005C24.3816 14.1827 23.5203 13.6246 22.5718 13.2627C22.4433 13.2131 22.3327 13.1258 22.2546 13.0123C22.1765 12.8988 22.1345 12.7643 22.1341 12.6265V3.93298C22.1326 3.83247 22.1533 3.73288 22.1947 3.64129C22.2361 3.5497 22.2972 3.46836 22.3736 3.40305C22.45 3.33775 22.5399 3.29009 22.6368 3.26346C22.7337 3.23683 22.8353 3.23188 22.9344 3.24898C26.3781 3.85143 29.5521 5.50151 32.0235 7.97417C34.495 10.4468 36.1435 13.6217 36.7442 17.0657C36.7613 17.1647 36.7564 17.2663 36.7297 17.3632C36.7031 17.4602 36.6554 17.55 36.5901 17.6264C36.5248 17.7028 36.4435 17.7639 36.3519 17.8053C36.2603 17.8467 36.1607 17.8674 36.0602 17.8659H36.067ZM27.8591 16.498H35.2326C34.5768 13.6381 33.1286 11.0208 31.0539 8.94614C28.9792 6.87143 26.3619 5.42321 23.5021 4.76745V12.1683C25.4296 13.0286 26.9714 14.5705 27.8318 16.498H27.8591Z" fill="black"/>
<path d="M12.6265 17.8659H3.93295C3.83244 17.8674 3.73285 17.8467 3.64126 17.8053C3.54967 17.7639 3.46833 17.7028 3.40302 17.6264C3.33772 17.55 3.29006 17.4602 3.26343 17.3632C3.2368 17.2663 3.23185 17.1647 3.24895 17.0657C3.8514 13.622 5.50148 10.4479 7.97414 7.9765C10.4468 5.50507 13.6216 3.85656 17.0656 3.25582C17.1647 3.23872 17.2663 3.24366 17.3632 3.27029C17.4601 3.29692 17.55 3.34458 17.6264 3.40989C17.7028 3.4752 17.7639 3.55654 17.8053 3.64813C17.8467 3.73972 17.8674 3.83931 17.8659 3.93981V12.6265C17.8655 12.7643 17.8235 12.8988 17.7454 13.0123C17.6673 13.1258 17.5567 13.2131 17.4282 13.2627C16.4801 13.6253 15.6192 14.1837 14.9014 14.9015C14.1837 15.6192 13.6253 16.4802 13.2626 17.4282C13.213 17.5567 13.1258 17.6673 13.0123 17.7454C12.8988 17.8235 12.7643 17.8655 12.6265 17.8659ZM4.76742 16.498H12.1682C13.0328 14.5734 14.5734 13.0329 16.4979 12.1683V4.76745C13.6388 5.4247 11.0223 6.87342 8.94785 8.94788C6.87339 11.0223 5.42468 13.6388 4.76742 16.498Z" fill="black"/>
<path d="M3.92613 17.8659C3.82224 17.8665 3.71958 17.8434 3.62595 17.7984C3.53233 17.7533 3.45019 17.6875 3.38577 17.606C1.84316 15.6243 1.08097 13.1456 1.24359 10.6395C1.40621 8.1334 2.48234 5.77398 4.26813 4.00822C6.04436 2.3169 8.37095 1.32287 10.8209 1.20854C13.2709 1.0942 15.68 1.86724 17.606 3.38578C17.6765 3.44147 17.7354 3.51051 17.7792 3.58894C17.823 3.66738 17.851 3.75368 17.8615 3.84291C17.872 3.93215 17.8648 4.02258 17.8403 4.10904C17.8158 4.19549 17.7746 4.27628 17.7189 4.34679C17.6632 4.41731 17.5942 4.47616 17.5157 4.51999C17.4373 4.56382 17.351 4.59178 17.2617 4.60226C17.1725 4.61274 17.0821 4.60554 16.9956 4.58107C16.9092 4.5566 16.8284 4.51534 16.7579 4.45965C15.0922 3.14521 13.0084 2.47554 10.8888 2.57354C8.76927 2.67154 6.75614 3.53063 5.21888 4.99317C3.67742 6.52311 2.74918 8.5643 2.60932 10.7316C2.46945 12.8989 3.12762 15.0425 4.45965 16.7579C4.51608 16.8283 4.55803 16.9091 4.58309 16.9958C4.60815 17.0825 4.61581 17.1732 4.60564 17.2629C4.59546 17.3525 4.56766 17.4393 4.52382 17.5181C4.47998 17.597 4.42098 17.6664 4.35021 17.7223C4.22777 17.8142 4.07918 17.8645 3.92613 17.8659Z" fill="black"/>
<path d="M11.2927 39.1108C9.93638 39.1184 8.59236 38.8529 7.34083 38.3299C6.08931 37.807 4.9559 37.0374 4.0082 36.067C2.3187 34.2912 1.3258 31.966 1.21148 29.5175C1.09716 27.0691 1.86908 24.6615 3.38576 22.736C3.44145 22.6655 3.51049 22.6066 3.58892 22.5628C3.66736 22.5189 3.75366 22.491 3.84289 22.4805C3.93213 22.47 4.02256 22.4772 4.10902 22.5017C4.19547 22.5262 4.27626 22.5674 4.34677 22.6231C4.41729 22.6788 4.47614 22.7478 4.51997 22.8263C4.5638 22.9047 4.59176 22.991 4.60224 23.0802C4.61272 23.1695 4.60552 23.2599 4.58105 23.3464C4.55658 23.4328 4.51532 23.5136 4.45963 23.5841C3.08293 25.263 2.3797 27.3938 2.48665 29.5623C2.59361 31.7308 3.50311 33.7821 5.03835 35.3173C6.57358 36.8525 8.62484 37.762 10.7934 37.869C12.9619 37.976 15.0927 37.2727 16.7715 35.896C16.9148 35.7835 17.097 35.7326 17.2778 35.7544C17.4587 35.7762 17.6235 35.869 17.736 36.0123C17.8484 36.1556 17.8994 36.3377 17.8776 36.5186C17.8558 36.6995 17.763 36.8643 17.6197 36.9767C15.8099 38.3779 13.5814 39.1296 11.2927 39.1108Z" fill="black"/>
</svg>
