<svg width="82" height="82" viewBox="0 0 82 82" fill="none" xmlns="http://www.w3.org/2000/svg">
<g filter="url(#filter0_d_17_6)">
<circle cx="42" cy="38" r="33" fill="#295F49"/>
<path d="M40.3758 24C38.6518 24 36.9983 24.6849 35.7793 25.9039C34.5602 27.123 33.8753 28.7764 33.8753 30.5005C33.8753 32.2245 34.5602 33.8779 35.7793 35.097C36.9983 36.316 38.6518 37.0009 40.3758 37.0009C42.0998 37.0009 43.7532 36.316 44.9723 35.097C46.1914 33.8779 46.8762 32.2245 46.8762 30.5005C46.8762 28.7764 46.1914 27.123 44.9723 25.9039C43.7532 24.6849 42.0998 24 40.3758 24ZM35.5005 30.5005C35.5005 29.2074 36.0141 27.9674 36.9284 27.0531C37.8427 26.1388 39.0828 25.6251 40.3758 25.6251C41.6688 25.6251 42.9089 26.1388 43.8232 27.0531C44.7375 27.9674 45.2511 29.2074 45.2511 30.5005C45.2511 31.7935 44.7375 33.0335 43.8232 33.9478C42.9089 34.8621 41.6688 35.3758 40.3758 35.3758C39.0828 35.3758 37.8427 34.8621 36.9284 33.9478C36.0141 33.0335 35.5005 31.7935 35.5005 30.5005ZM32.2649 38.626C31.8368 38.6241 31.4126 38.7067 31.0166 38.8692C30.6205 39.0317 30.2605 39.2708 29.9571 39.5728C29.6538 39.8748 29.4131 40.2338 29.2488 40.629C29.0845 41.0243 29 41.4482 29 41.8762C29 44.6243 30.3537 46.6963 32.4696 48.0468C34.553 49.3745 37.3612 50.0018 40.3758 50.0018C40.9565 50.0018 41.5285 49.9785 42.0919 49.9319C41.9686 49.3942 41.9713 48.8352 42.1 48.2987C41.5421 48.3507 40.9673 48.3767 40.3758 48.3767C37.5562 48.3767 35.0828 47.7852 33.3439 46.6752C31.6376 45.5864 30.6251 44.0051 30.6251 41.8762C30.6251 40.9776 31.3532 40.2511 32.2649 40.2511H47.7262C47.7085 39.8235 47.7776 39.3967 47.9293 38.9965L48.0691 38.626H32.2649ZM49.4504 39.5718L49.9103 38.353C50.3296 37.2463 51.6362 36.7003 52.738 37.1699L53.3686 37.4397C54.1372 37.768 54.7727 38.3627 54.9075 39.1623C55.6502 43.5907 51.8068 49.8897 47.3833 51.4969C46.5837 51.7862 45.7208 51.5619 45.035 51.0971L44.4727 50.7152C44.2418 50.5597 44.0475 50.356 43.903 50.1181C43.7585 49.8802 43.6674 49.6138 43.6359 49.3372C43.6044 49.0607 43.6332 48.7806 43.7205 48.5163C43.8077 48.252 43.9512 48.0097 44.1412 47.8063L45.0269 46.8198C45.2349 46.5907 45.5003 46.4213 45.7957 46.329C46.0911 46.2367 46.4058 46.225 46.7072 46.2949L48.698 46.7662C50.2765 45.7803 51.1227 44.3935 51.2364 42.6059L49.8096 41.2099C49.5965 41.0017 49.4489 40.7356 49.3851 40.4446C49.3213 40.1535 49.344 39.8502 49.4504 39.5718Z" fill="white"/>
</g>
<defs>
<filter id="filter0_d_17_6" x="0" y="0" width="82" height="82" filterUnits="userSpaceOnUse" color-interpolation-filters="sRGB">
<feFlood flood-opacity="0" result="BackgroundImageFix"/>
<feColorMatrix in="SourceAlpha" type="matrix" values="0 0 0 0 0 0 0 0 0 0 0 0 0 0 0 0 0 0 127 0" result="hardAlpha"/>
<feOffset dx="-1" dy="3"/>
<feGaussianBlur stdDeviation="4"/>
<feComposite in2="hardAlpha" operator="out"/>
<feColorMatrix type="matrix" values="0 0 0 0 0 0 0 0 0 0 0 0 0 0 0 0 0 0 0.25 0"/>
<feBlend mode="normal" in2="BackgroundImageFix" result="effect1_dropShadow_17_6"/>
<feBlend mode="normal" in="SourceGraphic" in2="effect1_dropShadow_17_6" result="shape"/>
</filter>
</defs>
</svg>
