<svg width="94" height="94" viewBox="0 0 94 94" fill="none" xmlns="http://www.w3.org/2000/svg">
<path d="M58.4709 19.0938C54.8578 18.7707 50.9656 18.5651 46.8091 18.5798C42.6525 18.5945 39.0247 18.7854 35.5291 19.0938C38.6722 14.1148 42.5937 11.1626 47 11.1626C51.4062 11.1626 55.3425 14.1001 58.4709 19.0498" fill="#58B0BE"/>
<path d="M58.4562 74.9062C55.3278 79.9 51.4062 82.8375 47 82.8375C42.5937 82.8375 38.6868 79.9 35.5437 74.9503C39.0393 75.2734 42.7993 75.4644 46.809 75.4791C50.8187 75.4937 54.8578 75.2734 58.4562 74.9503" fill="#58B0BE"/>
<path d="M47 34.4862C50.9362 34.4862 54.2262 38.775 54.99 44.459H65.2712C65.1095 38.4253 64.0451 32.4497 62.1134 26.7312C57.4134 26.3787 52.4099 26.1927 47.1028 26.1731C41.7418 26.1731 36.66 26.364 31.9012 26.7165C29.9681 32.4397 28.9036 38.4203 28.7434 44.459H39.0247C39.7884 38.775 43.0784 34.4862 47.0147 34.4862M47.0147 59.455C43.0784 59.455 39.7884 55.1809 39.0247 49.4968H28.7434C28.9049 55.5306 29.9693 61.5062 31.9012 67.2247C36.66 67.5772 41.7418 67.7681 47.1028 67.7681C52.4637 67.7681 57.384 67.5772 62.1134 67.2247C64.0401 61.5054 65.0996 55.5299 65.2565 49.4968H54.9753C54.2115 55.1809 50.9215 59.455 46.9853 59.455" fill="#58B0BE"/>
<path d="M39.01 49.5557H54.99C54.2263 55.2397 50.9363 59.5138 47 59.5138C43.0638 59.5138 39.7738 55.2397 39.01 49.5557Z" fill="#FE5722"/>
<path d="M54.99 44.4591H39.01C39.7738 38.7751 43.0638 34.4863 47 34.4863C50.9363 34.4863 54.2263 38.7751 54.99 44.4591Z" fill="#FE5722"/>
<path d="M62.1134 26.7312C57.4134 26.3787 52.4099 26.1926 47.1028 26.173C41.7419 26.173 36.66 26.364 31.9012 26.7165C32.8287 24.0508 34.0452 21.4946 35.5291 19.0937C39.0247 18.7852 42.7994 18.5943 46.8091 18.5796C50.8187 18.5649 54.8578 18.7705 58.4709 19.0937C59.9654 21.5116 61.187 24.0879 62.1134 26.7752" fill="#FE5722"/>
<path d="M62.1134 67.2833C61.1822 69.9526 59.9555 72.5094 58.4562 74.9061C54.8578 75.2293 50.9656 75.4349 46.8091 75.4349C42.6525 75.4349 39.0394 75.2293 35.5437 74.9061C34.0406 72.4981 32.8185 69.9257 31.9012 67.2393C36.66 67.5918 41.7419 67.7827 47.1028 67.7827C52.4637 67.7827 57.3841 67.5918 62.1134 67.2393" fill="#FE5722"/>
<path d="M78.8279 44.459V49.5555H15.1722V44.459H78.8279Z" fill="#60CADA"/>
<path d="M88.5656 43.1079V50.8923C88.5847 51.1426 88.5394 51.3936 88.4339 51.6214C88.3284 51.8492 88.1662 52.0462 87.9629 52.1935C87.7596 52.3408 87.522 52.4336 87.2726 52.4629C87.0233 52.4922 86.7706 52.4571 86.5387 52.361L78.8278 49.5998V44.4591L86.5387 41.6979C86.7706 41.6017 87.0233 41.5667 87.2726 41.596C87.522 41.6253 87.7596 41.7181 87.9629 41.8654C88.1662 42.0127 88.3284 42.2096 88.4339 42.4374C88.5394 42.6653 88.5847 42.9163 88.5656 43.1666" fill="#60CADA"/>
<path d="M15.1721 44.4592V49.5557L7.4612 52.317C7.22928 52.4131 6.97659 52.4482 6.72726 52.4189C6.47792 52.3895 6.24027 52.2968 6.03698 52.1495C5.83369 52.0022 5.67155 51.8052 5.56605 51.5774C5.46054 51.3496 5.41519 51.0985 5.43433 50.8482V43.0638C5.41519 42.8135 5.46054 42.5625 5.56605 42.3347C5.67155 42.1069 5.83369 41.9099 6.03698 41.7626C6.24027 41.6153 6.47792 41.5225 6.72726 41.4932C6.97659 41.4639 7.22928 41.499 7.4612 41.5951L15.1721 44.3563" fill="#60CADA"/>
<path d="M47 11.1626C42.5937 11.1626 38.6722 14.1001 35.529 19.0498C34.0423 21.4647 32.8257 24.0358 31.9012 26.7167C32.8287 24.051 34.0452 21.4948 35.529 19.0938C38.6722 14.1148 42.5937 11.1626 47 11.1626Z" fill="#BFBFBF"/>
<path d="M47 11.1625C42.5937 11.1625 38.6722 14.1 35.5291 19.0497C37.4825 18.8734 39.5387 18.7412 41.6684 18.6531C43.0517 16.4486 44.865 14.5454 47 13.0572C46.0959 12.4299 45.1067 11.9353 44.0625 11.5884C45.011 11.279 46.0023 11.1204 47 11.1184" fill="#59F4D9"/>
<path d="M37.9084 26.4375C35.8522 26.5256 33.8547 26.6431 31.9012 26.79C29.9681 32.5132 28.9036 38.4938 28.7434 44.5325H34.6184C34.7786 38.4938 35.8431 32.5132 37.7762 26.79L37.9084 26.4375Z" fill="#59F4D9"/>
<path d="M41.6684 18.6532C39.5387 18.7413 37.4825 18.8735 35.5291 19.0497C34.0423 21.4646 32.8258 24.0357 31.9012 26.7166C33.8547 26.5697 35.8522 26.4522 37.9084 26.3641C38.8045 23.7969 39.9765 21.3346 41.4041 19.0203L41.6684 18.6238" fill="#BE4119"/>
<path d="M35.5437 74.9064C38.6868 79.8561 42.6671 82.7936 47 82.7936C46.0023 82.7906 45.0112 82.632 44.0625 82.3236C45.1067 81.9766 46.0959 81.482 47 80.8548C44.8698 79.3715 43.0614 77.4731 41.6831 75.2736C39.5534 75.1854 37.5118 75.0532 35.5437 74.8623" fill="#59F4D9"/>
<path d="M34.6184 49.5557H28.7434C28.9049 55.5895 29.9693 61.565 31.9012 67.2835C33.8547 67.4304 35.8522 67.5478 37.9084 67.636L37.7762 67.2835C35.8443 61.565 34.7799 55.5895 34.6184 49.5557Z" fill="#59F4D9"/>
<path d="M31.9012 67.2834C32.8088 69.9547 34.0211 72.5125 35.5144 74.9062C37.4825 75.0972 39.5241 75.2293 41.6537 75.3175L41.4187 74.9062C39.9747 72.5989 38.797 70.1353 37.9084 67.5625C35.8522 67.4743 33.8547 67.3568 31.9012 67.21" fill="#BE4119"/>
<path d="M6.93245 41.595C6.60848 41.5802 6.2887 41.673 6.02301 41.859C5.75732 42.045 5.56066 42.3137 5.4637 42.6232C5.45546 42.7601 5.45546 42.8975 5.4637 43.0344V50.8922C5.4637 51.2818 5.61845 51.6553 5.89389 51.9308C6.16933 52.2062 6.54292 52.361 6.93245 52.361C7.09823 52.3823 7.26605 52.3823 7.43183 52.361L8.15152 52.1113L11.2946 50.9804V43.0785H11.1478L7.44652 41.7566C7.27895 41.6872 7.09913 41.6522 6.91777 41.6538" fill="#64CBB9"/>
<path d="M47 11.1626C51.4062 11.1626 55.3425 14.1001 58.4709 19.0498C59.9654 21.4677 61.187 24.044 62.1134 26.7313C60.2188 26.5845 58.1625 26.4376 56.1063 26.4376C58.1625 26.5257 60.16 26.6432 62.1134 26.7901C64.0402 32.5094 65.0996 38.4849 65.2566 44.5179C65.1068 38.465 64.0472 32.469 62.1134 26.7313C61.184 24.0592 59.9625 21.4979 58.4709 19.0938C55.3425 14.1148 51.4062 11.1626 47 11.1626Z" fill="white"/>
<path d="M47 11.1626C47.9977 11.1646 48.989 11.3232 49.9375 11.6326C48.8958 11.9856 47.9074 12.4798 47 13.1013C49.1349 14.5838 50.9483 16.4822 52.3316 18.6826C54.1969 18.7707 56.0034 18.8882 57.7366 19.0351H57.9569H58.2066H58.4709C55.3425 14.1148 51.4062 11.1626 47 11.1626Z" fill="#FFFF94"/>
<path d="M56.1062 26.4375L56.2384 26.79C58.1664 32.5089 59.2259 38.4846 59.3815 44.5178H65.2565C65.1054 38.465 64.0459 32.4693 62.1134 26.7313C60.2187 26.5844 58.1625 26.4375 56.1062 26.4375Z" fill="#FFFF94"/>
<path d="M52.3315 18.6384L52.5959 19.0497C54.0243 21.3655 55.2011 23.8274 56.1062 26.3934C58.1625 26.4816 60.16 26.5991 62.1134 26.7459C61.185 24.0687 59.9634 21.5024 58.4709 19.0937H58.2065H57.9569H57.7365C56.0034 18.9469 54.1969 18.8294 52.3315 18.7412" fill="#FFAE44"/>
<path d="M47 11.1626C46.0023 11.1646 45.011 11.3232 44.0625 11.6326C45.1067 11.9795 46.0959 12.4741 47 13.1013C47.9074 12.4798 48.8958 11.9856 49.9375 11.6326C48.989 11.3232 47.9977 11.1646 47 11.1626Z" fill="#D0FF6E"/>
<path d="M58.4562 74.9062C56.4881 75.0825 54.4466 75.2294 52.3169 75.3175C50.9472 77.5359 49.1378 79.4504 47 80.9428C47.9074 81.5644 48.8958 82.0586 49.9375 82.4116C48.9893 82.7222 47.9978 82.8808 47 82.8816C51.4062 82.8816 55.3278 79.9441 58.4562 74.9944" fill="#FFFF94"/>
<path d="M65.2565 49.5557H59.3815C59.2246 55.5887 58.1651 61.5642 56.2384 67.2835L56.1062 67.636C58.1625 67.5478 60.16 67.4304 62.1134 67.2835C64.0401 61.5642 65.0996 55.5887 65.2565 49.5557Z" fill="#FFFF94"/>
<path d="M62.1135 67.2834C60.16 67.4303 58.1625 67.5478 56.1063 67.6359C55.2006 70.2042 54.0187 72.6666 52.5813 74.9797L52.3169 75.3909C54.4466 75.3028 56.4881 75.1559 58.4563 74.9797C59.9488 72.5835 61.1658 70.0264 62.0841 67.3569" fill="#FFAE44"/>
<path d="M47 80.9429C46.0959 81.5701 45.1067 82.0647 44.0625 82.4116C45.0113 82.7201 46.0023 82.8787 47 82.8816C47.9978 82.8809 48.9893 82.7222 49.9375 82.4116C48.8958 82.0586 47.9074 81.5644 47 80.9429Z" fill="#D0FF6E"/>
<path d="M87.0675 41.595C86.8862 41.5935 86.7064 41.6284 86.5388 41.6978L85.8779 41.9328L82.6907 43.0785V50.9363L85.8485 52.0672L86.5535 52.3169C86.7187 52.3454 86.8876 52.3454 87.0529 52.3169C87.4424 52.3169 87.816 52.1622 88.0914 51.8867C88.3669 51.6113 88.5216 51.2377 88.5216 50.8481V43.0785C88.5216 42.6889 88.3669 42.3153 88.0914 42.0399C87.816 41.7645 87.4424 41.6097 87.0529 41.6097" fill="#C5FFF5"/>
<path d="M35.5291 20.5626C35.2756 20.5641 35.026 20.4999 34.8047 20.3764C34.5833 20.2528 34.3977 20.0741 34.2659 19.8576C34.123 19.6258 34.0472 19.3588 34.0472 19.0865C34.0472 18.8142 34.123 18.5472 34.2659 18.3154C37.8644 12.6607 42.2706 9.69385 47 9.69385C51.7294 9.69385 56.2091 12.7342 59.7194 18.2713C59.8653 18.5048 59.9426 18.7745 59.9426 19.0498C59.9426 19.3251 59.8653 19.5948 59.7194 19.8282C59.576 20.0601 59.3709 20.2475 59.1271 20.3694C58.8832 20.4913 58.6103 20.5429 58.3387 20.5185C54.5494 20.166 50.6572 19.9898 46.8091 20.0045C42.9609 20.0192 39.2009 20.1954 35.6612 20.5185L35.5291 20.5626ZM47 12.6313C43.5044 12.6313 40.6697 14.8492 38.5841 17.346C41.2425 17.1698 44.0037 17.0817 46.8091 17.067C49.6144 17.0523 52.5666 17.1551 55.4159 17.346C52.875 14.2763 49.9375 12.6313 47 12.6313Z" fill="black"/>
<path d="M47 84.3064C42.3294 84.3064 37.8203 81.266 34.31 75.7435C34.1468 75.5121 34.0539 75.2384 34.0427 74.9554C34.0314 74.6723 34.1022 74.3921 34.2466 74.1484C34.3909 73.9047 34.6027 73.708 34.8563 73.5819C35.1099 73.4557 35.3945 73.4056 35.676 73.4376C39.2156 73.7607 43.0197 73.937 46.8091 73.9517C50.5985 73.9663 54.52 73.7754 58.3241 73.4376C58.5956 73.4132 58.8686 73.4648 59.1124 73.5868C59.3562 73.7087 59.5613 73.8961 59.7047 74.1279C59.8506 74.3613 59.928 74.6311 59.928 74.9064C59.928 75.1816 59.8506 75.4514 59.7047 75.6848C56.1944 81.266 51.6853 84.3064 47 84.3064ZM38.5988 76.6689C41.125 79.7239 44.0625 81.3689 47 81.3689C49.9375 81.3689 52.875 79.7239 55.4013 76.6689C52.5519 76.8451 49.6731 76.9479 46.8091 76.9479C43.945 76.9479 41.2572 76.8451 38.5988 76.6689Z" fill="black"/>
<path d="M47.1028 69.2956C41.9034 69.2956 36.8216 69.1047 31.7984 68.7522C31.5127 68.7307 31.2394 68.6261 31.0124 68.4512C30.7853 68.2764 30.6144 68.0389 30.5206 67.7681C28.5358 61.9084 27.4417 55.7841 27.2747 49.5997C27.2677 49.4025 27.3005 49.2059 27.3712 49.0217C27.4418 48.8375 27.5489 48.6694 27.6859 48.5275C27.8237 48.3869 27.9883 48.2755 28.1699 48.1998C28.3516 48.1241 28.5466 48.0857 28.7434 48.0868H39.0247C39.3811 48.0833 39.7266 48.2095 39.9968 48.4419C40.267 48.6743 40.4435 48.9971 40.4934 49.35C41.125 54.3437 43.9009 58.045 47 58.045C50.0991 58.045 52.875 54.3437 53.5359 49.35C53.5858 48.9971 53.7623 48.6743 54.0325 48.4419C54.3028 48.2095 54.6483 48.0833 55.0047 48.0868H65.2859C65.4827 48.0857 65.6777 48.1241 65.8594 48.1998C66.0411 48.2755 66.2057 48.3869 66.3434 48.5275C66.4805 48.6694 66.5875 48.8375 66.6582 49.0217C66.7288 49.2059 66.7617 49.4025 66.7547 49.5997C66.5964 55.7837 65.5071 61.9087 63.5234 67.7681C63.4297 68.0389 63.2587 68.2764 63.0317 68.4512C62.8046 68.6261 62.5314 68.7307 62.2456 68.7522C57.2812 69.1047 52.2287 69.2956 47.1028 69.2956ZM32.9881 65.8881C42.3238 66.5123 51.6908 66.5123 61.0266 65.8881C62.5628 61.0709 63.4663 56.0745 63.7144 51.0243H56.2384C55.0487 56.8993 51.3622 60.9825 47 60.9825C42.6378 60.9825 38.9659 56.9434 37.7616 51.0243H30.2856C30.5353 56.0755 31.4438 61.0724 32.9881 65.8881ZM65.3006 45.9278H55.0194C54.663 45.9313 54.3175 45.8051 54.0472 45.5727C53.777 45.3403 53.6005 45.0176 53.5506 44.6647C52.875 39.6562 50.055 35.955 47 35.955C43.945 35.955 41.125 39.6562 40.4641 44.6647C40.4142 45.0176 40.2377 45.3403 39.9674 45.5727C39.6972 45.8051 39.3517 45.9313 38.9953 45.9278H28.7141C28.5173 45.9289 28.3222 45.8905 28.1406 45.8148C27.9589 45.7391 27.7943 45.6277 27.6566 45.4872C27.5195 45.3452 27.4125 45.1771 27.3418 44.9929C27.2711 44.8087 27.2383 44.6121 27.2453 44.415C27.4124 38.2258 28.5065 32.0966 30.4912 26.2318C30.585 25.961 30.7559 25.7236 30.983 25.5487C31.21 25.3739 31.4833 25.2693 31.7691 25.2478C36.7334 24.8953 41.8741 24.7043 47.0734 24.7043C52.2728 24.7043 57.3547 24.91 62.1869 25.2625C62.4726 25.284 62.7459 25.3886 62.9729 25.5634C63.2 25.7383 63.3709 25.9757 63.4647 26.2465C65.4484 32.106 66.5377 38.2309 66.6959 44.415C66.7029 44.6121 66.6701 44.8087 66.5994 44.9929C66.5288 45.1771 66.4217 45.3452 66.2847 45.4872C66.0135 45.7639 65.644 45.9223 65.2566 45.9278H65.3006ZM56.2825 42.9903H63.7584C63.5104 37.9402 62.6069 32.9437 61.0706 28.1265C56.6644 27.8181 51.9203 27.6565 47.1469 27.6418C42.3734 27.6272 37.6147 27.8034 33.0322 28.1118C31.4864 32.9323 30.5779 37.9342 30.3297 42.9903H37.8056C39.01 37.1153 42.6819 33.0175 47.0441 33.0175C51.4062 33.0175 55.0487 37.0565 56.2384 42.9903H56.2825Z" fill="black"/>
<path d="M47 60.9825C42.3294 60.9825 38.4519 56.356 37.556 49.7466C37.5287 49.5392 37.5461 49.3285 37.6069 49.1284C37.6677 48.9283 37.7705 48.7434 37.9085 48.5863C38.0461 48.4296 38.2155 48.3041 38.4055 48.2179C38.5954 48.1318 38.8015 48.0872 39.01 48.0869H54.99C55.1986 48.0872 55.4047 48.1318 55.5946 48.2179C55.7845 48.3041 55.954 48.4296 56.0916 48.5863C56.2296 48.7434 56.3324 48.9283 56.3932 49.1284C56.454 49.3285 56.4713 49.5392 56.4441 49.7466C55.5482 56.356 51.6707 60.9825 47 60.9825ZM40.7725 51.0244C41.7713 55.1663 44.2535 58.045 47 58.045C49.7466 58.045 52.2288 55.1075 53.2275 51.0244H40.7725Z" fill="black"/>
<path d="M54.99 45.9279H39.01C38.8015 45.9276 38.5954 45.883 38.4055 45.7969C38.2155 45.7107 38.0461 45.5852 37.9085 45.4285C37.7705 45.2714 37.6677 45.0865 37.6069 44.8864C37.5461 44.6863 37.5287 44.4756 37.556 44.2682C38.4519 37.6441 42.3294 33.0176 47 33.0176C51.6707 33.0176 55.5482 37.6441 56.4441 44.2682C56.4713 44.4756 56.454 44.6863 56.3932 44.8864C56.3324 45.0865 56.2296 45.2714 56.0916 45.4285C55.954 45.5852 55.7845 45.7107 55.5946 45.7969C55.4047 45.883 55.1986 45.9276 54.99 45.9279ZM40.7725 42.9904H53.2275C52.2141 38.8926 49.7025 35.9551 47 35.9551C44.2975 35.9551 41.7713 38.8338 40.7725 42.9904Z" fill="black"/>
<path d="M62.1134 28.2001H61.9959C57.2225 27.8476 52.2141 27.6566 47.1028 27.6419C41.9916 27.6272 36.895 27.8182 32.0187 28.1854C31.7749 28.2038 31.5303 28.1611 31.3072 28.061C31.084 27.961 30.8894 27.8069 30.7409 27.6126C30.5924 27.4189 30.4944 27.1912 30.456 26.9501C30.4175 26.7091 30.4397 26.4622 30.5206 26.2319C31.4737 23.4467 32.7349 20.7766 34.2806 18.2713C34.4052 18.0857 34.5706 17.9311 34.764 17.8191C34.9575 17.7071 35.1739 17.6407 35.3969 17.6251C39.0247 17.2872 42.8581 17.111 46.8091 17.0963C50.76 17.0816 54.7256 17.2579 58.5591 17.6251C58.782 17.6462 58.9972 17.7181 59.1881 17.8352C59.3791 17.9523 59.5407 18.1115 59.6606 18.3007C61.221 20.8074 62.4922 23.4829 63.45 26.276C63.5272 26.4969 63.5506 26.7331 63.518 26.9649C63.4855 27.1966 63.398 27.4173 63.263 27.6084C63.1279 27.7995 62.9491 27.9556 62.7415 28.0636C62.5338 28.1717 62.3034 28.2285 62.0694 28.2294L62.1134 28.2001ZM47.1028 24.7044C51.5091 24.7044 55.7831 24.8513 59.925 25.1157C59.2731 23.506 58.4973 21.9493 57.6044 20.4597C54.05 20.1513 50.4222 19.9751 46.8091 20.0044C43.1959 20.0338 39.715 20.166 36.3956 20.4597C35.5106 21.9462 34.7397 23.4978 34.0897 25.101C38.3344 24.8366 42.6966 24.7044 47.1028 24.7044Z" fill="black"/>
<path d="M46.8091 76.9479C42.8581 76.9479 39.0247 76.7569 35.4116 76.4191C35.1886 76.3979 34.9734 76.326 34.7825 76.2089C34.5916 76.0918 34.4299 75.9326 34.31 75.7435C32.7402 73.2419 31.4684 70.5653 30.5206 67.7682C30.4397 67.5379 30.4175 67.291 30.456 67.05C30.4944 66.8089 30.5924 66.5812 30.7409 66.3875C30.8894 66.1932 31.084 66.0391 31.3072 65.939C31.5303 65.839 31.7749 65.7963 32.0187 65.8147C41.9982 66.5344 52.0165 66.5344 61.9959 65.8147C62.2398 65.7963 62.4844 65.839 62.7075 65.939C62.9306 66.0391 63.1253 66.1932 63.2738 66.3875C63.4223 66.5812 63.5203 66.8089 63.5587 67.05C63.5972 67.291 63.575 67.5379 63.4941 67.7682C62.5352 70.5633 61.2588 73.2392 59.69 75.7435C59.5701 75.9326 59.4084 76.0918 59.2175 76.2089C59.0266 76.326 58.8114 76.3979 58.5884 76.4191C54.6962 76.7716 50.7306 76.9479 46.8091 76.9479ZM36.4103 73.555C39.7297 73.8488 43.2253 73.9957 46.8091 74.0104C50.3928 74.025 54.0206 73.8488 57.6044 73.555C58.4923 72.065 59.2632 70.5084 59.9103 68.8991C51.3113 69.4205 42.6887 69.4205 34.0897 68.8991C34.7416 70.5088 35.5175 72.0654 36.4103 73.555Z" fill="black"/>
<path d="M78.8279 51.0243H15.1722C14.7827 51.0243 14.4091 50.8696 14.1337 50.5941C13.8582 50.3187 13.7035 49.9451 13.7035 49.5555V44.459C13.7035 44.0694 13.8582 43.6959 14.1337 43.4204C14.4091 43.145 14.7827 42.9902 15.1722 42.9902H78.8279C79.2174 42.9902 79.591 43.145 79.8664 43.4204C80.1419 43.6959 80.2966 44.0694 80.2966 44.459V49.5555C80.2966 49.9451 80.1419 50.3187 79.8664 50.5941C79.591 50.8696 79.2174 51.0243 78.8279 51.0243ZM16.641 48.0868H77.3591V45.9277H16.641V48.0868Z" fill="black"/>
<path d="M87.0381 53.8738C86.7037 53.8703 86.3719 53.8158 86.054 53.7122C83.4837 52.7722 80.9134 51.8616 78.3284 50.9363C78.0445 50.8337 77.7992 50.6461 77.6257 50.399C77.4523 50.152 77.3591 49.8575 77.359 49.5557V44.4591C77.3591 44.1573 77.4523 43.8628 77.6257 43.6157C77.7992 43.3687 78.0445 43.1811 78.3284 43.0785L86.0393 40.3172C86.4883 40.1439 86.973 40.0835 87.4508 40.1415C87.9286 40.1994 88.3849 40.3738 88.7794 40.6495C89.174 40.9251 89.4948 41.2934 89.7136 41.7221C89.9324 42.1508 90.0426 42.6266 90.0343 43.1079V50.8922C90.0383 51.3708 89.9253 51.8431 89.7052 52.268C89.485 52.6929 89.1644 53.0576 88.7712 53.3304C88.2615 53.6822 87.6574 53.8716 87.0381 53.8738ZM80.2965 48.4688L87.0381 50.8922V43.0638L80.2965 45.5313V48.4688Z" fill="black"/>
<path d="M6.94724 53.8737C6.33252 53.8713 5.73311 53.6817 5.2288 53.3302C4.83558 53.0575 4.51496 52.6928 4.29482 52.2679C4.07468 51.8429 3.96169 51.3707 3.96568 50.8921V43.1077C3.96333 42.6279 4.07857 42.1548 4.30132 41.7297C4.52407 41.3047 4.84756 40.9407 5.24349 40.6696C5.63535 40.392 6.08929 40.2148 6.56555 40.1533C7.04181 40.0919 7.52588 40.1481 7.97537 40.3171L15.6716 43.0784C15.9555 43.181 16.2008 43.3686 16.3743 43.6156C16.5477 43.8627 16.6409 44.1571 16.641 44.459V49.5556C16.6409 49.8574 16.5477 50.1519 16.3743 50.3989C16.2008 50.646 15.9555 50.8335 15.6716 50.9362L7.96068 53.6974C7.63586 53.8153 7.29279 53.875 6.94724 53.8737ZM6.94724 43.0784V50.8921C9.23849 50.1284 11.5004 49.3205 13.7476 48.5127V45.5312L6.94724 43.0784Z" fill="black"/>
</svg>
