<svg width="57" height="59" viewBox="0 0 57 59" fill="none" xmlns="http://www.w3.org/2000/svg">
<path d="M23.32 1.01001V8.74001H13.51V1.01001H23.32Z" fill="#60CADA"/>
<path d="M23.32 25.3101V57.4701H13.51V25.3101H23.32Z" fill="#60CADA"/>
<path d="M55.92 17.03L48.38 21.17L46.65 22.12L40.84 25.31H1V8.73999H40.84L46.65 11.94L48.38 12.88L55.92 17.03Z" fill="#58B0BE"/>
<path d="M5 8.73999H1V25.31H5V8.73999Z" fill="#59F4D9"/>
<path d="M17.51 25.3101H13.51V57.4701H17.51V25.3101Z" fill="#64CBB9"/>
<path d="M17.51 1.01001H13.51V8.74001H17.51V1.01001Z" fill="#64CBB9"/>
<path d="M40.84 8.73999H36.84H40.84L46.65 11.94L48.38 12.88L55.92 17.03L48.38 12.88L46.65 11.94L40.84 8.73999Z" fill="white"/>
<path d="M40.84 8.73999H36.84L42.65 11.94L44.38 12.88L46.16 13.88C46.7275 14.1898 47.2012 14.6467 47.5312 15.2027C47.8612 15.7587 48.0353 16.3934 48.0353 17.04C48.0353 17.6866 47.8612 18.3212 47.5312 18.8773C47.2012 19.4333 46.7275 19.8902 46.16 20.2L44.38 21.2L42.65 22.14L36.84 25.33H40.84L46.65 22.14L48.38 21.2L55.92 17.05L48.38 12.9L46.65 11.96L40.84 8.75999" fill="#FFFF94"/>
<path d="M23.33 25.3101H19.33H23.32V57.4701H23.33V25.3101Z" fill="white"/>
<path d="M23.32 25.3101H19.33V57.4701H23.32V25.3101Z" fill="#C5FFF5"/>
<path d="M23.33 1.01001H19.33H23.32V8.74001H23.33V1.01001Z" fill="white"/>
<path d="M23.32 1.01001H19.33V8.74001H23.32V1.01001Z" fill="#C5FFF5"/>
<path d="M23.33 9.74H13.51C13.2448 9.74 12.9904 9.63464 12.8029 9.44711C12.6154 9.25957 12.51 9.00522 12.51 8.74V1C12.51 0.734784 12.6154 0.48043 12.8029 0.292893C12.9904 0.105357 13.2448 0 13.51 0H23.33C23.5952 0 23.8496 0.105357 24.0371 0.292893C24.2247 0.48043 24.33 0.734784 24.33 1V8.74C24.33 9.00522 24.2247 9.25957 24.0371 9.44711C23.8496 9.63464 23.5952 9.74 23.33 9.74ZM14.51 7.74H22.33V2H14.51V7.74Z" fill="black"/>
<path d="M23.33 58.4801H13.51C13.2448 58.4801 12.9904 58.3747 12.8029 58.1872C12.6154 57.9996 12.51 57.7453 12.51 57.4801V25.3101C12.51 25.0448 12.6154 24.7905 12.8029 24.603C12.9904 24.4154 13.2448 24.3101 13.51 24.3101H23.33C23.5952 24.3101 23.8496 24.4154 24.0371 24.603C24.2247 24.7905 24.33 25.0448 24.33 25.3101V57.4801C24.33 57.7453 24.2247 57.9996 24.0371 58.1872C23.8496 58.3747 23.5952 58.4801 23.33 58.4801ZM14.51 56.4801H22.33V26.3101H14.51V56.4801Z" fill="black"/>
<path d="M40.84 26.3101H1C0.734784 26.3101 0.48043 26.2047 0.292893 26.0172C0.105357 25.8297 0 25.5753 0 25.3101V8.7401C0 8.47488 0.105357 8.22053 0.292893 8.03299C0.48043 7.84546 0.734784 7.7401 1 7.7401H40.84C41.0109 7.73757 41.1796 7.77888 41.33 7.8601L56.4 16.1501C56.5578 16.2364 56.6894 16.3638 56.7809 16.5186C56.8724 16.6735 56.9205 16.8502 56.92 17.0301C56.9205 17.21 56.8724 17.3867 56.7809 17.5416C56.6894 17.6964 56.5578 17.8238 56.4 17.9101L41.33 26.2401C41.1751 26.3041 41.0066 26.3282 40.84 26.3101ZM2 24.3101H40.59L53.85 17.0301L40.59 9.7401H2V24.3101Z" fill="black"/>
<path d="M28.46 15.24H7.08997C6.82475 15.24 6.5704 15.1346 6.38286 14.9471C6.19532 14.7596 6.08997 14.5052 6.08997 14.24C6.08997 13.9748 6.19532 13.7204 6.38286 13.5329C6.5704 13.3453 6.82475 13.24 7.08997 13.24H28.46C28.7252 13.24 28.9795 13.3453 29.1671 13.5329C29.3546 13.7204 29.46 13.9748 29.46 14.24C29.46 14.5052 29.3546 14.7596 29.1671 14.9471C28.9795 15.1346 28.7252 15.24 28.46 15.24Z" fill="black"/>
<path d="M34.4 20.8101H7.08997C6.82475 20.8101 6.5704 20.7047 6.38286 20.5172C6.19532 20.3296 6.08997 20.0753 6.08997 19.8101C6.08997 19.5448 6.19532 19.2905 6.38286 19.103C6.5704 18.9154 6.82475 18.8101 7.08997 18.8101H34.4C34.6652 18.8101 34.9195 18.9154 35.1071 19.103C35.2946 19.2905 35.4 19.5448 35.4 19.8101C35.4 20.0753 35.2946 20.3296 35.1071 20.5172C34.9195 20.7047 34.6652 20.8101 34.4 20.8101Z" fill="black"/>
</svg>
