<svg width="36" height="36" viewBox="0 0 36 36" fill="none" xmlns="http://www.w3.org/2000/svg">
<g clip-path="url(#clip0_214_129)">
<path d="M33.3439 0.000136327H2.65571C1.95941 -0.00694993 1.28875 0.262474 0.790866 0.749291C0.292986 1.23611 0.0085606 1.90055 0 2.59683V33.4089C0.0101088 34.1042 0.295215 34.7671 0.792926 35.2527C1.29064 35.7382 1.96042 36.0068 2.65571 35.9997H33.3439C34.0402 36.0052 34.7104 35.7349 35.2081 35.2478C35.7057 34.7607 35.9903 34.0964 35.9996 33.4001V2.58798C35.9872 1.89374 35.7012 1.23246 35.2039 0.747882C34.7067 0.263301 34.0382 -0.00541754 33.3439 0.000136327Z" fill="#0076B2"/>
<path d="M5.32921 13.494H10.6731V30.6883H5.32921V13.494ZM8.00262 4.93677C8.61554 4.93677 9.21469 5.11856 9.72427 5.45914C10.2338 5.79971 10.631 6.28378 10.8654 6.8501C11.0998 7.41641 11.161 8.03954 11.0412 8.64063C10.9214 9.24173 10.626 9.79379 10.1924 10.227C9.75882 10.6602 9.20648 10.955 8.60527 11.0742C8.00405 11.1935 7.38099 11.1317 6.8149 10.8967C6.24881 10.6618 5.76512 10.2642 5.42503 9.75428C5.08493 9.24438 4.90371 8.64506 4.9043 8.03214C4.90508 7.21093 5.23185 6.42361 5.81282 5.8432C6.39378 5.26279 7.18141 4.93677 8.00262 4.93677ZM14.0252 13.494H19.1477V15.8547H19.2186C19.9326 14.5032 21.6736 13.078 24.2733 13.078C29.685 13.0662 30.6883 16.6278 30.6883 21.2458V30.6883H25.3444V22.3228C25.3444 20.331 25.309 17.7668 22.5677 17.7668C19.8264 17.7668 19.3602 19.9386 19.3602 22.193V30.6883H14.0252V13.494Z" fill="white"/>
</g>
<defs>
<clipPath id="clip0_214_129">
<rect width="36" height="36" fill="white"/>
</clipPath>
</defs>
</svg>
