<svg width="104" height="40" viewBox="0 0 104 40" fill="none" xmlns="http://www.w3.org/2000/svg">
<path d="M78.3946 1.80182V9.1524H25.4065V1.80182H78.3946Z" fill="#FF6F4C"/>
<path d="M51.561 9.15265L33.4166 38.1981H26.6013L44.7636 9.15265H51.4897" fill="#64CBB9"/>
<path d="M77.1973 38.216H70.382L52.2375 9.15265H59.035L77.1973 38.216Z" fill="#64CBB9"/>
<path d="M21.0538 16.1996V22.8008H1.7854V16.1996H21.0538Z" fill="#FF6F4C"/>
<path d="M15.4697 22.8009V38.1979H7.36987V22.8009H15.4697Z" fill="#FF6F4C"/>
<path d="M102.016 16.1996V22.8008H82.7473V16.1996H102.016Z" fill="#FF6F4C"/>
<path d="M96.4314 22.8009V38.1979H88.3315V22.8009H96.4314Z" fill="#FF6F4C"/>
<path d="M32.5429 1.80182H25.4065V9.1524H32.5429V1.80182Z" fill="#3A8FA0"/>
<path d="M51.561 9.15265H44.7636L26.6013 38.216H33.4166L51.561 9.15265Z" fill="#256F7A"/>
<path d="M8.92185 16.1996H1.7854V22.8008V16.1996H8.92185Z" fill="#BFBFBF"/>
<path d="M8.92185 16.1996H1.7854V22.8008H7.36967H14.5061H8.92185V16.1996Z" fill="#3A8FA0"/>
<path d="M14.5063 22.8009H7.36987V38.1979H14.5063V22.8009Z" fill="#3A8FA0"/>
<path d="M78.3935 1.80182H71.2571V9.1524H78.3935V1.80182Z" fill="#FFFF94"/>
<path d="M102.015 16.1996H94.8787H102.015V22.8008V16.1996Z" fill="white"/>
<path d="M102.015 16.1996H94.8785V22.8008H89.2942H96.4306H102.015V16.1996Z" fill="#FFFF94"/>
<path d="M96.4306 22.8009H89.2942V38.1979H96.4306V22.8009Z" fill="#FFFF94"/>
<path d="M59.035 9.15265H52.2375L70.382 38.1981H77.1973L59.035 9.15265Z" fill="#FF6F4C"/>
<path d="M78.3943 10.9367H25.4062C24.933 10.9367 24.4792 10.7487 24.1446 10.4141C23.81 10.0795 23.6221 9.62571 23.6221 9.15254V1.78412C23.6221 1.31094 23.81 0.857143 24.1446 0.522555C24.4792 0.187968 24.933 0 25.4062 0H78.3943C78.8675 0 79.3213 0.187968 79.6559 0.522555C79.9904 0.857143 80.1784 1.31094 80.1784 1.78412V9.15254C80.1784 9.62571 79.9904 10.0795 79.6559 10.4141C79.3213 10.7487 78.8675 10.9367 78.3943 10.9367ZM27.1903 7.36842H76.6102V3.56824H27.1903V7.36842Z" fill="black"/>
<path d="M26.6025 39.9999C26.2816 40.0008 25.9663 39.9151 25.69 39.7518C25.4137 39.5885 25.1865 39.3537 25.0325 39.0722C24.8759 38.8009 24.7935 38.4933 24.7935 38.1801C24.7935 37.8669 24.8759 37.5593 25.0325 37.288L43.3375 8.20689C43.4966 7.95232 43.7173 7.74202 43.9793 7.59544C44.2412 7.44887 44.5359 7.37076 44.8361 7.36835H51.5622C51.881 7.36771 52.1941 7.45249 52.469 7.61388C52.7439 7.77527 52.9706 8.00736 53.1254 8.28602C53.2802 8.56468 53.3575 8.87974 53.3493 9.19841C53.3411 9.51708 53.2477 9.82773 53.0787 10.0981L34.9343 39.1435C34.7752 39.3981 34.5545 39.6084 34.2925 39.755C34.0305 39.9016 33.7358 39.9797 33.4356 39.9821L26.6025 39.9999ZM45.8352 10.9366L29.7782 36.4138H32.383L48.333 10.9366H45.8352Z" fill="black"/>
<path d="M77.1979 39.9999H70.3647C70.0645 39.9975 69.7698 39.9194 69.5079 39.7728C69.2459 39.6262 69.0251 39.4159 68.866 39.1614L50.7216 10.0981C50.5527 9.82773 50.4592 9.51708 50.451 9.19841C50.4428 8.87974 50.5201 8.56468 50.675 8.28602C50.8298 8.00736 51.0564 7.77527 51.3313 7.61388C51.6062 7.45249 51.9193 7.36771 52.2381 7.36835H59.0356C59.3358 7.37076 59.6305 7.44887 59.8924 7.59544C60.1544 7.74202 60.3752 7.95232 60.5342 8.20689L78.6608 37.2524C78.8174 37.5236 78.8998 37.8312 78.8998 38.1444C78.8998 38.4576 78.8174 38.7653 78.6608 39.0365C78.5204 39.3093 78.312 39.5413 78.0557 39.7101C77.7994 39.8789 77.504 39.9787 77.1979 39.9999ZM71.3638 36.4317H73.9686L57.9116 10.9544H55.4674L71.3638 36.4317Z" fill="black"/>
<path d="M21.0525 24.5855H1.78411C1.31094 24.5855 0.85714 24.3975 0.522554 24.0629C0.187968 23.7284 0 23.2746 0 22.8014V16.2001C0 15.727 0.187968 15.2732 0.522554 14.9386C0.85714 14.604 1.31094 14.416 1.78411 14.416H21.0525C21.5257 14.416 21.9795 14.604 22.3141 14.9386C22.6487 15.2732 22.8366 15.727 22.8366 16.2001V22.8014C22.8366 23.2746 22.6487 23.7284 22.3141 24.0629C21.9795 24.3975 21.5257 24.5855 21.0525 24.5855ZM3.56822 21.0173H19.2684V17.9843H3.56822V21.0173Z" fill="black"/>
<path d="M15.4661 40H7.29485C6.82168 40 6.36788 39.812 6.0333 39.4774C5.69871 39.1428 5.51074 38.689 5.51074 38.2158V22.801C5.51074 22.3278 5.69871 21.874 6.0333 21.5395C6.36788 21.2049 6.82168 21.0169 7.29485 21.0169H15.3947C15.8679 21.0169 16.3217 21.2049 16.6563 21.5395C16.9909 21.874 17.1788 22.3278 17.1788 22.801V38.2158C17.1792 38.6769 17.0011 39.1202 16.6818 39.4528C16.3625 39.7854 15.9268 39.9815 15.4661 40ZM9.07897 36.4317H13.6106V24.5851H9.07897V36.4317Z" fill="black"/>
<path d="M102.016 24.5855H82.7472C82.2741 24.5855 81.8203 24.3975 81.4857 24.0629C81.1511 23.7284 80.9631 23.2746 80.9631 22.8014V16.2001C80.9631 15.727 81.1511 15.2732 81.4857 14.9386C81.8203 14.604 82.2741 14.416 82.7472 14.416H102.016C102.489 14.416 102.943 14.604 103.277 14.9386C103.612 15.2732 103.8 15.727 103.8 16.2001V22.8014C103.8 23.2746 103.612 23.7284 103.277 24.0629C102.943 24.3975 102.489 24.5855 102.016 24.5855ZM84.5314 21.0173H100.232V17.9843H84.5314V21.0173Z" fill="black"/>
<path d="M96.5025 40H88.3312C87.8581 40 87.4043 39.812 87.0697 39.4774C86.7351 39.1428 86.5471 38.689 86.5471 38.2158V22.801C86.5471 22.3278 86.7351 21.874 87.0697 21.5395C87.4043 21.2049 87.8581 21.0169 88.3312 21.0169H96.5025C96.9756 21.0169 97.4294 21.2049 97.764 21.5395C98.0986 21.874 98.2866 22.3278 98.2866 22.801V38.2158C98.2866 38.689 98.0986 39.1428 97.764 39.4774C97.4294 39.812 96.9756 40 96.5025 40ZM90.1867 36.4317H94.7184V24.5851H90.1153L90.1867 36.4317Z" fill="black"/>
</svg>
