<svg width="53" height="40" viewBox="0 0 53 40" fill="none" xmlns="http://www.w3.org/2000/svg">
<path d="M51.2012 35.4941H22.1603L16.8445 26.2761L11.5288 17.067H40.5609L45.8766 26.2761L51.2012 35.4941Z" fill="#FF6F4C"/>
<path d="M22.1606 35.4852V39.103H16.0982C15.1232 37.9439 14.2851 36.6762 13.6003 35.3252C12.3484 32.809 11.6311 30.0609 11.4936 27.2539C11.3598 30.0604 10.6455 32.8087 9.39574 35.3252C8.71937 36.6749 7.89021 37.9425 6.92455 39.103H0.888794V35.4852L6.2223 26.2761L11.5558 17.067L16.8893 26.2761L22.2228 35.4852" fill="#FF6F4C"/>
<path d="M51.2025 35.4932V39.111H22.1615V35.4932H51.2025Z" fill="#FF6F4C"/>
<path d="M16.0995 39.1024H11.5216V27.2532C11.6508 30.0583 12.359 32.8064 13.6017 35.3245C14.2864 36.6756 15.1246 37.9432 16.0995 39.1024Z" fill="#FF6F4C"/>
<path d="M11.5211 27.2532V39.1024H6.95203C7.91768 37.9418 8.74685 36.6743 9.42322 35.3245C10.673 32.8081 11.3873 30.0598 11.5211 27.2532Z" fill="#FF6F4C"/>
<path d="M26.3653 9.33302C26.3653 9.57302 26.5964 9.80414 27.0142 10.0086H26.9342C25.8091 10.0068 24.724 9.59066 23.8862 8.83972C23.0483 8.08878 22.5164 7.0556 22.3918 5.9374C23.3091 5.84439 24.2077 5.61675 25.0586 5.26183C25.4675 5.05738 25.6986 4.82626 25.6986 4.58626C25.6986 4.05291 24.5786 3.58179 22.8719 3.31512C23.21 2.6546 23.7081 2.08926 24.3208 1.67064C25.1897 1.06682 26.2409 0.782613 27.2957 0.866356C28.3504 0.9501 29.3436 1.39662 30.1063 2.12998C30.869 2.86335 31.3542 3.83826 31.4792 4.88893C31.6042 5.93959 31.3614 7.00112 30.7921 7.89299C28.2054 8.07966 26.3475 8.65745 26.3475 9.3508" fill="#FCE839"/>
<path d="M47.1927 8.30188C47.1927 9.27079 44.437 10.0797 41.0325 10.0797C40.1818 10.0677 39.3327 10.0024 38.4902 9.88414C37.6013 10.4708 35.3167 10.8886 32.6055 10.8886C30.6958 10.9608 28.7903 10.6588 26.9965 9.9997C26.5876 9.79525 26.3564 9.56413 26.3564 9.32413C26.3564 8.63078 28.2232 8.05299 30.801 7.86632C31.3699 7.82187 31.9833 7.79521 32.5789 7.79521C33.4678 7.79521 34.2412 7.83965 34.979 7.91076C35.5745 7.12853 38.0457 6.53296 40.9969 6.53296C44.4015 6.53296 47.1571 7.3152 47.1571 8.26633" fill="#EFEFEF"/>
<path d="M25.7258 4.61244C25.7258 4.85245 25.4947 5.08356 25.0858 5.28801C24.2349 5.64294 23.3363 5.87057 22.4191 5.96358C21.4457 6.08196 20.4661 6.14133 19.4856 6.14136C16.8189 6.14136 14.4899 5.72358 13.6099 5.1369C12.7696 5.24286 11.9234 5.2963 11.0765 5.2969C7.67191 5.2969 4.91626 4.52355 4.91626 3.51909C4.91626 2.51462 7.67191 1.74127 11.0765 1.74127C14.0277 1.74127 16.4989 2.33684 17.0944 3.11908C17.8145 3.11019 18.6234 3.11019 19.4679 3.11019C20.099 3.11019 20.7123 3.11019 21.2457 3.17241C21.779 3.23464 22.3657 3.27908 22.8635 3.35908C24.5702 3.62575 25.6903 4.09688 25.6903 4.63022" fill="#EFEFEF"/>
<path d="M20.5352 3.11041L20.6329 3.1993H21.273H21.1663H20.5352" fill="#B3B3B3"/>
<path d="M11.5205 17.067L6.20479 26.2761L0.897949 35.4852L6.20479 26.2761L11.5205 17.067L13.2984 20.1515L11.5205 17.067Z" fill="#BFBFBF"/>
<path d="M11.5205 17.067L6.20479 26.2761L0.897949 35.4852V39.103H4.45362V35.4852L9.76046 26.2761L13.2984 20.1515L11.5205 17.067Z" fill="#3A8FA0"/>
<path d="M11.0579 1.82153C7.65335 1.82153 4.89771 2.60377 4.89771 3.59935C4.89771 4.59492 7.65335 5.37716 11.0579 5.37716C11.6535 5.37716 12.2224 5.37716 12.7646 5.29716C10.2668 5.07493 8.45338 4.40825 8.45338 3.64379C8.45338 2.87933 10.2846 2.20376 12.8002 1.98154C12.2402 1.93709 11.6624 1.90153 11.0224 1.90153" fill="#B3B3B3"/>
<path d="M26.9344 0.888428C26.0132 0.892032 25.1146 1.174 24.3565 1.69733C23.8212 2.06809 23.3724 2.55023 23.0409 3.11069C23.6631 3.11069 24.2676 3.11069 24.8187 3.17292C25.3699 3.23514 25.9388 3.27959 26.4366 3.35959C26.5721 3.09103 26.736 2.83774 26.9255 2.60402C26.4481 2.02366 25.8384 1.56639 25.1476 1.27066C25.7102 1.03244 26.3145 0.908549 26.9255 0.906206" fill="#BDAE2B"/>
<path d="M25.9559 5.96378C24.9826 6.08216 24.003 6.14153 23.0225 6.14156H22.4269C22.5795 7.21645 23.1113 8.2014 23.9263 8.91862C24.7413 9.63584 25.7859 10.0381 26.8715 10.0528H27.0404C26.6315 9.84831 26.4003 9.61719 26.4003 9.37719C26.4003 9.13718 26.6937 8.84384 27.2093 8.62162C26.5175 7.89327 26.0888 6.95468 25.9914 5.9549" fill="#BDAE2B"/>
<path d="M27.1746 8.60447C26.6591 8.8267 26.3657 9.08448 26.3657 9.36004C26.3657 9.6356 26.5968 9.83116 27.0057 10.0356C27.5466 10.273 28.1135 10.4461 28.6947 10.5512C29.9854 10.7832 31.2946 10.8963 32.6059 10.889C31.9926 10.889 31.3881 10.889 30.8281 10.8178C31.477 10.7734 32.0815 10.7023 32.6059 10.6134C31.8955 10.5152 31.2017 10.3208 30.5436 10.0356H30.4903C29.8668 10.0381 29.2495 9.91146 28.6773 9.66363C28.1051 9.41579 27.5904 9.05214 27.1657 8.59558" fill="#B3B3B3"/>
<path d="M17.1561 5.13708C16.3157 5.24305 15.4696 5.29649 14.6226 5.29709H13.8671C15.6218 5.95224 17.4887 6.25432 19.3606 6.18599H19.4761C20.0895 6.18599 20.6673 6.18599 21.254 6.11488C19.8486 6.11652 18.4596 5.81324 17.1827 5.22598" fill="#B3B3B3"/>
<path d="M11.5288 17.067L13.2978 20.1515L11.5288 17.067Z" fill="#BFBFBF"/>
<path d="M15.0756 17.067H11.5288L13.2978 20.1515L15.0756 17.067Z" fill="#256F7A"/>
<path d="M40.5614 17.067H37.0057L42.3215 26.2761L47.6461 35.4941H51.2018L45.8771 26.2761L40.5614 17.067Z" fill="#EEFDFF"/>
<path d="M51.2012 35.4932H47.6455V39.111H51.2012V35.4932Z" fill="#EEFDFF"/>
<path d="M26.9353 0.888428C27.5462 0.891007 28.1505 1.01489 28.7131 1.25288C28.4241 1.37442 28.1472 1.52325 27.8864 1.69733C27.5254 1.94605 27.2021 2.24542 26.9264 2.58624C27.5825 3.40272 27.9401 4.41885 27.9398 5.4663C27.9447 6.32754 27.7042 7.17238 27.2464 7.9019C27.8153 7.85746 28.4198 7.83079 29.0242 7.83079C29.6287 7.83079 30.2243 7.83079 30.8021 7.89301C31.2093 7.25758 31.4507 6.53022 31.5043 5.77741C31.5043 5.67075 31.5043 5.57297 31.5043 5.4663C31.5043 4.25371 31.0232 3.09066 30.1666 2.23239C29.31 1.37413 28.1479 0.890782 26.9353 0.888428Z" fill="#FFFF72"/>
<path d="M26.934 0.888428C26.323 0.890771 25.7187 1.01466 25.1561 1.25288C25.8469 1.54861 26.4566 2.00588 26.934 2.58624C27.2097 2.24542 27.533 1.94605 27.894 1.69733C28.1548 1.52325 28.4316 1.37442 28.7207 1.25288C28.1581 1.01489 27.5538 0.891007 26.9429 0.888428" fill="#FFFF56"/>
<path d="M31.5566 7.85746H30.8633L31.4589 7.91079L31.5566 7.8219" fill="white"/>
<path d="M34.9352 9.88458C34.2144 10.271 33.4274 10.5183 32.6151 10.6135C33.1485 10.7024 33.744 10.7735 34.3929 10.8179C33.8329 10.8179 33.2462 10.889 32.6151 10.889H32.7396C34.6112 10.9539 36.4774 10.6519 38.2331 10.0001H37.4775C36.6285 10.0147 35.7794 9.97607 34.9352 9.88458Z" fill="white"/>
<path d="M32.6228 10.6129C32.0806 10.7017 31.4761 10.7729 30.845 10.8173C31.4139 10.8173 32.0183 10.8884 32.6228 10.8884C33.2451 10.8884 33.8317 10.8884 34.4006 10.8173C33.7695 10.7729 33.1739 10.7017 32.6228 10.6129Z" fill="white"/>
<path d="M45.3 7.05756C46.4645 7.36867 47.1934 7.81313 47.1934 8.30203C47.1934 8.79092 46.4912 9.24427 45.3 9.55538C46.4645 9.24427 47.1934 8.79981 47.1934 8.30203C47.1934 7.80424 46.4645 7.36867 45.3 7.05756Z" fill="white"/>
<path d="M41.033 6.56853C40.4285 6.56853 39.8507 6.56853 39.2551 6.64854C41.7708 6.87076 43.6019 7.53744 43.6019 8.3019C43.6019 9.06636 41.8241 9.74193 39.2907 9.96416C39.8329 10.0086 40.4018 10.0442 40.9974 10.0442C42.4347 10.0634 43.8685 9.89913 45.2642 9.55526C46.4287 9.24414 47.1576 8.79969 47.1576 8.3019C47.1576 7.80411 46.4287 7.36855 45.2642 7.05743C43.8685 6.71357 42.4347 6.54927 40.9974 6.56853" fill="white"/>
<path d="M51.2007 36.3819H22.1598C22.0047 36.381 21.8525 36.3395 21.7184 36.2615C21.5842 36.1835 21.4729 36.0718 21.3953 35.9375L10.755 17.5104C10.6769 17.3753 10.6359 17.222 10.6359 17.066C10.6359 16.9099 10.6769 16.7567 10.755 16.6215C10.8333 16.4859 10.946 16.3733 11.0819 16.2953C11.2177 16.2172 11.3717 16.1764 11.5283 16.1771H40.5604C40.7155 16.178 40.8677 16.2195 41.0018 16.2975C41.1359 16.3755 41.2473 16.4872 41.3249 16.6215L51.9919 35.0486C52.0699 35.1837 52.111 35.337 52.111 35.493C52.111 35.6491 52.0699 35.8023 51.9919 35.9375C51.9121 36.0758 51.7965 36.19 51.6573 36.2682C51.5181 36.3465 51.3604 36.3857 51.2007 36.3819ZM22.6754 34.6041H49.6629L40.0448 17.9549H13.0661L22.6754 34.6041Z" fill="black"/>
<path d="M22.1607 39.9909H16.0983C15.9692 39.9898 15.8419 39.9606 15.7253 39.9053C15.6086 39.8501 15.5054 39.7701 15.4227 39.6709C14.4119 38.4589 13.544 37.1346 12.836 35.7241C12.3062 34.6707 11.8689 33.5732 11.5293 32.4441C11.1834 33.5711 10.7464 34.668 10.2226 35.7241C9.51249 37.1334 8.64468 38.4575 7.63581 39.6709C7.55223 39.7712 7.44757 39.8519 7.32927 39.9072C7.21097 39.9625 7.08194 39.9911 6.95134 39.9909H0.888919C0.653163 39.9909 0.427063 39.8972 0.260358 39.7305C0.0936536 39.5638 0 39.3377 0 39.102V35.4841C0.0016256 35.3276 0.0445555 35.1743 0.124448 35.0397L10.7915 16.6215C10.869 16.4872 10.9804 16.3755 11.1145 16.2975C11.2486 16.2195 11.4008 16.178 11.5559 16.1771C11.7126 16.1764 11.8666 16.2172 12.0024 16.2953C12.1382 16.3733 12.251 16.4859 12.3293 16.6215L22.9963 35.0397C23.0731 35.1751 23.113 35.3284 23.1119 35.4841V39.102C23.1122 39.2241 23.0873 39.345 23.0388 39.4572C22.9903 39.5693 22.9192 39.6702 22.8299 39.7536C22.7407 39.837 22.6352 39.9011 22.5201 39.942C22.4049 39.9828 22.2826 39.9994 22.1607 39.9909ZM16.525 38.2131H21.2718V35.7241L11.4937 18.8349L1.71561 35.7241V38.2131H6.47133C7.2848 37.1939 7.988 36.0914 8.56918 34.9241C9.76714 32.5195 10.4513 29.8919 10.5781 27.2084C10.5781 26.9727 10.6718 26.7466 10.8385 26.5799C11.0052 26.4131 11.2313 26.3195 11.4671 26.3195C11.7028 26.3195 11.9289 26.4131 12.0956 26.5799C12.2623 26.7466 12.356 26.9727 12.356 27.2084C12.4859 29.8953 13.173 32.5258 14.3738 34.933C14.974 36.0987 15.6951 37.1981 16.525 38.2131Z" fill="black"/>
<path d="M51.2027 40H22.1617C21.926 40 21.6999 39.9063 21.5332 39.7396C21.3665 39.5729 21.2728 39.3468 21.2728 39.1111V35.4932C21.2728 35.2575 21.3665 35.0314 21.5332 34.8647C21.6999 34.698 21.926 34.6043 22.1617 34.6043H51.2027C51.4385 34.6043 51.6646 34.698 51.8313 34.8647C51.998 35.0314 52.0916 35.2575 52.0916 35.4932V39.1111C52.0916 39.3468 51.998 39.5729 51.8313 39.7396C51.6646 39.9063 51.4385 40 51.2027 40ZM23.0507 38.2222H50.3138V36.3821H23.0507V38.2222Z" fill="black"/>
<path d="M11.5197 28.1417C11.2839 28.1417 11.0578 28.0481 10.8911 27.8814C10.7244 27.7147 10.6307 27.4886 10.6307 27.2528V17.066C10.6307 16.8302 10.7244 16.6041 10.8911 16.4374C11.0578 16.2707 11.2839 16.1771 11.5197 16.1771C11.7554 16.1771 11.9815 16.2707 12.1482 16.4374C12.3149 16.6041 12.4086 16.8302 12.4086 17.066V27.2528C12.4086 27.4886 12.3149 27.7147 12.1482 27.8814C11.9815 28.0481 11.7554 28.1417 11.5197 28.1417Z" fill="black"/>
<path d="M16.0976 39.9913H11.5197C11.2839 39.9913 11.0578 39.8977 10.8911 39.731C10.7244 39.5643 10.6307 39.3382 10.6307 39.1024V27.2533C10.6307 27.0175 10.7244 26.7914 10.8911 26.6247C11.0578 26.458 11.2839 26.3644 11.5197 26.3644C11.7554 26.3644 11.9815 26.458 12.1482 26.6247C12.3149 26.7914 12.4086 27.0175 12.4086 27.2533C12.5385 29.9402 13.2256 32.5707 14.4264 34.9779C15.0731 36.2631 15.8633 37.4708 16.7821 38.578C16.8916 38.708 16.9615 38.8667 16.9836 39.0353C17.0056 39.2039 16.9789 39.3753 16.9065 39.5291C16.8276 39.6734 16.7103 39.7931 16.5675 39.8747C16.4246 39.9563 16.262 39.9967 16.0976 39.9913ZM12.4086 38.2135H14.3109C13.7606 37.4199 13.2675 36.5881 12.8353 35.7246C12.6841 35.4312 12.5419 35.129 12.4086 34.8357V38.2135Z" fill="black"/>
<path d="M11.52 39.9917H6.95096C6.78266 39.9903 6.61821 39.9411 6.47675 39.8499C6.33529 39.7588 6.22262 39.6293 6.15185 39.4766C6.08109 39.3239 6.05513 39.1542 6.07699 38.9873C6.09886 38.8204 6.16766 38.6632 6.27538 38.5339C7.19415 37.4236 7.98439 36.2129 8.63101 34.9249C9.82898 32.5204 10.5131 29.8927 10.64 27.2092C10.64 26.9735 10.7336 26.7474 10.9003 26.5807C11.067 26.414 11.2931 26.3203 11.5289 26.3203C11.6456 26.3203 11.7612 26.3433 11.8691 26.388C11.9769 26.4326 12.0749 26.4981 12.1574 26.5807C12.24 26.6632 12.3055 26.7612 12.3501 26.869C12.3948 26.9769 12.4178 27.0925 12.4178 27.2092V39.1028C12.4178 39.2203 12.3945 39.3366 12.3493 39.445C12.3041 39.5535 12.2378 39.6518 12.1543 39.7345C12.0708 39.8172 11.9718 39.8825 11.8629 39.9266C11.754 39.9707 11.6375 39.9929 11.52 39.9917ZM8.74657 38.2139H10.6311V34.8449C10.5066 35.1383 10.3644 35.4316 10.2222 35.7338C9.78952 36.5943 9.29642 37.4231 8.74657 38.2139Z" fill="black"/>
<path d="M26.9345 10.9329C25.5885 10.9364 24.2889 10.4415 23.286 9.54372C22.2832 8.64594 21.6481 7.40876 21.5032 6.0706V5.97282C21.5014 5.75579 21.579 5.54558 21.7215 5.38184C21.8639 5.21809 22.0614 5.11212 22.2766 5.08392C22.9989 4.99971 23.7108 4.84185 24.4011 4.6128C23.8633 4.42932 23.3099 4.29542 22.7477 4.21279C22.6086 4.1919 22.4764 4.13831 22.3621 4.05641C22.2477 3.97451 22.1544 3.86664 22.0899 3.74167C22.0259 3.61645 21.9925 3.47783 21.9925 3.33722C21.9925 3.1966 22.0259 3.05798 22.0899 2.93276C22.4978 2.14327 23.093 1.46573 23.8233 0.95939C24.6442 0.395981 25.6035 0.0674766 26.5975 0.00933116C27.5915 -0.0488142 28.5825 0.165608 29.4635 0.629455C30.3446 1.0933 31.0822 1.78896 31.5968 2.64134C32.1114 3.49373 32.3835 4.47047 32.3836 5.46615C32.3876 6.49765 32.0977 7.50896 31.548 8.38176C31.4736 8.4985 31.373 8.59626 31.2542 8.66725C31.1353 8.73824 31.0016 8.7805 30.8635 8.79066C29.7537 8.83656 28.6557 9.03701 27.6012 9.38623C27.702 9.48071 27.7794 9.59739 27.8272 9.727C27.875 9.85662 27.892 9.99559 27.8768 10.1329C27.8568 10.3131 27.7823 10.4829 27.6632 10.6196C27.544 10.7562 27.3859 10.8531 27.2101 10.8974C27.1195 10.9174 27.0272 10.9293 26.9345 10.9329ZM23.4499 6.66617C23.6226 7.16349 23.9012 7.61738 24.2665 7.99646C24.6317 8.37555 25.075 8.67079 25.5656 8.86177C25.9389 7.89286 27.5123 7.27952 30.2679 7.03062C30.5081 6.53494 30.6298 5.99024 30.6235 5.43948C30.6165 4.46573 30.2247 3.53427 29.5336 2.84821C28.8426 2.16215 27.9083 1.77716 26.9345 1.77718C26.188 1.77334 25.4585 1.99995 24.8455 2.42609C24.6987 2.52577 24.5591 2.63567 24.4277 2.75498C25.8945 3.16388 26.6056 3.77722 26.6056 4.6128C26.6056 5.03058 26.41 5.61726 25.4678 6.08838C24.8238 6.36964 24.1452 6.56395 23.4499 6.66617Z" fill="black"/>
<path d="M32.6149 11.7776C30.5721 11.8668 28.532 11.5464 26.6147 10.8354C25.6725 10.3643 25.4769 9.77759 25.4769 9.3598C25.4769 8.062 27.2548 7.27087 30.7482 7.01309C32.0622 6.91984 33.3811 6.91984 34.695 7.01309C35.9484 6.03529 38.6951 5.67084 41.033 5.67084C41.7619 5.67084 48.0821 5.75084 48.0821 8.33756C48.0821 10.9243 41.7619 10.9598 41.033 10.9598C40.2488 10.9604 39.4653 10.9159 38.6863 10.8265C37.3084 11.511 34.7039 11.7776 32.6149 11.7776ZM27.6903 9.33313C29.2879 9.80449 30.9499 10.0205 32.6149 9.97315C35.2817 9.97315 37.3707 9.53758 38.0018 9.08424C38.1796 8.96571 38.3942 8.91522 38.6063 8.94201C39.4113 9.04242 40.2217 9.09289 41.033 9.09313C42.7721 9.18683 44.5107 8.89859 46.1265 8.24867C44.5155 7.57876 42.7757 7.27515 41.033 7.35976C37.8685 7.35976 35.9839 8.04422 35.6995 8.382C35.6082 8.50527 35.4865 8.6028 35.3463 8.6651C35.2061 8.72741 35.0522 8.75237 34.8995 8.73757C33.555 8.60786 32.2019 8.59299 30.8549 8.69312C29.7763 8.76507 28.7121 8.98029 27.6903 9.33313Z" fill="black"/>
<path d="M19.4672 7.03032C17.3871 7.03032 14.7826 6.77254 13.4048 6.05252C12.6257 6.14193 11.8422 6.18645 11.058 6.18586C10.3291 6.18586 4.00891 6.10586 4.00891 3.51914C4.00891 0.932419 10.3291 0.852417 11.058 0.852417C13.3959 0.852417 16.1426 1.21687 17.396 2.20355C18.7128 2.10605 20.0349 2.10605 21.3517 2.20355C21.9117 2.20355 22.4806 2.31022 23.0318 2.39911C25.4496 2.77246 26.5874 3.48358 26.5874 4.55027C26.5874 4.96806 26.3919 5.55473 25.4496 6.02586C24.509 6.4438 23.5113 6.71942 22.4895 6.84365C21.4871 6.96995 20.4776 7.0323 19.4672 7.03032ZM13.6003 4.24804C13.7776 4.24764 13.951 4.30027 14.0981 4.39916C14.7293 4.82583 16.7649 5.28806 19.4761 5.28806C20.4179 5.28847 21.3589 5.23207 22.294 5.11917C23.0163 5.03496 23.7282 4.8771 24.4185 4.64805C23.8807 4.46457 23.3273 4.33067 22.7651 4.24804C22.2584 4.16804 21.7428 4.11471 21.2273 4.07915C19.8785 3.96421 18.5225 3.96421 17.1738 4.07915C17.0219 4.09495 16.8685 4.07136 16.7284 4.01064C16.5882 3.94991 16.4661 3.85412 16.3738 3.73248C16.116 3.3858 14.2315 2.70134 11.0403 2.70134C9.29783 2.62143 7.5591 2.92487 5.94675 3.59025C7.55918 4.25535 9.29785 4.55878 11.0403 4.47916C11.8515 4.47865 12.662 4.42818 13.467 4.32804L13.6003 4.24804Z" fill="black"/>
</svg>
