<svg width="32" height="59" viewBox="0 0 32 59" fill="none" xmlns="http://www.w3.org/2000/svg">
<path d="M23.82 18.73H4.48C3.55613 18.7326 2.671 19.1015 2.01866 19.7557C1.36632 20.4099 0.999996 21.2961 1 22.22V53.84C1 54.7629 1.36664 55.6481 2.01927 56.3007C2.67189 56.9533 3.55705 57.32 4.48 57.32H23.82C24.743 57.32 25.6281 56.9533 26.2807 56.3007C26.9334 55.6481 27.3 54.7629 27.3 53.84V22.22C27.3 21.2961 26.9337 20.4099 26.2813 19.7557C25.629 19.1015 24.7439 18.7326 23.82 18.73ZM12.1 52.16H5.57V48.26H12.1V52.16ZM12.1 44.27H5.57V40.37H12.1V44.26M22.76 52.16H16.2V48.26H22.76V52.16ZM22.76 44.27H16.2V40.37H22.76V44.26M22.76 31.53C22.7574 31.988 22.5743 32.4265 22.2504 32.7504C21.9265 33.0742 21.488 33.2574 21.03 33.26H7.3C6.84199 33.2574 6.40348 33.0742 6.07961 32.7504C5.75573 32.4265 5.57262 31.988 5.57 31.53V24.65C5.57264 24.1929 5.75607 23.7554 6.08023 23.4331C6.40438 23.1109 6.8429 22.93 7.3 22.93H21C21.2289 22.926 21.4562 22.9675 21.6689 23.052C21.8817 23.1366 22.0755 23.2625 22.2392 23.4224C22.4029 23.5824 22.5332 23.7733 22.6226 23.984C22.712 24.1947 22.7587 24.4211 22.76 24.65V31.53Z" fill="#58B0BE"/>
<path d="M20.9901 22.9299H7.30007C6.34462 22.9299 5.57007 23.7045 5.57007 24.6599V31.5299C5.57007 32.4854 6.34462 33.2599 7.30007 33.2599H20.9901C21.9455 33.2599 22.7201 32.4854 22.7201 31.5299V24.6599C22.7201 23.7045 21.9455 22.9299 20.9901 22.9299Z" fill="#60CADA"/>
<path d="M12.1001 40.3701H5.57007V44.2601H12.1001V40.3701Z" fill="#FE5722"/>
<path d="M22.73 40.3701H16.2V44.2601H22.73V40.3701Z" fill="#FE5722"/>
<path d="M12.1001 48.26H5.57007V52.15H12.1001V48.26Z" fill="#FE5722"/>
<path d="M22.73 48.26H16.2V52.15H22.73V48.26Z" fill="#FE5722"/>
<path d="M8.01 2.76V18.76H4.5V2.76C4.5 2.29322 4.68543 1.84556 5.01549 1.51549C5.34556 1.18543 5.79322 1 6.26 1C6.48942 0.999734 6.71655 1.04563 6.92786 1.13497C7.13917 1.2243 7.33035 1.35525 7.49 1.52C7.6546 1.68186 7.78534 1.87485 7.87462 2.08774C7.96389 2.30063 8.00991 2.52915 8.01 2.76Z" fill="#FE5722"/>
<path d="M30.52 23.51V30.82H27.3V23.51H30.52Z" fill="#FE5722"/>
<path d="M30.52 34.03V39.1H27.3V34.03H30.52Z" fill="#FE5722"/>
<path d="M8.48 18.73H4.48C3.55613 18.7326 2.671 19.1015 2.01866 19.7557C1.36632 20.4099 0.999996 21.2961 1 22.22V53.84C1 54.7629 1.36664 55.6481 2.01927 56.3007C2.67189 56.9533 3.55705 57.32 4.48 57.32H8.48C7.55705 57.32 6.67189 56.9533 6.01927 56.3007C5.36664 55.6481 5 54.7629 5 53.84V22.22C5 21.2961 5.36632 20.4099 6.01866 19.7557C6.671 19.1015 7.55613 18.7326 8.48 18.73Z" fill="#59F4D9"/>
<path d="M26.2814 19.7557C26.9337 20.4099 27.3001 21.2961 27.3001 22.22V53.84V34.03V23.51V22.22C27.3001 21.2961 26.9337 20.4099 26.2814 19.7557Z" fill="white"/>
<path d="M23.8201 18.73H19.8201C20.7439 18.7326 21.6291 19.1015 22.2814 19.7557C22.9337 20.4099 23.3001 21.2961 23.3001 22.22V53.84C23.3001 54.7629 22.9334 55.6481 22.2808 56.3007C21.6282 56.9533 20.743 57.32 19.8201 57.32H23.8201C24.743 57.32 25.6282 56.9533 26.2808 56.3007C26.9334 55.6481 27.3001 54.7629 27.3001 53.84V22.22C27.3001 21.2961 26.9337 20.4099 26.2814 19.7557C25.6291 19.1015 24.7439 18.7326 23.8201 18.73Z" fill="#FFFF94"/>
<path d="M30.52 23.51H27.3V30.82H30.52V23.51Z" fill="#FFAE44"/>
<path d="M30.52 34.03H27.3V39.1H30.52V34.03Z" fill="#FFAE44"/>
<path d="M6.26 1C5.79322 1 5.34556 1.18543 5.01549 1.51549C4.68543 1.84556 4.5 2.29322 4.5 2.76V18.76H8.01V2.76C8.00991 2.52915 7.96389 2.30063 7.87462 2.08774C7.78534 1.87485 7.6546 1.68186 7.49 1.52C7.33035 1.35525 7.13917 1.2243 6.92786 1.13497C6.71655 1.04563 6.48942 0.999734 6.26 1Z" fill="#FF8232"/>
<path d="M23.82 18.73H4.48C3.55613 18.7326 2.671 19.1015 2.01866 19.7557C1.36632 20.4099 0.999996 21.2961 1 22.22V53.84C1 54.7629 1.36664 55.6481 2.01927 56.3007C2.67189 56.9533 3.55705 57.32 4.48 57.32H23.82C24.743 57.32 25.6281 56.9533 26.2807 56.3007C26.9334 55.6481 27.3 54.7629 27.3 53.84V22.22C27.3 21.2961 26.9337 20.4099 26.2813 19.7557C25.629 19.1015 24.7439 18.7326 23.82 18.73ZM12.1 52.16H5.58V48.26H12.1V52.16ZM12.1 44.27H5.58V40.37H12.1V44.27ZM22.76 52.16H16.2V48.26H22.76V52.16ZM22.76 44.27H16.2V40.37H22.76V44.27ZM22.76 31.54C22.7574 31.998 22.5743 32.4365 22.2504 32.7604C21.9265 33.0842 21.488 33.2674 21.03 33.27H7.3C6.84291 33.2673 6.40544 33.0839 6.08316 32.7598C5.76089 32.4356 5.57999 31.9971 5.58 31.54V24.65C5.58 24.1938 5.76121 23.7563 6.08378 23.4338C6.40634 23.1112 6.84383 22.93 7.3 22.93H21C21.2289 22.926 21.4562 22.9675 21.6689 23.052C21.8817 23.1366 22.0755 23.2625 22.2392 23.4224C22.4029 23.5824 22.5332 23.7733 22.6226 23.984C22.712 24.1947 22.7587 24.4211 22.76 24.65V31.54Z" stroke="black" stroke-width="2" stroke-linecap="round" stroke-linejoin="round"/>
<path d="M21.0001 34.2601H7.30007C6.57684 34.2575 5.88398 33.969 5.37258 33.4576C4.86117 32.9462 4.5727 32.2533 4.57007 31.5301V24.6501C4.57271 23.9278 4.86151 23.236 5.37319 22.7262C5.88488 22.2163 6.57776 21.9301 7.30007 21.9301H21.0001C21.3603 21.9261 21.7177 21.9935 22.0517 22.1283C22.3857 22.2631 22.6898 22.4627 22.9463 22.7155C23.2029 22.9683 23.4069 23.2694 23.5465 23.6015C23.6862 23.9335 23.7588 24.2899 23.7601 24.6501V31.5301C23.7588 31.8908 23.6863 32.2476 23.5467 32.5802C23.4072 32.9128 23.2034 33.2146 22.9469 33.4682C22.6905 33.7218 22.3865 33.9224 22.0525 34.0582C21.7184 34.1941 21.3607 34.2627 21.0001 34.2601ZM7.30007 23.9301C7.10818 23.9301 6.924 24.0056 6.78738 24.1404C6.65077 24.2751 6.5727 24.4582 6.57007 24.6501V31.5301C6.57007 31.7237 6.64698 31.9094 6.78388 32.0463C6.92078 32.1832 7.10646 32.2601 7.30007 32.2601H21.0001C21.1937 32.2601 21.3794 32.1832 21.5163 32.0463C21.6532 31.9094 21.7301 31.7237 21.7301 31.5301V24.6501C21.7274 24.4582 21.6494 24.2751 21.5128 24.1404C21.3761 24.0056 21.192 23.9301 21.0001 23.9301H7.30007Z" fill="black"/>
<path d="M21.0001 34.2601H7.30007C6.57684 34.2575 5.88398 33.969 5.37258 33.4576C4.86117 32.9462 4.5727 32.2533 4.57007 31.5301V24.6501C4.57271 23.9278 4.86151 23.236 5.37319 22.7262C5.88488 22.2163 6.57776 21.9301 7.30007 21.9301H21.0001C21.3603 21.9261 21.7177 21.9935 22.0517 22.1283C22.3857 22.2631 22.6898 22.4627 22.9463 22.7155C23.2029 22.9683 23.4069 23.2694 23.5465 23.6015C23.6862 23.9335 23.7588 24.2899 23.7601 24.6501V31.5301C23.7588 31.8908 23.6863 32.2476 23.5467 32.5802C23.4072 32.9128 23.2034 33.2146 22.9469 33.4682C22.6905 33.7218 22.3865 33.9224 22.0525 34.0582C21.7184 34.1941 21.3607 34.2627 21.0001 34.2601ZM7.30007 23.9301C7.10818 23.9301 6.924 24.0056 6.78738 24.1404C6.65077 24.2751 6.5727 24.4582 6.57007 24.6501V31.5301C6.57007 31.7237 6.64698 31.9094 6.78388 32.0463C6.92078 32.1832 7.10646 32.2601 7.30007 32.2601H21.0001C21.1937 32.2601 21.3794 32.1832 21.5163 32.0463C21.6532 31.9094 21.7301 31.7237 21.7301 31.5301V24.6501C21.7274 24.4582 21.6494 24.2751 21.5128 24.1404C21.3761 24.0056 21.192 23.9301 21.0001 23.9301H7.30007Z" fill="black"/>
<path d="M22.7601 27.48H5.58008C5.31486 27.48 5.06051 27.3746 4.87297 27.1871C4.68544 26.9996 4.58008 26.7452 4.58008 26.48C4.58008 26.2148 4.68544 25.9604 4.87297 25.7729C5.06051 25.5853 5.31486 25.48 5.58008 25.48H22.7601C23.0253 25.48 23.2796 25.5853 23.4672 25.7729C23.6547 25.9604 23.7601 26.2148 23.7601 26.48C23.7601 26.7452 23.6547 26.9996 23.4672 27.1871C23.2796 27.3746 23.0253 27.48 22.7601 27.48Z" fill="black"/>
<path d="M22.7601 30.7H5.58008C5.31486 30.7 5.06051 30.5946 4.87297 30.4071C4.68544 30.2195 4.58008 29.9652 4.58008 29.7C4.58008 29.4347 4.68544 29.1804 4.87297 28.9928C5.06051 28.8053 5.31486 28.7 5.58008 28.7H22.7601C23.0253 28.7 23.2796 28.8053 23.4672 28.9928C23.6547 29.1804 23.7601 29.4347 23.7601 29.7C23.7601 29.9652 23.6547 30.2195 23.4672 30.4071C23.2796 30.5946 23.0253 30.7 22.7601 30.7Z" fill="black"/>
<path d="M12.1001 45.2601H5.57007C5.30485 45.2601 5.0505 45.1548 4.86296 44.9672C4.67543 44.7797 4.57007 44.5253 4.57007 44.2601V40.3701C4.57007 40.1049 4.67543 39.8505 4.86296 39.663C5.0505 39.4755 5.30485 39.3701 5.57007 39.3701H12.1001C12.3653 39.3701 12.6196 39.4755 12.8072 39.663C12.9947 39.8505 13.1001 40.1049 13.1001 40.3701V44.2601C13.1001 44.5253 12.9947 44.7797 12.8072 44.9672C12.6196 45.1548 12.3653 45.2601 12.1001 45.2601ZM6.57007 43.2601H11.1001V41.3701H6.57007V43.2601Z" fill="black"/>
<path d="M22.76 45.2601H16.1999C15.9347 45.2601 15.6804 45.1548 15.4928 44.9672C15.3053 44.7797 15.2 44.5253 15.2 44.2601V40.3701C15.2 40.1049 15.3053 39.8505 15.4928 39.663C15.6804 39.4755 15.9347 39.3701 16.1999 39.3701H22.76C23.0252 39.3701 23.2795 39.4755 23.4671 39.663C23.6546 39.8505 23.76 40.1049 23.76 40.3701V44.2601C23.76 44.5253 23.6546 44.7797 23.4671 44.9672C23.2795 45.1548 23.0252 45.2601 22.76 45.2601ZM17.23 43.2601H21.76V41.3701H17.1999L17.23 43.2601Z" fill="black"/>
<path d="M12.1001 53.16H5.57007C5.30485 53.16 5.0505 53.0547 4.86296 52.8671C4.67543 52.6796 4.57007 52.4252 4.57007 52.16V48.26C4.57007 47.9948 4.67543 47.7404 4.86296 47.5529C5.0505 47.3654 5.30485 47.26 5.57007 47.26H12.1001C12.3653 47.26 12.6196 47.3654 12.8072 47.5529C12.9947 47.7404 13.1001 47.9948 13.1001 48.26V52.16C13.1001 52.4252 12.9947 52.6796 12.8072 52.8671C12.6196 53.0547 12.3653 53.16 12.1001 53.16ZM6.57007 51.16H11.1001V49.26H6.57007V51.16Z" fill="black"/>
<path d="M22.76 53.16H16.1999C15.9347 53.16 15.6804 53.0547 15.4928 52.8671C15.3053 52.6796 15.2 52.4252 15.2 52.16V48.26C15.2 47.9948 15.3053 47.7404 15.4928 47.5529C15.6804 47.3654 15.9347 47.26 16.1999 47.26H22.76C23.0252 47.26 23.2795 47.3654 23.4671 47.5529C23.6546 47.7404 23.76 47.9948 23.76 48.26V52.16C23.76 52.4252 23.6546 52.6796 23.4671 52.8671C23.2795 53.0547 23.0252 53.16 22.76 53.16ZM17.23 51.16H21.76V49.26H17.1999L17.23 51.16Z" fill="black"/>
<path d="M8.01 19.73H4.5C4.23478 19.73 3.98043 19.6246 3.79289 19.4371C3.60536 19.2496 3.5 18.9952 3.5 18.73V2.76C3.50263 2.02881 3.79427 1.32833 4.3113 0.811296C4.82833 0.294266 5.52881 0.00263493 6.26 0C6.62085 9.87888e-05 6.9781 0.071736 7.3111 0.210769C7.64409 0.349802 7.94621 0.553472 8.2 0.81C8.71687 1.32756 9.00805 2.02855 9.01 2.76V18.76C9.0022 19.02 8.89341 19.2667 8.70671 19.4478C8.52001 19.6289 8.2701 19.7301 8.01 19.73ZM5.5 17.73H7.01V2.76C7.00748 2.56094 6.92796 2.37059 6.78813 2.22889C6.64829 2.08719 6.45901 2.00516 6.26 2C6.05924 2.00259 5.86743 2.08349 5.72546 2.22546C5.58349 2.36743 5.50259 2.55924 5.5 2.76V17.73Z" fill="black"/>
<path d="M30.52 31.82H27.3C27.0348 31.82 26.7805 31.7147 26.5929 31.5271C26.4054 31.3396 26.3 31.0852 26.3 30.82V23.51C26.3 23.2448 26.4054 22.9904 26.5929 22.8029C26.7805 22.6154 27.0348 22.51 27.3 22.51H30.52C30.7853 22.51 31.0396 22.6154 31.2272 22.8029C31.4147 22.9904 31.52 23.2448 31.52 23.51V30.82C31.52 31.0852 31.4147 31.3396 31.2272 31.5271C31.0396 31.7147 30.7853 31.82 30.52 31.82ZM28.3 29.82H29.52V24.51H28.3V29.82Z" fill="black"/>
<path d="M30.52 40.1H27.3C27.0348 40.1 26.7805 39.9947 26.5929 39.8071C26.4054 39.6196 26.3 39.3652 26.3 39.1V34.03C26.3 33.7648 26.4054 33.5105 26.5929 33.3229C26.7805 33.1354 27.0348 33.03 27.3 33.03H30.52C30.7853 33.03 31.0396 33.1354 31.2272 33.3229C31.4147 33.5105 31.52 33.7648 31.52 34.03V39.1C31.52 39.3652 31.4147 39.6196 31.2272 39.8071C31.0396 39.9947 30.7853 40.1 30.52 40.1ZM28.3 38.1H29.52V35.03H28.3V38.1Z" fill="black"/>
</svg>
