<svg width="59" height="41" viewBox="0 0 59 41" fill="none" xmlns="http://www.w3.org/2000/svg">
<path d="M54.5013 7.39297H4.75046C4.33114 7.38639 3.91466 7.46297 3.52511 7.61829C3.13555 7.77361 2.78063 8.00459 2.48087 8.29787C2.1811 8.59116 1.94243 8.94095 1.77864 9.32702C1.61485 9.71309 1.52919 10.1278 1.52661 10.5472V36.8255C1.52656 37.2466 1.61028 37.6634 1.7729 38.0518C1.93551 38.4402 2.17377 38.7923 2.4738 39.0877C2.77384 39.3831 3.12964 39.6159 3.5205 39.7724C3.91136 39.929 4.32947 40.0062 4.75046 39.9996H54.5013C54.9189 40.0009 55.3328 39.9198 55.719 39.7609C56.1053 39.6019 56.4563 39.3683 56.7521 39.0735C57.0479 38.7786 57.2826 38.4282 57.4428 38.0425C57.6029 37.6567 57.6853 37.2432 57.6853 36.8255V10.5472C57.6801 9.70707 57.342 8.90333 56.7451 8.31208C56.1483 7.72083 55.3414 7.39032 54.5013 7.39297ZM13.5066 15.1541H8.04397C7.51618 15.1541 7.01001 14.9444 6.6368 14.5712C6.2636 14.198 6.05394 13.6918 6.05394 13.1641C6.05394 12.6363 6.2636 12.1301 6.6368 11.7569C7.01001 11.3837 7.51618 11.174 8.04397 11.174H13.5066C14.0344 11.174 14.5406 11.3837 14.9138 11.7569C15.287 12.1301 15.4966 12.6363 15.4966 13.1641C15.4966 13.6918 15.287 14.198 14.9138 14.5712C14.5406 14.9444 14.0344 15.1541 13.5066 15.1541ZM29.6259 36.2186C27.1478 36.2186 24.7254 35.4836 22.6651 34.1066C20.6048 32.7297 18.9991 30.7726 18.0512 28.483C17.1034 26.1933 16.8559 23.674 17.3401 21.2437C17.8242 18.8134 19.0183 16.5813 20.7713 14.8297C22.5243 13.0781 24.7573 11.8858 27.188 11.4036C29.6187 10.9213 32.1379 11.1708 34.4267 12.1205C36.7156 13.0702 38.6714 14.6774 40.0467 16.7388C41.4221 18.8002 42.1551 21.2232 42.1531 23.7013C42.1531 25.3459 41.829 26.9744 41.1994 28.4937C40.5697 30.013 39.6468 31.3934 38.4834 32.5558C37.32 33.7183 35.9389 34.6401 34.4191 35.2686C32.8993 35.8971 31.2705 36.2199 29.6259 36.2186Z" fill="#FF6F4C"/>
<path d="M38.1728 23.7012C38.1728 25.3916 37.6715 27.0442 36.7323 28.4497C35.7931 29.8553 34.4582 30.9508 32.8964 31.5977C31.3346 32.2447 29.6161 32.4139 27.9581 32.0841C26.3001 31.7543 24.7771 30.9403 23.5818 29.7449C22.3864 28.5496 21.5724 27.0266 21.2426 25.3686C20.9128 23.7107 21.0821 21.9921 21.729 20.4303C22.3759 18.8685 23.4714 17.5336 24.877 16.5945C26.2826 15.6553 27.9351 15.154 29.6256 15.154C31.8924 15.154 34.0664 16.0545 35.6693 17.6574C37.2722 19.2603 38.1728 21.4343 38.1728 23.7012Z" fill="#EFEFEF"/>
<path d="M43.2299 7.39227H16.0261C17.6978 5.27289 19.3594 3.12366 21.0012 0.994324H38.215C39.8767 3.12366 41.5383 5.27289 43.1901 7.39227" fill="#64CBB9"/>
<path d="M53.9327 1.98004V7.39292H45.9626V1.98004H53.9327Z" fill="#64CBB9"/>
<path d="M29.6276 11.1741C27.1499 11.1741 24.7279 11.9088 22.6678 13.2854C20.6077 14.6619 19.0021 16.6184 18.0539 18.9074C17.1058 21.1965 16.8577 23.7153 17.3411 26.1453C17.8244 28.5754 19.0175 30.8075 20.7695 32.5595C22.5215 34.3114 24.7536 35.5045 27.1837 35.9879C29.6137 36.4713 32.1325 36.2232 34.4216 35.275C36.7106 34.3269 38.6671 32.7212 40.0436 30.6611C41.4202 28.601 42.1549 26.179 42.1549 23.7014C42.1562 22.0559 41.833 20.4263 41.2039 18.9059C40.5749 17.3854 39.6522 16.0039 38.4886 14.8404C37.3251 13.6768 35.9436 12.7541 34.4231 12.1251C32.9027 11.496 31.2731 11.1728 29.6276 11.1741ZM29.6276 32.2386C27.9367 32.2386 26.2838 31.7371 24.878 30.7975C23.4722 29.8578 22.3767 28.5224 21.7301 26.96C21.0835 25.3976 20.9148 23.6786 21.2454 22.0203C21.576 20.362 22.391 18.8391 23.5874 17.6441C24.7837 16.4492 26.3076 15.6359 27.9662 15.3073C29.6249 14.9786 31.3438 15.1493 32.9054 15.7977C34.467 16.4462 35.8012 17.5432 36.7392 18.9501C37.6772 20.357 38.1768 22.0105 38.1748 23.7014C38.1722 25.9665 37.2705 28.138 35.6679 29.7387C34.0652 31.3395 31.8927 32.2386 29.6276 32.2386Z" fill="#64CBB9"/>
<path d="M15.5078 13.1543C15.5078 13.6821 15.2982 14.1883 14.925 14.5615C14.5518 14.9347 14.0456 15.1444 13.5178 15.1444H8.04521C7.51742 15.1444 7.01125 14.9347 6.63804 14.5615C6.26484 14.1883 6.05518 13.6821 6.05518 13.1543C6.05518 12.6265 6.26484 12.1204 6.63804 11.7472C7.01125 11.374 7.51742 11.1643 8.04521 11.1643H13.5078C14.0356 11.1643 14.5418 11.374 14.915 11.7472C15.2882 12.1204 15.4979 12.6265 15.4979 13.1543" fill="#EFEFEF"/>
<path d="M49.9427 1.98004H45.9626V5.79095C46.3806 6.31831 46.7885 6.85561 47.2064 7.39292H49.9427V1.98004Z" fill="#256F7A"/>
<path d="M8.73053 7.39297H4.75046C4.33114 7.38639 3.91466 7.46297 3.52511 7.61829C3.13555 7.77361 2.78063 8.00459 2.48087 8.29787C2.1811 8.59116 1.94243 8.94095 1.77864 9.32702C1.61485 9.71309 1.52919 10.1278 1.52661 10.5472V36.8255C1.52656 37.2466 1.61028 37.6634 1.7729 38.0518C1.93551 38.4402 2.17377 38.7923 2.4738 39.0877C2.77384 39.3831 3.12964 39.6159 3.5205 39.7724C3.91136 39.929 4.32947 40.0062 4.75046 39.9996H8.73053C8.31287 40.0009 7.89905 39.9198 7.5128 39.7609C7.12655 39.6019 6.77546 39.3683 6.47967 39.0735C6.18387 38.7786 5.94918 38.4282 5.78904 38.0425C5.62891 37.6567 5.54648 37.2432 5.54648 36.8255V10.5472C5.55174 9.70707 5.88984 8.90333 6.48668 8.31208C7.08353 7.72083 7.89042 7.39032 8.73053 7.39297Z" fill="#3A8FA0"/>
<path d="M25.0008 0.994324H21.0207C19.3591 3.12366 17.6974 5.27289 16.0457 7.39227H20.0257C21.6973 5.27289 23.359 3.12366 25.0008 0.994324Z" fill="#256F7A"/>
<path d="M38.2325 0.994324H34.2524C35.9141 3.12366 37.5758 5.27289 39.2275 7.39227H41.9638V5.80025L38.2325 0.994324Z" fill="#EEFDFF"/>
<path d="M54.5011 7.39297H50.521C50.9403 7.38639 51.3568 7.46297 51.7464 7.61829C52.1359 7.77361 52.4908 8.00459 52.7906 8.29787C53.0904 8.59116 53.329 8.94095 53.4928 9.32702C53.6566 9.71309 53.7423 10.1278 53.7448 10.5472V36.8255C53.7449 37.2466 53.6612 37.6634 53.4986 38.0518C53.3359 38.4402 53.0977 38.7923 52.7977 39.0877C52.4976 39.3831 52.1418 39.6159 51.751 39.7724C51.3601 39.929 50.942 40.0062 50.521 39.9996H54.5011C54.9187 40.0009 55.3325 39.9198 55.7188 39.7609C56.105 39.6019 56.4561 39.3683 56.7519 39.0735C57.0477 38.7786 57.2824 38.4282 57.4425 38.0425C57.6027 37.6567 57.6851 37.2432 57.6851 36.8255V10.5472C57.6798 9.70707 57.3417 8.90333 56.7449 8.31208C56.1481 7.72083 55.3412 7.39032 54.5011 7.39297Z" fill="#FFFF94"/>
<path d="M53.9342 1.98004H49.9541V7.39292H50.5611H53.9342V1.98004Z" fill="#EEFDFF"/>
<path d="M54.5013 7.39297H4.75046C4.33114 7.38639 3.91466 7.46297 3.52511 7.61829C3.13555 7.77361 2.78063 8.00459 2.48087 8.29787C2.1811 8.59116 1.94243 8.94095 1.77864 9.32702C1.61485 9.71309 1.52919 10.1278 1.52661 10.5472V36.8255C1.52656 37.2466 1.61028 37.6634 1.7729 38.0518C1.93551 38.4402 2.17377 38.7923 2.4738 39.0877C2.77384 39.3831 3.12964 39.6159 3.5205 39.7724C3.91136 39.929 4.32947 40.0062 4.75046 39.9996H54.5013C54.9189 40.0009 55.3328 39.9198 55.719 39.7609C56.1053 39.6019 56.4563 39.3683 56.7521 39.0735C57.0479 38.7786 57.2826 38.4282 57.4428 38.0425C57.6029 37.6567 57.6853 37.2432 57.6853 36.8255V10.5472C57.6801 9.70707 57.342 8.90333 56.7451 8.31208C56.1483 7.72083 55.3414 7.39032 54.5013 7.39297ZM13.5066 15.1541H8.04397C7.51618 15.1541 7.01001 14.9444 6.6368 14.5712C6.2636 14.198 6.05394 13.6918 6.05394 13.1641C6.05394 12.6363 6.2636 12.1301 6.6368 11.7569C7.01001 11.3837 7.51618 11.174 8.04397 11.174H13.5066C14.0344 11.174 14.5406 11.3837 14.9138 11.7569C15.287 12.1301 15.4966 12.6363 15.4966 13.1641C15.4966 13.6918 15.287 14.198 14.9138 14.5712C14.5406 14.9444 14.0344 15.1541 13.5066 15.1541ZM29.6259 36.2186C27.1478 36.2186 24.7254 35.4836 22.6651 34.1066C20.6048 32.7297 18.9991 30.7726 18.0512 28.483C17.1034 26.1933 16.8559 23.674 17.3401 21.2437C17.8242 18.8134 19.0183 16.5813 20.7713 14.8297C22.5243 13.0781 24.7573 11.8858 27.188 11.4036C29.6187 10.9213 32.1379 11.1708 34.4267 12.1205C36.7156 13.0702 38.6714 14.6774 40.0467 16.7388C41.4221 18.8002 42.1551 21.2232 42.1531 23.7013C42.1531 25.3459 41.829 26.9744 41.1994 28.4937C40.5697 30.013 39.6468 31.3934 38.4834 32.5558C37.32 33.7183 35.9389 34.6401 34.4191 35.2686C32.8993 35.8971 31.2705 36.2199 29.6259 36.2186Z" stroke="black" stroke-width="2" stroke-linecap="round" stroke-linejoin="round"/>
<path d="M29.625 33.233C27.7373 33.233 25.892 32.6731 24.3226 31.6242C22.7531 30.5752 21.5301 29.0843 20.8082 27.3402C20.0862 25.596 19.8979 23.6768 20.2668 21.8256C20.6358 19.9743 21.5456 18.2741 22.8811 16.94C24.2166 15.6058 25.9178 14.6978 27.7695 14.3308C29.6211 13.9637 31.5401 14.1541 33.2835 14.8778C35.0269 15.6016 36.5165 16.8262 37.5639 18.3967C38.6112 19.9672 39.1691 21.8131 39.1672 23.7008C39.1619 26.229 38.1546 28.652 36.3659 30.4388C34.5773 32.2256 32.1532 33.2304 29.625 33.233ZM29.625 16.1486C28.1313 16.1486 26.6712 16.5915 25.4292 17.4214C24.1873 18.2512 23.2193 19.4307 22.6477 20.8107C22.0761 22.1907 21.9265 23.7091 22.2179 25.1741C22.5093 26.6391 23.2286 27.9848 24.2848 29.041C25.341 30.0971 26.6866 30.8164 28.1516 31.1078C29.6166 31.3992 31.1351 31.2497 32.5151 30.6781C33.895 30.1065 35.0745 29.1385 35.9044 27.8965C36.7342 26.6546 37.1771 25.1944 37.1771 23.7008C37.1771 22.709 36.9818 21.727 36.6023 20.8107C36.2227 19.8944 35.6664 19.0619 34.9652 18.3606C34.2639 17.6593 33.4313 17.103 32.5151 16.7235C31.5988 16.3439 30.6167 16.1486 29.625 16.1486Z" fill="black"/>
<path d="M43.2271 8.38799H16.0233C15.836 8.389 15.6521 8.33709 15.4929 8.23822C15.3338 8.13935 15.2058 7.99754 15.1236 7.82912C15.0415 7.6607 15.0086 7.47251 15.0287 7.28621C15.0488 7.09992 15.1211 6.92308 15.2373 6.77607C16.5209 5.15419 17.7845 3.52237 19.0581 1.89054L20.2323 0.37812C20.326 0.259535 20.4455 0.163855 20.5817 0.0983406C20.7179 0.0328264 20.8672 -0.0007997 21.0183 1.44384e-05H38.2321C38.3833 -0.0007997 38.5326 0.0328264 38.6688 0.0983406C38.805 0.163855 38.9245 0.259535 39.0182 0.37812L40.1923 1.89054C41.4659 3.52237 42.7296 5.15419 44.0132 6.77607C44.1293 6.92308 44.2016 7.09992 44.2218 7.28621C44.2419 7.47251 44.209 7.6607 44.1268 7.82912C44.0447 7.99754 43.9167 8.13935 43.7575 8.23822C43.5983 8.33709 43.4145 8.389 43.2271 8.38799ZM18.0631 6.39796H41.1873L38.5804 3.11441L37.7048 1.99004H21.5059L20.6701 3.11441L18.0631 6.39796Z" fill="black"/>
<path d="M53.9317 8.38747H45.9716C45.7077 8.38747 45.4546 8.28264 45.268 8.09604C45.0814 7.90944 44.9766 7.65635 44.9766 7.39246V1.97957C44.9766 1.71568 45.0814 1.46259 45.268 1.27599C45.4546 1.08939 45.7077 0.984558 45.9716 0.984558H53.9317C54.1956 0.984558 54.4487 1.08939 54.6353 1.27599C54.8219 1.46259 54.9267 1.71568 54.9267 1.97957V7.39246C54.9267 7.65635 54.8219 7.90944 54.6353 8.09604C54.4487 8.28264 54.1956 8.38747 53.9317 8.38747ZM46.9666 6.39744H52.9367V2.97459H46.9666V6.39744Z" fill="black"/>
<path d="M29.6268 37.2133C26.9519 37.2133 24.3371 36.42 22.1132 34.9337C19.8892 33.4475 18.156 31.335 17.1329 28.8635C16.1097 26.3921 15.8425 23.6727 16.3651 21.0494C16.8876 18.426 18.1765 16.0166 20.0686 14.1259C21.9607 12.2352 24.3711 10.9481 26.9948 10.4274C29.6185 9.90681 32.3377 10.176 34.8084 11.201C37.2791 12.226 39.3903 13.9607 40.875 16.1858C42.3596 18.4108 43.151 21.0262 43.149 23.701C43.1438 27.2848 41.7171 30.7202 39.182 33.2534C36.647 35.7866 33.2106 37.2107 29.6268 37.2133ZM29.6268 12.1688C27.3459 12.1688 25.1163 12.8452 23.2198 14.1123C21.3233 15.3795 19.8452 17.1806 18.9724 19.2878C18.0995 21.3951 17.8711 23.7138 18.3161 25.9509C18.7611 28.1879 19.8594 30.2427 21.4722 31.8555C23.0851 33.4684 25.1399 34.5667 27.3769 35.0117C29.614 35.4566 31.9327 35.2283 34.04 34.3554C36.1472 33.4826 37.9483 32.0045 39.2155 30.108C40.4826 28.2115 41.159 25.9819 41.159 23.701C41.1564 20.6433 39.9405 17.7116 37.7784 15.5494C35.6162 13.3873 32.6845 12.1714 29.6268 12.1688ZM29.6268 33.2333C27.7391 33.2333 25.8938 32.6734 24.3244 31.6244C22.7549 30.5755 21.5319 29.0846 20.81 27.3404C20.088 25.5962 19.8996 23.6771 20.2686 21.8258C20.6376 19.9746 21.5474 18.2743 22.8829 16.9402C24.2184 15.6061 25.9196 14.6981 27.7713 14.331C29.6229 13.964 31.5419 14.1544 33.2853 14.8781C35.0287 15.6019 36.5183 16.8265 37.5656 18.397C38.613 19.9675 39.1709 21.8133 39.169 23.701C39.1637 26.2292 38.1564 28.6523 36.3677 30.4391C34.579 32.2258 32.155 33.2306 29.6268 33.2333ZM29.6268 16.1489C28.1331 16.1489 26.6729 16.5918 25.431 17.4216C24.1891 18.2515 23.2211 19.431 22.6495 20.8109C22.0779 22.1909 21.9283 23.7094 22.2197 25.1744C22.5111 26.6394 23.2304 27.985 24.2866 29.0412C25.3428 30.0974 26.6884 30.8167 28.1534 31.1081C29.6184 31.3995 31.1369 31.2499 32.5168 30.6783C33.8968 30.1067 35.0763 29.1387 35.9062 27.8968C36.736 26.6548 37.1789 25.1947 37.1789 23.701C37.1789 22.7093 36.9836 21.7272 36.6041 20.8109C36.2245 19.8947 35.6682 19.0621 34.9669 18.3608C34.2657 17.6596 33.4331 17.1033 32.5168 16.7237C31.6006 16.3442 30.6185 16.1489 29.6268 16.1489Z" fill="black"/>
<path d="M13.5075 16.1489H8.04486C7.25318 16.1489 6.49392 15.8344 5.93411 15.2746C5.37431 14.7148 5.05981 13.9555 5.05981 13.1638C5.05981 12.3721 5.37431 11.6129 5.93411 11.0531C6.49392 10.4933 7.25318 10.1788 8.04486 10.1788H13.5075C14.2992 10.1788 15.0584 10.4933 15.6182 11.0531C16.1781 11.6129 16.4925 12.3721 16.4925 13.1638C16.4925 13.9555 16.1781 14.7148 15.6182 15.2746C15.0584 15.8344 14.2992 16.1489 13.5075 16.1489ZM8.04486 12.1688C7.78097 12.1688 7.52788 12.2736 7.34128 12.4602C7.15468 12.6468 7.04985 12.8999 7.04985 13.1638C7.04985 13.4277 7.15468 13.6808 7.34128 13.8674C7.52788 14.054 7.78097 14.1588 8.04486 14.1588H13.5075C13.7714 14.1588 14.0245 14.054 14.2111 13.8674C14.3977 13.6808 14.5025 13.4277 14.5025 13.1638C14.5025 12.8999 14.3977 12.6468 14.2111 12.4602C14.0245 12.2736 13.7714 12.1688 13.5075 12.1688H8.04486Z" fill="black"/>
<path d="M26.3733 23.174C26.2391 23.1774 26.1055 23.1536 25.9806 23.104C25.8558 23.0544 25.7423 22.9801 25.647 22.8854C25.4647 22.6994 25.3625 22.4494 25.3625 22.1889C25.3625 21.9285 25.4647 21.6784 25.647 21.4924L27.7365 19.4029C27.9229 19.2175 28.1751 19.1135 28.438 19.1135C28.7009 19.1135 28.9531 19.2175 29.1395 19.4029C29.3248 19.5893 29.4288 19.8415 29.4288 20.1044C29.4288 20.3672 29.3248 20.6194 29.1395 20.8058L27.0599 22.8954C26.8754 23.0732 26.6295 23.173 26.3733 23.174Z" fill="black"/>
<path d="M26.2506 27.7213C26.0529 27.7224 25.8594 27.6647 25.6947 27.5554C25.53 27.4462 25.4016 27.2904 25.3258 27.1078C25.25 26.9253 25.2303 26.7243 25.2692 26.5306C25.3081 26.3368 25.4038 26.159 25.5441 26.0198L32.3003 19.2636C32.4867 19.0783 32.7389 18.9743 33.0017 18.9743C33.2646 18.9743 33.5168 19.0783 33.7032 19.2636C33.7965 19.3561 33.8705 19.4662 33.921 19.5874C33.9715 19.7087 33.9976 19.8388 33.9976 19.9701C33.9976 20.1015 33.9715 20.2315 33.921 20.3528C33.8705 20.474 33.7965 20.5841 33.7032 20.6766L26.9471 27.4626C26.757 27.6355 26.5074 27.7282 26.2506 27.7213Z" fill="black"/>
</svg>
