<svg width="33" height="36" viewBox="0 0 33 36" fill="none" xmlns="http://www.w3.org/2000/svg">
<path d="M32.8132 35.2219C32.6841 35.4571 32.4942 35.6534 32.2633 35.7903C32.0325 35.9272 31.7691 35.9996 31.5007 36H22.5007C22.2483 35.9999 21.9999 35.9361 21.7787 35.8145C21.5575 35.6929 21.3705 35.5175 21.2351 35.3044L13.6432 23.3738L2.61073 35.5088C2.34178 35.7977 1.96981 35.9689 1.57544 35.9854C1.18108 36.0019 0.796108 35.8622 0.504002 35.5968C0.211896 35.3313 0.036195 34.9614 0.014991 34.5673C-0.0062129 34.1731 0.12879 33.7865 0.39073 33.4912L11.9726 20.7412L0.235105 2.30625C0.090545 2.07946 0.00962106 1.81797 0.000806082 1.54916C-0.0080089 1.28036 0.0556093 1.01413 0.184999 0.778354C0.31439 0.542576 0.504792 0.345923 0.736269 0.208987C0.967745 0.0720513 1.23178 -0.000130619 1.50073 1.7744e-07H10.5007C10.7532 7.82442e-05 11.0015 0.0638721 11.2228 0.185471C11.444 0.30707 11.631 0.48254 11.7664 0.695625L19.3582 12.6262L30.3907 0.49125C30.6597 0.202348 31.0317 0.031094 31.426 0.0146171C31.8204 -0.0018597 32.2053 0.137769 32.4975 0.40323C32.7896 0.668691 32.9653 1.03859 32.9865 1.43273C33.0077 1.82687 32.8727 2.21348 32.6107 2.50875L21.0289 15.2494L32.7664 33.6956C32.9101 33.9225 32.9903 34.1839 32.9985 34.4523C33.0068 34.7208 32.9428 34.9866 32.8132 35.2219Z" fill="black"/>
</svg>
