<svg width="33" height="41" viewBox="0 0 33 41" fill="none" xmlns="http://www.w3.org/2000/svg">
<path d="M16.0633 13.0731C13.7167 13.0731 11.4228 13.7689 9.47168 15.0726C7.52057 16.3763 5.99987 18.2293 5.10187 20.3972C4.20387 22.5652 3.96891 24.9507 4.42671 27.2522C4.8845 29.5537 6.01449 31.6678 7.67377 33.3271C9.33306 34.9864 11.4471 36.1163 13.7486 36.5741C16.0501 37.0319 18.4357 36.797 20.6036 35.899C22.7716 35.001 24.6245 33.4803 25.9282 31.5292C27.2319 29.5781 27.9278 27.2842 27.9278 24.9376C27.9278 21.7909 26.6778 18.7731 24.4527 16.5481C22.2277 14.3231 19.2099 13.0731 16.0633 13.0731ZM16.0633 31.8748C15.463 29.5717 14.8605 27.2686 14.2557 24.9655C14.8559 22.6391 15.4584 20.3383 16.0633 18.0631C16.6681 20.3569 17.273 22.6577 17.8778 24.9655C17.2683 27.2686 16.6635 29.5717 16.0633 31.8748Z" fill="#FF6F4C"/>
<path d="M17.8784 24.9645H14.2562C14.8564 22.6381 15.459 20.3373 16.0638 18.0621C16.6687 20.3559 17.2735 22.6567 17.8784 24.9645Z" fill="#FE5722"/>
<path d="M17.8784 24.9653C17.2689 27.2684 16.664 29.5716 16.0638 31.8747C15.4636 29.5716 14.8611 27.2684 14.2562 24.9653H17.8784Z" fill="#50B8FF"/>
<path d="M17.8782 10.0434C16.6754 9.89447 15.4588 9.89447 14.256 10.0434C10.454 10.5048 6.97137 12.4 4.51923 15.342C2.0671 18.2841 0.83035 22.0512 1.06148 25.8741C1.2926 29.6971 2.97417 33.2878 5.76289 35.913C8.5516 38.5382 12.2372 40 16.0671 40C19.8971 40 23.5826 38.5382 26.3713 35.913C29.1601 33.2878 30.8416 29.6971 31.0728 25.8741C31.3039 22.0512 30.0671 18.2841 27.615 15.342C25.1629 12.4 21.6803 10.5048 17.8782 10.0434ZM16.0636 36.8572C13.717 36.8572 11.4232 36.1614 9.47206 34.8577C7.52095 33.554 6.00024 31.701 5.10224 29.533C4.20425 27.3651 3.96929 24.9795 4.42709 22.678C4.88488 20.3765 6.01487 18.2625 7.67415 16.6032C9.33343 14.9439 11.4475 13.8139 13.749 13.3561C16.0505 12.8983 18.436 13.1333 20.604 14.0313C22.7719 14.9293 24.6249 16.45 25.9286 18.4011C27.2323 20.3522 27.9281 22.6461 27.9281 24.9927C27.9281 28.1394 26.6781 31.1571 24.4531 33.3822C22.2281 35.6072 19.2103 36.8572 16.0636 36.8572Z" fill="#64CBB9"/>
<path d="M17.8784 6.05896V10.044C16.6756 9.89513 15.459 9.89513 14.2562 10.044V6.05896H17.8784Z" fill="#64CBB9"/>
<path d="M14.2555 6.10064C14.1159 6.10064 13.9693 6.10064 13.8228 6.10064C13.8922 6.82143 13.7568 7.54718 13.4319 8.19438C13.6921 8.40697 13.9754 8.58958 14.2764 8.73875V10.0229C10.6228 10.4618 7.25679 12.2249 4.81567 14.9786C2.37454 17.7322 1.02768 21.2853 1.03003 24.9652C1.03321 21.2868 2.38433 17.7371 4.82783 14.9875C7.27134 12.2379 10.6378 10.4791 14.2904 10.0438C14.5626 10.0438 14.8417 9.98802 15.1209 9.96708C14.8417 9.96708 14.5626 10.009 14.2904 10.0438V6.10064M14.8208 6.00293L14.5556 6.05876H14.8347V6.00293" fill="#BFBFBF"/>
<path d="M15.0864 9.96637C14.8072 9.96637 14.528 10.0082 14.2559 10.0431C10.4477 10.4949 6.95632 12.3857 4.49694 15.3281C2.03756 18.2705 0.796268 22.0419 1.02732 25.8699C1.25837 29.6978 2.94427 33.2925 5.73971 35.9178C8.53515 38.5431 12.2286 40.0001 16.0634 39.9906C15.5958 39.9906 15.1282 39.9906 14.6676 39.9208C15.1361 39.8811 15.6021 39.8159 16.0634 39.7254C12.6237 39.0749 9.51906 37.2437 7.2855 34.5482C5.05193 31.8526 3.82963 28.4617 3.82963 24.961C3.82963 21.4603 5.05193 18.0695 7.2855 15.3739C9.51906 12.6783 12.6237 10.8472 16.0634 10.1967C15.7424 10.1339 15.4144 10.085 15.0864 10.0431V9.96637Z" fill="#256F7A"/>
<path d="M14.8006 6.05896H14.5214C14.4343 6.08024 14.3456 6.09424 14.2562 6.10083V10.044C14.5284 10.044 14.8076 9.98821 15.0867 9.96727V8.75988C15.4387 8.58592 15.767 8.36781 16.0638 8.11082C15.4511 7.56396 15.0099 6.85127 14.7936 6.05896" fill="#256F7A"/>
<path d="M17.9407 6.34485H17.8779V10.0438C17.5987 10.0438 17.3196 9.98098 17.0404 9.96702C17.3196 9.96702 17.5987 10.0089 17.8779 10.0438V8.75963C18.4514 8.48562 18.955 8.08466 19.3505 7.58713C18.7675 7.32809 18.2796 6.89389 17.9547 6.34485" fill="white"/>
<path d="M17.0404 9.96698V10.0438C16.7124 10.0856 16.3914 10.1345 16.0634 10.1973C19.5031 10.8478 22.6077 12.6789 24.8413 15.3745C27.0749 18.0701 28.2972 21.4609 28.2972 24.9616C28.2972 28.4624 27.0749 31.8532 24.8413 34.5488C22.6077 37.2444 19.5031 39.0755 16.0634 39.726C16.5253 39.8085 16.9912 39.8667 17.4592 39.9005C17.0055 39.9424 16.5379 39.9703 16.0634 39.9703C19.8989 39.9816 23.5935 38.5258 26.3904 35.9011C29.1872 33.2764 30.8744 29.6816 31.1064 25.8531C31.3384 22.0245 30.0975 18.2523 27.6381 15.3091C25.1786 12.3659 21.6867 10.4746 17.8779 10.0228C17.5988 10.0228 17.3196 9.96 17.0404 9.94604" fill="#EEFDFF"/>
<path d="M17.2638 6.31008C17.0263 7.00409 16.6126 7.62454 16.0634 8.1107L16.1611 8.19445C16.4236 8.41142 16.6371 8.68162 16.7875 8.98719C16.9378 9.29277 17.0217 9.62677 17.0335 9.96715C17.3126 9.96715 17.5918 10.009 17.8709 10.0439V6.34498H17.7942C17.6142 6.34544 17.4345 6.33144 17.2568 6.3031" fill="#EEFDFF"/>
<path d="M16.0636 9.93182C15.7356 9.93182 15.4076 9.93182 15.0865 9.96672V10.0435C15.4146 10.0854 15.7426 10.1342 16.0636 10.197C16.3916 10.1342 16.7127 10.0854 17.0407 10.0435V9.96672C16.7197 9.96672 16.3986 9.93182 16.0636 9.93182Z" fill="#85EAFF"/>
<path d="M16.0647 8.11035C15.7658 8.36784 15.4351 8.58596 15.0807 8.75941V9.9668C15.4017 9.9668 15.7297 9.9319 16.0578 9.9319C16.3858 9.9319 16.7138 9.93191 17.0348 9.9668C17.0231 9.62643 16.9392 9.29243 16.7888 8.98685C16.6385 8.68127 16.425 8.41108 16.1625 8.1941L16.0647 8.11035Z" fill="#85EAFF"/>
<path d="M16.0633 39.7257C15.6015 39.8092 15.1356 39.8674 14.6675 39.9002C15.1281 39.9421 15.5957 39.97 16.0633 39.97C16.5379 39.97 17.0055 39.97 17.4591 39.9002C16.9908 39.8595 16.5248 39.7943 16.0633 39.7048" fill="#85EAFF"/>
<path d="M16.0633 13.0731C13.7167 13.0731 11.4228 13.7689 9.47168 15.0726C7.52057 16.3763 5.99987 18.2293 5.10187 20.3972C4.20387 22.5652 3.96891 24.9507 4.42671 27.2522C4.8845 29.5537 6.01449 31.6678 7.67377 33.3271C9.33306 34.9864 11.4471 36.1163 13.7486 36.5741C16.0501 37.0319 18.4357 36.797 20.6036 35.899C22.7716 35.001 24.6245 33.4803 25.9282 31.5292C27.2319 29.5781 27.9278 27.2842 27.9278 24.9376C27.9278 23.3795 27.6209 21.8367 27.0246 20.3972C26.4284 18.9578 25.5545 17.6498 24.4527 16.5481C23.351 15.4464 22.0431 14.5724 20.6036 13.9762C19.1641 13.3799 17.6213 13.0731 16.0633 13.0731ZM16.0633 31.8748C15.4584 29.5717 14.8535 27.2686 14.2487 24.9655C14.8535 22.6391 15.4584 20.3383 16.0633 18.0631C16.6681 20.3569 17.273 22.6577 17.8778 24.9655C17.2683 27.2686 16.6635 29.5717 16.0633 31.8748Z" stroke="black" stroke-width="2" stroke-linecap="round" stroke-linejoin="round"/>
<path d="M17.8795 25.6624H14.2573C14.1495 25.6632 14.0431 25.6391 13.9462 25.5919C13.8493 25.5447 13.7647 25.4756 13.699 25.3902C13.6349 25.3058 13.5909 25.2078 13.5704 25.1038C13.5498 24.9998 13.5532 24.8925 13.5803 24.79C14.1852 22.4637 14.7877 20.1605 15.3879 17.8807C15.4288 17.7284 15.5201 17.5945 15.6468 17.5007C15.7735 17.407 15.9283 17.3588 16.0858 17.3642C16.2434 17.3588 16.3981 17.407 16.5249 17.5007C16.6516 17.5945 16.7429 17.7284 16.7837 17.8807L18.5983 24.79C18.6255 24.895 18.6278 25.0049 18.6051 25.1109C18.5824 25.2169 18.5354 25.3162 18.4676 25.4009C18.3999 25.4855 18.3134 25.5532 18.2149 25.5986C18.1165 25.644 18.0088 25.6659 17.9004 25.6624H17.8795ZM15.1576 24.2666H16.9722L16.0649 20.777C15.7671 21.9542 15.4647 23.1174 15.1576 24.2666Z" fill="black"/>
<path d="M16.0638 32.5726C15.9053 32.5776 15.7498 32.5285 15.623 32.4334C15.4961 32.3382 15.4054 32.2027 15.3659 32.0492C14.7657 29.7461 14.1631 27.4453 13.5583 25.1468C13.53 25.0433 13.5261 24.9347 13.5466 24.8294C13.5672 24.7241 13.6118 24.6249 13.6769 24.5396C13.7427 24.4542 13.8273 24.3852 13.9241 24.338C14.021 24.2908 14.1275 24.2666 14.2353 24.2674H17.8784C17.9875 24.2637 18.096 24.2856 18.1951 24.3313C18.2943 24.3771 18.3813 24.4455 18.4491 24.5311C18.517 24.6166 18.5639 24.7169 18.586 24.8238C18.608 24.9308 18.6047 25.0414 18.5763 25.1468L16.7617 32.0492C16.7221 32.2027 16.6315 32.3382 16.5046 32.4334C16.3777 32.5285 16.2223 32.5776 16.0638 32.5726ZM15.1565 25.6633C15.4636 26.8172 15.766 27.9687 16.0638 29.1179L16.9711 25.6633H15.1565Z" fill="black"/>
<path d="M16.0634 16.1088C15.8783 16.1088 15.7008 16.0353 15.5699 15.9044C15.439 15.7735 15.3655 15.596 15.3655 15.4109V13.0729C15.3655 12.8878 15.439 12.7103 15.5699 12.5794C15.7008 12.4485 15.8783 12.375 16.0634 12.375C16.2485 12.375 16.426 12.4485 16.5569 12.5794C16.6878 12.7103 16.7613 12.8878 16.7613 13.0729V15.4109C16.7613 15.596 16.6878 15.7735 16.5569 15.9044C16.426 16.0353 16.2485 16.1088 16.0634 16.1088Z" fill="black"/>
<path d="M16.0634 37.5551C15.8783 37.5551 15.7008 37.4815 15.5699 37.3506C15.439 37.2198 15.3655 37.0422 15.3655 36.8571V34.5191C15.3655 34.334 15.439 34.1565 15.5699 34.0256C15.7008 33.8948 15.8783 33.8212 16.0634 33.8212C16.2485 33.8212 16.426 33.8948 16.5569 34.0256C16.6878 34.1565 16.7613 34.334 16.7613 34.5191V36.8571C16.7613 37.0422 16.6878 37.2198 16.5569 37.3506C16.426 37.4815 16.2485 37.5551 16.0634 37.5551Z" fill="black"/>
<path d="M6.50861 25.6631H4.19852C4.01343 25.6631 3.83591 25.5896 3.70502 25.4587C3.57414 25.3278 3.50061 25.1503 3.50061 24.9652C3.50061 24.7801 3.57414 24.6026 3.70502 24.4717C3.83591 24.3408 4.01343 24.2673 4.19852 24.2673H6.53653C6.72163 24.2673 6.89915 24.3408 7.03003 24.4717C7.16091 24.6026 7.23444 24.7801 7.23444 24.9652C7.23444 25.1503 7.16091 25.3278 7.03003 25.4587C6.89915 25.5896 6.72163 25.6631 6.53653 25.6631H6.50861Z" fill="black"/>
<path d="M27.9282 25.6631H25.6181C25.433 25.6631 25.2555 25.5896 25.1246 25.4587C24.9937 25.3278 24.9202 25.1503 24.9202 24.9652C24.9202 24.7801 24.9937 24.6026 25.1246 24.4717C25.2555 24.3408 25.433 24.2673 25.6181 24.2673H27.9282C28.1133 24.2673 28.2908 24.3408 28.4217 24.4717C28.5526 24.6026 28.6261 24.7801 28.6261 24.9652C28.6261 25.1503 28.5526 25.3278 28.4217 25.4587C28.2908 25.5896 28.1133 25.6631 27.9282 25.6631Z" fill="black"/>
<path d="M17.8777 10.0434C16.6725 9.89447 15.4536 9.89447 14.2485 10.0434C10.4469 10.5057 6.96494 12.4014 4.51352 15.3436C2.06209 18.2859 0.826 22.0528 1.05755 25.8755C1.28911 29.6981 2.97085 33.2883 5.7595 35.9131C8.54814 38.538 12.2334 39.9996 16.0631 39.9996C19.8927 39.9996 23.578 38.538 26.3667 35.9131C29.1553 33.2883 30.8371 29.6981 31.0686 25.8755C31.3002 22.0528 30.0641 18.2859 27.6127 15.3436C25.1612 12.4014 21.6793 10.5057 17.8777 10.0434ZM16.0631 36.8572C13.7165 36.8572 11.4226 36.1614 9.47152 34.8577C7.52041 33.554 5.9997 31.701 5.10171 29.533C4.20371 27.3651 3.96875 24.9795 4.42655 22.678C4.88434 20.3765 6.01433 18.2625 7.67361 16.6032C9.33289 14.9439 11.4469 13.8139 13.7484 13.3561C16.0499 12.8983 18.4355 13.1333 20.6034 14.0313C22.7714 14.9293 24.6244 16.45 25.9281 18.4011C27.2318 20.3522 27.9276 22.6461 27.9276 24.9927C27.9276 28.1394 26.6776 31.1571 24.4526 33.3822C22.2275 35.6072 19.2098 36.8572 16.0631 36.8572Z" stroke="black" stroke-width="2" stroke-linecap="round" stroke-linejoin="round"/>
<path d="M17.8782 10.7418H17.7875C16.6429 10.5953 15.4843 10.5953 14.3398 10.7418C14.2408 10.7538 14.1403 10.7445 14.0452 10.7144C13.9501 10.6843 13.8625 10.6341 13.7884 10.5673C13.7153 10.5013 13.6569 10.4205 13.6172 10.3303C13.5775 10.2401 13.5574 10.1425 13.5581 10.0439V6.05881C13.5581 5.87372 13.6317 5.6962 13.7625 5.56532C13.8934 5.43443 14.0709 5.3609 14.256 5.3609H17.8782C18.0633 5.3609 18.2408 5.43443 18.3717 5.56532C18.5026 5.6962 18.5761 5.87372 18.5761 6.05881V10.0439C18.576 10.143 18.5548 10.2409 18.5139 10.3312C18.4729 10.4214 18.4133 10.5019 18.3388 10.5673C18.2116 10.6795 18.0478 10.7416 17.8782 10.7418ZM14.954 6.75673V9.27619C15.695 9.22036 16.4392 9.22036 17.1803 9.27619V6.75673H14.954Z" fill="black"/>
<path d="M14.2558 9.45735C14.1516 9.45907 14.0485 9.4351 13.9557 9.38756C12.9415 8.91146 12.1198 8.1039 11.6262 7.09808C11.1325 6.09225 10.9965 4.94823 11.2404 3.85467C11.4843 2.76112 12.0936 1.78334 12.9678 1.0826C13.8421 0.381859 14.929 0 16.0495 0C17.1699 0 18.2569 0.381859 19.1311 1.0826C20.0054 1.78334 20.6147 2.76112 20.8586 3.85467C21.1025 4.94823 20.9664 6.09225 20.4728 7.09808C19.9791 8.1039 19.1574 8.91146 18.1432 9.38756C18.0373 9.43659 17.9207 9.45827 17.8042 9.4506C17.6877 9.44293 17.575 9.40617 17.4764 9.34368C17.3778 9.28118 17.2965 9.19496 17.2398 9.09289C17.1832 8.99082 17.153 8.87617 17.1522 8.75943V6.75642H14.9537V8.75943C14.9528 8.87686 14.9222 8.99214 14.8649 9.09462C14.8076 9.1971 14.7253 9.28345 14.6257 9.34568C14.5154 9.41697 14.3872 9.45568 14.2558 9.45735ZM14.2558 5.3606H17.878C18.0631 5.3606 18.2406 5.43413 18.3715 5.56501C18.5024 5.6959 18.5759 5.87341 18.5759 6.05851V7.45434C18.9696 7.04558 19.2576 6.54698 19.415 6.00176C19.5724 5.45654 19.5945 4.88115 19.4793 4.32547C19.3641 3.76979 19.1152 3.25059 18.754 2.81286C18.3928 2.37514 17.9303 2.03211 17.4067 1.81349C16.883 1.59488 16.3139 1.50729 15.7487 1.55831C15.1835 1.60933 14.6392 1.79742 14.1632 2.10629C13.6871 2.41515 13.2935 2.83546 13.0166 3.33078C12.7396 3.82611 12.5877 4.38151 12.5739 4.94883C12.5741 5.87254 12.9405 6.75848 13.5928 7.41246V6.05851C13.5926 5.8793 13.6613 5.70688 13.7847 5.57695C13.9082 5.44703 14.0768 5.36956 14.2558 5.3606Z" fill="black"/>
</svg>
