<svg width="20" height="18" viewBox="0 0 20 18" fill="none" xmlns="http://www.w3.org/2000/svg">
<path d="M13.707 4.71976C13.5365 4.71976 13.3891 4.65749 13.2645 4.53294C13.14 4.40839 13.0777 4.2609 13.0777 4.09046C13.0777 3.75615 13.14 3.43494 13.2645 3.12684C13.3891 2.81875 13.5726 2.54671 13.8151 2.31072L14.5919 1.52409C14.841 1.27499 14.9656 0.976729 14.9656 0.629302C14.9656 0.458866 15.0279 0.311373 15.1524 0.186824C15.277 0.0622747 15.4245 0 15.5949 0C15.7653 0 15.9128 0.0622747 16.0374 0.186824C16.1619 0.311373 16.2242 0.458866 16.2242 0.629302C16.2242 0.963619 16.1619 1.28482 16.0374 1.59292C15.9128 1.90102 15.7293 2.17306 15.4867 2.40905L14.7099 3.19567C14.4608 3.44477 14.3363 3.74304 14.3363 4.09046C14.3363 4.2609 14.274 4.40839 14.1495 4.53294C14.0249 4.65749 13.8774 4.71976 13.707 4.71976ZM9.93117 4.71976C9.76073 4.71976 9.61324 4.65749 9.48869 4.53294C9.36414 4.40839 9.30187 4.2609 9.30187 4.09046C9.30187 3.75615 9.36414 3.43494 9.48869 3.12684C9.61324 2.81875 9.79679 2.54671 10.0393 2.31072L10.8161 1.52409C11.0652 1.27499 11.1898 0.976729 11.1898 0.629302C11.1898 0.458866 11.252 0.311373 11.3766 0.186824C11.5011 0.0622747 11.6486 0 11.8191 0C11.9895 0 12.137 0.0622747 12.2616 0.186824C12.3861 0.311373 12.4484 0.458866 12.4484 0.629302C12.4484 0.963619 12.3861 1.28482 12.2616 1.59292C12.137 1.90102 11.9535 2.17306 11.7109 2.40905L10.9341 3.19567C10.685 3.44477 10.5605 3.74304 10.5605 4.09046C10.5605 4.2609 10.4982 4.40839 10.3736 4.53294C10.2491 4.65749 10.1016 4.71976 9.93117 4.71976ZM18.1121 6.45034C18.3743 6.45034 18.6201 6.49951 18.8496 6.59784C19.079 6.69617 19.2789 6.83055 19.4494 7.00098C19.6198 7.17142 19.7542 7.37135 19.8525 7.60079C19.9508 7.83022 20 8.07604 20 8.33825V12.1141C20 12.3763 19.9508 12.6221 19.8525 12.8515C19.7542 13.081 19.6198 13.2809 19.4494 13.4513C19.2789 13.6218 19.079 13.7561 18.8496 13.8545C18.6201 13.9528 18.3743 14.002 18.1121 14.002H17.5516C17.5385 14.0479 17.5287 14.0905 17.5221 14.1298C17.5156 14.1691 17.5025 14.2085 17.4828 14.2478V14.6313C17.4828 15.0639 17.4009 15.4703 17.237 15.8505C17.0731 16.2307 16.8469 16.5651 16.5585 16.8535C16.2701 17.1419 15.9358 17.3681 15.5556 17.532C15.1754 17.6958 14.7689 17.7778 14.3363 17.7778H10.5605C10.0492 17.7778 9.57719 17.6631 9.14454 17.4336C8.7119 17.2042 8.35136 16.8994 8.06293 16.5192H3.14651C2.71386 16.5192 2.30744 16.4372 1.92724 16.2734C1.54703 16.1095 1.21272 15.8866 0.924287 15.6047C0.635857 15.3228 0.409702 14.9885 0.245821 14.6018C0.0819404 14.215 0 13.8053 0 13.3727V12.7434H2.51721C2.51721 12.2255 2.61554 11.7371 2.81219 11.2783C3.00885 10.8194 3.28089 10.4195 3.62832 10.0787C3.97575 9.73779 4.37561 9.46575 4.82793 9.26254C5.28024 9.05933 5.7686 8.961 6.29302 8.96755C6.48968 8.96755 6.67978 8.98394 6.86332 9.01672C7.04687 9.04949 7.23042 9.09538 7.41396 9.15438V5.19174H17.4828V6.45034H18.1121ZM6.29302 10.2262C5.94559 10.2262 5.62111 10.2917 5.31957 10.4228C5.01803 10.5539 4.74926 10.7342 4.51327 10.9636C4.27729 11.1931 4.09702 11.4585 3.97247 11.7601C3.84792 12.0616 3.78237 12.3894 3.77581 12.7434H7.41396V10.5015C7.24353 10.4163 7.06654 10.3507 6.88299 10.3048C6.69944 10.2589 6.50279 10.2327 6.29302 10.2262ZM3.14651 15.2606H7.48279C7.43691 15.0705 7.41396 14.8607 7.41396 14.6313V14.002H1.36676C1.43232 14.1855 1.52409 14.3527 1.64208 14.5034C1.76008 14.6542 1.89446 14.7886 2.04523 14.9066C2.196 15.0246 2.36644 15.1098 2.55654 15.1622C2.74664 15.2147 2.9433 15.2475 3.14651 15.2606ZM7.69911 15.9194V15.9292L7.70895 15.9489V15.939L7.69911 15.9194ZM16.2242 14.6313V6.45034H8.67257V14.6313C8.67257 14.8935 8.72173 15.1393 8.82006 15.3687C8.91839 15.5982 9.05277 15.7981 9.22321 15.9685C9.39364 16.139 9.59358 16.2734 9.82301 16.3717C10.0524 16.47 10.2983 16.5192 10.5605 16.5192H14.3363C14.5985 16.5192 14.8443 16.47 15.0737 16.3717C15.3032 16.2734 15.5031 16.139 15.6735 15.9685C15.844 15.7981 15.9784 15.5982 16.0767 15.3687C16.175 15.1393 16.2242 14.8935 16.2242 14.6313ZM18.7414 12.1141V8.33825C18.7414 8.16781 18.6791 8.02032 18.5546 7.89577C18.43 7.77122 18.2825 7.70895 18.1121 7.70895H17.4828V12.7434H18.1121C18.2825 12.7434 18.43 12.6811 18.5546 12.5565C18.6791 12.432 18.7414 12.2845 18.7414 12.1141Z" fill="#64CBB9"/>
</svg>
