<svg width="20" height="20" viewBox="0 0 20 20" fill="none" xmlns="http://www.w3.org/2000/svg">
<path d="M10.0001 18.9999C12.0823 18.9999 14.1 18.2779 15.7096 16.957C17.3191 15.6361 18.4209 13.7979 18.8271 11.7557C19.2333 9.71353 18.9188 7.59368 17.9372 5.75736C16.9557 3.92104 15.3678 2.48186 13.4441 1.68506C11.5204 0.888254 9.37991 0.783115 7.38738 1.38756C5.39485 1.992 3.67354 3.26862 2.51675 4.99991C1.35996 6.73119 0.839253 8.81002 1.04336 10.8822C1.24746 12.9543 2.16375 14.8916 3.63609 16.364" stroke="#077B57" stroke-width="2" stroke-linecap="round"/>
<path d="M14 8L10.402 12.318C9.74699 13.104 9.41899 13.498 8.978 13.518C8.537 13.538 8.175 13.175 7.451 12.451L6 11" stroke="#077B57" stroke-width="2" stroke-linecap="round"/>
</svg>
