<svg width="9" height="9" viewBox="0 0 9 9" fill="none" xmlns="http://www.w3.org/2000/svg">
<path fill-rule="evenodd" clip-rule="evenodd" d="M0.21959 0.228966C0.360236 0.088363 0.550967 0.00937635 0.74984 0.00937635C0.948713 0.00937635 1.13944 0.088363 1.28009 0.228966L4.12484 3.07372L6.96959 0.228966C7.03877 0.157334 7.12153 0.100197 7.21304 0.0608901C7.30454 0.0215834 7.40295 0.00089368 7.50254 2.83178e-05C7.60212 -0.000837044 7.70088 0.0181391 7.79305 0.0558497C7.88523 0.0935604 7.96897 0.14925 8.03938 0.21967C8.10981 0.290089 8.16549 0.373828 8.20321 0.466001C8.24092 0.558173 8.25989 0.656933 8.25903 0.756517C8.25816 0.856102 8.23747 0.954516 8.19816 1.04602C8.15886 1.13752 8.10172 1.22028 8.03009 1.28947L5.18534 4.13422L8.03009 6.97897C8.16671 7.12042 8.2423 7.30987 8.24059 7.50652C8.23889 7.70316 8.16001 7.89127 8.02095 8.03033C7.8819 8.16939 7.69379 8.24826 7.49714 8.24997C7.30049 8.25168 7.11104 8.17609 6.96959 8.03947L4.12484 5.19472L1.28009 8.03947C1.13864 8.17609 0.949186 8.25168 0.752539 8.24997C0.555891 8.24826 0.367782 8.16939 0.228726 8.03033C0.0896698 7.89127 0.0107929 7.70316 0.0090841 7.50652C0.00737529 7.30987 0.0829714 7.12042 0.21959 6.97897L3.06434 4.13422L0.21959 1.28947C0.0789866 1.14882 0 0.958089 0 0.759216C0 0.560343 0.0789866 0.369612 0.21959 0.228966Z" fill="white"/>
</svg>
