<svg width="16" height="20" viewBox="0 0 16 20" fill="none" xmlns="http://www.w3.org/2000/svg">
<path fill-rule="evenodd" clip-rule="evenodd" d="M8.5922 19.258L8.58119 19.26L8.51019 19.295L8.4902 19.299L8.4762 19.295L8.4052 19.26C8.39453 19.2567 8.38653 19.2583 8.3812 19.265L8.3772 19.275L8.3602 19.703L8.3652 19.723L8.3752 19.736L8.47919 19.81L8.49419 19.814L8.5062 19.81L8.6102 19.736L8.6222 19.72L8.62619 19.703L8.60919 19.276C8.60653 19.2653 8.60086 19.2593 8.5922 19.258ZM8.85719 19.145L8.8442 19.147L8.65919 19.24L8.64919 19.25L8.6462 19.261L8.6642 19.691L8.6692 19.703L8.6772 19.71L8.87819 19.803C8.89086 19.8063 8.90053 19.8037 8.9072 19.795L8.91119 19.781L8.8772 19.167C8.87386 19.155 8.86719 19.1477 8.85719 19.145ZM8.14219 19.147C8.13779 19.1443 8.13252 19.1435 8.12749 19.1446C8.12246 19.1457 8.11806 19.1487 8.1152 19.153L8.10919 19.167L8.0752 19.781C8.07586 19.793 8.08153 19.801 8.0922 19.805L8.10719 19.803L8.3082 19.71L8.3182 19.702L8.3222 19.691L8.3392 19.261L8.33619 19.249L8.32619 19.239L8.14219 19.147Z" fill="#FF6F4C"/>
<path fill-rule="evenodd" clip-rule="evenodd" d="M7.9996 10.122L13.3026 15.425C13.584 15.7064 13.9657 15.8645 14.3636 15.8645C14.7616 15.8645 15.1432 15.7064 15.4246 15.425C15.706 15.1436 15.8641 14.7619 15.8641 14.364C15.8641 13.966 15.706 13.5844 15.4246 13.303L10.1196 7.99999L15.4236 2.69699C15.5629 2.55766 15.6733 2.39226 15.7487 2.21024C15.824 2.02821 15.8628 1.83313 15.8627 1.63613C15.8627 1.43914 15.8238 1.24407 15.7484 1.06209C15.673 0.880101 15.5624 0.714755 15.4231 0.575488C15.2838 0.436221 15.1184 0.325762 14.9364 0.250416C14.7543 0.175071 14.5592 0.136315 14.3623 0.136361C14.1653 0.136408 13.9702 0.175255 13.7882 0.250687C13.6062 0.326118 13.4409 0.436656 13.3016 0.575988L7.9996 5.87899L2.6966 0.575988C2.5583 0.432659 2.39284 0.318309 2.20987 0.239611C2.0269 0.160912 1.83009 0.119441 1.63092 0.117617C1.43176 0.115793 1.23422 0.153652 1.04984 0.228987C0.865462 0.304321 0.697932 0.415622 0.557027 0.556394C0.416123 0.697166 0.304664 0.864591 0.229156 1.0489C0.153648 1.23321 0.115602 1.43071 0.117238 1.62988C0.118874 1.82905 0.16016 2.02589 0.238686 2.20894C0.317212 2.39198 0.431406 2.55755 0.574604 2.69599L5.8796 7.99999L0.575604 13.304C0.432406 13.4424 0.318212 13.608 0.239686 13.791C0.16116 13.9741 0.119874 14.1709 0.118238 14.3701C0.116602 14.5693 0.154648 14.7668 0.230156 14.9511C0.305664 15.1354 0.417122 15.3028 0.558027 15.4436C0.698932 15.5844 0.866462 15.6957 1.05084 15.771C1.23522 15.8463 1.43276 15.8842 1.63192 15.8824C1.83109 15.8805 2.0279 15.8391 2.21087 15.7604C2.39384 15.6817 2.5593 15.5673 2.6976 15.424L7.9996 10.122Z" fill="#FF6F4C"/>
</svg>
