<svg width="50" height="45" viewBox="0 0 50 45" fill="none" xmlns="http://www.w3.org/2000/svg">
<path d="M0.845914 44.2014C16.8775 44.9189 32.9325 44.9407 49.0107 44.2728C48.4593 30.8476 48.2102 18.3474 49.0483 9.1686L0.797852 9.05207L0.845914 44.2014Z" fill="#F2F2F2"/>
<path d="M0.655634 44.3847C0.634368 32.585 0.658255 20.7894 0.699038 9.05243C0.699038 8.99708 0.743896 8.95251 0.798953 8.95251H0.799245L49.0494 9.06903C49.1045 9.06932 49.1487 9.11419 49.1487 9.16895L49.1482 9.17769V9.17798C48.8991 12.0919 48.7724 15.0155 48.7077 17.9399C48.6445 20.8643 48.6457 23.7902 48.6826 26.7158C48.7596 32.567 48.9754 38.4164 49.2335 44.2638L49.2341 44.2722C49.239 44.3899 49.1479 44.4895 49.0302 44.4948L49.0206 44.4951C40.9948 44.8356 32.9613 45.0046 24.928 44.9999C20.9112 44.9979 16.8944 44.9524 12.8788 44.8633C10.8708 44.817 8.86313 44.7619 6.85575 44.6972L3.84512 44.5897C2.78157 44.5487 1.69996 44.4724 0.655634 44.3847ZM1.03782 44.0185C1.99942 44.015 2.92343 44.0232 3.86551 44.0663L6.87323 44.179C8.87886 44.2469 10.8845 44.3057 12.8904 44.3555C16.9025 44.4514 20.9153 44.5041 24.9285 44.5131C32.9551 44.5318 40.982 44.3768 49.0022 44.0508L48.7893 44.2818C48.572 38.4304 48.3969 32.5763 48.3608 26.7187C48.3442 23.7902 48.3634 20.8611 48.4473 17.9332C48.5323 15.0053 48.6797 12.0779 48.9501 9.16021V9.15992L49.0488 9.26857L0.798665 9.15176H0.798373L0.898289 9.05214C0.971406 20.7478 1.02705 32.3849 1.03782 44.0185Z" fill="#FF6F4C"/>
<path d="M0.799659 9.05208C0.799659 9.05208 49.1031 9.12374 49.0647 9.12374C48.2321 18.0199 48.4314 29.2361 49.0023 41.288C32.6345 41.8733 16.5685 41.8875 0.843643 41.258C0.0629478 29.8461 -0.070175 19.006 0.799659 9.05208Z" fill="white"/>
<path d="M1.02871 41.0668C16.2456 41.671 32.313 41.6812 48.7941 41.0968C48.1241 26.8668 48.1399 17.0446 48.8463 9.32173C45.4817 9.31678 4.07284 9.25532 0.980937 9.25066C0.186551 18.4752 0.202278 28.8873 1.02871 41.0668ZM24.8399 41.9244C16.6531 41.9244 8.63291 41.7683 0.834993 41.4563C0.733911 41.4522 0.651762 41.3727 0.644771 41.2716C-0.200302 28.9144 -0.214576 18.3697 0.601367 9.0345C0.610106 8.93225 0.696041 8.85331 0.798872 8.85331C0.799163 8.85331 0.79916 8.85331 0.79916 8.85331L48.522 8.92439C49.2623 8.92526 49.2623 8.92526 49.2623 9.12394C48.534 16.9149 48.5151 26.826 49.1999 41.2786C49.2022 41.3313 49.1836 41.3832 49.1478 41.4222C49.1116 41.4616 49.0615 41.4843 49.0088 41.4863C40.8345 41.7782 32.7593 41.9244 24.8399 41.9244Z" fill="#FF6F4C"/>
<path d="M1.02932 41.0661C18.4907 41.6766 30.2658 41.6851 39.1628 41.0952C40.0043 38.6907 40.3492 35.8753 40.2173 32.4935C40.215 32.4306 40.2426 32.3703 40.2921 32.3307C40.3411 32.2913 40.4063 32.2773 40.4675 32.2945C42.6252 32.878 45.027 32.6703 48.4769 31.5948C47.7542 24.5 48.2232 16.7073 48.8483 9.32183C45.4937 9.31688 4.07374 9.25541 0.981545 9.25075C0.190072 18.4654 0.2058 28.8761 1.02932 41.0661ZM23.6048 41.9277C17.2535 41.9277 9.7897 41.7707 0.836473 41.4564C0.735099 41.4529 0.652371 41.3731 0.645379 41.2714C-0.197072 28.9043 -0.211054 18.3596 0.601975 9.0346C0.610714 8.93235 0.69665 8.8534 0.79948 8.8534C0.799772 8.8534 0.799768 8.8534 0.799768 8.8534L48.5227 8.92448C49.2629 8.92536 49.2629 8.92536 49.2629 9.12403C48.6249 16.6257 48.1384 24.5414 48.8882 31.7151C48.8981 31.8089 48.8405 31.8966 48.7507 31.9249C45.2772 33.0228 42.8242 33.2724 40.6234 32.744C40.7311 36.1168 40.3609 38.9349 39.4928 41.3518C39.4663 41.4261 39.3981 41.4771 39.3195 41.4826C34.9042 41.7792 29.7804 41.9277 23.6048 41.9277Z" fill="#FF6F4C"/>
<path d="M0.797852 9.05182C16.1234 9.55724 32.2779 9.53947 49.0629 9.12348L49.055 4.53395L0.804843 4.45384L0.797852 9.05182Z" fill="#FF6F4C"/>
<path d="M0.60959 9.2347C0.583955 7.64242 0.584832 6.03003 0.612797 4.45378C0.614545 4.34832 0.701062 4.26385 0.80564 4.26152H0.805929C4.8268 4.17616 8.84796 4.13684 12.8688 4.12373L18.9 4.11324L24.9314 4.13596C28.952 4.14849 32.9729 4.1651 36.9938 4.20442C41.0143 4.22831 45.0352 4.28977 49.0561 4.34192H49.0599C49.1647 4.34337 49.2489 4.42931 49.248 4.53388V4.53447L49.2454 9.12342C49.2454 9.22246 49.1662 9.30286 49.0677 9.30577H49.0671L43.0354 9.53358L37.0016 9.68971C32.9784 9.77681 28.9541 9.81003 24.9297 9.82983C20.9053 9.8208 16.8807 9.801 12.8566 9.71681C10.8449 9.67253 8.8331 9.62155 6.82194 9.56008L3.80549 9.44385C2.74718 9.4054 1.64343 9.3218 0.60959 9.2347ZM0.987122 8.86969C1.96357 8.84347 2.8704 8.82366 3.82238 8.84434L6.83796 8.88542L12.8682 8.96466C16.8888 9.00456 20.9091 9.04302 24.93 9.03602C28.9506 9.05671 32.9714 9.03457 36.9929 9.01651L49.0581 8.94164H49.0587L48.881 9.124L48.8632 4.53505V4.53447L49.0552 4.72673C45.0343 4.76519 41.0135 4.81325 36.9926 4.82373C32.9717 4.84995 28.9509 4.85316 24.93 4.85229L18.8988 4.8552L12.8677 4.82432C8.8468 4.7981 4.82593 4.74509 0.805349 4.64662H0.805057L0.997609 4.45436C1.0212 5.94352 1.01742 7.39655 0.987122 8.86969Z" fill="#FF6F4C"/>
<path d="M5.60892 4.55338C5.4356 3.42778 5.55183 2.25527 5.9448 1.16549C6.04996 0.893411 6.18046 0.61259 6.4068 0.383914C6.62557 0.152035 6.95766 0.000556946 7.28625 -2.57492e-05C7.94431 -0.000899792 8.52051 0.425284 8.81181 0.963618C9.11477 1.50137 9.19225 2.09796 9.27091 2.65261C9.34577 3.21308 9.42413 3.77501 9.45326 4.34539C9.51647 5.49226 9.38306 6.6167 9.2846 7.73823C9.28168 7.76882 9.25488 7.79154 9.2243 7.78892C9.19575 7.7863 9.1739 7.76154 9.17332 7.73357C9.16225 7.16931 9.17623 6.60447 9.1739 6.04254C9.18293 5.48032 9.17186 4.92422 9.11506 4.37044C9.06058 3.81696 8.98688 3.26173 8.89949 2.70708C8.81851 2.15273 8.71626 1.6109 8.46982 1.15471C8.3466 0.925743 8.18405 0.735521 7.97577 0.595403C7.77011 0.456159 7.52687 0.366142 7.28945 0.367016C7.05292 0.366725 6.83036 0.460823 6.65762 0.634732C6.48342 0.806312 6.34971 1.0379 6.24455 1.28551C5.83381 2.30187 5.65845 3.42602 5.71962 4.54144C5.72137 4.57231 5.69777 4.59882 5.66718 4.60028C5.63834 4.60203 5.61329 4.58106 5.60892 4.55338Z" fill="#FF6F4C"/>
<path d="M12.5873 4.56464C12.4181 3.43757 12.5358 2.26506 12.9302 1.17616C13.0354 0.903499 13.1679 0.624432 13.3922 0.394009C13.611 0.162129 13.9434 0.0112281 14.2717 0.0106459C14.9297 0.0100632 15.5056 0.436538 15.7966 0.97458C16.1008 1.51146 16.1803 2.10805 16.2581 2.66299C16.3338 3.22317 16.4101 3.78569 16.4422 4.35607C16.5057 5.50294 16.374 6.62767 16.2773 7.74891C16.2744 7.78357 16.2438 7.80921 16.2094 7.806C16.1771 7.80338 16.1523 7.77571 16.1517 7.74396C16.1418 7.17941 16.1552 6.61515 16.1549 6.05292C16.1643 5.4907 16.1532 4.93489 16.097 4.38141C16.046 3.82763 15.97 3.2727 15.8834 2.71805C15.8019 2.1637 15.7011 1.62186 15.4564 1.1651C15.3326 0.935838 15.1703 0.745616 14.9615 0.605789C14.7555 0.466253 14.5123 0.376528 14.2752 0.377402C13.7881 0.364876 13.4295 0.80038 13.2305 1.29618C12.821 2.31313 12.6471 3.43728 12.7123 4.55153C12.7144 4.5862 12.6881 4.61591 12.6535 4.61795C12.6208 4.61999 12.5923 4.59639 12.5873 4.56464Z" fill="#FF6F4C"/>
<path d="M19.5582 4.57621C19.3951 3.44623 19.5162 2.27343 19.9133 1.18482C20.019 0.911578 20.1527 0.632802 20.3776 0.402379C20.5967 0.170208 20.9299 0.0193062 21.2588 0.0190153C21.9175 0.018724 22.4931 0.446074 22.7838 0.984408C23.0871 1.52158 23.1686 2.11788 23.2461 2.67253C23.323 3.233 23.3987 3.79551 23.4325 4.36559C23.499 5.51276 23.3702 6.63866 23.2805 7.7596C23.277 7.8033 23.2388 7.83563 23.1954 7.83214C23.1543 7.82864 23.1232 7.7934 23.1226 7.7532C23.1165 7.18864 23.1313 6.62438 23.134 6.06245C23.1447 5.50052 23.1354 4.94501 23.0806 4.39152C23.0311 3.83775 22.9551 3.28281 22.8694 2.72816C22.7876 2.1741 22.6888 1.63168 22.443 1.17521C22.3192 0.946241 22.1566 0.75602 21.9481 0.616485C21.7421 0.47724 21.4989 0.388099 21.262 0.389264C20.7761 0.377029 20.4187 0.811659 20.2212 1.30775C19.8145 2.3247 19.6441 3.44857 19.7155 4.5599C19.7184 4.60331 19.6855 4.64088 19.6418 4.64408C19.6004 4.647 19.5643 4.6167 19.5582 4.57621Z" fill="#FF6F4C"/>
<path d="M26.5358 4.58786C26.3799 3.45584 26.502 2.28333 26.9014 1.19589C27.0074 0.922934 27.1426 0.6459 27.366 0.415477C27.5821 0.181267 27.9163 0.0306625 28.2446 0.0306625C28.9029 0.0309539 29.4774 0.458297 29.7672 0.99634C30.0646 1.5338 30.1631 2.12602 30.2365 2.68242C30.314 3.2426 30.3865 3.80541 30.4247 4.37549C30.4946 5.52324 30.3647 6.64972 30.2747 7.77038C30.2709 7.81844 30.2286 7.85427 30.1806 7.85078C30.1354 7.84699 30.1011 7.80766 30.1002 7.76339C30.083 6.6337 30.1648 5.50547 30.0603 4.40229C30.0154 3.84823 29.9359 3.29387 29.8508 2.73923C29.7649 2.18633 29.6827 1.64012 29.4313 1.18394C29.3072 0.954973 29.1441 0.76446 28.935 0.624924C28.7287 0.485971 28.4852 0.396831 28.2481 0.398287C28.0109 0.39887 27.7904 0.493542 27.6154 0.665121C27.4382 0.834953 27.3092 1.06975 27.2049 1.31707C26.8006 2.33547 26.631 3.45962 26.7097 4.56921C26.7132 4.61727 26.6771 4.65952 26.629 4.66272C26.5827 4.66622 26.5422 4.63272 26.5358 4.58786Z" fill="#FF6F4C"/>
<path d="M33.5375 4.59696C33.3764 3.46785 33.4956 2.29534 33.8929 1.2079C33.9984 0.934943 34.1326 0.657909 34.3558 0.427195C34.5711 0.192401 34.9055 0.0435452 35.2332 0.0426717C35.8907 0.0426717 36.4654 0.469147 36.7556 1.00719C37.0547 1.54407 37.1506 2.13687 37.2237 2.69356C37.3006 3.25345 37.3728 3.81626 37.4107 4.38634C37.4768 5.53438 37.3454 6.65969 37.2499 7.78064C37.2461 7.82113 37.2103 7.85143 37.1698 7.84793C37.1316 7.84473 37.1028 7.81181 37.1019 7.77452C37.0789 6.64484 37.1596 5.51632 37.0512 4.41285C37.0058 3.85908 36.926 3.30413 36.8406 2.74978C36.7541 2.19717 36.6699 1.65127 36.42 1.1945C36.2962 0.965531 36.133 0.775018 35.9239 0.635191C35.7176 0.495947 35.4738 0.406223 35.2364 0.407679C34.9987 0.407388 34.7788 0.503516 34.6028 0.674513C34.4248 0.844053 34.2949 1.07943 34.1903 1.32646C33.784 2.34458 33.6112 3.46931 33.6846 4.58123C33.6875 4.6223 33.6567 4.65755 33.6162 4.66046C33.5771 4.66279 33.5433 4.63483 33.5375 4.59696Z" fill="#FF6F4C"/>
<path d="M40.5065 4.60957C40.3573 3.47639 40.4724 2.30388 40.8753 1.21585C40.9816 0.942898 41.1168 0.665573 41.3411 0.434858C41.5578 0.200066 41.8931 0.0509176 42.2214 0.0503349C42.8803 0.0509176 43.455 0.478554 43.7452 1.01689C44.0449 1.55406 44.1376 2.14774 44.2124 2.70385C44.2899 3.26403 44.363 3.82654 44.4015 4.39662C44.4705 5.54437 44.3435 6.67085 44.2573 7.7918C44.2535 7.84307 44.2087 7.88152 44.1571 7.87773C44.1087 7.87395 44.0717 7.83375 44.0709 7.78597V7.78423C44.0575 6.65454 44.1428 5.5266 44.0374 4.42342C43.9922 3.86965 43.9133 3.31471 43.8288 2.76007C43.7437 2.20717 43.6563 1.66213 43.407 1.20565C43.2832 0.976687 43.1201 0.786757 42.9109 0.647222C42.7049 0.50856 42.4617 0.41942 42.2249 0.420876C41.9878 0.420585 41.7684 0.517005 41.5942 0.688293C41.4174 0.857542 41.2883 1.09234 41.1846 1.33937C40.7838 2.35719 40.6073 3.48134 40.6923 4.58947C40.6964 4.64103 40.6579 4.68589 40.6067 4.69026C40.5572 4.69434 40.5132 4.65822 40.5065 4.60957Z" fill="#FF6F4C"/>
<path d="M48.6894 31.7357C48.6894 31.7357 46.7548 37.9184 39.3044 41.2847C40.2456 38.6612 40.5387 35.6858 40.414 32.4858C42.9224 33.1637 45.5573 32.7262 48.6894 31.7357Z" fill="#F2F2F2"/>
<path d="M48.6246 31.8025C48.4719 31.8724 48.3437 31.9385 48.2033 31.9837L47.7081 32.1293C47.3693 32.2251 47.0294 32.3181 46.6865 32.3999C46.002 32.5668 45.3089 32.7052 44.6078 32.7949C43.2095 32.9773 41.7644 32.949 40.3914 32.577L40.51 32.4821C40.5668 33.9718 40.538 35.4671 40.3716 36.9513C40.2053 38.4343 39.8991 39.9075 39.3949 41.3168L39.2676 41.1988C40.2889 40.6928 41.2723 40.1184 42.2025 39.4691C43.1256 38.8113 44.0074 38.0935 44.8006 37.2851C45.5982 36.4823 46.3305 35.613 46.9682 34.6771C47.2921 34.2127 47.5925 33.7312 47.8663 33.2351C48.0018 32.9869 48.1375 32.7376 48.2607 32.4821C48.3219 32.3548 48.3819 32.226 48.4387 32.0967L48.5232 31.9021L48.5637 31.8045L48.5829 31.7556L48.5922 31.7311C48.5951 31.7273 48.5946 31.7162 48.5922 31.7462C48.5922 31.7687 48.6085 31.794 48.6246 31.8025ZM48.7577 31.669C48.7711 31.6862 48.7845 31.72 48.7819 31.7512C48.7766 31.7894 48.7731 31.787 48.7731 31.7914L48.7653 31.8176L48.7492 31.8703L48.716 31.974L48.6455 32.1797C48.5954 32.3155 48.5421 32.45 48.4877 32.584C48.3767 32.8509 48.2581 33.1145 48.1296 33.3738C47.8692 33.8894 47.5811 34.3916 47.268 34.8778C46.6274 35.84 45.9026 36.7506 45.0765 37.561C44.6654 37.9674 44.2372 38.3571 43.7877 38.7207C43.3438 39.0912 42.8748 39.4303 42.393 39.7484C41.4291 40.3843 40.408 40.9305 39.3451 41.3707L39.3425 41.3719C39.2944 41.3917 39.2393 41.369 39.2192 41.3209C39.2099 41.2985 39.2102 41.2743 39.2178 41.253C39.7159 39.8603 40.0194 38.4017 40.1843 36.9303C40.3492 35.4581 40.3783 33.9715 40.3218 32.4897C40.3198 32.4375 40.3603 32.3938 40.4121 32.3918C40.4217 32.3915 40.4316 32.3926 40.4404 32.3953C41.7853 32.7594 43.2025 32.788 44.5839 32.6079C45.2763 32.5194 45.9626 32.3827 46.642 32.217C46.9819 32.1357 47.3198 32.0434 47.6566 31.9481L48.1725 31.7981C48.3673 31.7398 48.5748 31.7028 48.7577 31.669Z" fill="#FF6F4C"/>
<path d="M16.4536 17.6457L16.3193 11.976L22.3001 11.9847L21.9864 17.8679L16.4536 17.6457Z" fill="#FDC436"/>
<path d="M16.6483 17.4548L21.7994 17.6619L22.0916 12.1833L16.5233 12.1749L16.6483 17.4548ZM21.9873 18.0668C21.9844 18.0668 21.9818 18.0665 21.9792 18.0665L16.4464 17.844C16.3419 17.8399 16.2585 17.7551 16.2559 17.6506L16.1216 11.9809C16.1205 11.9276 16.1409 11.8757 16.1784 11.8372C16.2157 11.7991 16.2667 11.7775 16.32 11.7775C16.3203 11.7775 16.3203 11.7775 16.3203 11.7775L22.3011 11.7863C22.3555 11.7866 22.4074 11.8093 22.445 11.8483C22.4823 11.8879 22.5021 11.9412 22.4989 11.9954L22.1851 17.8789C22.1796 17.9847 22.0922 18.0668 21.9873 18.0668Z" fill="#FF6F4C"/>
<path d="M39.546 17.6802L39.4114 12.0105L45.3921 12.0193L45.0784 17.9031L39.546 17.6802Z" fill="#FDC436"/>
<path d="M39.7404 17.4891L44.8909 17.6965L45.1834 12.2173L39.6151 12.2092L39.7404 17.4891ZM45.0788 18.1011C45.0762 18.1011 45.0736 18.1008 45.0707 18.1008L39.5382 17.8783C39.4336 17.8739 39.3503 17.7891 39.3477 17.6849L39.2134 12.0152C39.2123 11.9616 39.2327 11.9097 39.2699 11.8713C39.3072 11.8334 39.3585 11.8115 39.4118 11.8115C39.4121 11.8115 39.4121 11.8115 39.4121 11.8115L45.3929 11.8206C45.4473 11.8209 45.4992 11.843 45.5368 11.8826C45.574 11.9219 45.5936 11.9753 45.5907 12.0294L45.2769 17.9132C45.2714 18.019 45.184 18.1011 45.0788 18.1011Z" fill="#FF6F4C"/>
<path d="M4.89601 27.4327L4.76172 21.7633L10.7425 21.7723L10.4285 27.6555L4.89601 27.4327Z" fill="#FDC436"/>
<path d="M5.08998 27.2417L10.2408 27.4491L10.533 21.97L4.96501 21.9618L5.08998 27.2417ZM10.4287 27.8541C10.4261 27.8541 10.4232 27.8538 10.4206 27.8538L4.88782 27.6309C4.78353 27.6266 4.69993 27.5418 4.6976 27.4375L4.5633 21.7678C4.56185 21.7145 4.58253 21.6626 4.61982 21.6242C4.65711 21.586 4.69818 21.5718 4.76197 21.5645L10.7427 21.5735C10.7972 21.5738 10.8491 21.5962 10.8864 21.6355C10.9239 21.6752 10.9434 21.7282 10.9405 21.7827L10.6268 27.6659C10.6213 27.7716 10.5336 27.8541 10.4287 27.8541Z" fill="#FF6F4C"/>
<path d="M16.4412 27.4498L16.3069 21.7804L22.2874 21.7891L21.9736 27.6726L16.4412 27.4498Z" fill="#FDC436"/>
<path d="M16.6347 27.2589L21.7855 27.4663L22.0777 21.9874L16.5094 21.9792L16.6347 27.2589ZM21.9734 27.8709C21.9708 27.8709 21.9679 27.8706 21.9652 27.8706L16.4325 27.6481C16.3279 27.6437 16.2446 27.5589 16.242 27.4546L16.108 21.7852C16.1065 21.7316 16.1269 21.6798 16.1645 21.6416C16.2018 21.6032 16.2496 21.5717 16.3067 21.5816L22.2871 21.5906C22.3416 21.5909 22.3937 21.6134 22.431 21.6527C22.4683 21.692 22.4881 21.7453 22.4852 21.7995L22.1712 27.683C22.1657 27.7888 22.0783 27.8709 21.9734 27.8709Z" fill="#FF6F4C"/>
<path d="M27.9854 27.4673L27.8511 21.7976L33.8318 21.8064L33.5181 27.6896L27.9854 27.4673Z" fill="#FDC436"/>
<path d="M28.1793 27.276L33.3304 27.4831L33.6226 22.0045L28.0543 21.9961L28.1793 27.276ZM33.5183 27.8881C33.5154 27.8881 33.5128 27.8878 33.5102 27.8878L27.9774 27.6652C27.8729 27.6611 27.7895 27.5764 27.7869 27.4718L27.6526 21.8021C27.6515 21.7488 27.6719 21.6969 27.7094 21.6585C27.7467 21.6203 27.7977 21.5988 27.851 21.5988C27.8513 21.5988 27.8513 21.5988 27.8513 21.5988L33.8321 21.6075C33.8865 21.6078 33.9384 21.6302 33.976 21.6695C34.0133 21.7092 34.0331 21.7625 34.0299 21.8167L33.7161 27.6999C33.7106 27.8059 33.6232 27.8881 33.5183 27.8881Z" fill="#FF6F4C"/>
<path d="M16.4251 37.254L16.2908 31.5843L22.2712 31.5934L21.9575 37.4769L16.4251 37.254Z" fill="#FDC436"/>
<path d="M16.619 37.0632L21.7699 37.2706L22.0621 31.7914L16.4941 31.7833L16.619 37.0632ZM21.9578 37.6755C21.9551 37.6755 21.9522 37.6752 21.9496 37.6752L16.4169 37.4524C16.3126 37.448 16.229 37.3633 16.2267 37.259L16.0924 31.5893C16.0909 31.5357 16.1116 31.4841 16.1489 31.4457C16.1862 31.4075 16.2374 31.3859 16.2907 31.3859C16.2907 31.3859 16.2907 31.3859 16.291 31.3859L22.2715 31.3947C22.326 31.395 22.3778 31.4174 22.4154 31.4567C22.4527 31.4963 22.4725 31.5494 22.4693 31.6038L22.1559 37.4874C22.1503 37.5931 22.0626 37.6755 21.9578 37.6755Z" fill="#FF6F4C"/>
<path d="M5.60815 42.7656C7.2144 42.7233 8.82036 42.7064 10.4263 42.6761L15.2445 42.6281C18.4567 42.6001 21.6686 42.6077 24.8808 42.596C28.0927 42.6161 31.3047 42.6193 34.5169 42.6557L39.3348 42.7184C40.9407 42.7536 42.5467 42.7752 44.1526 42.8226C42.5467 42.8655 40.9404 42.8824 39.3345 42.913L34.5163 42.961C31.3041 42.9881 28.0922 42.9817 24.8802 42.9922C21.668 42.9709 18.4561 42.9692 15.2442 42.9316L10.4263 42.8695C8.82007 42.8343 7.21411 42.8127 5.60815 42.7656Z" fill="#FF6F4C"/>
<path d="M5.10243 17.4377L10.2533 17.6448L10.5455 12.1659L4.97717 12.1578L5.10243 17.4377ZM10.4412 18.0494C10.4385 18.0494 10.4356 18.0491 10.433 18.0491L4.90027 17.8269C4.79569 17.8225 4.71238 17.7377 4.70976 17.6335L4.57576 11.9638C4.5743 11.9102 4.59469 11.8586 4.63227 11.8201C4.66956 11.782 4.72083 11.7604 4.77414 11.7604C4.77414 11.7604 4.77413 11.7604 4.77442 11.7604L10.7549 11.7692C10.8094 11.7695 10.8615 11.7919 10.8988 11.8312C10.9361 11.8705 10.9559 11.9239 10.953 11.9783L10.639 17.8615C10.6334 17.9673 10.546 18.0494 10.4412 18.0494Z" fill="#FF6F4C"/>
<path d="M4.90894 17.6287C5.77469 16.573 6.72434 15.6038 7.69409 14.6556C8.67229 13.7161 9.67176 12.7985 10.7551 11.968C9.88994 13.024 8.94058 13.9935 7.96996 14.9408C6.99118 15.8794 5.99171 16.7973 4.90894 17.6287Z" fill="#FF6F4C"/>
<path d="M28.1945 17.4721L33.3453 17.6796L33.6378 12.2004L28.0695 12.1922L28.1945 17.4721ZM33.5332 18.0845C33.5306 18.0845 33.5279 18.0842 33.5253 18.0842L27.9926 17.8613C27.888 17.857 27.8047 17.7722 27.8021 17.6679L27.6678 11.9982C27.6666 11.9446 27.687 11.893 27.7243 11.8546C27.7616 11.8164 27.8128 11.7949 27.8662 11.7949C27.8664 11.7949 27.8664 11.7949 27.8664 11.7949L33.8472 11.8036C33.9017 11.8039 33.9535 11.8261 33.9911 11.8657C34.0284 11.9053 34.0479 11.9583 34.045 12.0128L33.7313 17.8963C33.7257 18.002 33.6383 18.0845 33.5332 18.0845Z" fill="#FF6F4C"/>
<path d="M27.9988 17.6627C28.8645 16.607 29.8139 15.6378 30.7839 14.6899C31.7621 13.7505 32.7613 12.8326 33.845 12.0021C32.9798 13.0583 32.0304 14.0275 31.0598 14.9748C30.081 15.9137 29.0816 16.8316 27.9988 17.6627Z" fill="#FF6F4C"/>
<path d="M28.1637 37.0804L33.3146 37.2875L33.6067 31.8086L28.0385 31.8005L28.1637 37.0804ZM33.5024 37.6924C33.4998 37.6924 33.4969 37.6922 33.4943 37.6922L27.9615 37.4693C27.857 37.4652 27.7737 37.3805 27.771 37.2759L27.637 31.6065C27.6356 31.5529 27.656 31.501 27.6935 31.4626C27.7308 31.4247 27.7821 31.4029 27.8354 31.4029C27.8354 31.4029 27.8354 31.4029 27.8357 31.4029L33.8162 31.4119C33.8706 31.4122 33.9225 31.4346 33.9601 31.4736C33.9974 31.5133 34.0169 31.5666 34.014 31.6207L33.7002 37.5046C33.6947 37.6103 33.6073 37.6924 33.5024 37.6924Z" fill="#FF6F4C"/>
<path d="M27.9712 37.2714C28.8369 36.216 29.7863 35.2468 30.7564 34.2986C31.7346 33.3591 32.7337 32.4412 33.8174 31.6107C32.9522 32.6667 32.0026 33.6359 31.0322 34.5835C30.0534 35.5224 29.054 36.44 27.9712 37.2714Z" fill="#FF6F4C"/>
<path d="M39.7184 27.2933L44.8692 27.5005L45.1614 22.0216L39.5934 22.0134L39.7184 27.2933ZM45.0571 27.9051C45.0545 27.9051 45.0516 27.9048 45.049 27.9048L39.5162 27.6825C39.412 27.6782 39.3283 27.5934 39.326 27.4891L39.1917 21.8194C39.1903 21.7658 39.211 21.7142 39.2482 21.6758C39.2855 21.6376 39.3368 21.6161 39.3901 21.6161C39.3901 21.6161 39.3901 21.6161 39.3904 21.6161L45.3712 21.6248C45.4256 21.6251 45.4775 21.6475 45.5148 21.6869C45.5523 21.7265 45.5719 21.7795 45.569 21.834L45.2552 27.7172C45.2497 27.8229 45.162 27.9051 45.0571 27.9051Z" fill="#FF6F4C"/>
<path d="M39.5234 27.4839C40.3892 26.4283 41.3385 25.4591 42.3086 24.5109C43.2868 23.5714 44.286 22.6538 45.3699 21.8233C44.5044 22.8796 43.5551 23.8487 42.5845 24.7961C41.6057 25.7347 40.6065 26.6526 39.5234 27.4839Z" fill="#FF6F4C"/>
<path d="M5.07462 36.9389L10.2255 37.1463L10.5176 31.6674L4.94936 31.659L5.07462 36.9389ZM10.4134 37.5512C10.4104 37.5512 10.4078 37.5509 10.4052 37.5509L4.87246 37.3281C4.76788 37.3237 4.68457 37.2389 4.68195 37.1346L4.54765 31.4649C4.54649 31.4116 4.56688 31.3598 4.60446 31.3213C4.64174 31.2832 4.69272 31.2616 4.74632 31.2616C4.74632 31.2616 4.74632 31.2616 4.74661 31.2616L10.7271 31.2704C10.7816 31.2706 10.8337 31.2928 10.871 31.3324C10.9083 31.372 10.9281 31.425 10.9249 31.4795L10.6111 37.363C10.6056 37.4691 10.5182 37.5512 10.4134 37.5512Z" fill="#FF6F4C"/>
<path d="M4.88135 37.1296C5.74739 36.0739 6.69675 35.1047 7.6668 34.1568C8.645 33.2173 9.64417 32.2994 10.7278 31.4689C9.86265 32.5252 8.913 33.4944 7.94266 34.4417C6.96388 35.3809 5.96442 36.2985 4.88135 37.1296Z" fill="#FF6F4C"/>
</svg>
