<svg width="83" height="70" viewBox="0 0 83 70" fill="none" xmlns="http://www.w3.org/2000/svg">
<path d="M68.3625 69.489C66.9239 68.8074 65.4171 68.229 63.8495 67.7603C62.5324 67.3633 61.1736 67.0486 59.7844 66.8198C60.0881 66.4087 60.3879 65.9867 60.6802 65.5586C70.3741 51.3911 70.0211 33.5088 61.0293 21.1653C74.9136 32.3668 78.0374 52.9696 68.3625 69.489Z" fill="#FDC436"/>
<path d="M60.676 66.4594C61.8071 66.6742 62.9192 66.9467 63.9972 67.2712C65.4205 67.6974 66.8173 68.2208 68.1533 68.8288C76.6631 53.911 74.602 35.4817 63.5872 24.1839C70.7419 36.7327 69.8955 52.9959 61.1011 65.8468C60.9607 66.0525 60.8203 66.2571 60.676 66.4594ZM68.3621 70C68.2862 70 68.214 69.9841 68.1419 69.9507C66.7262 69.2793 65.2307 68.7073 63.7011 68.25C62.4106 67.8606 61.0631 67.549 59.7005 67.3236C59.5259 67.2947 59.3779 67.1763 59.3096 67.0108C59.2413 66.8457 59.2678 66.6579 59.3741 66.5148C59.6702 66.1128 59.97 65.695 60.2547 65.2722C69.607 51.6087 69.7512 34.0053 60.6152 21.466C60.4634 21.2588 60.49 20.9719 60.676 20.7951C60.862 20.6182 61.1504 20.6068 61.3478 20.7677C68.1647 26.2652 72.6701 34.252 74.0365 43.2564C75.3991 52.2486 73.5393 61.6568 68.8024 69.7472C68.7075 69.9082 68.5367 70 68.3621 70Z" fill="#001042"/>
<path d="M65.4368 0.510414C65.4368 0.510414 68.6327 4.26891 67.0423 11.798C65.452 19.3268 61.0073 21.47 61.0073 21.47L65.4368 0.510414Z" fill="#64CBB9"/>
<path d="M65.6722 1.85747L61.7665 20.3357C63.1139 19.2457 65.4861 16.6952 66.5413 11.6926C67.6003 6.69117 66.4654 3.39988 65.6722 1.85747ZM61.0074 21.9817C60.8935 21.9817 60.7834 21.9445 60.6923 21.8728C60.5367 21.7521 60.4646 21.5555 60.5063 21.365L64.9358 0.405008C64.9776 0.214106 65.1218 0.0634403 65.3116 0.0156193C65.4976 -0.0325813 65.6987 0.0311832 65.824 0.17996C65.9606 0.340879 69.1679 4.21779 67.5433 11.904C65.9188 19.5899 61.4172 21.839 61.2275 21.9308C61.1554 21.965 61.0795 21.9817 61.0074 21.9817Z" fill="#001042"/>
<path d="M47.0645 5.20141C47.0645 5.20141 51.995 4.95092 57.0013 10.7946C62.0077 16.6386 61.0057 21.47 61.0057 21.47L47.0645 5.20141Z" fill="#64CBB9"/>
<path d="M48.2778 5.83267L60.5641 20.1751C60.5186 18.4433 59.9378 15.0105 56.6129 11.1275C53.2841 7.24566 49.982 6.14351 48.2778 5.83267ZM61.0044 21.9817C60.8564 21.9817 60.7121 21.9179 60.6134 21.8029L46.676 5.53437C46.5508 5.38635 46.5166 5.17911 46.5963 5.00035C46.6723 4.82122 46.843 4.70168 47.0366 4.69143C47.2492 4.67853 52.2745 4.49673 57.3872 10.4629C62.4998 16.4284 61.5472 21.3672 61.5016 21.5745C61.4637 21.7654 61.3194 21.9172 61.1296 21.9658C61.0879 21.976 61.0462 21.9817 61.0044 21.9817Z" fill="#001042"/>
<path d="M39.583 20.8859C39.583 20.8859 42.7068 17.0644 50.3967 17.2743C58.0903 17.4838 61.0016 21.47 61.0016 21.47L39.583 20.8859Z" fill="#64CBB9"/>
<path d="M40.8654 20.4104L59.7447 20.9255C58.4314 19.7967 55.4936 17.9245 50.3847 17.7848C45.2759 17.6463 42.2394 19.3546 40.8654 20.4104ZM61.001 21.9817C60.9935 21.9817 60.9896 21.9817 60.9858 21.9813L39.5673 21.3972C39.3737 21.3915 39.1992 21.2765 39.1195 21.0993C39.036 20.922 39.0625 20.7141 39.1877 20.5634C39.3206 20.3994 42.5545 16.5392 50.4113 16.7639C58.2644 16.978 61.2857 20.9983 61.4109 21.1695C61.5286 21.3266 61.5438 21.5357 61.4527 21.7084C61.3616 21.8769 61.187 21.9817 61.001 21.9817Z" fill="#001042"/>
<path d="M48.7996 39.0847C48.7996 39.0847 47.3079 34.3812 51.688 28.0556C56.0719 21.7303 61.0024 21.4749 61.0024 21.4749L48.7996 39.0847Z" fill="#64CBB9"/>
<path d="M59.8617 22.2276C58.1954 22.7107 55.0223 24.1446 52.111 28.3479C49.1846 32.5736 48.9607 36.0391 49.1012 37.7591L59.8617 22.2276ZM48.8013 39.5964C48.7785 39.5964 48.752 39.5942 48.7254 39.5907C48.5318 39.5619 48.3724 39.4256 48.3155 39.2401C48.2509 39.0385 46.7972 34.223 51.2722 27.7657C55.7472 21.308 60.765 20.9767 60.9775 20.9657C61.1711 20.9622 61.3533 21.0571 61.4482 21.2272C61.5431 21.3972 61.5317 21.6067 61.4217 21.7669L49.2226 39.3763C49.1239 39.5152 48.9683 39.5964 48.8013 39.5964Z" fill="#001042"/>
<path d="M60.9954 21.3498C60.9954 21.3498 64.5215 17.8976 72.1431 18.9588C79.7646 20.0199 82.2166 24.3044 82.2166 24.3044L60.9954 21.3498Z" fill="#64CBB9"/>
<path d="M62.3232 21.02L81.0279 23.6243C79.8475 22.357 77.1374 20.1713 72.0741 19.4658C67.0108 18.7602 63.8035 20.1235 62.3232 21.02ZM82.2159 24.8164C82.1894 24.8164 82.1666 24.8145 82.1438 24.8111L60.9227 21.8572C60.7329 21.8306 60.5697 21.6959 60.5089 21.5111C60.4482 21.3262 60.4976 21.1221 60.638 20.9862C60.7898 20.8378 64.4298 17.3689 72.2146 18.454C79.9955 19.5375 82.5537 23.868 82.66 24.0517C82.7549 24.2205 82.7473 24.4304 82.6372 24.5917C82.5424 24.7333 82.383 24.8164 82.2159 24.8164Z" fill="#001042"/>
<path d="M69.7898 32.3679H66.294C66.0132 32.3679 65.7854 32.1395 65.7854 31.8575C65.7854 31.5755 66.0132 31.3462 66.294 31.3462H69.7898C70.0744 31.3462 70.3022 31.5755 70.3022 31.8575C70.3022 32.1395 70.0744 32.3679 69.7898 32.3679Z" fill="#001042"/>
<path d="M67.8314 44.7195C67.634 44.7195 67.448 44.6083 67.3645 44.4196C67.2469 44.1627 67.3607 43.8598 67.6188 43.7433L73.0427 41.287C73.3008 41.1705 73.6045 41.284 73.7184 41.5409C73.836 41.7982 73.7221 42.1011 73.464 42.2176L68.0402 44.6739C67.9718 44.7051 67.8997 44.7195 67.8314 44.7195Z" fill="#001042"/>
<path d="M73.2366 57.1106C73.1683 57.1106 73.0962 57.0954 73.024 57.0639L66.1502 53.9047C65.8959 53.7863 65.7821 53.483 65.8997 53.2265C66.0174 52.9707 66.3211 52.858 66.5792 52.9756L73.453 56.1352C73.7073 56.2532 73.8211 56.5565 73.7035 56.813C73.6162 57.0002 73.4302 57.1106 73.2366 57.1106Z" fill="#001042"/>
<path d="M70.4055 66.0371C70.3638 66.0371 70.3182 66.0318 70.2764 66.02L61.9717 63.8214C61.6985 63.7493 61.5352 63.4696 61.6112 63.1971C61.6833 62.9246 61.9642 62.7614 62.2336 62.8339L70.5384 65.0325C70.8116 65.1046 70.9749 65.384 70.8989 65.6568C70.842 65.8861 70.6332 66.0371 70.4055 66.0371Z" fill="#001042"/>
<path d="M13.6184 69.489C15.0303 68.8191 16.5106 68.251 18.0516 67.791C19.3459 67.4008 20.6782 67.0923 22.0446 66.8668C21.7447 66.463 21.4524 66.049 21.164 65.6281C11.6408 51.7114 11.99 34.1456 20.8224 22.0204C7.18101 33.0237 4.11421 53.2618 13.6184 69.489Z" fill="#FDC436"/>
<path d="M18.2622 25.0423C7.48651 36.1398 5.48622 54.2021 13.8251 68.8288C15.1346 68.2325 16.5048 67.7198 17.9016 67.3015C18.9568 66.9839 20.0461 66.7171 21.1506 66.5068C21.014 66.3113 20.8735 66.1136 20.7407 65.9155C12.1133 53.3109 11.2707 37.3634 18.2622 25.0423ZM13.6164 70C13.4418 70 13.271 69.9082 13.1761 69.7472C8.51891 61.798 6.69319 52.5549 8.03304 43.7194C9.37668 34.8718 13.8023 27.0246 20.4977 21.6228C20.6989 21.4611 20.9874 21.4732 21.1734 21.6501C21.3556 21.827 21.3821 22.1139 21.2341 22.3211C12.2613 34.6354 12.4056 51.9233 21.5833 65.3397C21.868 65.7568 22.1602 66.1671 22.4525 66.5622C22.5588 66.7053 22.5854 66.8932 22.517 67.0586C22.4487 67.2234 22.3007 67.3418 22.1261 67.371C20.79 67.5915 19.4654 67.8974 18.1976 68.2803C16.6946 68.7301 15.2257 69.2914 13.8365 69.9507C13.7644 69.9841 13.6923 70 13.6164 70Z" fill="#001042"/>
<path d="M24.9104 1.55675C24.9104 1.55675 20.5606 3.70146 19.0652 11.111C17.5697 18.5206 20.7428 22.1838 20.7428 22.1838L24.9104 1.55675Z" fill="#64CBB9"/>
<path d="M24.1551 2.70239C22.8418 3.79316 20.5569 6.31741 19.5662 11.213C18.5718 16.1374 19.7029 19.3399 20.4924 20.8458L24.1551 2.70239ZM20.7428 22.696C20.5986 22.696 20.4582 22.633 20.3595 22.5196C20.2229 22.3624 17.0384 18.5793 18.5642 11.0111C20.0939 3.44285 24.4967 1.19148 24.6827 1.09963C24.8573 1.0131 25.066 1.03396 25.2217 1.15238C25.3735 1.27155 25.4494 1.4674 25.4114 1.65868L21.2439 22.2862C21.206 22.4771 21.0617 22.6292 20.8757 22.679C20.8301 22.6903 20.7884 22.696 20.7428 22.696Z" fill="#001042"/>
<path d="M39.6518 12.9373C39.6518 12.9373 35.3058 10.793 28.5155 14.1146C21.7214 17.4359 20.7458 22.1838 20.7458 22.1838L39.6518 12.9373Z" fill="#64CBB9"/>
<path d="M35.8475 12.7774C34.037 12.7774 31.6117 13.1687 28.7384 14.5745C24.252 16.7689 22.3884 19.6188 21.6634 21.1677L38.2843 13.0381C37.6846 12.9011 36.8609 12.7774 35.8475 12.7774ZM20.7448 22.696C20.6348 22.696 20.5247 22.6596 20.4336 22.589C20.278 22.4695 20.2059 22.2733 20.2438 22.0823C20.2894 21.8785 21.3522 17.0486 28.2867 13.6564C35.2251 10.2638 39.6887 12.388 39.8785 12.4798C40.0531 12.5664 40.1631 12.744 40.1631 12.9391C40.1631 13.1338 40.0492 13.3114 39.8746 13.3972L20.9726 22.644C20.9005 22.679 20.8245 22.696 20.7448 22.696Z" fill="#001042"/>
<path d="M40.2894 29.9937C40.2894 29.9937 38.9609 25.3319 31.9428 22.5268C24.921 19.7213 20.7458 22.1841 20.7458 22.1841L40.2894 29.9937Z" fill="#64CBB9"/>
<path d="M22.1071 22.1799L39.2973 29.0486C38.4623 27.5582 36.3899 24.8555 31.7517 23.0023C27.0869 21.1377 23.7316 21.672 22.1071 22.1799ZM40.288 30.5056C40.2234 30.5056 40.1589 30.4938 40.0982 30.4692L20.5547 22.6596C20.3763 22.5875 20.2511 22.4186 20.2359 22.2243C20.2207 22.0299 20.3194 21.8443 20.4864 21.7453C20.6648 21.6394 24.9614 19.1873 32.1312 22.0535C39.3011 24.9189 40.7245 29.6547 40.7814 29.8547C40.8345 30.0422 40.7738 30.2437 40.6296 30.3743C40.5347 30.4604 40.4132 30.5056 40.288 30.5056Z" fill="#001042"/>
<path d="M24.8945 42.8132C24.8945 42.8132 28.0714 39.1523 26.5835 31.742C25.0918 24.3309 20.7458 22.1823 20.7458 22.1823L24.8945 42.8132Z" fill="#64CBB9"/>
<path d="M21.4963 23.3204L25.1439 41.4669C25.9334 39.9518 27.0645 36.7395 26.0815 31.8432C25.0908 26.918 22.8096 24.4028 21.4963 23.3204ZM24.8934 43.3247C24.8517 43.3247 24.8061 43.3194 24.7643 43.308C24.5746 43.2587 24.4304 43.1057 24.3924 42.9148L20.2438 22.2839C20.2058 22.093 20.2818 21.8968 20.4336 21.778C20.5892 21.6592 20.7979 21.6383 20.9725 21.7249C21.1585 21.8171 25.5614 24.0719 27.0834 31.6416C28.6055 39.2114 25.4172 42.9915 25.2805 43.1494C25.1818 43.2625 25.0414 43.3247 24.8934 43.3247Z" fill="#001042"/>
<path d="M20.7992 22.0791C20.7992 22.0791 18.9659 17.593 11.6784 15.5831C4.39082 13.5731 0.511719 16.4837 0.511719 16.4837L20.7992 22.0791Z" fill="#64CBB9"/>
<path d="M1.87326 16.329L19.7088 21.2488C18.7143 19.8598 16.3534 17.4038 11.5406 16.0758C6.72403 14.7475 3.44084 15.6477 1.87326 16.329ZM20.7981 22.5901C20.7525 22.5901 20.707 22.584 20.6652 22.5719L0.37778 16.9765C0.188 16.9245 0.0475927 16.7704 0.00963676 16.5787C-0.0283192 16.3874 0.047563 16.1916 0.206978 16.0751C0.370188 15.9498 4.36695 13.0373 11.8101 15.0906C19.2571 17.1434 21.1928 21.6933 21.2725 21.8853C21.3446 22.066 21.3105 22.2724 21.1814 22.4182C21.0827 22.5294 20.9423 22.5901 20.7981 22.5901Z" fill="#001042"/>
<path d="M15.6508 33.0342H12.2158C11.9349 33.0342 11.7034 32.8057 11.7034 32.5237C11.7034 32.2413 11.9349 32.0125 12.2158 32.0125H15.6508C15.9317 32.0125 16.1594 32.2413 16.1594 32.5237C16.1594 32.8057 15.9317 33.0342 15.6508 33.0342Z" fill="#001042"/>
<path d="M14.143 45.166C14.0709 45.166 13.9988 45.1516 13.9305 45.1209L8.60146 42.7074C8.34716 42.5905 8.23328 42.288 8.34715 42.0307C8.46481 41.7738 8.76848 41.6599 9.02658 41.7761L14.3517 44.1899C14.6098 44.3064 14.7238 44.6089 14.6061 44.8662C14.5226 45.0548 14.3366 45.166 14.143 45.166Z" fill="#001042"/>
<path d="M8.82997 57.3376C8.63639 57.3376 8.4504 57.2276 8.3669 57.0405C8.24923 56.7839 8.35929 56.481 8.61739 56.3626L15.3698 53.2592C15.6241 53.1419 15.9277 53.2535 16.0454 53.5097C16.1631 53.7663 16.0529 54.0699 15.7948 54.1879L9.04251 57.2913C8.97419 57.3228 8.90208 57.3376 8.82997 57.3376Z" fill="#001042"/>
<path d="M11.605 66.1074C11.3772 66.1074 11.1723 65.9564 11.1115 65.7275C11.0394 65.4546 11.2026 65.1749 11.4759 65.1024L19.6326 62.9429C19.9021 62.8712 20.183 63.0336 20.2551 63.3061C20.3273 63.579 20.1641 63.8587 19.8908 63.9304L11.734 66.0907C11.6923 66.1021 11.6467 66.1074 11.605 66.1074Z" fill="#001042"/>
<path d="M40.9641 50.4712C38.4248 50.4712 35.9614 50.3528 33.6461 50.1182C32.4847 50.001 31.384 49.8598 30.3744 49.6985C24.8024 48.8252 20.0769 47.2004 16.7102 44.9999C15.5867 44.2663 14.5961 43.456 13.7686 42.5925C13.5713 42.3887 13.5789 42.0654 13.7838 41.8699C13.985 41.6748 14.3114 41.6809 14.505 41.8851C15.2793 42.6927 16.2092 43.4525 17.272 44.144C20.5172 46.2664 25.1023 47.8384 30.5337 48.6893C31.5244 48.8476 32.6062 48.9861 33.7487 49.1015C36.0298 49.3322 38.459 49.4495 40.9641 49.4495C43.1352 49.4495 45.272 49.3505 47.3103 49.1558C48.5742 49.0358 49.7888 48.8813 50.9313 48.6969C50.9427 48.695 50.9541 48.6935 50.9655 48.6923C56.6019 47.7883 61.3692 46.0736 64.7435 43.733C65.7948 43.0058 66.7058 42.2229 67.4497 41.4042C67.6433 41.1959 67.9659 41.1811 68.1747 41.3708C68.3834 41.5613 68.3948 41.8843 68.205 42.0927C67.4079 42.9679 66.4401 43.8025 65.328 44.5729C61.8209 47.0038 56.9018 48.7785 51.0983 49.7057C51.0869 49.7072 51.0793 49.7087 51.0679 49.7099C49.9141 49.8962 48.6805 50.0518 47.409 50.1729C45.3366 50.371 43.1655 50.4712 40.9641 50.4712Z" fill="#001042"/>
<path d="M65.036 44.1558C64.5805 47.2995 63.4836 50.2462 61.8781 52.8653C58.9972 57.5794 54.4729 61.2343 49.0718 63.0872C46.5439 63.9559 43.8187 64.4292 40.9834 64.4292C38.7516 64.4292 36.5881 64.1362 34.5346 63.5844C29.7902 62.3205 25.6302 59.6946 22.5216 56.1657C19.6787 52.9401 17.7126 48.9584 16.9915 44.5744C20.3012 46.7378 24.8901 48.3246 30.4544 49.1967C31.4982 49.3637 32.5837 49.5 33.6958 49.6123C35.9846 49.8439 38.4138 49.9634 40.9644 49.9634C43.1924 49.9634 45.3293 49.8609 47.36 49.6666C48.6163 49.5478 49.8347 49.3945 51.0113 49.2036H51.0189C56.8793 48.2669 61.6617 46.4956 65.036 44.1558Z" fill="#64CBB9"/>
<path d="M17.7198 45.6156C18.5358 49.3741 20.3197 52.8848 22.9121 55.828C26.0245 59.3584 30.0896 61.8698 34.6746 63.0907C36.7167 63.6399 38.8422 63.9181 40.9905 63.9181C43.7082 63.9181 46.3726 63.4756 48.9119 62.6034C54.1498 60.8067 58.6021 57.2536 61.4488 52.5986C62.8569 50.3021 63.8248 47.826 64.341 45.2228C60.9249 47.3224 56.3816 48.8656 51.1058 49.7081C51.0944 49.7096 51.0868 49.7112 51.0754 49.7123C49.9215 49.8986 48.688 50.0543 47.4165 50.1753C45.3441 50.3734 43.173 50.4736 40.9715 50.4736C38.4323 50.4736 35.9689 50.3552 33.6536 50.1207C32.4922 50.0034 31.3915 49.8622 30.3818 49.7009C25.3413 48.9111 20.9916 47.5057 17.7198 45.6156ZM40.9905 64.9402C38.7549 64.9402 36.5383 64.6498 34.4089 64.0775C29.6303 62.8053 25.3906 60.1858 22.1454 56.5032C19.1697 53.1247 17.2149 49.0284 16.4937 44.6577C16.4634 44.4577 16.5507 44.2573 16.7215 44.1465C16.8885 44.0357 17.1087 44.036 17.2795 44.1465C20.5247 46.2688 25.1097 47.8408 30.5412 48.6917C31.5319 48.85 32.6137 48.9885 33.7561 49.1039C36.0373 49.3347 38.4664 49.4519 40.9715 49.4519C43.1426 49.4519 45.2795 49.3529 47.3177 49.1582C48.5817 49.0383 49.7963 48.8838 50.9387 48.6993C50.9501 48.6974 50.9615 48.6959 50.9729 48.6948C56.6094 47.7907 61.3766 46.076 64.7509 43.7354C64.9179 43.6197 65.1381 43.6136 65.3127 43.7207C65.4835 43.8281 65.5784 44.0277 65.548 44.2288C65.0887 47.3884 64.0032 50.3841 62.3217 53.1319C59.3536 57.9891 54.7078 61.6967 49.2421 63.5701C46.5966 64.4791 43.822 64.9402 40.9905 64.9402Z" fill="#001042"/>
<path d="M22.5247 56.6743C22.3805 56.6743 22.2401 56.6155 22.1414 56.5009C21.9516 56.2887 21.9744 55.9657 22.1869 55.7798L30.1197 48.8104C30.3323 48.6245 30.6549 48.6457 30.8409 48.8571C31.0269 49.0693 31.0079 49.3923 30.7954 49.5782L22.8626 56.5472C22.7639 56.6326 22.6424 56.6743 22.5247 56.6743Z" fill="#001042"/>
<path d="M49.0745 63.5955C48.953 63.5955 48.8316 63.5541 48.7367 63.4691L33.3645 49.9946C33.152 49.8083 33.1292 49.486 33.3152 49.2735C33.5012 49.0613 33.8238 49.0397 34.0364 49.2261L49.4085 62.7005C49.6211 62.8865 49.6438 63.2099 49.4578 63.4216C49.3554 63.537 49.2149 63.5955 49.0745 63.5955Z" fill="#001042"/>
<path d="M34.5373 64.0923C34.412 64.0923 34.2906 64.0479 34.1919 63.9576C33.9832 63.7663 33.9717 63.4425 34.1615 63.2349L46.9868 49.3175C47.1766 49.1103 47.503 49.097 47.708 49.2883C47.9168 49.4796 47.9282 49.803 47.7384 50.0106L34.9131 63.9276C34.8144 64.0369 34.6739 64.0923 34.5373 64.0923Z" fill="#001042"/>
<path d="M61.8788 53.3745C61.8256 53.3745 61.7687 53.3658 61.7155 53.3479L50.8716 49.6912C50.659 49.6274 50.5034 49.4323 50.5034 49.2023C50.5034 48.92 50.7311 48.6911 51.012 48.6911C51.0689 48.6911 51.1296 48.6998 51.1828 48.7181L62.042 52.3798C62.3077 52.4697 62.4519 52.7597 62.3646 53.0269C62.2925 53.2402 62.0913 53.3745 61.8788 53.3745Z" fill="#001042"/>
</svg>
