<svg width="56" height="59" viewBox="0 0 56 59" fill="none" xmlns="http://www.w3.org/2000/svg">
<path d="M6.57014 4.34009H16.8901V17.2801H6.57014C5.59322 17.2774 4.65722 16.8875 3.96737 16.1958C3.27753 15.5041 2.89013 14.567 2.89014 13.5901V8.03009C2.89013 7.05317 3.27753 6.11612 3.96737 5.42439C4.65722 4.73267 5.59322 4.34274 6.57014 4.34009Z" fill="#FE5722"/>
<path d="M34.54 4.34009V17.2801H21.24V4.34009H34.54Z" fill="#FE5722"/>
<path d="M52.8901 8.03009V13.5901C52.8901 14.567 52.5027 15.5041 51.8129 16.1958C51.1231 16.8875 50.1871 17.2774 49.2101 17.2801H38.8901V4.34009H49.2101C50.1871 4.34274 51.1231 4.73267 51.8129 5.42439C52.5027 6.11612 52.8901 7.05317 52.8901 8.03009Z" fill="#FE5722"/>
<path d="M38.89 17.28V34.84H34.54V17.28H21.24V34.84H16.89V17.28H8.73999V53.06C8.73999 54.2005 9.19302 55.2942 9.99943 56.1006C10.8058 56.907 11.8996 57.36 13.04 57.36H42.74C43.8804 57.36 44.9741 56.907 45.7805 56.1006C46.587 55.2942 47.04 54.2005 47.04 53.06V17.28H38.89ZM23.81 49.18C23.7866 49.9838 23.4507 50.7469 22.8737 51.307C22.2968 51.8672 21.5242 52.1804 20.72 52.18H17.38C16.5758 52.1804 15.8032 51.8672 15.2262 51.307C14.6493 50.7469 14.3134 49.9838 14.29 49.18V41.18H23.81V49.18ZM41.49 49.18C41.4666 49.9838 41.1307 50.7469 40.5537 51.307C39.9768 51.8672 39.2041 52.1804 38.4 52.18H35.06C34.2558 52.1804 33.4832 51.8672 32.9062 51.307C32.3293 50.7469 31.9934 49.9838 31.97 49.18V41.18H41.49V49.18Z" fill="#58B0BE"/>
<path d="M54.78 38.74V45.65C54.78 46.9275 54.2739 48.153 53.3724 49.0583C52.471 49.9635 51.2476 50.4747 49.97 50.48H47.04V38.74H54.78Z" fill="#FE5722"/>
<path d="M8.74 38.74V50.48H5.81C4.53247 50.4747 3.30908 49.9635 2.4076 49.0583C1.50612 48.153 0.999989 46.9275 1 45.65V38.74H8.74Z" fill="#FE5722"/>
<path d="M23.81 41.1799V49.1799C23.7866 49.9838 23.4508 50.7468 22.8738 51.3069C22.2968 51.8671 21.5242 52.1803 20.72 52.1799H17.38C16.5759 52.1803 15.8033 51.8671 15.2263 51.3069C14.6493 50.7468 14.3135 49.9838 14.29 49.1799V41.1799H23.81Z" fill="#60CADA"/>
<path d="M41.49 41.1799V49.1799C41.4665 49.9838 41.1307 50.7468 40.5537 51.3069C39.9767 51.8671 39.2041 52.1803 38.4 52.1799H35.06C34.2558 52.1803 33.4832 51.8671 32.9062 51.3069C32.3293 50.7468 31.9934 49.9838 31.97 49.1799V41.1799H41.49Z" fill="#60CADA"/>
<path d="M21.2399 1V34.84H16.8599V1H21.2399Z" fill="#60CADA"/>
<path d="M38.92 1V34.84H34.54V1H38.92Z" fill="#60CADA"/>
<path d="M10.5101 4.34009H6.57014C5.59322 4.34274 4.65722 4.73267 3.96737 5.42439C3.27753 6.11612 2.89013 7.05317 2.89014 8.03009V13.5901C2.89013 14.567 3.27753 15.5041 3.96737 16.1958C4.65722 16.8875 5.59322 17.2774 6.57014 17.2801H10.5701C9.59322 17.2774 8.65722 16.8875 7.96737 16.1958C7.27753 15.5041 6.89013 14.567 6.89014 13.5901V8.03009C6.88996 7.06345 7.26911 6.13534 7.94605 5.4453C8.62299 4.75527 9.54367 4.35843 10.5101 4.34009Z" fill="#BE4119"/>
<path d="M12.74 17.28H8.73999V50.36C9.09185 50.4351 9.45025 50.4752 9.80999 50.48H12.74V17.28Z" fill="#59F4D9"/>
<path d="M20.8599 1H16.8599V4.34H20.8599V1Z" fill="#64CBB9"/>
<path d="M34.92 1H34.54V4.34H38.54H34.92V1Z" fill="#64CBB9"/>
<path d="M5 38.74H1V45.65C0.999989 46.9275 1.50612 48.153 2.4076 49.0583C3.30908 49.9635 4.53247 50.4747 5.81 50.48H8.74V50.36C7.67673 50.1118 6.72859 49.5115 6.04963 48.6564C5.37066 47.8013 5.00075 46.7418 5 45.65V38.74Z" fill="#BE4119"/>
<path d="M12.74 50.48H8.73999V53.06C8.73999 54.2004 9.19302 55.2941 9.99943 56.1005C10.8058 56.9069 11.8996 57.36 13.04 57.36H17.04C15.8996 57.36 14.8058 56.9069 13.9994 56.1005C13.193 55.2941 12.74 54.2004 12.74 53.06V50.48Z" fill="#59F4D9"/>
<path d="M8.73999 50.3601V50.4801H9.80999C9.45025 50.4753 9.09185 50.4351 8.73999 50.3601Z" fill="#4E6D29"/>
<path d="M47.04 50.48H43.04V53.06C43.04 54.2004 42.587 55.2941 41.7806 56.1005C40.9741 56.9069 39.8804 57.36 38.74 57.36H42.74C43.8804 57.36 44.9741 56.9069 45.7806 56.1005C46.587 55.2941 47.04 54.2004 47.04 53.06V50.48Z" fill="#FFFF94"/>
<path d="M54.78 38.74H50.78V45.65C50.7793 46.7418 50.4094 47.8013 49.7304 48.6564C49.0514 49.5115 48.1033 50.1118 47.04 50.36V50.48H49.97C51.2476 50.4747 52.471 49.9635 53.3724 49.0583C54.2739 48.153 54.78 46.9275 54.78 45.65V38.74Z" fill="#FFAE44"/>
<path d="M38.92 1H38.54V4.34H38.92V1Z" fill="#C5FFF5"/>
<path d="M38.5399 1H34.9199V4.34H38.5399V1Z" fill="#72FF78"/>
<path d="M49.21 4.34009H45.27C46.2364 4.35843 47.1571 4.75527 47.834 5.4453C48.511 6.13534 48.8901 7.06345 48.89 8.03009V13.5901C48.89 14.567 48.5026 15.5041 47.8127 16.1958C47.1229 16.8875 46.1869 17.2774 45.21 17.2801H49.21C50.1869 17.2774 51.1229 16.8875 51.8127 16.1958C52.5026 15.5041 52.89 14.567 52.89 13.5901V8.03009C52.89 7.05317 52.5026 6.11612 51.8127 5.42439C51.1229 4.73267 50.1869 4.34274 49.21 4.34009Z" fill="#FFAE44"/>
<path d="M47.04 17.28H43.04V50.48H45.97C46.3298 50.4752 46.6882 50.4351 47.04 50.36V17.28Z" fill="#FFFF94"/>
<path d="M47.04 50.3601C46.6881 50.4351 46.3297 50.4753 45.97 50.4801H47.04V50.3601Z" fill="white"/>
<path d="M16.8901 18.2801H6.57014C5.32801 18.2774 4.13765 17.7821 3.26027 16.9029C2.38288 16.0236 1.89013 14.8322 1.89014 13.5901V8.03009C1.89013 6.78795 2.38288 5.59655 3.26027 4.71729C4.13765 3.83803 5.32801 3.34274 6.57014 3.34009H16.8901C17.1554 3.34009 17.4097 3.44544 17.5972 3.63298C17.7848 3.82052 17.8901 4.07487 17.8901 4.34009V17.2801C17.8901 17.5453 17.7848 17.7997 17.5972 17.9872C17.4097 18.1747 17.1554 18.2801 16.8901 18.2801ZM6.57014 5.34009C5.85925 5.34535 5.17913 5.63076 4.67738 6.13438C4.17563 6.638 3.89275 7.31919 3.89014 8.03009V13.5901C3.89275 14.301 4.17563 14.9822 4.67738 15.4858C5.17913 15.9894 5.85925 16.2748 6.57014 16.2801H15.8901V5.34009H6.57014Z" fill="black"/>
<path d="M34.54 18.2801H21.24C20.9748 18.2801 20.7204 18.1747 20.5329 17.9872C20.3453 17.7997 20.24 17.5453 20.24 17.2801V4.34009C20.24 4.07487 20.3453 3.82052 20.5329 3.63298C20.7204 3.44544 20.9748 3.34009 21.24 3.34009H34.54C34.8052 3.34009 35.0596 3.44544 35.2471 3.63298C35.4346 3.82052 35.54 4.07487 35.54 4.34009V17.2801C35.54 17.4114 35.5141 17.5414 35.4639 17.6628C35.4136 17.7841 35.34 17.8943 35.2471 17.9872C35.1542 18.0801 35.044 18.1537 34.9227 18.204C34.8013 18.2542 34.6713 18.2801 34.54 18.2801ZM22.24 16.2801H33.54V5.34009H22.24V16.2801Z" fill="black"/>
<path d="M49.2101 18.2801H38.8901C38.6249 18.2801 38.3706 18.1747 38.183 17.9872C37.9955 17.7997 37.8901 17.5453 37.8901 17.2801V4.34009C37.8901 4.07487 37.9955 3.82052 38.183 3.63298C38.3706 3.44544 38.6249 3.34009 38.8901 3.34009H49.2101C50.4523 3.34274 51.6426 3.83803 52.52 4.71729C53.3974 5.59655 53.8901 6.78795 53.8901 8.03009V13.5901C53.8901 14.8322 53.3974 16.0236 52.52 16.9029C51.6426 17.7821 50.4523 18.2774 49.2101 18.2801ZM39.8901 16.2801H49.1801C49.5347 16.2814 49.8861 16.2129 50.2141 16.0784C50.5422 15.9439 50.8406 15.7461 51.0923 15.4964C51.3439 15.2466 51.5439 14.9497 51.6808 14.6226C51.8177 14.2955 51.8888 13.9447 51.8901 13.5901V8.03009C51.8875 7.31919 51.6046 6.638 51.1029 6.13438C50.6011 5.63076 49.921 5.34535 49.2101 5.34009H39.8901V16.2801Z" fill="black"/>
<path d="M38.89 17.28V34.84H34.54V17.28H21.24V34.84H16.89V17.28H8.73999V53.06C8.73999 54.2005 9.19302 55.2942 9.99943 56.1006C10.8058 56.907 11.8996 57.36 13.04 57.36H42.74C43.8804 57.36 44.9741 56.907 45.7805 56.1006C46.587 55.2942 47.04 54.2005 47.04 53.06V17.28H38.89ZM23.81 49.18C23.7866 49.9838 23.4507 50.7469 22.8737 51.307C22.2968 51.8672 21.5242 52.1804 20.72 52.18H17.38C16.5758 52.1804 15.8032 51.8672 15.2262 51.307C14.6493 50.7469 14.3134 49.9838 14.29 49.18V41.18H23.81V49.18ZM41.49 49.18C41.4666 49.9838 41.1307 50.7469 40.5537 51.307C39.9768 51.8672 39.2041 52.1804 38.4 52.18H35.06C34.2558 52.1804 33.4832 51.8672 32.9062 51.307C32.3293 50.7469 31.9934 49.9838 31.97 49.18V41.18H41.49V49.18Z" stroke="black" stroke-width="2" stroke-linecap="round" stroke-linejoin="round"/>
<path d="M49.97 51.48H47.04C46.7748 51.48 46.5205 51.3746 46.3329 51.1871C46.1454 50.9996 46.04 50.7452 46.04 50.48V38.74C46.04 38.4748 46.1454 38.2204 46.3329 38.0329C46.5205 37.8453 46.7748 37.74 47.04 37.74H54.78C55.0453 37.74 55.2996 37.8453 55.4871 38.0329C55.6747 38.2204 55.78 38.4748 55.78 38.74V45.65C55.78 47.1927 55.1686 48.6726 54.0795 49.7654C52.9905 50.8581 51.5128 51.4747 49.97 51.48ZM48.04 49.48H49.97C50.9823 49.4747 51.9514 49.0689 52.6653 48.3512C53.3793 47.6335 53.7801 46.6623 53.78 45.65V39.74H48.04V49.48Z" fill="black"/>
<path d="M8.74 51.48H5.81C4.26726 51.4747 2.78951 50.8581 1.70049 49.7654C0.611475 48.6726 -9.07791e-06 47.1927 1.01076e-10 45.65V38.74C1.01076e-10 38.4748 0.105357 38.2204 0.292893 38.0329C0.480429 37.8453 0.734784 37.74 1 37.74H8.74C9.00522 37.74 9.25957 37.8453 9.44711 38.0329C9.63464 38.2204 9.74 38.4748 9.74 38.74V50.48C9.74 50.6113 9.71414 50.7413 9.66388 50.8627C9.61363 50.984 9.53997 51.0942 9.44711 51.1871C9.35425 51.28 9.24401 51.3536 9.12268 51.4039C9.00136 51.4541 8.87132 51.48 8.74 51.48ZM2 39.74V45.65C1.99999 46.6623 2.40076 47.6335 3.1147 48.3512C3.82865 49.0689 4.79769 49.4747 5.81 49.48H7.74V39.74H2Z" fill="black"/>
<path d="M20.72 53.1799H17.38C16.3115 53.1776 15.2861 52.7583 14.5221 52.0112C13.7582 51.264 13.3161 50.2482 13.29 49.1799V41.1799C13.29 40.9147 13.3954 40.6604 13.5829 40.4728C13.7705 40.2853 14.0248 40.1799 14.29 40.1799H23.81C24.0753 40.1799 24.3296 40.2853 24.5171 40.4728C24.7047 40.6604 24.81 40.9147 24.81 41.1799V49.1799C24.784 50.2482 24.3419 51.264 23.578 52.0112C22.814 52.7583 21.7886 53.1776 20.72 53.1799ZM15.29 42.1799V49.1799C15.3157 49.7176 15.5468 50.225 15.9358 50.5972C16.3247 50.9694 16.8417 51.178 17.38 51.1799H20.72C21.2584 51.178 21.7754 50.9694 22.1643 50.5972C22.5533 50.225 22.7844 49.7176 22.81 49.1799V42.1799H15.29Z" fill="black"/>
<path d="M38.4 53.1799H35.06C33.9914 53.1776 32.966 52.7583 32.202 52.0112C31.4381 51.264 30.996 50.2482 30.97 49.1799V41.1799C30.97 40.9147 31.0753 40.6604 31.2629 40.4728C31.4504 40.2853 31.7048 40.1799 31.97 40.1799H41.49C41.7552 40.1799 42.0095 40.2853 42.1971 40.4728C42.3846 40.6604 42.49 40.9147 42.49 41.1799V49.1799C42.4639 50.2482 42.0218 51.264 41.2579 52.0112C40.494 52.7583 39.4685 53.1776 38.4 53.1799ZM32.97 42.1799V49.1799C32.9956 49.7176 33.2268 50.225 33.6157 50.5972C34.0046 50.9694 34.5216 51.178 35.06 51.1799H38.4C38.9383 51.178 39.4553 50.9694 39.8442 50.5972C40.2332 50.225 40.4643 49.7176 40.49 49.1799V42.1799H32.97Z" fill="black"/>
<path d="M21.2401 35.84H16.8901C16.6249 35.84 16.3706 35.7346 16.183 35.5471C15.9955 35.3596 15.8901 35.1052 15.8901 34.84V1C15.8901 0.734784 15.9955 0.48043 16.183 0.292893C16.3706 0.105357 16.6249 0 16.8901 0H21.2701C21.5354 0 21.7897 0.105357 21.9772 0.292893C22.1648 0.48043 22.2701 0.734784 22.2701 1V34.84C22.2702 34.9739 22.2434 35.1064 22.1913 35.2297C22.1391 35.3531 22.0628 35.4647 21.9667 35.5579C21.8707 35.6512 21.7568 35.7242 21.632 35.7727C21.5072 35.8211 21.374 35.844 21.2401 35.84ZM17.8601 33.84H20.2401V2H17.8901L17.8601 33.84Z" fill="black"/>
<path d="M38.89 35.84H34.54C34.2748 35.84 34.0205 35.7346 33.8329 35.5471C33.6454 35.3596 33.54 35.1052 33.54 34.84V1C33.54 0.734784 33.6454 0.48043 33.8329 0.292893C34.0205 0.105357 34.2748 0 34.54 0H38.89C39.1553 0 39.4096 0.105357 39.5971 0.292893C39.7847 0.48043 39.89 0.734784 39.89 1V34.84C39.89 35.1052 39.7847 35.3596 39.5971 35.5471C39.4096 35.7346 39.1553 35.84 38.89 35.84ZM35.51 33.84H37.89V2H35.54L35.51 33.84Z" fill="black"/>
</svg>
