<svg width="78" height="70" viewBox="0 0 78 70" fill="none" xmlns="http://www.w3.org/2000/svg">
<path d="M70.9601 69.5195H53.0122V36.6712H70.9601V69.5195Z" fill="#FDC436"/>
<path d="M53.4964 69.0384H70.4801V37.1514H53.4964V69.0384ZM70.9622 70H53.0143C52.7501 70 52.5322 69.7843 52.5322 69.519V36.6707C52.5322 36.4051 52.7501 36.1901 53.0143 36.1901H70.9622C71.2264 36.1901 71.4443 36.4051 71.4443 36.6707V69.519C71.4443 69.7843 71.2264 70 70.9622 70Z" fill="#001042"/>
<path d="M24.9703 69.5195H7.02246V36.6712H24.9703V69.5195Z" fill="#FDC436"/>
<path d="M7.50456 69.0384H24.4918V37.1514H7.50456V69.0384ZM24.9703 70H7.02247C6.75822 70 6.54395 69.7843 6.54395 69.519V36.6707C6.54395 36.4051 6.75822 36.1901 7.02247 36.1901H24.9703C25.2381 36.1901 25.4524 36.4051 25.4524 36.6707V69.519C25.4524 69.7843 25.2381 70 24.9703 70Z" fill="#001042"/>
<path d="M53.0112 69.5195H24.9683V20.9973H53.0112V69.5195Z" fill="#FDC436"/>
<path d="M25.4504 69.0384H52.5292V21.4781H25.4504V69.0384ZM53.0112 70H24.9683C24.704 70 24.4897 69.7843 24.4897 69.519V20.9972C24.4897 20.7318 24.704 20.5165 24.9683 20.5165H53.0112C53.2755 20.5165 53.4933 20.7318 53.4933 20.9972V69.519C53.4933 69.7843 53.2755 70 53.0112 70Z" fill="#001042"/>
<path d="M53.0112 26.4431H24.9683V20.9926H53.0112V26.4431Z" fill="#FDC436"/>
<path d="M25.4504 25.9699H52.5292V21.4809H25.4504V25.9699ZM53.0112 26.9312H24.9683C24.704 26.9312 24.4897 26.7162 24.4897 26.4509V21C24.4897 20.7346 24.704 20.5193 24.9683 20.5193H53.0112C53.2755 20.5193 53.4933 20.7346 53.4933 21V26.4509C53.4933 26.7162 53.2755 26.9312 53.0112 26.9312Z" fill="#001042"/>
<path d="M47.4665 69.5195H30.5078V58.5699H47.4665V69.5195Z" fill="#64CBB9"/>
<path d="M30.9899 69.0384H46.9879V59.0503H30.9899V69.0384ZM47.4665 70H30.5078C30.2436 70 30.0293 69.7843 30.0293 69.519V58.5701C30.0293 58.3047 30.2436 58.0891 30.5078 58.0891H47.4665C47.7343 58.0891 47.9486 58.3047 47.9486 58.5701V69.519C47.9486 69.7843 47.7343 70 47.4665 70Z" fill="#001042"/>
<path d="M38.8468 70C38.579 70 38.3647 69.7843 38.3647 69.519V58.5701C38.3647 58.3047 38.579 58.0891 38.8468 58.0891C39.1111 58.0891 39.3254 58.3047 39.3254 58.5701V69.519C39.3254 69.7843 39.1111 70 38.8468 70Z" fill="#001042"/>
<path d="M19.7118 49.6255H12.2734V44.6113C12.2734 42.5577 13.9375 40.8926 15.9908 40.8926C18.0477 40.8926 19.7118 42.5577 19.7118 44.6113V49.6255Z" fill="#64CBB9"/>
<path d="M12.7571 49.1451H19.2314V44.6115C19.2314 42.8261 17.7779 41.3738 15.9924 41.3738C14.2069 41.3738 12.7571 42.8261 12.7571 44.6115V49.1451ZM19.7135 50.1067H12.2751C12.0108 50.1067 11.793 49.891 11.793 49.6257V44.6115C11.793 42.2962 13.6784 40.4122 15.9924 40.4122C18.31 40.4122 20.1919 42.2962 20.1919 44.6115V49.6257C20.1919 49.891 19.9777 50.1067 19.7135 50.1067Z" fill="#001042"/>
<path d="M20.9154 50.1067H11.0737C10.8095 50.1067 10.5952 49.891 10.5952 49.6257C10.5952 49.3604 10.8095 49.1451 11.0737 49.1451H20.9154C21.1832 49.1451 21.3975 49.3604 21.3975 49.6257C21.3975 49.891 21.1832 50.1067 20.9154 50.1067Z" fill="#001042"/>
<path d="M19.7118 64.041H12.2734V59.0268C12.2734 56.9732 13.9375 55.3081 15.9908 55.3081C18.0477 55.3081 19.7118 56.9732 19.7118 59.0268V64.041Z" fill="#64CBB9"/>
<path d="M12.7571 63.5644H19.2314V59.0315C19.2314 57.2461 17.7779 55.7931 15.9924 55.7931C14.2069 55.7931 12.7571 57.2461 12.7571 59.0315V63.5644ZM19.7135 64.5256H12.2751C12.0108 64.5256 11.793 64.3107 11.793 64.0454V59.0315C11.793 56.7155 13.6784 54.8318 15.9924 54.8318C18.31 54.8318 20.1919 56.7155 20.1919 59.0315V64.0454C20.1919 64.3107 19.9777 64.5256 19.7135 64.5256Z" fill="#001042"/>
<path d="M20.9154 64.5256H11.0737C10.8095 64.5256 10.5952 64.3107 10.5952 64.0454C10.5952 63.7801 10.8095 63.5644 11.0737 63.5644H20.9154C21.1832 63.5644 21.3975 63.7801 21.3975 64.0454C21.3975 64.3107 21.1832 64.5256 20.9154 64.5256Z" fill="#001042"/>
<path d="M65.7072 49.6255H58.2725V44.6113C58.2725 42.5577 59.9365 40.8926 61.9898 40.8926C64.0432 40.8926 65.7072 42.5577 65.7072 44.6113V49.6255Z" fill="#64CBB9"/>
<path d="M58.7438 49.1451H65.2215V44.6115C65.2215 42.8261 63.7682 41.3738 61.9827 41.3738C60.1972 41.3738 58.7438 42.8261 58.7438 44.6115V49.1451ZM65.7001 50.1067H58.2653C57.9975 50.1067 57.7832 49.891 57.7832 49.6257V44.6115C57.7832 42.2962 59.6687 40.4122 61.9827 40.4122C64.2967 40.4122 66.1821 42.2962 66.1821 44.6115V49.6257C66.1821 49.891 65.9679 50.1067 65.7001 50.1067Z" fill="#001042"/>
<path d="M66.9073 50.1067H57.0656C56.8013 50.1067 56.5835 49.891 56.5835 49.6257C56.5835 49.3604 56.8013 49.1451 57.0656 49.1451H66.9073C67.1715 49.1451 67.3894 49.3604 67.3894 49.6257C67.3894 49.891 67.1715 50.1067 66.9073 50.1067Z" fill="#001042"/>
<path d="M65.7072 64.041H58.2725V59.0268C58.2725 56.9732 59.9365 55.3081 61.9898 55.3081C64.0432 55.3081 65.7072 56.9732 65.7072 59.0268V64.041Z" fill="#64CBB9"/>
<path d="M58.7438 63.5644H65.2215V59.0315C65.2215 57.2461 63.7682 55.7931 61.9827 55.7931C60.1972 55.7931 58.7438 57.2461 58.7438 59.0315V63.5644ZM65.7001 64.5256H58.2653C57.9975 64.5256 57.7832 64.3107 57.7832 64.0454V59.0315C57.7832 56.7155 59.6687 54.8318 61.9827 54.8318C64.2967 54.8318 66.1821 56.7155 66.1821 59.0315V64.0454C66.1821 64.3107 65.9679 64.5256 65.7001 64.5256Z" fill="#001042"/>
<path d="M66.9073 64.5256H57.0656C56.8013 64.5256 56.5835 64.3107 56.5835 64.0454C56.5835 63.7801 56.8013 63.5644 57.0656 63.5644H66.9073C67.1715 63.5644 67.3894 63.7801 67.3894 64.0454C67.3894 64.3107 67.1715 64.5256 66.9073 64.5256Z" fill="#001042"/>
<path d="M35.4819 41.2378H28.0435V36.224C28.0435 34.17 29.7111 32.5053 31.7644 32.5053C33.8177 32.5053 35.4819 34.17 35.4819 36.224V41.2378Z" fill="#64CBB9"/>
<path d="M28.5256 40.7558H35.0033V36.2226C35.0033 34.4372 33.5499 32.9842 31.7644 32.9842C29.9789 32.9842 28.5256 34.4372 28.5256 36.2226V40.7558ZM35.4819 41.717H28.0435C27.7792 41.717 27.5649 41.5017 27.5649 41.2364V36.2226C27.5649 33.9065 29.4468 32.0229 31.7644 32.0229C34.0784 32.0229 35.964 33.9065 35.964 36.2226V41.2364C35.964 41.5017 35.7461 41.717 35.4819 41.717Z" fill="#001042"/>
<path d="M49.9388 41.2378H42.5005V36.224C42.5005 34.17 44.1681 32.5053 46.2214 32.5053C48.2748 32.5053 49.9388 34.17 49.9388 36.224V41.2378Z" fill="#64CBB9"/>
<path d="M42.9826 40.7558H49.4567V36.2226C49.4567 34.4372 48.0069 32.9842 46.2214 32.9842C44.4359 32.9842 42.9826 34.4372 42.9826 36.2226V40.7558ZM49.9388 41.717H42.5005C42.2362 41.717 42.022 41.5017 42.022 41.2364V36.2226C42.022 33.9065 43.9039 32.0229 46.2214 32.0229C48.5354 32.0229 50.4209 33.9065 50.4209 36.2226V41.2364C50.4209 41.5017 50.2031 41.717 49.9388 41.717Z" fill="#001042"/>
<path d="M35.4819 53.9893H28.0435V48.9754C28.0435 46.9218 29.7111 45.2564 31.7644 45.2564C33.8177 45.2564 35.4819 46.9218 35.4819 48.9754V53.9893Z" fill="#64CBB9"/>
<path d="M28.5256 53.5075H35.0033V48.9736C35.0033 47.1881 33.5499 45.7359 31.7644 45.7359C29.9789 45.7359 28.5256 47.1881 28.5256 48.9736V53.5075ZM35.4819 54.4688H28.0435C27.7792 54.4688 27.5649 54.2538 27.5649 53.9881V48.9736C27.5649 46.6582 29.4468 44.7746 31.7644 44.7746C34.0784 44.7746 35.964 46.6582 35.964 48.9736V53.9881C35.964 54.2538 35.7461 54.4688 35.4819 54.4688Z" fill="#001042"/>
<path d="M49.9388 53.9893H42.5005V48.9754C42.5005 46.9218 44.1681 45.2564 46.2214 45.2564C48.2748 45.2564 49.9388 46.9218 49.9388 48.9754V53.9893Z" fill="#64CBB9"/>
<path d="M42.9826 53.5075H49.4567V48.9736C49.4567 47.1881 48.0069 45.7359 46.2214 45.7359C44.4359 45.7359 42.9826 47.1881 42.9826 48.9736V53.5075ZM49.9388 54.4688H42.5005C42.2362 54.4688 42.022 54.2538 42.022 53.9881V48.9736C42.022 46.6582 43.9039 44.7746 46.2214 44.7746C48.5354 44.7746 50.4209 46.6582 50.4209 48.9736V53.9881C50.4209 54.2538 50.2031 54.4688 49.9388 54.4688Z" fill="#001042"/>
<path d="M77.2085 70H0.478527C0.214273 70 0 69.7843 0 69.519C0 69.2537 0.214273 69.0384 0.478527 69.0384H77.2085C77.4727 69.0384 77.6906 69.2537 77.6906 69.519C77.6906 69.7843 77.4727 70 77.2085 70Z" fill="#001042"/>
<path d="M38.9961 0.481712L40.7709 5.94475H46.513L41.8672 9.32064L43.6419 14.7837L38.9961 11.4071L34.3467 14.7837L36.1214 9.32064L31.4756 5.94475H37.2213L38.9961 0.481712Z" fill="#FDC436"/>
<path d="M38.9883 10.9257C39.0847 10.9257 39.1847 10.9564 39.2704 11.0174L42.72 13.5242L41.4023 9.46839C41.338 9.27021 41.4094 9.05312 41.5773 8.93064L45.0268 6.42389H40.7631C40.5524 6.42389 40.3703 6.28998 40.306 6.09216L38.9883 2.03603L37.6706 6.09216C37.6063 6.28998 37.4207 6.42389 37.2135 6.42389H32.9462L36.3993 8.93064C36.5672 9.05312 36.635 9.27021 36.5708 9.46839L35.2531 13.5242L38.7026 11.0174C38.7883 10.9564 38.8883 10.9257 38.9883 10.9257ZM43.6341 15.2632C43.5342 15.2632 43.4342 15.2325 43.3521 15.1714L38.9883 12.0005L34.621 15.1714C34.4532 15.2935 34.2246 15.2935 34.0568 15.1714C33.8889 15.0493 33.8175 14.8318 33.8818 14.634L35.5495 9.50304L31.1857 6.33213C31.0178 6.21 30.9464 5.99253 31.0107 5.7947C31.075 5.59652 31.2607 5.46262 31.4678 5.46262H36.8636L38.5313 0.332013C38.5955 0.133831 38.7776 -6.86646e-05 38.9883 -6.86646e-05C39.1954 -6.86646e-05 39.3811 0.133831 39.4454 0.332013L41.113 5.46262H46.5052C46.7159 5.46262 46.8981 5.59652 46.9624 5.7947C47.0266 5.99253 46.9588 6.21 46.7874 6.33213L42.4236 9.50304L44.0913 14.634C44.1555 14.8318 44.0841 15.0493 43.9163 15.1714C43.8341 15.2325 43.7341 15.2632 43.6341 15.2632Z" fill="#001042"/>
<path d="M21.2294 8.3743L22.4364 12.0894H26.3431L23.1827 14.3855L24.3897 18.1006L21.2294 15.8045L18.069 18.1006L19.2761 14.3855L16.1157 12.0894H20.0224L21.2294 8.3743Z" fill="#FDC436"/>
<path d="M21.2304 15.3227C21.3304 15.3227 21.4268 15.3535 21.5125 15.4145L23.4765 16.8411L22.7266 14.5332C22.6623 14.3354 22.7338 14.1179 22.9016 13.9955L24.8621 12.5693H22.4374C22.2303 12.5693 22.0446 12.4353 21.9803 12.2375L21.2304 9.92968L20.4805 12.2375C20.4162 12.435 20.2305 12.5693 20.0234 12.5693H17.5951L19.5592 13.9955C19.727 14.1179 19.7985 14.3354 19.7342 14.5332L18.9843 16.8411L20.9483 15.4145C21.0304 15.3535 21.1304 15.3227 21.2304 15.3227ZM18.07 18.5801C17.97 18.5801 17.8701 18.5494 17.788 18.4883C17.6201 18.3658 17.5487 18.1487 17.613 17.9509L18.7128 14.5682L15.8346 12.4775C15.6668 12.3554 15.5953 12.1382 15.6596 11.9401C15.7239 11.7419 15.9096 11.608 16.1167 11.608H19.6734L20.7733 8.22497C20.8376 8.02714 21.0232 7.89286 21.2304 7.89286C21.4375 7.89286 21.6232 8.02678 21.6875 8.22497L22.7874 11.608H26.3441C26.5512 11.608 26.7368 11.7419 26.8011 11.9401C26.8654 12.1382 26.794 12.3554 26.6262 12.4775L23.7479 14.5682L24.8478 17.9509C24.9121 18.1487 24.8407 18.3662 24.6728 18.4883C24.505 18.6104 24.2765 18.6104 24.1086 18.4883L21.2304 16.3979L18.3522 18.4883C18.2665 18.5494 18.17 18.5801 18.07 18.5801Z" fill="#001042"/>
<path d="M13.3022 22.7786L14.5091 26.4937H18.4158L15.2555 28.7894L16.4625 32.5049L13.3022 30.2088L10.1419 32.5049L11.3488 28.7894L8.18848 26.4937H12.0952L13.3022 22.7786Z" fill="#FDC436"/>
<path d="M13.3031 29.7271C13.4031 29.7271 13.4995 29.7578 13.5852 29.8188L15.5492 31.2454L14.7993 28.9375C14.735 28.7397 14.8065 28.5222 14.9743 28.3998L16.9348 26.9736H14.5101C14.303 26.9736 14.1173 26.8397 14.053 26.6418L13.3031 24.3336L12.5532 26.6418C12.4889 26.8397 12.3032 26.9736 12.0961 26.9736H9.66783L11.6319 28.3998C11.7997 28.5222 11.8711 28.7397 11.8069 28.9375L11.057 31.2454L13.021 29.8188C13.1031 29.7578 13.2031 29.7271 13.3031 29.7271ZM16.4635 32.9844C16.3635 32.9844 16.2635 32.9537 16.1813 32.8926L13.3031 30.8022L10.4249 32.8926C10.257 33.0147 10.0285 33.0147 9.86068 32.8926C9.69284 32.7701 9.62141 32.553 9.68569 32.3552L10.7856 28.9725L7.9073 26.8818C7.73947 26.7597 7.6681 26.5422 7.73238 26.3444C7.79666 26.1462 7.98231 26.0123 8.18942 26.0123H11.7461L12.846 22.6293C12.9103 22.4314 13.096 22.2975 13.3031 22.2975C13.5102 22.2975 13.6959 22.4314 13.7602 22.6293L14.8601 26.0123H18.4168C18.6239 26.0123 18.8096 26.1462 18.8739 26.3444C18.9382 26.5422 18.8667 26.7597 18.6989 26.8818L15.8207 28.9725L16.9205 32.3552C16.9848 32.553 16.9134 32.7701 16.7455 32.8926C16.6598 32.9537 16.5634 32.9844 16.4635 32.9844Z" fill="#001042"/>
<path d="M64.5351 22.7786L65.742 26.4937H69.6487L66.4884 28.7894L67.6954 32.5049L64.5351 30.2088L61.3748 32.5049L62.5817 28.7894L59.4214 26.4937H63.3281L64.5351 22.7786Z" fill="#FDC436"/>
<path d="M60.9007 26.9736L62.8648 28.3998C63.0326 28.5222 63.104 28.7397 63.0398 28.9375L62.2899 31.2454L64.2539 29.8188C64.4217 29.6967 64.6503 29.6967 64.8182 29.8188L66.7822 31.2454L66.0323 28.9375C65.968 28.7397 66.0394 28.5222 66.2072 28.3998L68.1713 26.9736H65.743C65.5359 26.9736 65.3502 26.8393 65.2859 26.6418L64.536 24.334L63.7861 26.6418C63.7218 26.8397 63.5361 26.9736 63.329 26.9736H60.9007ZM61.3757 32.9844C61.2757 32.9844 61.1757 32.9537 61.0936 32.8926C60.9257 32.7705 60.8543 32.553 60.9186 32.3552L62.0185 28.9725L59.1403 26.8818C58.9724 26.7597 58.901 26.5422 58.9653 26.3444C59.0296 26.1462 59.2152 26.0123 59.4223 26.0123H62.9791L64.0789 22.6293C64.1432 22.4314 64.3289 22.2975 64.536 22.2975C64.7431 22.2975 64.9288 22.4318 64.9931 22.6293L66.093 26.0123H69.6497C69.8568 26.0123 70.0425 26.1462 70.1068 26.3444C70.1711 26.5422 70.0996 26.7597 69.9318 26.8818L67.0536 28.9725L68.1534 32.3552C68.2177 32.553 68.1463 32.7705 67.9785 32.8926C67.8106 33.0147 67.5821 33.0147 67.4142 32.8926L64.536 30.8022L61.6578 32.8926C61.5757 32.9537 61.4757 32.9844 61.3757 32.9844Z" fill="#001042"/>
<path d="M56.7285 8.3743L57.9354 12.0894H61.8421L58.6818 14.3855L59.8888 18.1006L56.7285 15.8045L53.5681 18.1006L54.7751 14.3855L51.6147 12.0894H55.5214L56.7285 8.3743Z" fill="#FDC436"/>
<path d="M53.0981 12.5693L55.0586 13.9955C55.23 14.1179 55.2979 14.3354 55.2336 14.5332L54.4837 16.8411L56.4478 15.4145C56.6156 15.2924 56.8442 15.2924 57.012 15.4145L58.976 16.8411L58.2261 14.5332C58.1619 14.3354 58.2332 14.1179 58.4011 13.9955L60.3651 12.5693H57.9368C57.7297 12.5693 57.5441 12.435 57.4798 12.2375L56.7299 9.92968L55.98 12.2375C55.9157 12.4353 55.73 12.5693 55.5229 12.5693H53.0981ZM53.5695 18.5801C53.4696 18.5801 53.3731 18.5494 53.2874 18.4883C53.1196 18.3662 53.0482 18.1487 53.1124 17.9509L54.2123 14.5682L51.3341 12.4775C51.1663 12.3554 51.0948 12.1382 51.1591 11.9401C51.2234 11.7419 51.4091 11.608 51.6162 11.608H55.1729L56.2728 8.22497C56.337 8.02678 56.5228 7.89286 56.7299 7.89286C56.9406 7.89286 57.1226 8.02714 57.1869 8.22497L58.2868 11.608H61.8435C62.0506 11.608 62.2363 11.7419 62.3006 11.9401C62.3649 12.1382 62.2935 12.3554 62.1256 12.4775L59.2474 14.5682L60.3473 17.9509C60.4115 18.1487 60.3402 18.3662 60.1723 18.4883C60.0045 18.6104 59.7759 18.6104 59.6081 18.4883L56.7299 16.3979L53.8517 18.4883C53.7695 18.5494 53.6695 18.5801 53.5695 18.5801Z" fill="#001042"/>
</svg>
