<svg width="68" height="70" viewBox="0 0 68 70" fill="none" xmlns="http://www.w3.org/2000/svg">
<path d="M22.9695 8.58198V27.6212C17.2336 26.4093 11.1196 28.9041 7.97987 34.2325C4.3828 40.3462 5.94909 48.0722 11.3645 52.3442L9.09608 56.1892L0.648926 53.1259V0.48727L22.9695 8.58198Z" fill="#FDC436"/>
<path d="M1.12582 52.784L8.87808 55.5942L10.7288 52.4549C5.34577 47.9435 3.97033 40.0814 7.5566 33.9843C10.628 28.7747 16.5655 26.0325 22.4814 27.0335V8.91958L1.12582 1.17663V52.784ZM9.09047 56.6719C9.03646 56.6719 8.98245 56.6625 8.92844 56.6427L0.4777 53.5797C0.283264 53.5103 0.157227 53.3277 0.157227 53.1239V0.48497C0.157227 0.327267 0.232883 0.178944 0.362507 0.0882111C0.492131 -0.00216293 0.657719 -0.0248337 0.805347 0.0291748L23.1295 8.12385C23.3203 8.19334 23.45 8.37553 23.45 8.57968V27.6189C23.45 27.7647 23.3851 27.9033 23.2699 27.9951C23.1583 28.0873 23.007 28.1226 22.863 28.0931C17.1668 26.8894 11.3517 29.4544 8.39199 34.4761C4.97856 40.2801 6.38279 47.7973 11.6578 51.9613C11.8486 52.1118 11.899 52.3793 11.7766 52.5882L9.5082 56.4332C9.42178 56.5844 9.2597 56.6719 9.09047 56.6719Z" fill="#001042"/>
<path d="M22.6443 55.0633V61.218L12.458 57.5225L14.3556 54.292C17.0417 55.4154 19.933 55.6365 22.6443 55.0633Z" fill="#FDC436"/>
<path d="M13.1671 57.2695L22.158 60.5305V55.6529C19.5871 56.0892 16.9802 55.8315 14.5606 54.9011L13.1671 57.2695ZM22.6405 61.7068C22.5865 61.7068 22.5288 61.6971 22.4784 61.678L12.2886 57.9821C12.1517 57.9327 12.0473 57.8261 11.9969 57.6904C11.9465 57.555 11.9609 57.4049 12.0365 57.2807L13.934 54.0499C14.0565 53.8407 14.3157 53.7547 14.539 53.8483C17.0702 54.9072 19.8356 55.1646 22.5433 54.5932C22.6837 54.563 22.8349 54.5986 22.9465 54.6908C23.0617 54.783 23.1266 54.9213 23.1266 55.0671V61.2222C23.1266 61.3799 23.051 61.5282 22.9213 61.6189C22.8385 61.6769 22.7413 61.7068 22.6405 61.7068Z" fill="#001042"/>
<path d="M67.3728 8.57944V61.218L45.0522 53.1233V0.484734L67.3728 8.57944Z" fill="#FDC436"/>
<path d="M45.5404 52.7876L66.8923 60.5305V8.92314L45.5404 1.18019V52.7876ZM67.3748 61.7068C67.3208 61.7068 67.2632 61.6971 67.2091 61.6776L44.8923 53.5833C44.6978 53.5138 44.5718 53.3313 44.5718 53.1275V0.488529C44.5718 0.330826 44.6474 0.182499 44.777 0.0917664C44.9066 0.00139236 45.0723 -0.0212784 45.2199 0.0327301L67.5404 8.1274C67.7313 8.19689 67.8609 8.37909 67.8609 8.58323V61.2222C67.8609 61.3799 67.7817 61.5282 67.6556 61.6189C67.5728 61.6769 67.4756 61.7068 67.3748 61.7068Z" fill="#001042"/>
<path d="M45.0513 0.484734V53.1233L34.2745 57.0335L22.7344 61.218V55.0075C26.353 54.1707 29.6297 51.9085 31.6569 48.4574C35.5888 41.7845 33.3636 33.1894 26.6843 29.2569C25.4205 28.5137 24.0882 27.9902 22.7344 27.6799V8.57944L45.0513 0.484734Z" fill="#FDC436"/>
<path d="M23.2201 55.3918V60.5305L44.572 52.7876V1.18019L23.2201 8.92314V27.3031C24.5163 27.6372 25.7621 28.1542 26.9323 28.8426C30.2774 30.8103 32.6502 33.9601 33.6224 37.7122C34.5946 41.4632 34.0473 45.368 32.0777 48.7071C30.1081 52.0599 26.972 54.4218 23.2201 55.3918ZM22.7376 61.7068C22.6367 61.7068 22.5396 61.6769 22.4567 61.6189C22.3271 61.5282 22.2515 61.3799 22.2515 61.2222V55.0116C22.2515 54.7859 22.4063 54.59 22.6259 54.5392C26.2842 53.6938 29.3412 51.4475 31.2424 48.2156C33.0787 45.0994 33.59 41.4553 32.6826 37.9549C31.7789 34.4537 29.5608 31.5142 26.4427 29.6783C25.2436 28.9737 23.9618 28.4617 22.6295 28.156C22.4063 28.1056 22.2515 27.9098 22.2515 27.6837V8.58323C22.2515 8.37909 22.3811 8.19689 22.5719 8.1274L44.8925 0.0327301C45.0401 -0.0212784 45.2057 0.00139236 45.3353 0.0917664C45.465 0.182499 45.5406 0.330826 45.5406 0.488529V53.1275C45.5406 53.3313 45.4146 53.5135 45.2201 53.5833L22.9032 61.6776C22.8492 61.6971 22.7916 61.7068 22.7376 61.7068Z" fill="#001042"/>
<path d="M31.6634 48.4604C29.6327 51.9119 26.356 54.1727 22.7374 55.012C22.6546 55.0304 22.5681 55.048 22.4853 55.066C19.7704 55.6392 16.8791 55.4181 14.193 54.2947C13.6025 54.051 13.0264 53.7622 12.4647 53.4328C11.903 53.1033 11.3737 52.7379 10.8768 52.3454C5.46135 48.0723 3.89866 40.3474 7.49213 34.2334C10.6355 28.9046 16.7495 26.4091 22.4853 27.6228C22.5681 27.6412 22.651 27.6592 22.7374 27.6818C24.0912 27.9933 25.4271 28.5165 26.6909 29.261C33.3666 33.191 35.5918 41.7869 31.6634 48.4604Z" fill="#64CBB9"/>
<path d="M19.5721 27.7995C14.8444 27.7995 10.3796 30.2803 7.90593 34.4767C4.4925 40.2811 5.89671 47.7979 11.1753 51.9619C11.6686 52.3537 12.1835 52.7062 12.7056 53.0115C13.2529 53.3323 13.811 53.6117 14.3763 53.8436C16.9076 54.9032 19.6765 55.1603 22.3806 54.5893L22.629 54.5356C26.2801 53.6891 29.3407 51.4431 31.2418 48.2117C33.0746 45.0951 33.5859 41.451 32.6821 37.9505C31.7747 34.4494 29.5567 31.5106 26.4385 29.6758C25.2431 28.9712 23.9613 28.4585 22.6254 28.1513C22.5318 28.1272 22.4562 28.111 22.3806 28.0944C21.4444 27.8964 20.5011 27.7995 19.5721 27.7995ZM19.5541 55.8552C17.6565 55.8552 15.7769 55.4804 14.0018 54.7391C13.4005 54.4906 12.7992 54.1903 12.2159 53.8475C11.6578 53.521 11.1033 53.1419 10.574 52.7228C4.91736 48.2606 3.41225 40.2048 7.07053 33.9845C10.2427 28.6028 16.4755 25.8546 22.5786 27.1461C22.6723 27.1655 22.7622 27.1853 22.8559 27.2105C24.2745 27.536 25.65 28.0854 26.9318 28.8405C30.2732 30.8067 32.6461 33.9557 33.6183 37.7075C34.5905 41.4589 34.0431 45.364 32.0772 48.7031C30.0392 52.1657 26.759 54.5731 22.8414 55.4811L22.5786 55.5376C21.5741 55.7497 20.5623 55.8552 19.5541 55.8552Z" fill="#001042"/>
<path d="M12.6511 33.6477C12.5143 33.6477 12.3774 33.5894 12.2802 33.4756C12.1074 33.2714 12.1326 32.9654 12.3378 32.7929C14.6242 30.8609 17.6488 29.9114 20.6373 30.1898C20.9038 30.2146 21.0983 30.4508 21.0731 30.7169C21.0479 30.9837 20.8066 31.1831 20.5473 31.1547C17.8144 30.9016 15.0527 31.7679 12.9643 33.5332C12.8707 33.6099 12.7627 33.6477 12.6511 33.6477Z" fill="#001042"/>
<path d="M14.1898 54.2952L12.2923 57.5257L5.78946 68.567C5.25296 69.483 4.07197 69.7901 3.1538 69.2486C2.23923 68.7118 1.93676 67.5337 2.47326 66.6134L8.60881 56.1902L10.8736 52.3459C11.3705 52.7384 11.8998 53.1038 12.4615 53.4333C13.0232 53.7627 13.5993 54.0515 14.1898 54.2952Z" fill="#E3B277"/>
<path d="M11.0171 53.0606L2.89405 66.8578C2.49437 67.5444 2.7212 68.4291 3.40173 68.8288C3.73659 69.0253 4.12188 69.0801 4.49634 68.9836C4.86721 68.8871 5.18049 68.652 5.37492 68.3207L13.498 54.5196C13.0659 54.3204 12.6375 54.0958 12.2198 53.8495C11.8129 53.6126 11.4132 53.3479 11.0171 53.0606ZM4.1291 70C3.70423 70 3.28652 69.8862 2.91205 69.6641C1.77064 68.9962 1.3854 67.5171 2.05872 66.3678L10.459 52.0982C10.531 51.9779 10.6499 51.894 10.7903 51.8678C10.9272 51.8433 11.0675 51.8775 11.1792 51.9643C11.6725 52.3557 12.1874 52.7081 12.7095 53.0135C13.2568 53.3343 13.8149 53.6137 14.3802 53.8456C14.5098 53.8988 14.6106 54.0065 14.6538 54.1393C14.697 54.2725 14.6826 54.4184 14.6106 54.5394L6.21025 68.8115C5.88619 69.366 5.36408 69.7609 4.73756 69.9219C4.53592 69.9741 4.33434 70 4.1291 70Z" fill="#001042"/>
<path d="M14.3631 15.0355C15.6773 15.0355 16.988 15.176 18.2266 15.7088C19.7677 16.3713 20.9595 17.5462 22.1117 18.6821C22.1837 18.7506 22.2521 18.8193 22.3241 18.8888V8.9197L0.968593 1.17674V11.5038C3.1434 13.6947 6.12838 15.037 9.18894 15.1951C10.1539 15.2437 11.1621 15.1835 12.1378 15.1248C12.8724 15.0802 13.6177 15.0355 14.3631 15.0355ZM22.8066 20.5098C22.6878 20.5098 22.569 20.4655 22.479 20.3813C22.1225 20.0518 21.7733 19.7065 21.4348 19.3727C20.2934 18.2504 19.2167 17.1905 17.8449 16.5993C16.1166 15.8561 14.2119 15.971 12.1955 16.0923C11.1945 16.1528 10.1575 16.2151 9.13852 16.1629C5.7719 15.9897 2.48809 14.4854 0.136853 12.0374C0.0504375 11.9467 0 11.8264 0 11.7015V0.485081C0 0.327379 0.0756562 0.179054 0.20528 0.0883198C0.334904 -0.00205231 0.500479 -0.0247231 0.651707 0.0292854L22.9723 8.12396C23.1667 8.19345 23.2927 8.37564 23.2927 8.57979V20.0251C23.2927 20.2178 23.1775 20.3917 23.0011 20.4691C22.9399 20.4964 22.875 20.5098 22.8066 20.5098Z" fill="#001042"/>
<path d="M47.7838 22.2391C50.0522 22.2391 52.5799 22.498 55.0104 23.4507C56.465 24.021 57.8152 24.8164 59.1259 25.5855C60.2313 26.2364 61.3727 26.9087 62.5538 27.4264C64.0192 28.0691 65.5387 28.3953 66.8926 28.3618V8.91902L45.0545 1.00037L23.2201 8.91902V20.0356C23.3893 20.1836 23.5585 20.3226 23.7242 20.4501C27.9333 23.7427 34.0185 23.5479 38.847 23.01C39.3727 22.951 39.9019 22.888 40.4348 22.8246C41.9363 22.6464 43.4882 22.4624 45.0221 22.3493C45.8719 22.2878 46.8044 22.2391 47.7838 22.2391ZM66.7089 29.3333C65.2723 29.3333 63.6843 28.98 62.1649 28.3143C60.9298 27.7735 59.7632 27.0862 58.6326 26.4212C57.358 25.6712 56.0401 24.8956 54.6575 24.3534C51.3593 23.0594 47.8126 23.1198 45.0905 23.3161C43.5782 23.4277 42.0372 23.6106 40.5501 23.7874C40.0136 23.8507 39.4843 23.9137 38.955 23.9735C33.9428 24.5323 27.6129 24.7224 23.1265 21.2141C22.8924 21.033 22.6547 20.8306 22.4135 20.6142C22.3091 20.5228 22.2515 20.3914 22.2515 20.2538V8.57912C22.2515 8.37497 22.3811 8.19277 22.5719 8.12329L44.8925 0.0286121C44.9969 -0.00955391 45.1157 -0.00955391 45.2201 0.0286121L67.5407 8.12329C67.7315 8.19277 67.8612 8.37497 67.8612 8.57912V28.8202C67.8612 29.0722 67.6667 29.2818 67.4183 29.303C67.1878 29.3235 66.9502 29.3333 66.7089 29.3333Z" fill="#001042"/>
<path d="M45.0515 52.6428C45.1091 52.6428 45.1667 52.6525 45.2171 52.672L66.8896 60.5305V42.5495C64.4735 41.3494 61.7874 40.4392 59.2346 39.6096C56.048 38.5695 52.0872 37.2758 48.4397 38.1432C47.3631 38.3988 46.3081 38.8402 45.3071 39.4548C43.1287 40.7867 41.1088 42.9509 39.3049 45.8875C37.4433 48.9195 36.0354 52.2313 35.1244 55.7314C35.0776 55.9028 35.0309 56.0813 34.9841 56.2653L44.8895 52.672C44.9399 52.6525 44.9975 52.6428 45.0515 52.6428ZM67.3721 61.7068C67.3181 61.7068 67.2604 61.6971 67.2064 61.6776L45.0515 53.6431L34.4403 57.4928C34.2711 57.5543 34.0839 57.5169 33.9506 57.3959C33.8174 57.2745 33.7634 57.0898 33.8066 56.9159C33.8714 56.6625 33.9398 56.4169 34.001 56.1807C34.0659 55.9406 34.1271 55.7094 34.1847 55.4883C35.1208 51.8943 36.5648 48.4936 38.4767 45.3802C40.3635 42.3119 42.4914 40.0403 44.7995 38.6285C45.8905 37.9599 47.039 37.4796 48.2129 37.2005C52.1268 36.2694 56.2351 37.6103 59.537 38.6879C62.2159 39.56 65.0496 40.5206 67.5917 41.8189C67.7573 41.9018 67.8582 42.0688 67.8582 42.2507V61.2222C67.8582 61.3799 67.7789 61.5282 67.6529 61.6189C67.5701 61.6769 67.4729 61.7068 67.3721 61.7068Z" fill="#001042"/>
</svg>
