<svg width="18" height="18" viewBox="0 0 18 18" fill="none" xmlns="http://www.w3.org/2000/svg">
<path d="M10.5385 16.5H7.35897C4.36151 16.5 2.86238 16.5 1.93159 15.5684C1.00079 14.6368 1 13.1385 1 10.141V8.55128C1 5.55382 1 4.05469 1.93159 3.1239C2.86318 2.1931 4.36151 2.19231 7.35897 2.19231H10.5385C13.5359 2.19231 15.0351 2.19231 15.9658 3.1239C16.8966 4.05549 16.8974 5.55382 16.8974 8.55128V10.141C16.8974 13.1385 16.8974 14.6376 15.9658 15.5684C15.4468 16.0883 14.7513 16.318 13.7179 16.4189M4.97436 2.19231V1M12.9231 2.19231V1M16.5 6.16667H7.95513M1 6.16667H4.08013" stroke="#FF6F4C" stroke-width="1.5" stroke-linecap="round"/>
<path d="M13.2181 12.5256C13.2181 12.6038 13.1871 12.6788 13.1318 12.7341C13.0765 12.7894 13.0015 12.8205 12.9233 12.8205C12.8451 12.8205 12.7701 12.7894 12.7148 12.7341C12.6595 12.6788 12.6284 12.6038 12.6284 12.5256C12.6284 12.4474 12.6595 12.3724 12.7148 12.3171C12.7701 12.2618 12.8451 12.2308 12.9233 12.2308C13.0015 12.2308 13.0765 12.2618 13.1318 12.3171C13.1871 12.3724 13.2181 12.4474 13.2181 12.5256ZM13.2181 9.34614C13.2181 9.42435 13.1871 9.49935 13.1318 9.55465C13.0765 9.60995 13.0015 9.64101 12.9233 9.64101C12.8451 9.64101 12.7701 9.60995 12.7148 9.55465C12.6595 9.49935 12.6284 9.42435 12.6284 9.34614C12.6284 9.26794 12.6595 9.19293 12.7148 9.13764C12.7701 9.08234 12.8451 9.05127 12.9233 9.05127C13.0015 9.05127 13.0765 9.08234 13.1318 9.13764C13.1871 9.19293 13.2181 9.26794 13.2181 9.34614ZM9.24379 12.5256C9.24379 12.6038 9.21272 12.6788 9.15742 12.7341C9.10213 12.7894 9.02712 12.8205 8.94892 12.8205C8.87071 12.8205 8.79571 12.7894 8.74041 12.7341C8.68511 12.6788 8.65405 12.6038 8.65405 12.5256C8.65405 12.4474 8.68511 12.3724 8.74041 12.3171C8.79571 12.2618 8.87071 12.2308 8.94892 12.2308C9.02712 12.2308 9.10213 12.2618 9.15742 12.3171C9.21272 12.3724 9.24379 12.4474 9.24379 12.5256ZM9.24379 9.34614C9.24379 9.42435 9.21272 9.49935 9.15742 9.55465C9.10212 9.60995 9.02712 9.64101 8.94892 9.64101C8.87071 9.64101 8.79571 9.60995 8.74041 9.55465C8.68511 9.49935 8.65405 9.42435 8.65405 9.34614C8.65405 9.26794 8.68511 9.19294 8.74041 9.13764C8.79571 9.08234 8.87071 9.05127 8.94892 9.05127C9.02712 9.05127 9.10212 9.08234 9.15742 9.13764C9.21272 9.19294 9.24379 9.26794 9.24379 9.34614ZM5.26943 12.5256C5.26943 12.6038 5.23836 12.6788 5.18307 12.7341C5.12777 12.7894 5.05277 12.8205 4.97456 12.8205C4.89635 12.8205 4.82135 12.7894 4.76605 12.7341C4.71075 12.6788 4.67969 12.6038 4.67969 12.5256C4.67969 12.4474 4.71075 12.3724 4.76605 12.3171C4.82135 12.2618 4.89635 12.2308 4.97456 12.2308C5.05277 12.2308 5.12777 12.2618 5.18307 12.3171C5.23836 12.3724 5.26943 12.4474 5.26943 12.5256ZM5.26943 9.34614C5.26943 9.42435 5.23836 9.49935 5.18307 9.55465C5.12777 9.60995 5.05276 9.64101 4.97456 9.64101C4.89635 9.64101 4.82135 9.60995 4.76605 9.55465C4.71075 9.49935 4.67969 9.42435 4.67969 9.34614C4.67969 9.26794 4.71075 9.19294 4.76605 9.13764C4.82135 9.08234 4.89635 9.05127 4.97456 9.05127C5.05276 9.05127 5.12777 9.08234 5.18307 9.13764C5.23836 9.19294 5.26943 9.26794 5.26943 9.34614Z" fill="black" stroke="#FF6F4C"/>
</svg>
