<svg width="19" height="16" viewBox="0 0 19 16" fill="none" xmlns="http://www.w3.org/2000/svg">
<path d="M15.0625 14.75C16.961 14.75 18.5 13.211 18.5 11.3125C18.5 9.41402 16.961 7.875 15.0625 7.875C13.164 7.875 11.625 9.41402 11.625 11.3125C11.625 13.211 13.164 14.75 15.0625 14.75Z" stroke="#64CBB9" stroke-linecap="round" stroke-linejoin="round"/>
<path d="M4.4375 14.75C6.33598 14.75 7.875 13.211 7.875 11.3125C7.875 9.41402 6.33598 7.875 4.4375 7.875C2.53902 7.875 1 9.41402 1 11.3125C1 13.211 2.53902 14.75 4.4375 14.75Z" stroke="#64CBB9" stroke-linecap="round" stroke-linejoin="round"/>
<path d="M7.875 11.3125V2.875C7.875 1.83984 7.25 1 6.15625 1C4.78906 1 4.33984 1.83984 3.92969 2.875C3.92969 2.875 2.03516 7.86848 1.15625 10.2773M7.875 5.0625C7.875 5.0625 8.51953 4.75 9.75 4.75C10.9805 4.75 11.625 5.0625 11.625 5.0625M7.875 8.5C7.875 8.5 8.51953 8.1875 9.75 8.1875C10.9805 8.1875 11.625 8.5 11.625 8.5M11.625 11.3125V2.875C11.625 1.83984 12.25 1 13.3438 1C14.7109 1 15.1602 1.83984 15.5703 2.875C15.5703 2.875 17.4648 7.86848 18.3438 10.2773" stroke="#64CBB9" stroke-linecap="round" stroke-linejoin="round"/>
</svg>
