<svg width="90" height="60" viewBox="0 0 90 60" fill="none" xmlns="http://www.w3.org/2000/svg">
<path d="M43.8617 0.602682L46.0821 7.43719H53.2658L47.4536 11.6606L49.6739 18.4951L43.8617 14.2708L38.0451 18.4951L40.2654 11.6606L34.4532 7.43719H41.6414L43.8617 0.602682Z" fill="#FDC436"/>
<path d="M43.8521 13.6685C43.9728 13.6685 44.0979 13.707 44.2051 13.7834L48.5207 16.9194L46.8721 11.8454C46.7917 11.5975 46.8811 11.3259 47.0911 11.1727L51.4066 8.03661H46.0725C45.8089 8.03661 45.5811 7.86908 45.5007 7.6216L43.8521 2.54719L42.2036 7.6216C42.1232 7.86908 41.891 8.03661 41.6318 8.03661H36.2932L40.6132 11.1727C40.8232 11.3259 40.9081 11.5975 40.8277 11.8454L39.1792 16.9194L43.4947 13.7834C43.602 13.707 43.7271 13.6685 43.8521 13.6685ZM49.6643 19.095C49.5392 19.095 49.4142 19.0566 49.3115 18.9802L43.8521 15.0132L38.3885 18.9802C38.1785 19.133 37.8925 19.133 37.6826 18.9802C37.4726 18.8274 37.3832 18.5553 37.4637 18.3078L39.55 11.8888L34.0907 7.92181C33.8807 7.76903 33.7914 7.49695 33.8718 7.24947C33.9522 7.00153 34.1845 6.83402 34.4437 6.83402H41.194L43.2804 0.415389C43.3608 0.167454 43.5886 -6.15605e-05 43.8521 -6.15605e-05C44.1113 -6.15605e-05 44.3436 0.167454 44.424 0.415389L46.5103 6.83402H53.2562C53.5198 6.83402 53.7476 7.00153 53.8281 7.24947C53.9085 7.49695 53.8236 7.76903 53.6091 7.92181L48.1499 11.8888L50.2362 18.3078C50.3166 18.5553 50.2272 18.8274 50.0173 18.9802C49.9145 19.0566 49.7894 19.095 49.6643 19.095Z" fill="black"/>
<path d="M7.06118 24.3715L8.57113 29.0193H13.4586L9.50485 31.8913L11.0149 36.5396L7.06118 33.6671L3.10746 36.5396L4.61741 31.8913L0.663696 29.0193H5.55113L7.06118 24.3715Z" fill="#FDC436"/>
<path d="M7.06275 33.0643C7.18783 33.0643 7.30839 33.1028 7.41561 33.1791L9.87272 34.9638L8.93455 32.0766C8.85413 31.8291 8.9435 31.5571 9.15347 31.4038L11.6061 29.6196H8.5727C8.31359 29.6196 8.08133 29.4521 8.00092 29.2046L7.06275 26.3169L6.12457 29.2046C6.04416 29.4521 5.81182 29.6196 5.5527 29.6196H2.51482L4.97193 31.4038C5.1819 31.5571 5.27127 31.8291 5.19085 32.0766L4.25268 34.9638L6.7098 33.1791C6.81255 33.1028 6.93766 33.0643 7.06275 33.0643ZM11.0165 37.1394C10.8914 37.1394 10.7663 37.101 10.6635 37.0246L7.06275 34.4094L3.46189 37.0246C3.25191 37.1774 2.96605 37.1774 2.75608 37.0246C2.54611 36.8714 2.45674 36.5998 2.53715 36.3523L3.91317 32.1204L0.312314 29.5048C0.102342 29.352 0.0130622 29.08 0.0934769 28.8325C0.173891 28.5845 0.406148 28.417 0.665262 28.417H5.11485L6.49087 24.1847C6.57129 23.9372 6.80363 23.7697 7.06275 23.7697C7.32186 23.7697 7.55412 23.9372 7.63453 24.1847L9.01055 28.417H13.4601C13.7193 28.417 13.9516 28.5845 14.032 28.8325C14.1124 29.08 14.0231 29.352 13.8131 29.5048L10.2123 32.1204L11.5882 36.3523C11.6687 36.5998 11.5793 36.8714 11.3693 37.0246C11.2621 37.101 11.1416 37.1394 11.0165 37.1394Z" fill="black"/>
<path d="M82.1242 24.3715L83.6341 29.0193H88.5216L84.5678 31.8913L86.0779 36.5396L82.1242 33.6671L78.1704 36.5396L79.6804 31.8913L75.7267 29.0193H80.6141L82.1242 24.3715Z" fill="#FDC436"/>
<path d="M77.5775 29.6196L80.0347 31.4038C80.2446 31.5571 80.334 31.8291 80.2536 32.0766L79.3154 34.9638L81.7725 33.1791C81.9825 33.0264 82.2684 33.0264 82.4784 33.1791L84.9355 34.9638L83.9974 32.0766C83.9169 31.8291 84.0062 31.5571 84.2162 31.4038L86.6733 29.6196H83.6354C83.3763 29.6196 83.1441 29.4516 83.0636 29.2046L82.1255 26.3174L81.1873 29.2046C81.1069 29.4521 80.8745 29.6196 80.6154 29.6196H77.5775ZM78.1718 37.1394C78.0467 37.1394 77.9216 37.101 77.8188 37.0246C77.6088 36.8718 77.5195 36.5998 77.5999 36.3523L78.9759 32.1204L75.3751 29.5048C75.1652 29.352 75.0758 29.08 75.1562 28.8325C75.2366 28.5845 75.4689 28.417 75.728 28.417H80.1777L81.5536 24.1847C81.634 23.9372 81.8664 23.7697 82.1255 23.7697C82.3846 23.7697 82.6168 23.9376 82.6973 24.1847L84.0733 28.417H88.5229C88.782 28.417 89.0143 28.5845 89.0947 28.8325C89.1752 29.08 89.0858 29.352 88.8758 29.5048L85.275 32.1204L86.651 36.3523C86.7314 36.5998 86.6421 36.8718 86.4321 37.0246C86.2222 37.1774 85.9362 37.1774 85.7262 37.0246L82.1255 34.4094L78.5247 37.0246C78.422 37.101 78.2968 37.1394 78.1718 37.1394Z" fill="black"/>
<path d="M18.3207 9.35955L19.8308 14.0073H24.7182L20.7645 16.8798L22.2744 21.5276L18.3207 18.6551L14.367 21.5276L15.8771 16.8798L11.9233 14.0073H16.8108L18.3207 9.35955Z" fill="#FDC436"/>
<path d="M18.3221 18.0526C18.4472 18.0526 18.5679 18.091 18.6751 18.1674L21.1322 19.9521L20.194 17.0649C20.1136 16.8174 20.203 16.5453 20.4129 16.3921L22.8656 14.6079H19.8322C19.5731 14.6079 19.3407 14.4403 19.2603 14.1929L18.3221 11.3056L17.384 14.1929C17.3035 14.4399 17.0713 14.6079 16.8122 14.6079H13.7743L16.2314 16.3921C16.4414 16.5453 16.5307 16.8174 16.4503 17.0649L15.5122 19.9521L17.9693 18.1674C18.072 18.091 18.197 18.0526 18.3221 18.0526ZM14.3684 22.1277C14.2433 22.1277 14.1183 22.0893 14.0156 22.0129C13.8056 21.8597 13.7162 21.588 13.7966 21.3405L15.1726 17.1087L11.5718 14.4931C11.3618 14.3403 11.2724 14.0687 11.3529 13.8207C11.4333 13.5728 11.6656 13.4053 11.9247 13.4053H16.3743L17.7503 9.17296C17.8308 8.92547 18.063 8.75749 18.3221 8.75749C18.5812 8.75749 18.8136 8.92503 18.894 9.17296L20.27 13.4053H24.7196C24.9787 13.4053 25.211 13.5728 25.2914 13.8207C25.3718 14.0687 25.2825 14.3403 25.0726 14.4931L21.4717 17.1087L22.8477 21.3405C22.9281 21.588 22.8388 21.8601 22.6288 22.0129C22.4188 22.1657 22.133 22.1657 21.923 22.0129L18.3221 19.3977L14.7214 22.0129C14.6141 22.0893 14.4935 22.1277 14.3684 22.1277Z" fill="black"/>
<path d="M69.6137 9.35955L71.1236 14.0073H76.0111L72.0573 16.8798L73.5674 21.5276L69.6137 18.6551L65.6599 21.5276L67.1699 16.8798L63.2162 14.0073H68.1036L69.6137 9.35955Z" fill="#FDC436"/>
<path d="M65.0715 14.6079L67.5242 16.3921C67.7386 16.5453 67.8235 16.8174 67.7431 17.0649L66.8049 19.9521L69.262 18.1674C69.472 18.0146 69.758 18.0146 69.9679 18.1674L72.425 19.9521L71.4869 17.0649C71.4065 16.8174 71.4957 16.5453 71.7057 16.3921L74.1628 14.6079H71.1249C70.8658 14.6079 70.6336 14.4399 70.5531 14.1929L69.615 11.3056L68.6768 14.1929C68.5964 14.4403 68.364 14.6079 68.1049 14.6079H65.0715ZM65.6613 22.1277C65.5362 22.1277 65.4155 22.0893 65.3083 22.0129C65.0983 21.8601 65.009 21.588 65.0894 21.3405L66.4654 17.1087L62.8646 14.4931C62.6547 14.3403 62.5653 14.0687 62.6457 13.8207C62.7261 13.5728 62.9584 13.4053 63.2175 13.4053H67.6672L69.0431 9.17296C69.1235 8.92503 69.3559 8.75749 69.615 8.75749C69.8786 8.75749 70.1063 8.92547 70.1868 9.17296L71.5628 13.4053H76.0124C76.2715 13.4053 76.5038 13.5728 76.5842 13.8207C76.6647 14.0687 76.5753 14.3403 76.3653 14.4931L72.7645 17.1087L74.1405 21.3405C74.2209 21.588 74.1316 21.8601 73.9216 22.0129C73.7117 22.1657 73.4257 22.1657 73.2157 22.0129L69.615 19.3977L66.0142 22.0129C65.9115 22.0893 65.7863 22.1277 65.6613 22.1277Z" fill="black"/>
<path d="M79.6309 53.4571H38.7593L31.278 40.4838L23.7968 27.5229H64.6559L72.1372 40.4838L79.6309 53.4571Z" fill="#60CADA"/>
<path d="M38.7592 53.4446V58.5364H30.2271C28.8549 56.905 27.6753 55.1209 26.7116 53.2194C24.9497 49.6782 23.9402 45.8105 23.7466 41.8599C23.5584 45.8098 22.5531 49.6778 20.7942 53.2194C19.8423 55.1191 18.6753 56.9031 17.3163 58.5364H8.82166V53.4446L16.3279 40.4838L23.8342 27.5229L31.3405 40.4838L38.8468 53.4446" fill="#58B0BE"/>
<path d="M79.6308 53.4573V58.549H38.7592V53.4573H79.6308Z" fill="#60CADA"/>
<path d="M30.2271 58.5363H23.7842V41.8599C23.966 45.8077 24.9627 49.6753 26.7116 53.2194C27.6753 55.1208 28.8549 56.9049 30.2271 58.5363Z" fill="#60CADA"/>
<path d="M23.7843 41.8599V58.5363H17.3539C18.7129 56.903 19.8799 55.119 20.8318 53.2194C22.5907 49.6777 23.596 45.8098 23.7843 41.8599Z" fill="#60CADA"/>
<path d="M23.7841 27.5229L16.3029 40.4838L8.83411 53.4446L16.3029 40.4838L23.7841 27.5229L26.2862 31.8641L23.7841 27.5229Z" fill="#BFBFBF"/>
<path d="M23.7841 27.5229L16.3029 40.4838L8.83411 53.4446V58.5364H13.8383V53.4446L21.307 40.4838L26.2862 31.8641L23.7841 27.5229Z" fill="#59F4D9"/>
<path d="M23.7968 27.5229L26.2863 31.8641L23.7968 27.5229Z" fill="#BFBFBF"/>
<path d="M28.7884 27.5229H23.7968L26.2863 31.8641L28.7884 27.5229Z" fill="#64CBB9"/>
<path d="M64.6558 27.5229H59.6516L67.1329 40.4838L74.6266 53.4571H79.6308L72.1371 40.4838L64.6558 27.5229Z" fill="#C5FFF5"/>
<path d="M79.6309 53.4573H74.6267V58.549H79.6309V53.4573Z" fill="#C5FFF5"/>
<path d="M79.6309 54.7083H38.7592C38.5409 54.7069 38.3267 54.6485 38.1379 54.5388C37.9492 54.429 37.7924 54.2718 37.6833 54.0827L22.7083 28.1486C22.5985 27.9584 22.5406 27.7426 22.5406 27.523C22.5406 27.3034 22.5985 27.0877 22.7083 26.8975C22.8185 26.7066 22.9772 26.5482 23.1683 26.4383C23.3595 26.3285 23.5762 26.2711 23.7967 26.272H64.6558C64.8742 26.2733 65.0883 26.3317 65.2771 26.4415C65.4658 26.5512 65.6226 26.7084 65.7317 26.8975L80.7443 52.8317C80.8541 53.0219 80.9119 53.2376 80.9119 53.4572C80.9119 53.6768 80.8541 53.8926 80.7443 54.0827C80.632 54.2774 80.4693 54.4382 80.2734 54.5483C80.0775 54.6583 79.8555 54.7136 79.6309 54.7083ZM39.4848 52.2062H77.4666L63.9302 28.7741H25.961L39.4848 52.2062Z" fill="black"/>
<path d="M38.7591 59.7875H30.227C30.0453 59.786 29.8662 59.7449 29.702 59.6671C29.5378 59.5893 29.3925 59.4767 29.2762 59.3371C27.8536 57.6314 26.6321 55.7676 25.6357 53.7825C24.89 52.2999 24.2747 50.7553 23.7966 49.1661C23.3098 50.7522 22.6948 52.2961 21.9576 53.7825C20.9582 55.7659 19.7369 57.6294 18.317 59.3371C18.1994 59.4784 18.0521 59.5919 17.8856 59.6698C17.7191 59.7476 17.5375 59.7878 17.3537 59.7875H8.8216C8.4898 59.7875 8.1716 59.6557 7.93698 59.4211C7.70236 59.1865 7.57056 58.8683 7.57056 58.5365V53.4447C7.57284 53.2244 7.63326 53.0086 7.7457 52.8192L22.7583 26.8975C22.8674 26.7084 23.0242 26.5512 23.2129 26.4415C23.4017 26.3317 23.6158 26.2733 23.8342 26.272C24.0546 26.2711 24.2714 26.3285 24.4625 26.4383C24.6536 26.5482 24.8123 26.7066 24.9226 26.8975L39.9351 52.8192C40.0432 53.0098 40.0993 53.2255 40.0978 53.4447V58.5365C40.0982 58.7084 40.0632 58.8786 39.9949 59.0363C39.9266 59.1941 39.8265 59.3362 39.7009 59.4535C39.5753 59.5709 39.4269 59.6612 39.2648 59.7186C39.1028 59.7761 38.9306 59.7995 38.7591 59.7875ZM30.8275 57.2854H37.5081V53.7825L23.7466 30.0126L9.98508 53.7825V57.2854H16.6782C17.823 55.8511 18.8127 54.2994 19.6306 52.6565C21.3166 49.2723 22.2795 45.5742 22.458 41.7975C22.458 41.4657 22.5898 41.1475 22.8244 40.9128C23.059 40.6782 23.3773 40.5464 23.7091 40.5464C24.0408 40.5464 24.3591 40.6782 24.5937 40.9128C24.8283 41.1475 24.9601 41.4657 24.9601 41.7975C25.1429 45.579 26.11 49.2812 27.8 52.6691C28.6447 54.3096 29.6595 55.8569 30.8275 57.2854Z" fill="black"/>
<path d="M79.6309 59.7999H38.7592C38.4274 59.7999 38.1092 59.6681 37.8746 59.4335C37.64 59.1989 37.5082 58.8807 37.5082 58.5489V53.4571C37.5082 53.1253 37.64 52.8071 37.8746 52.5725C38.1092 52.3379 38.4274 52.2061 38.7592 52.2061H79.6309C79.9627 52.2061 80.2809 52.3379 80.5155 52.5725C80.7501 52.8071 80.8819 53.1253 80.8819 53.4571V58.5489C80.8819 58.8807 80.7501 59.1989 80.5155 59.4335C80.2809 59.6681 79.9627 59.7999 79.6309 59.7999ZM40.0103 57.2978H78.3799V54.7081H40.0103V57.2978Z" fill="black"/>
<path d="M23.7842 43.1111C23.4525 43.1111 23.1342 42.9792 22.8996 42.7446C22.665 42.51 22.5332 42.1918 22.5332 41.86V27.523C22.5332 27.1912 22.665 26.873 22.8996 26.6384C23.1342 26.4038 23.4525 26.272 23.7842 26.272C24.116 26.272 24.4343 26.4038 24.6689 26.6384C24.9035 26.873 25.0353 27.1912 25.0353 27.523V41.86C25.0353 42.1918 24.9035 42.51 24.6689 42.7446C24.4343 42.9792 24.116 43.1111 23.7842 43.1111Z" fill="black"/>
<path d="M30.2271 59.7874H23.7842C23.4525 59.7874 23.1342 59.6556 22.8996 59.421C22.665 59.1864 22.5332 58.8682 22.5332 58.5364V41.8599C22.5332 41.5281 22.665 41.2099 22.8996 40.9753C23.1342 40.7407 23.4525 40.6089 23.7842 40.6089C24.116 40.6089 24.4343 40.7407 24.6689 40.9753C24.9035 41.2099 25.0353 41.5281 25.0353 41.8599C25.2181 45.6415 26.1852 49.3437 27.8752 52.7315C28.7853 54.5403 29.8975 56.24 31.1904 57.7983C31.3446 57.9813 31.443 58.2047 31.4741 58.4419C31.5051 58.6792 31.4675 58.9204 31.3656 59.1369C31.2546 59.34 31.0894 59.5084 30.8884 59.6232C30.6874 59.7381 30.4585 59.7949 30.2271 59.7874ZM25.0353 57.2853H27.7125C26.9382 56.1684 26.2442 54.9978 25.6358 53.7824C25.4231 53.3696 25.223 52.9442 25.0353 52.5314V57.2853Z" fill="black"/>
<path d="M23.7841 59.7877H17.3538C17.1169 59.7857 16.8855 59.7166 16.6864 59.5882C16.4873 59.4599 16.3287 59.2777 16.2291 59.0627C16.1295 58.8478 16.093 58.609 16.1238 58.3742C16.1545 58.1393 16.2514 57.918 16.403 57.736C17.696 56.1733 18.8082 54.4694 19.7182 52.6568C21.4042 49.2726 22.3671 45.5744 22.5456 41.7977C22.5456 41.4659 22.6774 41.1477 22.912 40.9131C23.1466 40.6784 23.4649 40.5466 23.7967 40.5466C23.9609 40.5466 24.1236 40.579 24.2754 40.6419C24.4272 40.7047 24.5651 40.7969 24.6813 40.9131C24.7974 41.0292 24.8896 41.1671 24.9525 41.3189C25.0153 41.4707 25.0477 41.6334 25.0477 41.7977V58.5367C25.0477 58.702 25.0149 58.8657 24.9513 59.0183C24.8876 59.1709 24.7944 59.3094 24.6769 59.4257C24.5594 59.5421 24.42 59.634 24.2667 59.6961C24.1135 59.7582 23.9495 59.7894 23.7841 59.7877ZM19.8809 57.2856H22.5331V52.5442C22.3579 52.957 22.1578 53.3699 21.9576 53.7952C21.3487 55.0063 20.6547 56.1727 19.8809 57.2856Z" fill="black"/>
</svg>
