<svg width="20" height="13" viewBox="0 0 20 13" fill="none" xmlns="http://www.w3.org/2000/svg">
<path d="M0 13V0H1V9H9.5V2H17C17.8253 2 18.5317 2.29367 19.119 2.881C19.7063 3.46833 20 4.17467 20 5V13H19V10H1V13H0ZM4.998 7.116C4.40933 7.116 3.91 6.91 3.5 6.498C3.09 6.086 2.885 5.586 2.885 4.998C2.885 4.41 3.09067 3.91067 3.502 3.5C3.91333 3.08933 4.41333 2.88433 5.002 2.885C5.59067 2.88567 6.09 3.09133 6.5 3.502C6.91 3.91267 7.11533 4.41267 7.116 5.002C7.11667 5.59133 6.91067 6.09067 6.498 6.5C6.08533 6.90933 5.58533 7.11467 4.998 7.116ZM10.5 9H19V5C19 4.45 18.8043 3.97933 18.413 3.588C18.0217 3.19667 17.5507 3.00067 17 3H10.5V9ZM5 6.116C5.30933 6.116 5.57267 6.00733 5.79 5.79C6.00733 5.57267 6.116 5.30933 6.116 5C6.116 4.69067 6.00733 4.42733 5.79 4.21C5.57267 3.99267 5.30933 3.88467 5 3.886C4.69067 3.88733 4.42733 3.996 4.21 4.212C3.99267 4.428 3.88433 4.691 3.885 5.001C3.88567 5.311 3.99433 5.57433 4.211 5.791C4.42767 6.00767 4.69067 6.11533 5 6.116Z" fill="#64CBB9"/>
</svg>
