<svg width="50" height="45" viewBox="0 0 50 45" fill="none" xmlns="http://www.w3.org/2000/svg">
<path d="M18.335 8.74918C18.2998 8.35654 18.2624 8.00774 18.2593 7.66118L18.2574 7.53049C18.2568 7.49893 18.2515 7.47407 18.2409 7.44782C18.22 7.39755 18.1784 7.35567 18.1289 7.33333C18.1041 7.32216 18.0773 7.31601 18.0496 7.31545L17.9097 7.3135L17.6249 7.31071L15.3461 7.2878L13.0676 7.25206L12.7827 7.24759L12.6423 7.24479C12.6104 7.24423 12.5789 7.24982 12.5493 7.26155C12.4901 7.28473 12.4395 7.33332 12.4141 7.39308C12.401 7.42324 12.3946 7.4534 12.3934 7.48971L12.3901 7.63213L12.363 8.77153L12.2731 8.67993L18.335 8.74918ZM18.4626 8.87848L12.2717 8.86145L12.1823 8.86118L12.1818 8.77013L12.1706 7.63074L12.1695 7.48804C12.1686 7.42968 12.1793 7.36461 12.2022 7.30708C12.2474 7.19007 12.3401 7.09315 12.456 7.04233C12.5138 7.01691 12.5772 7.00323 12.6403 7.00211L12.7844 7.00072L13.0693 7.00016L15.348 6.99654L17.6271 7.00547L17.9119 7.00659L18.0566 7.00771C18.1239 7.00882 18.1918 7.02335 18.2538 7.05071C18.3786 7.10461 18.478 7.21073 18.5249 7.33752C18.5489 7.39979 18.5596 7.47017 18.5582 7.53356L18.5545 7.68799C18.5459 8.10102 18.5031 8.51153 18.4626 8.87848Z" fill="#070E1D"/>
<path d="M37.624 8.88511C37.6042 8.51006 37.5914 8.15735 37.5897 7.80073L37.5891 7.66696C37.5888 7.63066 37.583 7.5991 37.5707 7.5681C37.5461 7.50611 37.4958 7.45556 37.4358 7.42847C37.4056 7.41507 37.373 7.40753 37.3395 7.40697L37.199 7.40529L36.9141 7.40249L34.6354 7.38043L32.3566 7.35866L32.0717 7.35586L31.931 7.35474C31.8958 7.35474 31.8609 7.36173 31.8288 7.37541C31.7643 7.40222 31.7107 7.4564 31.6847 7.52147C31.6713 7.55442 31.6649 7.58737 31.6643 7.62535L31.6629 7.76777L31.652 8.90716L31.5618 8.81584L37.624 8.88511ZM37.7514 9.0144L31.5607 8.99736L31.4702 8.99709L31.4705 8.90605L31.4755 7.76638L31.4761 7.62423C31.4761 7.56726 31.487 7.50526 31.5096 7.45025C31.554 7.33882 31.6436 7.24723 31.7542 7.20032C31.8095 7.17658 31.8696 7.16401 31.9293 7.16373L32.0731 7.164L32.358 7.16512L34.6368 7.17517L36.9155 7.18523L37.2004 7.18663L37.3445 7.18774C37.4062 7.18886 37.4679 7.20199 37.5246 7.22712C37.6388 7.27655 37.7296 7.37345 37.7732 7.48907C37.7955 7.54632 37.8055 7.60999 37.8044 7.66891L37.8016 7.82C37.7944 8.22269 37.7765 8.62958 37.7514 9.0144Z" fill="#070E1D"/>
<path d="M35.4892 7.21961C35.4007 5.7694 35.3079 4.44401 35.2931 3.13316L35.2839 2.64668C35.2789 2.49672 35.2613 2.34648 35.2214 2.2021C35.1479 1.91167 35.0097 1.63854 34.8212 1.40535C34.4442 0.937311 33.8597 0.646878 33.2576 0.637383L25.0032 0.554163L16.7482 0.433527C16.1201 0.425986 15.5002 0.714737 15.0874 1.19479C14.8827 1.43551 14.73 1.72121 14.6448 2.027C14.5993 2.1792 14.5769 2.33809 14.5677 2.49727C14.5571 2.65841 14.5582 2.83825 14.5526 3.00776L14.4507 7.1361L14.3605 7.04451L16.1757 7.05735L16.0844 7.14755L16.1084 3.73133L16.1143 2.87735C16.1215 2.73018 16.1014 2.60562 16.1344 2.43109C16.1726 2.26883 16.2779 2.12501 16.4195 2.03844C16.5558 1.94405 16.7501 1.93708 16.8794 1.94434L17.3064 1.94741L18.1607 1.95354L24.9928 2.00158L31.825 2.04989L32.679 2.05604L33.106 2.05883C33.2355 2.05352 33.4296 2.06302 33.5648 2.1588C33.7052 2.24733 33.8086 2.39255 33.8449 2.55536C33.8756 2.73018 33.8535 2.855 33.8588 3.0019L33.8527 3.85588L33.8284 7.2721L33.7382 7.18079C34.3219 7.18386 34.8988 7.19978 35.4892 7.21961ZM35.6165 7.3489C34.9968 7.36035 34.3635 7.36761 33.7371 7.36231L33.6463 7.36147L33.6469 7.27071L33.6712 3.85477L33.6773 3.00078C33.6737 2.86394 33.6899 2.70085 33.6676 2.59529C33.6421 2.47967 33.5681 2.37552 33.4676 2.31213C33.3618 2.24399 33.2573 2.237 33.1048 2.24035L32.6778 2.23757L31.8236 2.23142L24.9914 2.1831L18.1593 2.13479L17.3053 2.12893L16.8783 2.12586C16.7258 2.12028 16.6214 2.12586 16.5147 2.19288C16.4134 2.25488 16.3379 2.35821 16.3109 2.47326C16.2877 2.57882 16.3011 2.74191 16.2958 2.87875L16.2896 3.73274L16.2659 7.14895L16.2653 7.23943L16.1743 7.23887L14.3591 7.22603L14.27 7.22547L14.2692 7.13471L14.2248 3.00554C14.2251 2.83128 14.2181 2.66651 14.2242 2.48443C14.2295 2.3004 14.2505 2.11497 14.2982 1.93624C14.387 1.57655 14.5563 1.23669 14.7894 0.946535C15.2583 0.367065 15.9956 0.0109935 16.7473 0.00624609L25.0071 0.000110149L33.2668 0.0358496C34.0448 0.042552 34.8078 0.415646 35.2979 1.01913C35.5403 1.32297 35.7154 1.67988 35.8064 2.05716C35.855 2.24511 35.8765 2.43947 35.8807 2.63272C35.8871 2.82401 35.8748 2.99575 35.8715 3.17811C35.8371 4.61995 35.7249 6.04698 35.6165 7.3489Z" fill="#070E1D"/>
<path d="M48.8653 11.8056L48.7862 23.0459C48.777 24.3763 48.0152 25.562 46.8585 26.1365C46.6507 26.2401 46.4323 26.3241 46.2014 26.3861L25.2076 31.9876C24.7365 32.1133 24.2388 32.1096 23.7697 31.9775L2.85687 26.0812C2.62648 26.0161 2.40921 25.9293 2.20312 25.8226C1.05451 25.2317 0.309442 24.0356 0.318937 22.7049L0.397967 11.4649C0.408579 9.93087 1.66079 8.69625 3.19478 8.70715L46.1076 9.00874C47.6415 9.01963 48.8762 10.2718 48.8653 11.8056Z" fill="#FDC436"/>
<path d="M48.1882 11.8007C48.1834 11.2908 47.9849 10.8074 47.6671 10.4184C47.3518 10.026 46.8888 9.74424 46.3791 9.66381C46.156 9.6236 45.7902 9.62388 45.4606 9.6102L44.46 9.57641L42.4588 9.5091C39.7905 9.40969 37.1227 9.29408 34.4541 9.21142C31.786 9.11535 29.1177 9.04526 26.4488 9.01063L18.4429 8.9341L14.4397 8.89947L10.4364 8.89305L6.43321 8.88718L4.43146 8.88551L3.43059 8.88747L3.18121 8.88859L2.94746 8.90088C2.79275 8.92014 2.63888 8.94444 2.48975 8.98884C1.89129 9.15835 1.36265 9.55212 1.02782 10.0718C0.859981 10.331 0.737385 10.6195 0.675389 10.9213C0.608925 11.221 0.61786 11.5285 0.618139 11.8717L0.62568 15.8752L0.63322 19.8784L0.636851 21.8802L0.63769 22.3806C0.638527 22.5465 0.636293 22.7205 0.644671 22.8651C0.66003 23.1676 0.719514 23.4672 0.819769 23.7518C1.01888 24.322 1.38918 24.8292 1.86616 25.1933C2.10437 25.3743 2.36883 25.5254 2.6481 25.6329C2.91395 25.7359 3.25381 25.8088 3.57301 25.901L7.43716 26.9479L15.1643 29.0452L22.8901 31.1483L23.8541 31.4161C24.1356 31.4999 24.3822 31.5245 24.652 31.5075C24.7838 31.4977 24.9145 31.4762 25.0421 31.4427L25.5202 31.3137L26.4862 31.0523L30.3503 30.0061L45.8083 25.8275L46.0471 25.7627C46.1124 25.7452 46.1775 25.7245 46.2414 25.7019C46.3696 25.6558 46.4944 25.6033 46.6154 25.5365C46.8572 25.4103 47.0784 25.2495 47.2733 25.0604C47.6637 24.6823 47.9419 24.1899 48.0622 23.6616C48.0921 23.5292 48.1119 23.3952 48.1245 23.2597L48.1337 23.0564L48.1357 22.8095L48.1404 21.8089L48.1499 19.8072L48.1882 11.8007ZM49.542 11.8102L49.4678 19.8164L49.4493 21.8179L49.4401 22.8188L49.437 23.0726C49.4323 23.1712 49.43 23.2703 49.4222 23.3686C49.4035 23.5658 49.3734 23.7616 49.3287 23.9548C49.1491 24.7267 48.7408 25.4419 48.1697 25.9892C47.8852 26.2632 47.5596 26.4967 47.2091 26.6779C47.0371 26.7703 46.8533 26.8477 46.6673 26.9133C46.5738 26.946 46.4796 26.975 46.3841 27.001L46.1395 27.0658L30.6539 31.1433L26.7822 32.1612L25.8143 32.4162L25.3253 32.5441C25.1295 32.5938 24.9296 32.6254 24.7285 32.6382C24.3325 32.6661 23.9058 32.6111 23.5489 32.5002L22.5866 32.2252L14.8999 29.983L7.21514 27.7346L3.37306 26.6092C3.05386 26.5087 2.73886 26.44 2.38308 26.2975C2.04238 26.1582 1.72569 25.9686 1.43694 25.7407C0.861657 25.2846 0.424331 24.6602 0.195336 23.966C0.080001 23.6194 0.0152152 23.2564 0.00292772 22.8925C-0.0034953 22.7037 0.00236715 22.5442 0.00432198 22.3761L0.0124217 21.8757L0.0442579 19.8742L0.107927 15.8713L0.171879 11.8683C0.176627 11.6985 0.172157 11.5421 0.184724 11.3609C0.190868 11.181 0.220193 11.0032 0.257335 10.8275C0.336087 10.4765 0.484932 10.1425 0.684883 9.84562C1.08367 9.24996 1.70084 8.80899 2.39062 8.62719C2.56264 8.57944 2.73913 8.55404 2.91591 8.53588L3.18204 8.52666L3.4331 8.53001L4.43369 8.54593L6.43517 8.57245L10.4381 8.62273L14.4413 8.67272L18.4445 8.69422L26.451 8.73052C29.1199 8.73331 31.7891 8.70064 34.4583 8.64227C37.1274 8.59703 39.7969 8.51884 42.4661 8.45712L44.4681 8.41774L45.469 8.3982L45.9697 8.38843C46.0501 8.38591 46.135 8.38424 46.2437 8.38927C46.3456 8.39458 46.4481 8.39234 46.5495 8.40966C47.3666 8.49511 48.1494 8.90144 48.7031 9.52028C49.2631 10.138 49.5532 10.9842 49.542 11.8102Z" fill="#070E1D"/>
<path d="M46.8596 26.1365L46.7482 41.9891C46.7387 43.3106 45.6605 44.376 44.3371 44.3668L4.47019 44.0864C3.14705 44.0769 2.08362 42.9967 2.09283 41.6752L2.20426 25.8226C2.41035 25.9293 2.62762 26.0161 2.85801 26.0812L9.29695 27.8964L13.7626 29.157L23.7708 31.9776C24.24 32.1096 24.7376 32.1133 25.2087 31.9876L35.1572 29.3329L39.586 28.1511L46.2025 26.3862C46.4335 26.3242 46.6519 26.2401 46.8596 26.1365Z" fill="#FDC436"/>
<path d="M46.5003 26.7112C46.576 26.7673 46.6924 26.8173 46.8167 26.824C46.8781 26.8279 46.939 26.822 46.9929 26.8092C47.0381 26.8011 47.1135 26.7673 47.1135 26.7673L47.0655 26.7922L46.9683 26.8396C46.903 26.8695 46.8365 26.8983 46.7695 26.9251C46.6368 26.9795 46.4941 27.0253 46.3612 27.0608C46.1289 27.125 45.896 27.1887 45.6617 27.2462C45.1945 27.3671 44.7244 27.4775 44.2547 27.5889L41.4373 28.2591L35.7973 29.5806C33.9148 30.0123 32.039 30.4683 30.1601 30.9129C29.2198 31.1324 28.2843 31.3684 27.3474 31.601L25.9432 31.9532L25.242 32.1336C24.9954 32.1967 24.7407 32.2266 24.4869 32.2224C24.2328 32.2188 23.9798 32.1808 23.7362 32.1101L23.0409 31.9082L21.6485 31.5134L18.8631 30.7233L13.293 29.1435L7.71275 27.5987L4.92208 26.829L3.52633 26.4447L2.8279 26.2546C2.58494 26.1895 2.34534 26.0982 2.11969 25.9831L2.38415 25.8237L2.40426 35.711L2.41459 40.6547L2.41571 41.2722C2.41655 41.476 2.41348 41.6958 2.4266 41.8614C2.45927 42.2155 2.58634 42.5582 2.78741 42.8492C2.99267 43.1365 3.26634 43.3778 3.5861 43.5258C3.74304 43.6057 3.91339 43.6532 4.0843 43.6898C4.17143 43.7001 4.25689 43.7202 4.34513 43.7194L4.4775 43.7258L4.63193 43.7252L24.4062 43.6685L44.1799 43.7322L44.3343 43.7328L44.4497 43.7269C44.5262 43.728 44.6002 43.709 44.6753 43.7007C44.8222 43.6683 44.9685 43.6275 45.1029 43.558C45.3774 43.4312 45.6108 43.2231 45.7856 42.9782C45.9563 42.7294 46.0632 42.4398 46.0903 42.1404C46.1009 42.0106 46.0995 41.7885 46.1004 41.5939L46.1029 40.9985C46.1115 39.412 46.1286 37.837 46.1632 36.2625C46.2375 33.1144 46.3768 29.9447 46.5003 26.7112ZM47.2163 25.562C47.2934 28.919 47.3864 32.3408 47.4143 35.7833C47.4258 37.5044 47.4196 39.2246 47.4051 40.934L47.3989 41.5741C47.3953 41.7916 47.4012 41.9815 47.3788 42.263C47.3283 42.7836 47.137 43.291 46.8365 43.7174C46.5324 44.1411 46.125 44.4921 45.6497 44.7105C45.4151 44.8258 45.1618 44.8995 44.9065 44.9501C44.7775 44.9679 44.6488 44.9928 44.5186 44.9936L44.3254 45.0001L44.171 44.9984L24.3984 44.7842L4.62663 44.4496L4.47247 44.4471L4.29598 44.4362C4.17757 44.4329 4.0614 44.4064 3.94467 44.3879C3.71428 44.3351 3.48668 44.2634 3.27751 44.1531C2.85247 43.9453 2.49307 43.6183 2.2286 43.2304C1.96805 42.84 1.80832 42.3811 1.77452 41.9142C1.76112 41.6685 1.77089 41.4763 1.77285 41.268L1.7829 40.65L1.86249 35.7073L2.02195 25.8212L2.0267 25.524L2.28641 25.6617C2.48888 25.7689 2.70084 25.8544 2.92285 25.9186L3.61765 26.1214L5.00838 26.5226L7.79039 27.3239L13.355 28.9235L18.9304 30.4851L21.7183 31.2654L23.1121 31.6561L23.81 31.8465C24.0311 31.9063 24.2601 31.9364 24.4886 31.9359C24.7173 31.9353 24.9454 31.904 25.1652 31.8434L25.8625 31.6502L27.2555 31.2564C28.1835 30.9914 29.1126 30.7297 30.0372 30.4516C31.8876 29.9012 33.7414 29.3614 35.5884 28.7981L41.1371 27.1345L43.9138 26.3124C44.3765 26.1753 44.839 26.0365 45.3042 25.9091C45.536 25.8421 45.7695 25.7815 46.0029 25.7212C46.1034 25.6952 46.1909 25.6681 46.2844 25.6371L46.4207 25.5866L46.488 25.5595L46.5218 25.5452C46.5279 25.5416 46.6106 25.505 46.6628 25.4933C46.7234 25.4774 46.7913 25.4682 46.8591 25.469C46.9971 25.469 47.1269 25.5123 47.2163 25.562Z" fill="#070E1D"/>
<path d="M17.1094 42.4507L4.4826 42.3619C4.30387 42.3605 4.13631 42.2896 4.01037 42.1619C3.8847 42.0346 3.81628 41.8659 3.8174 41.6875L3.88247 32.4422L4.06399 32.4433L3.99892 41.6886C3.99808 41.8184 4.04807 41.9416 4.13967 42.0346C4.23154 42.1276 4.35358 42.1792 4.48399 42.1801L17.1108 42.2692L17.1094 42.4507Z" fill="#070E1D"/>
<path d="M24.413 42.5021L19.9351 42.4706L19.9365 42.2891L24.4144 42.3203L24.413 42.5021Z" fill="#070E1D"/>
<path d="M13.5625 34.9189C12.2622 34.872 10.9606 34.8254 9.66034 34.7784C9.4992 34.7726 9.3713 34.6411 9.36934 34.4802C9.34477 32.2852 9.32047 30.0916 9.2959 27.8963L13.7616 29.1569C13.797 30.9743 13.8272 32.7937 13.8741 34.6103C13.8786 34.784 13.7362 34.9253 13.5625 34.9189Z" fill="white"/>
<path d="M13.5701 34.6786C13.5955 34.6808 13.6207 34.6652 13.631 34.6412C13.6411 34.6613 13.6327 34.4742 13.6327 34.3647L13.6229 33.6213L13.6036 32.1342L13.5821 29.1604L13.7123 29.3288L13.7114 29.3285L9.25832 28.0252L9.42839 27.895V27.8961L9.53004 33.3691L9.54289 34.053L9.54931 34.3951L9.55182 34.4792C9.55238 34.4906 9.55517 34.5013 9.55825 34.5119C9.56579 34.5325 9.57919 34.551 9.5965 34.5647C9.6141 34.5778 9.63393 34.5853 9.65515 34.5876L9.80763 34.5912L10.1497 34.5976L10.8339 34.6113C11.7463 34.6275 12.6586 34.6476 13.5701 34.6786ZM13.5528 35.1598C12.6413 35.1249 11.7301 35.0791 10.8188 35.0299L10.1355 34.9942L9.79394 34.9763L9.70849 34.9718C9.67861 34.9699 9.6585 34.9704 9.60488 34.9646C9.51245 34.9509 9.42448 34.9107 9.35466 34.8503C9.28485 34.7903 9.23291 34.7102 9.2061 34.6219C9.19325 34.5778 9.18599 34.532 9.18571 34.4865L9.18599 34.3993L9.18459 34.0572L9.18208 33.3728L9.16114 27.8992V27.8981L9.15918 27.721L9.33121 27.7677L13.8083 28.9847L13.8092 28.985L13.9346 29.0191L13.9393 29.1534L14.0404 32.1245L14.0826 33.6099L14.1032 34.3524L14.1083 34.5381C14.1105 34.5786 14.1186 34.7115 14.0745 34.814C13.9974 35.0238 13.7773 35.1701 13.5528 35.1598Z" fill="#070E1D"/>
<path d="M11.4317 34.1156C10.9837 34.1288 10.5364 34.1324 10.089 34.1276L10.0337 34.1274L10.0309 34.0682C10.0091 33.6342 10.0007 33.2002 9.99235 32.7662C9.98007 32.3323 9.9756 31.8983 9.97811 31.464C9.97253 30.5961 9.98872 29.7279 10.0328 28.8591C10.0965 29.7265 10.132 30.5941 10.1462 31.4624C10.1582 31.8961 10.1635 32.3303 10.161 32.7646C10.1621 33.1983 10.1635 33.6325 10.1518 34.0668L10.0934 34.007C10.5397 34.0344 10.9857 34.0701 11.4317 34.1156Z" fill="#070E1D"/>
<path d="M37.4688 34.2987C37.9153 34.2593 38.3618 34.23 38.8084 34.2085L38.7492 34.2674C38.7436 33.8334 38.7511 33.3992 38.7584 32.9652C38.762 32.5312 38.7735 32.0973 38.7916 31.6636C38.8179 30.7959 38.8653 29.9285 38.9413 29.0622C38.9734 29.9313 38.9773 30.7998 38.9597 31.6678C38.9558 32.102 38.9455 32.5357 38.9271 32.9694C38.9125 33.4034 38.898 33.8371 38.8704 34.2705L38.8665 34.33L38.8112 34.3297C38.3641 34.3277 37.9164 34.318 37.4688 34.2987Z" fill="#070E1D"/>
<path d="M39.4098 35.1008C38.1092 35.0538 36.8076 35.0069 35.506 34.9603C35.3448 34.9541 35.2166 34.8229 35.215 34.6618C35.1963 32.8843 35.1759 31.1084 35.1558 29.3329L39.5846 28.151C39.6312 30.3647 39.663 32.5796 39.7211 34.7916C39.7256 34.9653 39.5835 35.1069 39.4098 35.1008Z" fill="white"/>
<path d="M39.4234 34.747C39.3963 34.7462 39.3737 34.7685 39.3711 34.7942L39.3658 34.4007L39.3636 33.5088L39.3854 31.7237C39.3926 31.1289 39.4094 30.5338 39.4088 29.939L39.4058 28.155L39.632 28.3248L35.1953 29.4773L35.3065 29.3313L35.3897 34.1782L35.395 34.4812L35.3986 34.6328C35.4003 34.6859 35.4028 34.682 35.4126 34.706C35.4299 34.7409 35.4662 34.7635 35.502 34.7666L35.7846 34.7674C36.1887 34.7691 36.5933 34.756 36.9977 34.749C37.8067 34.7333 38.616 34.7127 39.4234 34.747ZM39.398 35.4544C38.5903 35.4307 37.7847 35.3516 36.979 35.2782C36.576 35.2419 36.173 35.1997 35.7698 35.1726L35.447 35.148C35.2825 35.1226 35.137 35.0098 35.073 34.859C35.039 34.7909 35.0297 34.6845 35.0328 34.6367L35.0331 34.4851L35.0317 34.1821L35.0074 29.3344L35.0068 29.2187L35.1183 29.1883L39.5393 27.9774L39.7562 27.9179L39.7655 28.1472L39.8358 29.9295C39.8596 30.5235 39.9006 31.1169 39.9325 31.7106L40.0277 33.492L40.062 34.3829L40.0682 34.6054L40.071 34.7169L40.0727 34.7727C40.0727 34.7898 40.0738 34.8459 40.0679 34.8808C40.0366 35.2078 39.7261 35.4717 39.398 35.4544Z" fill="#070E1D"/>
<path d="M0.356934 17.2555C0.904845 16.5643 1.4536 15.8754 1.99062 15.1775C2.52736 14.4793 3.0627 13.7806 3.57682 13.066C4.1024 12.36 4.60758 11.639 5.11053 10.9162C5.61376 10.1935 6.1047 9.46239 6.59816 8.73128C6.16893 9.50204 5.70647 10.2538 5.22642 10.9941C4.74637 11.7347 4.23868 12.4569 3.72316 13.1729C3.19535 13.8809 2.66057 14.5829 2.09953 15.2641C1.53849 15.9452 0.961536 16.6132 0.356934 17.2555Z" fill="#070E1D"/>
<path d="M0.883789 24.6259L1.73386 23.7043L2.57081 22.7711L3.40105 21.8327L4.21845 20.8832C5.30031 19.6104 6.35872 18.3179 7.37272 16.9912C8.39873 15.673 9.38117 14.3222 10.3371 12.9522L11.0484 11.9209L11.7454 10.8795L12.4355 9.8331L13.1107 8.77694L12.4732 9.85656L11.82 10.9275L11.1439 11.9843L10.4524 13.0312C9.51856 14.4194 8.53305 15.7727 7.51654 17.102C6.48829 18.4218 5.42961 19.719 4.32346 20.974L3.48623 21.9087L2.63588 22.8308L1.76598 23.7348L0.883789 24.6259Z" fill="#070E1D"/>
<path d="M5.72266 26.8893L6.74392 25.8603L7.74814 24.815L8.74148 23.7599L9.7175 22.6892C11.0088 21.2527 12.2652 19.7852 13.4658 18.2724C14.6777 16.7686 15.8347 15.2212 16.9526 13.6461L17.7826 12.4587L18.5938 11.2579L19.3931 10.0487L20.1725 8.82635L19.4308 10.0724L18.6681 11.3062L17.8778 12.5227L17.0668 13.726C15.971 15.3203 14.8107 16.8705 13.6073 18.3855C12.3925 19.8919 11.1356 21.3641 9.82027 22.7831L8.82442 23.8384L7.81126 24.8767L6.77492 25.8915L5.72266 26.8893Z" fill="#070E1D"/>
<path d="M11.1919 28.431L12.3371 27.3338L13.4626 26.2165L14.5738 25.086L15.6651 23.9363C17.1072 22.3917 18.5063 20.8069 19.8406 19.1687C21.1861 17.5395 22.4676 15.8584 23.7 14.1414L24.6141 12.8465L25.5055 11.5359L26.3815 10.2139L27.2335 8.87623L26.4189 10.2376L25.58 11.5845L24.7087 12.9113L23.814 14.2222C22.6031 15.9583 21.3179 17.6426 19.9808 19.2835C18.6323 20.9155 17.2323 22.5054 15.7659 24.0318L14.6553 25.1662L13.5243 26.2796L12.3676 27.3659L11.1919 28.431Z" fill="#070E1D"/>
<path d="M16.6006 29.9557L17.876 28.7949L19.1282 27.6097L20.3628 26.4072L21.5742 25.1812C23.1744 23.5324 24.7224 21.8328 26.1957 20.0701C27.6803 18.3166 29.0906 16.5012 30.4411 14.6424L31.442 13.2394L32.4157 11.8171L33.3697 10.3808L34.2955 8.92589L33.4071 10.4046L32.4898 11.866L31.5363 13.3042L30.5547 14.7237C29.2255 16.6025 27.811 18.4208 26.3345 20.1869C24.8469 21.9431 23.2976 23.648 21.6734 25.2787L20.4427 26.4887L19.1885 27.6739L17.9056 28.8275L16.6006 29.9557Z" fill="#070E1D"/>
<path d="M22.4453 31.6034L23.7997 30.3453L25.1271 29.059L26.4343 27.7532L27.7169 26.4233C29.4109 24.6352 31.0527 22.7974 32.6244 20.9009C34.2073 19.0137 35.72 17.0683 37.1755 15.0808L38.2549 13.5815L39.3077 12.0628L40.3393 10.5294L41.3405 8.97532L40.3767 10.5534L39.3817 12.1123L38.349 13.6471L37.2884 15.1626C35.8544 17.17 34.338 19.1178 32.7635 21.0168C31.1778 22.9066 29.5355 24.7495 27.8169 26.5194L26.5153 27.8339L25.1882 29.1227L23.8299 30.3777L22.4453 31.6034Z" fill="#070E1D"/>
<path d="M30.7837 30.4999L31.9976 29.3256L33.1895 28.1295L34.3663 26.9192L35.5228 25.6899C37.052 24.0389 38.5399 22.3497 39.9681 20.6104C41.4074 18.8809 42.7864 17.1015 44.121 15.2893L45.1118 13.9229L46.0805 12.5403L47.0334 11.1462L47.9614 9.73509L47.0705 11.1705L46.1543 12.59L45.2056 13.9885L44.2338 15.3714C42.921 17.2031 41.5383 18.9845 40.1077 20.7257C38.6659 22.4577 37.1774 24.1523 35.6241 25.7849L34.4482 26.9988L33.2518 28.1924L32.0281 29.3575L30.7837 30.4999Z" fill="#070E1D"/>
<path d="M40.1099 28.0115C40.4897 27.6353 40.8664 27.2564 41.2403 26.8749L42.3627 25.7319C43.1052 24.9644 43.8458 24.1953 44.5658 23.4073C45.2966 22.629 46.0076 21.8322 46.7152 21.033C47.0696 20.6334 47.4207 20.2309 47.7695 19.8266C48.1216 19.4247 48.4707 19.0203 48.817 18.6129C48.4939 19.0388 48.1674 19.4621 47.8379 19.8833C47.5028 20.2999 47.1632 20.7127 46.8211 21.124C46.1338 21.9437 45.4206 22.741 44.699 23.5304C43.9662 24.3099 43.2264 25.0826 42.4612 25.8299C42.0773 26.2024 41.6913 26.5724 41.3015 26.938C40.9069 27.2991 40.5098 27.6568 40.1099 28.0115Z" fill="#070E1D"/>
</svg>
