<svg width="52" height="70" viewBox="0 0 52 70" fill="none" xmlns="http://www.w3.org/2000/svg">
<path d="M42.466 42.5303L37.8053 69.5706H14.2672L9.60645 42.5303H42.466Z" fill="#FDC436"/>
<path d="M14.6331 69.1356H37.4457L41.9556 42.9594H10.1232L14.6331 69.1356ZM37.8085 70H14.2703C14.0585 70 13.882 69.8485 13.8435 69.6411L9.18266 42.6009C9.1634 42.4754 9.1955 42.3466 9.27896 42.2491C9.36242 42.1518 9.48121 42.0953 9.6096 42.0953H42.4692C42.5976 42.0953 42.7164 42.1518 42.7998 42.2491C42.8833 42.3466 42.9186 42.4754 42.8961 42.6009L38.2354 69.6411C38.2001 69.8485 38.0203 70 37.8085 70Z" fill="#070E1D"/>
<path d="M11.5033 3.24774L0.429199 19.8062L28.8046 13.1261L11.5033 3.24774Z" fill="#64CBB9"/>
<path d="M11.6447 3.81985L1.40196 19.1312L27.6395 12.9542L11.6447 3.81985ZM0.432533 20.2351C0.291298 20.2351 0.159705 20.1674 0.0762478 20.0493C-0.0232587 19.9032 -0.026456 19.7109 0.0730505 19.5633L11.1504 3.00484C11.2755 2.8161 11.5259 2.75736 11.7217 2.86971L29.023 12.7478C29.1771 12.836 29.2606 13.0094 29.2349 13.185C29.2092 13.3609 29.0808 13.503 28.9074 13.5438L0.532027 20.2239C0.496718 20.2319 0.464632 20.2351 0.432533 20.2351Z" fill="#070E1D"/>
<path d="M14.6339 69.1356H37.4466L44.5404 27.9928H7.54328L14.6339 69.1356ZM37.8093 70H14.2712C14.0593 70 13.8828 69.8485 13.8443 69.6411L6.60282 27.6342C6.58035 27.509 6.61566 27.38 6.69911 27.2824C6.77936 27.1852 6.9013 27.1287 7.02969 27.1287H45.054C45.1792 27.1287 45.3012 27.1852 45.3815 27.2827C45.4649 27.38 45.5002 27.509 45.4777 27.6342L38.2363 69.6411C38.2009 69.8485 38.0212 70 37.8093 70Z" fill="#070E1D"/>
<path d="M26.0396 62.9675L19.18 66.1096L16.0376 59.2508L22.8971 56.1093L26.0396 62.9675Z" fill="#A6EDE9"/>
<path d="M16.6112 59.4671L19.391 65.5402L25.4641 62.7582L22.6811 56.6854L16.6112 59.4671ZM19.1791 66.5452C19.1277 66.5452 19.0764 66.5362 19.0282 66.5182C18.9223 66.4781 18.8324 66.3972 18.7875 66.2932L15.645 59.4343C15.5969 59.33 15.5904 59.2116 15.6322 59.104C15.6707 58.9965 15.7541 58.9092 15.8568 58.8617L22.7164 55.7202C22.9315 55.6207 23.1882 55.716 23.2877 55.933L26.4302 62.7912C26.5297 63.0085 26.4335 63.2647 26.2184 63.3639L19.3589 66.5057C19.3011 66.5317 19.2401 66.5452 19.1791 66.5452Z" fill="#070E1D"/>
<path d="M31.3129 58.6523L26.3022 54.5764L30.3788 49.5671L35.3894 53.6433L31.3129 58.6523Z" fill="#A6EDE9"/>
<path d="M26.9142 54.5115L31.254 58.0423L34.7816 53.7032L30.4451 50.1727L26.9142 54.5115ZM31.3149 59.082C31.2154 59.082 31.1191 59.048 31.0421 58.9851L26.0315 54.9089C25.8485 54.7583 25.8196 54.4861 25.9705 54.3012L30.047 49.2922C30.1177 49.203 30.2236 49.1468 30.3359 49.135C30.4515 49.1237 30.5671 49.1574 30.6537 49.2293L35.6643 53.3059C35.8473 53.4561 35.8762 53.7283 35.7253 53.9132L31.6488 58.9228C31.5782 59.0114 31.4722 59.0682 31.3599 59.0798C31.3438 59.0814 31.3278 59.082 31.3149 59.082Z" fill="#070E1D"/>
<path d="M20.7539 42.9622C20.5581 42.9622 20.3816 42.828 20.3334 42.6293L11.0857 3.3472C11.0312 3.11513 11.1756 2.88208 11.4067 2.82751C11.6411 2.77262 11.8721 2.91676 11.9267 3.14916L21.1745 42.4312C21.229 42.6636 21.0878 42.896 20.8535 42.9509C20.8214 42.9589 20.786 42.9622 20.7539 42.9622Z" fill="#070E1D"/>
<path d="M7.57504 18.5583C7.53653 18.5583 7.50122 18.5538 7.4627 18.5439C7.23159 18.4829 7.09357 18.2463 7.15456 18.0156L11.0931 3.13749C11.1541 2.9067 11.3916 2.76995 11.6227 2.83029C11.8538 2.89128 11.9918 3.12817 11.9308 3.35864L7.99233 18.2367C7.94097 18.4306 7.76443 18.5583 7.57504 18.5583Z" fill="#070E1D"/>
<path d="M21.6683 15.241C21.5495 15.241 21.4307 15.1915 21.3441 15.094L11.1816 3.53522C11.0243 3.35611 11.0435 3.08327 11.2201 2.92535C11.3998 2.76838 11.6727 2.78506 11.83 2.96481L21.9925 14.5236C22.1498 14.703 22.1337 14.9755 21.9539 15.1334C21.8737 15.2057 21.771 15.241 21.6683 15.241Z" fill="#070E1D"/>
<path d="M30.173 42.9622C30.1248 42.9622 30.0767 42.9544 30.0285 42.9377C29.8038 42.8588 29.6851 42.6123 29.7653 42.3869L41.536 8.88454C41.5841 8.74555 41.6997 8.64124 41.8442 8.60722C41.9854 8.57415 42.1362 8.61428 42.2421 8.71699L43.8952 10.3142L43.5935 6.99006C43.5807 6.8408 43.6449 6.69477 43.7668 6.60521C43.8856 6.5147 44.0461 6.49479 44.1841 6.54935L46.6493 7.52837L45.6928 4.45363C45.651 4.31464 45.6799 4.16345 45.773 4.05142C45.8629 3.93908 46.0041 3.881 46.1518 3.89544L49.3103 4.22411L50.8639 0.274055C50.9538 0.0522537 51.2042 -0.057518 51.4257 0.0304298C51.6472 0.117741 51.7563 0.368752 51.6696 0.590874L49.994 4.84618C49.9234 5.02657 49.7405 5.13414 49.5479 5.11776L46.7135 4.82308L47.7407 8.13567C47.7921 8.29456 47.7439 8.46758 47.622 8.58057C47.5 8.69388 47.3234 8.72629 47.1693 8.6653L44.518 7.61247L44.8615 11.3931C44.8775 11.5728 44.7812 11.7439 44.6174 11.8219C44.457 11.9005 44.2612 11.8684 44.1328 11.7432L42.1266 9.8064L30.5807 42.6736C30.5165 42.8514 30.3527 42.9622 30.173 42.9622Z" fill="#070E1D"/>
</svg>
