<svg width="23" height="45" viewBox="0 0 23 45" fill="none" xmlns="http://www.w3.org/2000/svg">
<path d="M13.0736 4.72373C12.1872 4.71662 11.3184 4.70574 10.4408 4.68041L10.5408 4.58554V4.58865L10.012 20.9948L9.73654 29.1973L9.59879 33.2987L9.53213 35.3492L9.52326 35.6058L9.51881 35.7338C9.52103 35.7682 9.51658 35.8031 9.52547 35.8369C9.54325 35.9737 9.60991 36.1039 9.71211 36.2101C9.91207 36.4272 10.2253 36.5409 10.5319 36.5483C10.8385 36.5605 11.1518 36.4534 11.3651 36.2499C11.4695 36.149 11.5428 36.0219 11.5673 35.8871C11.5784 35.826 11.5784 35.7382 11.5851 35.6522L11.5962 35.3967L11.6872 33.3543L11.8717 29.2702L12.2471 21.1057C12.4982 15.6599 12.7515 10.235 13.0736 4.72373ZM13.2158 4.58998C13.0381 10.0102 12.7937 15.5168 12.5471 21.0028L12.1738 29.2356L11.985 33.35L11.8894 35.4069L11.8783 35.664C11.8717 35.7484 11.8739 35.8326 11.8561 35.9402C11.8183 36.1426 11.7117 36.3248 11.5695 36.4598C11.2851 36.73 10.8963 36.8524 10.5231 36.8393C10.152 36.8287 9.76764 36.6956 9.49881 36.4074C9.3655 36.2657 9.26554 36.0801 9.23888 35.8762C9.22777 35.8262 9.2322 35.7744 9.22998 35.7238L9.23443 35.5956L9.2433 35.3392L9.3144 33.2887L9.45882 29.1876L9.74765 20.9855L10.3453 4.58199V4.57887C10.3475 4.52511 10.392 4.48289 10.4453 4.484C11.3695 4.50867 12.3005 4.54733 13.2158 4.58998Z" fill="#070E1D"/>
<path d="M13.3993 13.3335C12.1729 13.8883 10.8821 13.897 9.51123 13.226L9.80674 1.1094C9.82007 0.558621 10.2778 0.123602 10.8288 0.13871L12.8061 0.193142C13.3571 0.20825 13.7904 0.668375 13.7726 1.21893L13.3993 13.3335Z" fill="#82C544"/>
<path d="M13.2447 13.2309L13.4668 5.95863L13.5868 2.31938L13.6157 1.40913C13.6179 1.33514 13.6246 1.25249 13.6224 1.18606C13.6224 1.12096 13.6157 1.05564 13.6001 0.992767C13.5713 0.865905 13.5135 0.745928 13.4291 0.646393C13.2602 0.441102 13.0114 0.330013 12.7292 0.335568L11.8116 0.307573L10.894 0.279579C10.6119 0.256473 10.3541 0.352456 10.1697 0.549304C10.0786 0.64484 10.012 0.762372 9.97421 0.889235C9.95422 0.951889 9.94533 1.01788 9.94089 1.08386C9.93644 1.15118 9.93643 1.23427 9.93199 1.30848L9.90756 2.2254L9.80758 5.89309L9.60762 13.2285L9.55429 13.138V13.1387C10.1542 13.4149 10.7985 13.5879 11.4495 13.5948C11.7716 13.5993 12.096 13.5633 12.4093 13.4895C12.567 13.452 12.7225 13.4051 12.8736 13.3522L13.1002 13.2645C13.1447 13.2416 13.1869 13.2347 13.2447 13.2309ZM13.5513 13.436C13.4535 13.4975 13.3402 13.5559 13.2313 13.5984L12.9847 13.6824C12.8181 13.7324 12.6492 13.7757 12.4781 13.8088C12.136 13.8737 11.785 13.8974 11.4384 13.8779C10.743 13.8403 10.0742 13.6264 9.46765 13.3151V13.3144C9.43211 13.2976 9.41211 13.2622 9.41211 13.2256V13.2236L9.56763 5.88731L9.64761 2.21918L9.66538 1.30203C9.6676 1.22383 9.66762 1.15362 9.67206 1.06853C9.67873 0.982323 9.68983 0.895674 9.7165 0.812802C9.76537 0.645725 9.85202 0.490426 9.972 0.364007C10.0898 0.237144 10.2364 0.134942 10.3986 0.0740662C10.5585 0.010746 10.7496 -0.00613976 10.9029 0.00185871L11.8205 0.0245209L12.7359 0.047184C12.8914 0.0467396 13.0825 0.0731812 13.238 0.144722C13.4002 0.214485 13.5424 0.324682 13.6557 0.45821C13.769 0.59196 13.849 0.753037 13.889 0.924335C13.9112 1.00965 13.9201 1.09763 13.9201 1.18539C13.9223 1.2716 13.9179 1.34181 13.9156 1.42068L13.889 2.34404L13.7823 6.03905L13.5513 13.436Z" fill="#070E1D"/>
<path d="M10.1239 10.4775C10.1105 9.59506 10.115 8.71302 10.1216 7.83098C10.1283 6.94894 10.1527 6.06734 10.1661 5.18552L10.2505 2.54096L10.2772 1.88021C10.2883 1.64915 10.3705 1.41875 10.5216 1.24457C10.6726 1.06993 10.8793 0.947515 11.1014 0.905301C11.3258 0.860422 11.5458 0.906854 11.7657 0.913297L11.4347 0.917522C11.3236 0.9153 11.2147 0.921966 11.1103 0.950404C10.9015 1.00306 10.7171 1.13037 10.5882 1.29855C10.3016 1.63493 10.4083 2.1075 10.3838 2.5443L10.3394 5.18974C10.3105 6.07134 10.2905 6.95294 10.2549 7.83431C10.2194 8.71546 10.1816 9.59683 10.1239 10.4775Z" fill="#070E1D"/>
<path d="M14.3502 11.6471C14.2058 11.6428 14.0925 11.5226 14.097 11.3782L14.3413 2.47607C14.3436 2.41964 14.2991 2.37298 14.2436 2.37143L13.7393 2.35743L13.7548 1.83421L14.2569 1.84798C14.6035 1.85753 14.8746 2.14525 14.8657 2.49073L14.6191 11.3925C14.6168 11.5371 14.4947 11.6508 14.3502 11.6471Z" fill="#82C544"/>
<path d="M14.351 11.5597C14.4266 11.5628 14.5021 11.5104 14.5221 11.4382C14.5288 11.4188 14.531 11.4053 14.531 11.3793L14.5332 11.2949L14.5377 11.126L14.5577 10.4513L14.5954 9.10132L14.6688 6.40166L14.7443 3.70222L14.7621 3.02725L14.771 2.68976C14.771 2.57645 14.7865 2.46114 14.7665 2.37183C14.7332 2.18053 14.5888 2.01279 14.4021 1.95147C14.3555 1.93369 14.3066 1.92659 14.2555 1.92103L14.0866 1.91037L13.7512 1.88237L13.8001 1.83549V1.83683L13.7867 2.35872L13.7401 2.30917L14.0533 2.31673L14.2088 2.32028L14.2489 2.32162C14.2689 2.32273 14.2888 2.32761 14.3044 2.33606C14.3399 2.35316 14.3688 2.38338 14.3822 2.42004C14.3888 2.43826 14.391 2.45781 14.391 2.47714V2.51624L14.3888 2.59445L14.3844 2.7502L14.3777 3.0619L14.3488 4.30898L14.2888 6.80313L14.2311 9.29728L14.2 10.5444L14.1866 11.1678C14.1888 11.2658 14.1689 11.3942 14.1911 11.4455C14.2155 11.5117 14.2822 11.5593 14.351 11.5597ZM14.3466 11.7341C14.2066 11.7319 14.0755 11.6364 14.0311 11.505C14.0044 11.4399 14.0089 11.3633 14.0111 11.3189L14.0156 11.1631L14.0356 10.5397L14.0755 9.29284L14.1533 6.79936L14.2333 4.30587L14.2711 3.0588L14.2822 2.7473L14.2866 2.59156L14.2888 2.51335L14.2911 2.47469C14.2911 2.46803 14.2888 2.46159 14.2866 2.45559C14.2822 2.44315 14.2733 2.43248 14.2622 2.42693C14.2511 2.42048 14.2355 2.42137 14.2066 2.42026L14.0489 2.41537L13.7378 2.4056H13.7356C13.709 2.40471 13.689 2.38249 13.689 2.35606L13.7045 1.83438V1.83283C13.7045 1.80728 13.7245 1.78684 13.7512 1.78617L13.7534 1.78595L14.0911 1.77639L14.26 1.77528C14.3244 1.77728 14.3866 1.78306 14.4466 1.80128C14.691 1.87104 14.8909 2.08478 14.9376 2.33895C14.962 2.47203 14.9443 2.58356 14.9465 2.69465L14.9376 3.03191L14.9176 3.70688L14.8443 6.40655L14.7687 9.10621L14.731 10.4559L14.7132 11.1307L14.7087 11.2995L14.7065 11.384C14.7043 11.414 14.7021 11.4568 14.6888 11.4913C14.6465 11.6364 14.4977 11.7403 14.3466 11.7341Z" fill="#070E1D"/>
<path d="M4.55206 6.52065C4.58983 6.5713 10.4197 37.1545 10.4197 37.1545C10.4753 37.4407 10.3242 37.7377 10.0398 37.9688C9.83764 38.1374 9.56881 38.271 9.2622 38.3427C8.48014 38.5282 7.7425 38.2545 7.63808 37.7395L1.35938 7.21272C2.51469 7.20517 4.49874 6.49243 4.55206 6.52065Z" fill="#60CADA"/>
<path d="M4.42932 6.66463C4.45154 6.68418 4.48485 6.70017 4.51596 6.70551C4.52262 6.70684 4.53151 6.70751 4.53817 6.70795L4.54041 6.70817H4.54707L4.56039 6.70728C4.56261 6.70706 4.56261 6.70662 4.56039 6.70706L4.54484 6.70995L4.5004 6.72017L4.40487 6.74439L4.20714 6.79749L3.81165 6.90369C3.54504 6.97368 3.27845 7.03989 3.00739 7.09965C2.46972 7.21518 1.92539 7.32272 1.35883 7.32071L1.46326 7.19096L4.81145 23.3687L6.48667 31.4577L7.32204 35.5022L7.74197 37.5242C7.77974 37.7084 7.79528 37.8304 7.89304 37.9335C7.98413 38.0379 8.11301 38.1197 8.25742 38.1697C8.54847 38.271 8.88174 38.2761 9.19501 38.205C9.50828 38.1379 9.806 37.9953 10.0282 37.778C10.1393 37.6715 10.2237 37.5451 10.2615 37.4127C10.2792 37.3469 10.2859 37.2803 10.277 37.2159C10.2659 37.151 10.2459 37.0517 10.2303 36.9717L9.84154 34.9437L9.06392 30.8876L7.50423 22.776L5.94234 14.6648L5.16027 10.6096L4.76701 8.58245L4.56929 7.56911L4.46931 7.06299L4.42042 6.81038L4.39376 6.68462L4.3871 6.65307C4.3871 6.64997 4.38932 6.65707 4.39376 6.65885C4.40042 6.66485 4.41377 6.66863 4.42932 6.66463ZM4.67372 6.37691C4.69815 6.41468 4.72258 6.46067 4.73813 6.50888C4.74702 6.53154 4.75368 6.55954 4.7559 6.57754L4.76259 6.60931L4.78923 6.73661L4.83811 6.99056L4.93588 7.49779L5.13139 8.5118L5.5202 10.5403L6.29337 14.5977L7.83528 22.7126L9.37496 30.8285L10.1437 34.8863L10.5281 36.9153C10.5436 37.0048 10.5592 37.0737 10.5747 37.1792C10.588 37.2854 10.5769 37.3936 10.5503 37.4931C10.4925 37.694 10.3748 37.8588 10.237 37.9919C9.96595 38.2556 9.61492 38.4187 9.25721 38.4947C8.90173 38.5736 8.51959 38.5716 8.15744 38.4461C7.9797 38.383 7.80417 38.2792 7.67087 38.1228C7.60199 38.0452 7.54868 37.9513 7.51758 37.85C7.48203 37.7389 7.47757 37.6724 7.45535 37.5827L7.04211 35.5598L6.21561 31.5133L4.56039 23.4203L1.25219 7.23451C1.23886 7.17652 1.27662 7.11942 1.33438 7.1072C1.34105 7.10565 1.34993 7.10476 1.3566 7.10476C1.88538 7.08143 2.4164 6.95168 2.93629 6.81215C3.19846 6.74061 3.4584 6.66218 3.71612 6.58042L4.10493 6.45556L4.30268 6.39224L4.40266 6.36113L4.4582 6.34558L4.49153 6.33781L4.51819 6.33358L4.54484 6.33181H4.55373L4.55818 6.33203C4.56484 6.33247 4.57372 6.33336 4.58261 6.33492C4.61594 6.34047 4.64928 6.35691 4.67372 6.37691Z" fill="#070E1D"/>
<path d="M3.08936 7.03433L3.90253 10.9395L4.69792 14.8485L6.25982 22.6715L7.78397 30.5026L8.53268 34.4209L9.26144 38.3425L8.44826 34.4373L7.65287 30.5286L6.08874 22.7053L4.56683 14.8743L3.81811 10.956L3.08936 7.03433Z" fill="#070E1D"/>
<path d="M4.32221 6.52051C4.32221 6.5514 4.31999 6.52162 4.3111 6.50185L4.28222 6.42631L4.21336 6.26635L4.05783 5.94197L3.73344 5.2941L3.0558 4.00459L2.36706 2.71708L1.70276 1.41423L1.71608 1.43379C1.73164 1.45778 1.7583 1.47423 1.77607 1.47889C1.79607 1.48445 1.8094 1.48355 1.82051 1.48111C1.83384 1.478 1.84495 1.47356 1.8605 1.46045C1.87605 1.44823 1.89162 1.42246 1.89606 1.39513L1.90048 1.37247L1.69165 4.2963L1.46503 7.21881L1.35839 7.10417C1.62722 7.08218 1.89606 7.05107 2.16267 7.00464C2.4315 6.96442 2.69812 6.91554 2.96251 6.85778C3.2269 6.79779 3.49127 6.74025 3.749 6.66493C3.87786 6.62782 4.00451 6.59005 4.12449 6.54473C4.18225 6.52229 4.24223 6.49807 4.28888 6.47252C4.31332 6.46008 4.33555 6.44653 4.34666 6.43742C4.35111 6.43342 4.35332 6.43009 4.34888 6.43609C4.34665 6.44053 4.32443 6.46119 4.32221 6.52051ZM4.73769 6.52007C4.73546 6.61427 4.69547 6.6667 4.67103 6.69714C4.64437 6.72958 4.61994 6.74958 4.59772 6.76602C4.5555 6.79846 4.51774 6.81956 4.47997 6.83889C4.40665 6.87666 4.33554 6.90377 4.26667 6.92954C4.12892 6.97953 3.99118 7.02041 3.85343 7.05552C3.58015 7.12328 3.30688 7.18104 3.02916 7.22059C2.75366 7.26147 2.47593 7.29458 2.19821 7.31613C1.91827 7.33057 1.63832 7.34301 1.35615 7.32013C1.29616 7.31968 1.24951 7.27058 1.24951 7.21082V7.20726V7.2057L1.3806 4.2772L1.53389 1.35003L1.53613 1.33248V1.32714C1.54724 1.26827 1.58056 1.21383 1.62055 1.18117C1.66054 1.14762 1.70275 1.12918 1.74496 1.11985C1.7894 1.11096 1.83385 1.11052 1.88495 1.12496C1.93383 1.13874 1.98713 1.17406 2.02268 1.22472C2.0249 1.23072 2.02935 1.23783 2.03379 1.24405L2.70922 2.53489L3.40463 3.81663L4.09337 5.10703L4.42664 5.76045L4.58882 6.09416L4.66437 6.26834L4.70215 6.36277C4.71325 6.40031 4.73102 6.42809 4.73769 6.52007Z" fill="#070E1D"/>
<path d="M2.62603 2.79936C2.29499 2.85179 1.95951 2.87623 1.62402 2.87579L1.71511 1.36099C1.72844 1.29567 1.83065 1.27478 1.86842 1.32899L2.62603 2.79936Z" fill="#FF6F4C"/>
<path d="M1.81759 1.46563L1.73759 2.76714C1.98199 2.76292 2.2264 2.74537 2.4619 2.71448L1.81759 1.46563ZM1.63095 2.98376C1.59763 2.98354 1.56651 2.97354 1.5443 2.94977C1.5243 2.92822 1.5132 2.89889 1.51542 2.86934L1.60874 1.35454C1.62429 1.26812 1.68205 1.2108 1.75981 1.19458C1.83757 1.17769 1.91534 1.20724 1.95756 1.26834L2.72183 2.75003C2.73961 2.7807 2.73962 2.81735 2.72407 2.84823C2.70851 2.87912 2.6774 2.90067 2.64407 2.906C2.31747 2.95755 1.97533 2.98376 1.63095 2.98376Z" fill="#070E1D"/>
<path d="M10.8843 37.7096L18.2139 7.3923C18.2828 7.10881 18.5427 6.90107 18.8982 6.80798C19.1493 6.73799 19.4514 6.72777 19.7602 6.78931C20.549 6.94395 21.1066 7.49872 20.9911 8.01084L14.0792 38.401C13.0238 37.9298 11.9618 37.6616 10.8843 37.7096Z" fill="#60CADA"/>
<path d="M10.9539 37.6543C11.0094 37.6336 11.0428 37.6165 11.0916 37.6172L11.3005 37.6194C11.4405 37.6243 11.5782 37.6332 11.7182 37.6465C11.9959 37.6741 12.2714 37.7207 12.5424 37.7832C13.0846 37.908 13.6089 38.0958 14.1155 38.3211L13.9955 38.3815V38.3813L17.6214 22.2637L19.4433 14.2067L20.3542 10.1782L20.8096 8.16418C20.8519 7.98111 20.8874 7.86269 20.8407 7.72716C20.803 7.59408 20.7185 7.46499 20.6052 7.35879C20.3831 7.14483 20.0809 7.00086 19.7654 6.93554C19.4521 6.86556 19.1211 6.872 18.8256 6.97732C18.6812 7.02908 18.5479 7.10884 18.459 7.21616C18.4146 7.2697 18.379 7.32835 18.359 7.39234C18.3413 7.45677 18.319 7.55386 18.2991 7.63274L17.8147 9.63232L16.8416 13.6306L14.8886 21.6278L10.9539 37.6543ZM10.8184 37.7652L14.6465 21.6761L16.5772 13.6153L17.5459 9.58455L18.0302 7.56964C18.0524 7.48188 18.0658 7.41011 18.0946 7.30902C18.1257 7.20793 18.1791 7.11573 18.2457 7.0373C18.3768 6.87934 18.5523 6.77891 18.7301 6.71426C19.0855 6.58651 19.4699 6.58184 19.8254 6.6596C20.1831 6.73448 20.5297 6.89311 20.8052 7.15528C20.9407 7.28592 21.0563 7.45188 21.1162 7.64918C21.1451 7.74716 21.1562 7.85447 21.1429 7.95956C21.1274 8.07442 21.1051 8.13752 21.0874 8.2275L20.6275 10.2409L19.7054 14.2669L17.8658 22.3193L14.1643 38.4201V38.4204C14.1554 38.4672 14.1066 38.4966 14.0599 38.4859C14.0555 38.4848 14.0488 38.4828 14.0444 38.4806C13.5467 38.2586 13.0312 38.0751 12.5025 37.9531C12.2381 37.8925 11.9715 37.8472 11.7004 37.82C11.5671 37.8072 11.4316 37.7987 11.296 37.7938L11.0939 37.7916C11.005 37.7954 10.9006 37.7825 10.8184 37.7652Z" fill="#070E1D"/>
<path d="M12.4331 37.8474L13.3063 33.9555L14.1994 30.0676L16.0124 22.2983L17.8653 14.5384L18.8051 10.6619L19.7627 6.78933L18.8873 10.6814L17.9942 14.5693L16.1812 22.3386L14.3305 30.0985L13.3907 33.975L12.4331 37.8474Z" fill="#070E1D"/>
<path d="M20.9643 7.19117L18.6182 6.62129C18.3827 6.56442 18.1427 6.72216 18.0827 6.97366C18.0227 7.22517 18.1627 7.47512 18.396 7.53199L20.7444 8.1021C20.9844 8.16031 21.2265 7.99257 21.2821 7.73262C21.3332 7.48578 21.1932 7.2465 20.9643 7.19117Z" fill="white"/>
<path d="M18.5204 6.6968C18.4559 6.6968 18.3915 6.71635 18.3337 6.75456C18.2515 6.80877 18.1915 6.89387 18.1671 6.99407C18.1427 7.09449 18.156 7.19692 18.2049 7.28312C18.2515 7.36733 18.3271 7.42553 18.416 7.44709L20.7643 8.01719C20.851 8.03829 20.9421 8.0223 21.0221 7.97253C21.111 7.91632 21.1732 7.82234 21.1954 7.71481C21.2376 7.51307 21.1265 7.32022 20.9443 7.27601L18.5959 6.7059C18.5715 6.6999 18.5448 6.6968 18.5204 6.6968ZM20.8399 8.20093C20.7999 8.20093 20.7621 8.19604 20.7221 8.18671L18.3759 7.61683C18.2382 7.5835 18.1227 7.4953 18.0516 7.36843C17.9827 7.24357 17.9627 7.09605 17.9982 6.95297C18.0316 6.80988 18.1182 6.68747 18.236 6.60881C18.3582 6.52905 18.5026 6.50395 18.6381 6.53639L20.9843 7.10626C21.2598 7.17314 21.4287 7.45575 21.3665 7.75013C21.3353 7.90366 21.2443 8.03852 21.1154 8.11984C21.031 8.17338 20.9354 8.20093 20.8399 8.20093Z" fill="#070E1D"/>
<path d="M18.7952 5.01658C18.8508 4.71198 18.8641 4.38005 18.9996 4.09388C19.0996 3.88482 19.2774 3.70018 19.504 3.65131C19.6528 3.61953 19.8061 3.64753 19.955 3.67775C20.406 3.77017 20.7348 3.84816 21.177 3.98391C21.1881 3.98768 21.2036 3.99302 21.217 3.99946C21.5036 4.12277 21.6635 4.43315 21.6235 4.74242C21.6191 4.7793 21.6147 4.80885 21.6102 4.82662C21.4791 5.44116 21.4036 5.80042 21.2747 6.41496C21.2614 6.47695 21.2458 6.54293 21.2014 6.58826C21.1214 6.67002 20.9859 6.65002 20.8748 6.62336C20.3727 6.50472 19.8728 6.38052 19.3729 6.25077C19.2462 6.21744 19.1174 6.1839 18.9907 6.1499C18.9085 6.12858 18.8108 6.1128 18.7508 6.0497C18.6353 5.93217 18.7041 5.72755 18.713 5.5998C18.7286 5.40361 18.7597 5.20988 18.7952 5.01658Z" fill="#FF6F4C"/>
<path d="M18.8558 5.02737L18.7691 5.6308C18.7558 5.73678 18.7314 5.83409 18.7491 5.91829C18.7625 6.00317 18.8225 6.04538 18.9158 6.06915C19.3112 6.17069 19.7089 6.26667 20.1066 6.36154L20.7021 6.50462C20.7998 6.52662 20.9043 6.55772 20.9931 6.56816C21.0864 6.57727 21.1464 6.55994 21.1709 6.49551C21.1997 6.42552 21.2153 6.30799 21.2375 6.2129L21.2997 5.9123L21.4241 5.31175C21.4619 5.11468 21.513 4.90384 21.5397 4.71832C21.5574 4.5388 21.4997 4.35151 21.3797 4.2182C21.3219 4.15288 21.2442 4.09845 21.1642 4.0689C21.0731 4.04224 20.9709 4.01824 20.8731 3.99292L20.2822 3.84184C20.0866 3.79451 19.8845 3.72986 19.6956 3.71497C19.509 3.6952 19.3357 3.7703 19.2068 3.91116C19.078 4.04868 19.0024 4.23287 18.958 4.42572C18.9135 4.61923 18.8935 4.82252 18.8558 5.02737ZM18.7358 5.0056C18.7713 4.80786 18.7869 4.60279 18.8313 4.39683C18.8735 4.19287 18.9535 3.98092 19.1024 3.81584C19.2424 3.64766 19.4823 3.54012 19.7067 3.563C19.9267 3.57722 20.1177 3.64077 20.3177 3.68676L20.9176 3.83384C21.0198 3.85961 21.1153 3.88005 21.2197 3.91027C21.333 3.95137 21.4286 4.01869 21.5063 4.10312C21.6619 4.27286 21.7374 4.50992 21.7107 4.73699C21.6774 4.95605 21.6263 5.14179 21.5863 5.34597L21.4552 5.94562L21.3908 6.24534C21.3641 6.3482 21.3575 6.43685 21.313 6.55816C21.2886 6.61837 21.2286 6.68014 21.162 6.70236C21.0953 6.72613 21.0331 6.72457 20.9753 6.71857C20.8598 6.7028 20.7687 6.67125 20.6687 6.6477L20.0733 6.49506C19.6756 6.39397 19.2801 6.29266 18.8847 6.18424C18.8336 6.16913 18.7758 6.14869 18.7247 6.10537C18.6758 6.0616 18.6447 5.99872 18.6358 5.93918C18.6158 5.81987 18.6447 5.71322 18.6536 5.61747L18.7358 5.0056Z" fill="#070E1D"/>
<path d="M21.1854 6.27999L18.8371 5.71011C18.6038 5.65323 18.3638 5.8112 18.3038 6.0627C18.2416 6.31421 18.3816 6.56438 18.6171 6.62126L20.9633 7.19114C21.2032 7.24935 21.4476 7.08183 21.5009 6.82166C21.552 6.57482 21.4121 6.33531 21.1854 6.27999Z" fill="white"/>
<path d="M18.7417 5.78597C18.6751 5.78597 18.6106 5.80552 18.5529 5.84374C18.4707 5.89817 18.4129 5.98326 18.3885 6.08346C18.364 6.18344 18.3774 6.28608 18.424 6.37251C18.4729 6.45627 18.5484 6.51471 18.6373 6.53648L20.9835 7.10636C21.0701 7.12724 21.1635 7.11147 21.2412 7.06148C21.3301 7.00527 21.3945 6.91129 21.4167 6.8042C21.459 6.60247 21.3479 6.4094 21.1635 6.36496L18.8173 5.79508C18.7906 5.78908 18.7662 5.78597 18.7417 5.78597ZM21.0613 7.2901C21.0213 7.2901 20.9813 7.28544 20.9435 7.27611L18.5951 6.706C18.4596 6.67267 18.344 6.58469 18.2729 6.45761C18.2018 6.33297 18.1841 6.18544 18.2174 6.04214C18.2529 5.89928 18.3374 5.77686 18.4573 5.69799C18.5795 5.618 18.7217 5.59267 18.8573 5.62533L21.2057 6.19544C21.4812 6.26209 21.6478 6.54514 21.5878 6.8393C21.5567 6.99261 21.4634 7.12747 21.3345 7.20879C21.2501 7.26233 21.1568 7.2901 21.0613 7.2901Z" fill="#070E1D"/>
<path d="M21.9296 19.7882C20.39 28.0398 18.9236 35.3234 17.3839 43.575C13.718 45.1802 10.1676 45.2558 6.75277 43.575L1.05615 19.7882C8.00806 17.5395 14.9666 17.3922 21.9296 19.7882Z" fill="#FDC436"/>
<path d="M21.6788 19.934C21.2922 19.8527 20.9412 19.7678 20.5812 19.6454L19.3193 19.2824L18.0395 18.9702C17.6107 18.8787 17.1775 18.7982 16.7465 18.7118C15.0179 18.4032 13.2583 18.2435 11.4986 18.235C7.97492 18.2166 4.45564 18.8151 1.083 19.8711L1.14078 19.7678L6.83738 43.5547L6.79073 43.4967V43.4969C7.61722 43.8824 8.47926 44.1808 9.36574 44.371C10.2522 44.5611 11.1565 44.6398 12.0585 44.6093C13.8626 44.5509 15.6289 44.0506 17.2619 43.2974L17.0864 43.5196C18.5905 35.6561 20.1258 27.8119 21.6788 19.934ZM22.1809 19.6425C20.7012 27.6224 19.206 35.6359 17.6818 43.6307L17.6796 43.638C17.6618 43.7373 17.593 43.8162 17.5063 43.8528H17.5041C15.7844 44.5658 13.9315 45.013 12.063 44.9997C11.1321 44.9946 10.2011 44.8764 9.30132 44.646C8.40151 44.4156 7.53501 44.0763 6.71518 43.6533C6.69074 43.6424 6.6752 43.6216 6.66853 43.598V43.5956L0.971914 19.8087V19.8085C0.960805 19.7647 0.985245 19.7203 1.02746 19.7058L1.02969 19.7052C4.39345 18.5807 7.93049 17.9075 11.4964 17.8584C13.2783 17.8329 15.0646 17.9606 16.8264 18.2404C17.2664 18.3199 17.7063 18.3932 18.144 18.4781L19.4503 18.7705L20.7501 19.1184C21.2322 19.2668 21.7232 19.4528 22.1809 19.6425Z" fill="#070E1D"/>
<path d="M7.95459 44.0911C8.09678 43.7412 8.24344 43.3917 8.39452 43.0436L8.88107 42.016L9.42096 41.0144L10.0031 40.0346C10.8029 38.7425 11.7249 37.5269 12.7336 36.3892C13.749 35.2567 14.851 34.2014 16.0441 33.2585L16.9505 32.5693L17.8815 31.9165L18.8457 31.3133C19.1745 31.1238 19.5033 30.9383 19.8344 30.7557C19.5233 30.9705 19.2101 31.1827 18.8968 31.3911L17.9814 32.0565L17.0838 32.7446L16.2129 33.4655C15.0731 34.448 13.9911 35.4965 12.9936 36.6213C11.9893 37.7404 11.0717 38.9346 10.2275 40.1799L9.60981 41.1266L9.02993 42.0971L8.4767 43.0842C8.30563 43.4208 8.13233 43.7563 7.95459 44.0911Z" fill="#070E1D"/>
<path d="M13.0981 44.747C13.6914 43.3533 14.489 42.0511 15.3977 40.8385C16.313 39.6323 17.3462 38.5083 18.5237 37.5549C17.5417 38.7054 16.5752 39.8491 15.6754 41.0489C14.7667 42.2422 13.9313 43.4848 13.0981 44.747Z" fill="#070E1D"/>
<path d="M5.22559 37.194C5.46554 36.8237 5.70992 36.4546 5.95653 36.0878L6.73194 35.0096L7.55178 33.9663L8.40937 32.9505C9.5758 31.6147 10.8489 30.3739 12.1975 29.2228C13.5528 28.0779 14.9836 27.0226 16.4922 26.091L17.6342 25.4122L18.7983 24.7735L19.9914 24.1881C20.3936 24.0052 20.7979 23.8266 21.2023 23.6508C20.8135 23.8606 20.4247 24.0676 20.0314 24.2705L18.8828 24.9235L17.7475 25.6015L16.6366 26.3169C15.1746 27.2945 13.7616 28.3476 12.4241 29.4885C11.0799 30.6234 9.81132 31.846 8.60712 33.1298L7.72063 34.108L6.86525 35.1153L6.03208 36.1425C5.76547 36.4948 5.49664 36.845 5.22559 37.194Z" fill="#070E1D"/>
<path d="M3.93018 31.7885C4.15902 31.4412 4.38785 31.0946 4.62114 30.7507L5.34987 29.738L6.12304 28.7571L6.92511 27.8008C8.01822 26.5418 9.20686 25.3685 10.4644 24.274C11.7286 23.1856 13.0594 22.1756 14.4613 21.2764L15.5256 20.6192L16.6076 19.9969L17.714 19.4226C18.0895 19.2415 18.465 19.0646 18.8427 18.8909C18.4827 19.0986 18.1206 19.3033 17.7584 19.5039L16.692 20.1449L15.6411 20.8061L14.6124 21.4995C13.2527 22.4448 11.9396 23.4526 10.6932 24.5375C9.44014 25.6166 8.25595 26.7719 7.12507 27.9797L6.28967 28.8991L5.48318 29.8437L4.69445 30.8055C4.44339 31.1353 4.1879 31.4623 3.93018 31.7885Z" fill="#070E1D"/>
<path d="M2.45801 25.6451C3.46002 24.1323 4.6531 22.7495 5.94839 21.4767C7.25035 20.2109 8.66117 19.0494 10.1964 18.0814C8.82559 19.2705 7.47697 20.4631 6.19279 21.7259C4.89972 22.9815 3.67776 24.3021 2.45801 25.6451Z" fill="#070E1D"/>
</svg>
