<svg width="46" height="45" viewBox="0 0 46 45" fill="none" xmlns="http://www.w3.org/2000/svg">
<path d="M45.1141 21.3101C45.7758 33.5102 36.277 43.9444 23.8976 44.6161C11.5183 45.2876 0.946443 35.942 0.284528 23.7422C-0.377161 11.5421 9.12165 1.10761 21.501 0.436165C33.8804 -0.235516 44.4522 9.11008 45.1141 21.3101Z" fill="#FDC436"/>
<path d="M44.4635 21.3455C44.3251 18.5167 43.6187 15.7167 42.3836 13.1624C41.1539 10.605 39.3977 8.30423 37.2764 6.40815C35.1543 4.51183 32.6548 3.03206 29.962 2.08095C27.2703 1.12599 24.3886 0.7006 21.5223 0.826355C18.6568 0.955059 15.8118 1.63218 13.1959 2.83344C10.5792 4.03061 8.19436 5.74578 6.22064 7.85569C4.22809 9.95267 2.72515 12.4986 1.75429 15.2153C0.782985 17.9358 0.37349 20.8495 0.542147 23.7283C0.706037 26.6075 1.44808 29.4501 2.72266 32.0333C3.99314 34.6183 5.78753 36.9419 7.9585 38.8316C10.1268 40.7245 12.6661 42.1879 15.388 43.1143C18.1097 44.0443 21.0107 44.4256 23.8788 44.2613C26.7466 44.0926 29.5786 43.3758 32.1675 42.1437C34.7577 40.9149 37.1026 39.1773 39.0293 37.0599C40.9628 34.9504 42.4612 32.4376 43.3515 29.7314C44.2601 27.0295 44.5991 24.1714 44.4635 21.3455ZM45.7651 21.2752C45.8462 22.7742 45.7744 24.2837 45.5304 25.7649C45.2839 27.2449 44.891 28.6985 44.35 30.0918C43.2621 32.8755 41.6674 35.4451 39.6517 37.6306C37.6344 39.814 35.1897 41.5959 32.4984 42.8473C29.8088 44.1024 26.8753 44.8199 23.9171 44.9709C20.9585 45.1196 17.9731 44.698 15.1776 43.7265C12.381 42.7588 9.77809 41.2411 7.56035 39.2851C5.34035 37.3327 3.51032 34.9382 2.22009 32.2792C0.925538 29.6224 0.180086 26.7037 0.027319 23.7562C-0.119546 20.8082 0.326729 17.8332 1.3423 15.0666C2.3497 12.2932 3.9398 9.75677 5.89672 7.55878C7.86703 5.36828 10.2718 3.56368 12.9363 2.28094C15.5994 0.99456 18.5194 0.237297 21.4801 0.0463943C24.4403 -0.140423 27.4455 0.236622 30.2707 1.18342C33.0963 2.12658 35.7395 3.62769 38.0028 5.58029C40.2725 7.52654 42.1411 9.94336 43.4718 12.6301C44.8058 15.3159 45.5869 18.277 45.7651 21.2752Z" fill="#070E1D"/>
<path d="M43.9831 21.3718C44.0825 22.7372 44.0348 24.1139 43.8587 25.4743C43.6751 26.834 43.3532 28.1757 42.9017 29.4737C41.9982 32.0707 40.5482 34.471 38.7139 36.5187C36.8688 38.558 34.6327 40.2473 32.1519 41.4313C30.9116 42.0226 29.6155 42.4936 28.2871 42.8359C26.9569 43.1712 25.597 43.3864 24.2305 43.4597C26.9553 43.2164 29.6325 42.4843 32.0756 41.2744C34.5192 40.0684 36.7315 38.398 38.5457 36.3673C40.3759 34.3513 41.8078 31.9767 42.7382 29.4153C43.673 26.8548 44.0866 24.1059 43.9831 21.3718Z" fill="#070E1D"/>
<path d="M1.41736 23.6808C1.31793 22.3156 1.3656 20.9389 1.54175 19.5785C1.72539 18.2186 2.04727 16.8768 2.49876 15.5789C3.4022 12.9819 4.85224 10.5818 6.68681 8.5339C8.53159 6.49458 10.7677 4.80529 13.2488 3.62129C14.489 3.02997 15.7852 2.55873 17.1136 2.21642C18.4438 1.88137 19.8037 1.66618 21.1704 1.59264C18.4453 1.8362 15.7682 2.56804 13.325 3.77814C10.8812 4.98417 8.66892 6.65439 6.855 8.68554C5.02452 10.7012 3.59264 13.0758 2.66219 15.6372C1.72743 18.198 1.31385 20.9464 1.41736 23.6808Z" fill="#070E1D"/>
<path d="M42.8796 21.4127C43.6555 32.1661 35.2632 41.5346 24.1353 42.3375C13.0073 43.1404 3.35712 35.0739 2.58148 24.3205C1.80562 13.5668 10.1976 4.19854 21.3256 3.39566C32.4535 2.59278 42.1037 10.6593 42.8796 21.4127Z" fill="white"/>
<path d="M42.6729 21.4279C42.499 18.8608 41.7924 16.3303 40.6021 14.0447C39.4144 11.757 37.7496 9.71995 35.7612 8.0747C33.7734 6.4274 31.461 5.1712 28.996 4.38966C26.5311 3.6054 23.9157 3.30214 21.3314 3.47624C18.7472 3.65489 16.1931 4.31295 13.8555 5.43589C11.5166 6.55315 9.39258 8.12191 7.64358 10.0371C5.88983 11.9479 4.52945 14.2185 3.67073 16.6639C2.8111 19.1098 2.46766 21.7318 2.6606 24.3146C2.85218 26.8975 3.57993 29.4374 4.79004 31.7246C5.99742 34.0138 7.68013 36.0447 9.68222 37.6793C11.683 39.3175 14.0067 40.5531 16.4734 41.3153C18.9404 42.0796 21.5504 42.3638 24.1232 42.1715C26.6957 41.9745 29.2299 41.3015 31.5477 40.1776C33.8664 39.0569 35.967 37.4895 37.6924 35.5826C39.4151 33.6751 40.7814 31.4401 41.634 29.014C42.4931 26.5924 42.8525 23.9947 42.6729 21.4279ZM43.0858 21.3979C43.2822 24.0188 42.9392 26.6835 42.0619 29.1652C41.1845 31.646 39.7989 33.9455 38.0173 35.8783C36.2401 37.8155 34.0853 39.3995 31.7145 40.5254C29.3447 41.6547 26.7613 42.3209 24.147 42.5032C21.5327 42.6802 18.8857 42.3736 16.3901 41.5813C13.8937 40.793 11.5536 39.5209 9.53604 37.8573C7.51851 36.1945 5.82695 34.1332 4.61775 31.8149C3.40583 29.4986 2.68308 26.9314 2.50194 24.3261C2.31921 21.7211 2.67786 19.0803 3.55428 16.6228C4.42594 14.1615 5.81741 11.8977 7.56799 9.96828C9.32153 8.03906 11.4532 6.45668 13.8033 5.32716C16.1536 4.19695 18.7171 3.51574 21.3195 3.31507C23.9225 3.12009 26.564 3.40746 29.0619 4.17992C31.5599 4.94898 33.9116 6.20039 35.9418 7.85473C37.9728 9.50679 39.6823 11.5622 40.9112 13.8821C42.1431 16.1997 42.8867 18.7766 43.0858 21.3979Z" fill="#070E1D"/>
<path d="M22.2404 23.0169C21.7673 20.4859 20.7036 15.4432 20.7036 15.4432L21.3042 13.1941L22.392 14.8682C22.392 14.8682 22.735 20.4777 22.8971 23.1885C22.7127 23.1358 22.4247 23.07 22.2404 23.0169Z" fill="#FCC436"/>
<path d="M22.3016 22.9604C22.5107 23.0068 22.7145 23.0544 22.9193 23.1078L22.8114 23.194L22.1452 14.8835L22.1845 15.0025L21.232 13.2405L21.3845 13.2163L20.7842 15.4653L20.7853 15.426L22.3016 22.9604ZM22.1765 23.0742L20.6198 15.461L20.6157 15.441L20.6209 15.4217L21.2213 13.1727L21.2652 13.0079L21.3739 13.1484L22.5969 14.7346L22.6332 14.7816L22.6364 14.8536L22.9803 23.184L22.9851 23.2998L22.8725 23.2703C22.6394 23.209 22.4051 23.1425 22.1765 23.0742Z" fill="#070E1D"/>
<path d="M22.6668 23.0374C24.352 25.4367 29.0701 32.3391 29.0701 32.3391L29.3654 34.0929L28.0552 33.2591C28.0552 33.2591 23.3533 25.9023 21.9053 23.1697C22.1214 23.1375 22.451 23.0696 22.6668 23.0374Z" fill="#FCC436"/>
<path d="M22.63 23.126C22.6288 23.1374 22.647 23.1394 22.6354 23.1401L22.5884 23.1478L22.494 23.164L22.3045 23.1982C22.1778 23.2216 22.0507 23.2452 21.9206 23.265L21.9914 23.1247V23.1249C22.4692 23.9818 22.9823 24.8219 23.5003 25.6582C24.0192 26.4944 24.5442 27.3268 25.0747 28.156C26.1352 29.8144 27.2091 31.4654 28.2923 33.1084L28.2068 33.023L29.418 34.012L29.2714 34.1092L28.9763 32.3552L28.9917 32.3935L22.63 23.126ZM22.7058 22.9492L29.1506 32.285L29.1624 32.3023L29.166 32.3234L29.4611 34.0772L29.3145 34.1743L27.906 33.4954L27.8801 33.4829L27.8204 33.41C26.7865 31.7307 25.7641 30.0464 24.7544 28.3535C24.2496 27.5075 23.7497 26.6579 23.2562 25.8044C22.7634 24.9502 22.2759 24.0933 21.8214 23.215L21.7583 23.095L21.8922 23.0745C22.0168 23.0557 22.1433 23.0323 22.2697 23.0089L22.4606 22.9744L22.5566 22.9578L22.605 22.9501C22.625 22.9454 22.6751 22.9429 22.7058 22.9492Z" fill="#070E1D"/>
<path d="M24.3854 23.0535C24.4531 23.9887 23.7496 24.8014 22.8144 24.869C21.8794 24.9364 21.0665 24.233 20.9991 23.298C20.9317 22.3628 21.6349 21.5501 22.5701 21.4825C23.5053 21.4151 24.318 22.1185 24.3854 23.0535Z" fill="#F2585E"/>
<path d="M24.286 23.0608C24.2565 22.6424 24.0549 22.2415 23.7369 21.9689C23.4212 21.6936 22.9942 21.5533 22.5781 21.5901C22.1604 21.6196 21.7698 21.8364 21.5108 22.153C21.3775 22.3078 21.2874 22.5017 21.2695 22.703C21.2456 22.9032 21.264 23.0928 21.2724 23.2782C21.2942 23.6521 21.4649 24.011 21.7403 24.2759C22.0158 24.5412 22.402 24.696 22.8019 24.6915C23.2026 24.6906 23.6028 24.5115 23.8879 24.2098C24.175 23.9088 24.3216 23.4784 24.286 23.0608ZM24.4855 23.0462C24.5169 23.5166 24.3625 23.993 24.0647 24.363C23.7694 24.7371 23.3152 24.9861 22.8276 25.0461C22.3395 25.1085 21.8186 24.9623 21.4229 24.6427C21.0232 24.3274 20.7658 23.8316 20.7263 23.3175C20.7036 23.0596 20.7771 22.7997 20.8938 22.5782C21.0157 22.3575 21.1499 22.1578 21.3072 21.9766C21.6284 21.6178 22.0921 21.4064 22.5627 21.3749C23.0344 21.3445 23.5147 21.5052 23.8699 21.8152C24.2274 22.1226 24.454 22.5761 24.4855 23.0462Z" fill="#070E1D"/>
<path d="M5.84762 22.0465C5.52597 21.9741 5.24609 21.6806 5.18162 21.3487C5.12714 21.0675 5.22588 20.742 5.43335 20.5204C5.51303 20.4353 5.66807 20.3052 5.88167 20.2898C5.91889 20.2871 5.95795 20.2878 5.99858 20.293C6.3536 20.3377 6.66935 20.5499 6.82325 20.8475C6.9111 21.0178 6.9801 21.2879 6.80872 21.6077C6.63257 21.9353 6.21172 22.1282 5.84762 22.0465ZM7.62863 20.4314C7.33966 19.8724 6.75878 19.4747 6.11162 19.3934C5.61995 19.331 5.131 19.5164 4.77121 19.901C4.36557 20.3345 4.18171 20.9556 4.29158 21.5217C4.42573 22.212 4.97075 22.7783 5.6481 22.9309C5.81471 22.9686 5.98359 22.9801 6.15066 22.9681C6.4285 22.9479 6.69817 22.8598 6.93788 22.72C6.93152 22.8698 6.92018 23.018 6.90088 23.164C6.8228 23.7494 6.62281 24.2409 6.3225 24.5859C6.18222 24.7473 6.03262 24.8621 5.87781 24.9284C5.67556 25.0154 5.42405 25.0099 5.18911 24.9123C4.95485 24.8149 4.77326 24.6415 4.69131 24.4361C4.59892 24.2036 4.33539 24.0908 4.10272 24.1825C3.87005 24.2754 3.75656 24.5391 3.84917 24.7716C4.02078 25.2024 4.3826 25.559 4.84158 25.7497C5.11784 25.8643 5.41224 25.9115 5.69576 25.8913C5.88258 25.8777 6.06508 25.8348 6.23487 25.762C6.51566 25.6419 6.77558 25.4467 7.00643 25.1813C7.42387 24.7019 7.69809 24.0461 7.79933 23.2839C7.88536 22.639 7.84609 22.0022 7.80795 21.3862C7.78502 20.8784 7.78412 20.7324 7.62863 20.4314Z" fill="white"/>
<path d="M7.74917 20.3678C7.82045 20.504 7.88174 20.6679 7.90194 20.829C7.9235 20.9886 7.92828 21.1373 7.93191 21.286C7.93963 21.5772 7.95528 21.8777 7.95392 22.1758C7.95256 22.7726 7.9133 23.38 7.74078 23.9613C7.57054 24.5388 7.26545 25.092 6.80034 25.4931C6.56835 25.6915 6.29323 25.8481 5.99042 25.9194C5.68943 25.9907 5.37277 25.9811 5.07655 25.9026C4.48568 25.7446 3.957 25.3167 3.76315 24.7102C3.72683 24.5447 3.78063 24.3642 3.89912 24.2442C4.01648 24.1229 4.19558 24.066 4.3606 24.0987C4.52608 24.1277 4.67295 24.2446 4.73764 24.3992C4.78894 24.5313 4.87452 24.64 4.98393 24.7279C5.20185 24.8986 5.50375 24.981 5.7707 24.9072C6.03651 24.828 6.25147 24.6098 6.41286 24.3754C6.73837 23.8939 6.85981 23.2999 6.88092 22.7172L6.96377 22.7671L6.9606 22.7689C6.64508 22.9537 6.27507 23.0561 5.90439 23.0343C5.53416 23.0159 5.17188 22.8724 4.88155 22.6407C4.59032 22.41 4.36673 22.0927 4.25096 21.7361C4.13179 21.379 4.1352 20.9861 4.23825 20.6256C4.34335 20.2649 4.54855 19.9329 4.83411 19.6822C5.11922 19.4321 5.49262 19.2725 5.8792 19.2612C6.64621 19.2521 7.38621 19.6863 7.74917 20.3678ZM7.50448 20.494C7.20825 19.9052 6.54655 19.5032 5.88555 19.5034C5.55777 19.5081 5.23522 19.6382 4.98144 19.8534C4.72698 20.0695 4.53834 20.3639 4.43823 20.6856C4.33813 21.0074 4.32633 21.3581 4.42598 21.6814C4.52222 22.0051 4.7188 22.3004 4.98098 22.5183C5.24225 22.7371 5.57094 22.877 5.91324 22.9024C6.25487 22.9296 6.60558 22.8475 6.90521 22.6738L6.90816 22.672L6.99465 22.6232L6.99101 22.7219C6.96877 23.3153 6.84596 23.9302 6.50343 24.4371C6.33182 24.6834 6.10847 24.9186 5.79998 25.0123C5.49104 25.0949 5.16054 25.0075 4.91334 24.8173C4.79031 24.7222 4.68657 24.5903 4.62982 24.446C4.5792 24.3272 4.46593 24.2389 4.33904 24.2176C4.21237 24.1935 4.07641 24.2383 3.98834 24.3309C3.89913 24.4223 3.85939 24.5597 3.88799 24.6836C4.06142 25.213 4.56309 25.6302 5.11196 25.7664C5.38798 25.837 5.6808 25.8433 5.95592 25.7757C6.23081 25.7092 6.48413 25.563 6.69978 25.3762C7.13288 24.9973 7.42094 24.4693 7.57984 23.9143C7.74236 23.3564 7.77052 22.7657 7.73715 22.1815C7.72239 21.8875 7.69447 21.5976 7.672 21.2975C7.6611 21.1507 7.65725 21.0027 7.63591 20.8694C7.61639 20.7362 7.57099 20.6193 7.50448 20.494Z" fill="#070E1D"/>
<path d="M5.87738 21.9121C6.05557 21.9466 6.2753 21.9541 6.45985 21.8479C6.64212 21.7443 6.77106 21.5655 6.82122 21.3614C6.87161 21.1592 6.82054 20.9401 6.69547 20.766C6.57198 20.5908 6.38449 20.4616 6.17883 20.394C6.07532 20.3592 5.96614 20.3438 5.8649 20.3495C5.76207 20.3595 5.66287 20.4021 5.57706 20.4652C5.41113 20.6005 5.3074 20.8055 5.2738 21.0109C5.19095 21.4259 5.50806 21.8327 5.87738 21.9121ZM5.81677 22.1809C5.55232 22.1119 5.33555 21.938 5.20457 21.7158C5.0686 21.4951 5.03387 21.213 5.10288 20.9742C5.16689 20.7331 5.31035 20.5186 5.51124 20.3767C5.60862 20.3029 5.72621 20.2491 5.85196 20.2351C5.97953 20.2258 6.10029 20.243 6.21515 20.2791C6.44487 20.3508 6.65642 20.4913 6.80147 20.6893C6.95038 20.8815 7.02393 21.1462 6.96946 21.3943C6.91997 21.6383 6.76448 21.8626 6.55246 21.9961C6.3493 22.1325 6.08871 22.244 5.81677 22.1809Z" fill="#070E1D"/>
<path d="M23.2643 38.0511C23.5857 38.1235 23.8656 38.4173 23.9303 38.7491C23.9846 39.0301 23.8858 39.3557 23.6784 39.5777C23.5989 39.6626 23.4439 39.7926 23.2301 39.8081C23.1928 39.8108 23.1538 39.8099 23.1132 39.8051C22.7581 39.7602 22.4424 39.5477 22.2887 39.2503C22.2006 39.0801 22.1316 38.81 22.303 38.4901C22.4792 38.1623 22.9002 37.9694 23.2643 38.0511ZM21.4831 39.6664C21.7718 40.2255 22.3529 40.6232 23.0001 40.7042C23.492 40.7666 23.9807 40.5814 24.3405 40.1969C24.7461 39.7633 24.93 39.1423 24.8201 38.5759C24.6862 37.8856 24.141 37.3195 23.4636 37.1667C23.2972 37.1293 23.1281 37.1177 22.9613 37.1295C22.6835 37.1497 22.4138 37.2378 22.1738 37.3776C22.1802 37.228 22.1916 37.0796 22.2108 36.9336C22.2889 36.3484 22.4889 35.8568 22.7892 35.512C22.9295 35.3506 23.0791 35.2355 23.2339 35.1694C23.4362 35.0823 23.6874 35.0879 23.9226 35.1855C24.1571 35.2829 24.3385 35.4563 24.4202 35.6618C24.5128 35.8942 24.7763 36.0068 25.009 35.9151C25.2419 35.8225 25.3552 35.5587 25.2623 35.3263C25.0909 34.8952 24.7293 34.5386 24.2701 34.3482C23.9939 34.2335 23.6995 34.1861 23.4162 34.2063C23.2289 34.2199 23.0466 34.263 22.8771 34.3357C22.5961 34.4558 22.3364 34.6512 22.1053 34.9163C21.6881 35.3957 21.4139 36.0518 21.3124 36.814C21.2264 37.4587 21.1556 37.8257 21.1937 38.4418C21.2166 38.9493 21.3276 39.3652 21.4831 39.6664Z" fill="white"/>
<path d="M21.3591 39.7297C21.217 39.4448 21.138 39.1413 21.0981 38.8369C21.0645 38.5298 21.0593 38.2315 21.0765 37.9269C21.0967 37.6234 21.1453 37.3274 21.1889 37.0346C21.2318 36.7449 21.2756 36.4392 21.3632 36.1509C21.531 35.5721 21.8345 35.0166 22.298 34.6128C22.5293 34.4128 22.8037 34.2541 23.1063 34.1808C23.4073 34.107 23.7244 34.115 24.0218 34.1917C24.6145 34.347 25.1449 34.7739 25.3433 35.3784C25.3828 35.5435 25.3315 35.7257 25.2146 35.8472C25.0993 35.9707 24.9202 36.0304 24.7547 35.9997C24.5886 35.9731 24.4397 35.8578 24.3732 35.7037C24.3214 35.5689 24.2376 35.461 24.1278 35.3725C23.9108 35.2002 23.6086 35.1165 23.341 35.1893C23.0745 35.2672 22.8584 35.4851 22.6968 35.7196C22.3704 36.2017 22.2483 36.7969 22.2274 37.3801L22.1445 37.3301L22.145 37.3297C22.4603 37.1444 22.8303 37.0416 23.201 37.0627C23.5714 37.0807 23.9344 37.2234 24.2249 37.4547C24.5164 37.6854 24.7407 38.0025 24.8567 38.3591C24.9763 38.7164 24.9733 39.1093 24.8707 39.4698C24.7659 39.8307 24.5607 40.1632 24.2753 40.4141C23.9902 40.6647 23.6168 40.8245 23.23 40.8363C22.4628 40.8456 21.7223 40.4109 21.3591 39.7297ZM21.6038 39.6032C21.9003 40.1923 22.5622 40.5943 23.2234 40.5936C23.5514 40.5889 23.874 40.4586 24.1278 40.2429C24.3822 40.0268 24.5704 39.7319 24.6708 39.4101C24.7704 39.0882 24.782 38.7373 24.6821 38.414C24.5854 38.0901 24.3884 37.795 24.1257 37.5773C23.864 37.3587 23.5351 37.2194 23.1926 37.1948C22.8507 37.1678 22.5 37.2507 22.2004 37.425L22.2001 37.4252L22.1137 37.4738L22.1173 37.3753C22.1393 36.7813 22.2626 36.1652 22.6065 35.6579C22.7783 35.4116 23.0026 35.1762 23.3122 35.084C23.6218 35.0023 23.9525 35.0913 24.1993 35.2831C24.3219 35.3784 24.4251 35.5128 24.4805 35.6554C24.5325 35.7739 24.6474 35.8612 24.7749 35.8803C24.9016 35.903 25.0378 35.856 25.1241 35.762C25.2121 35.6692 25.25 35.5305 25.2189 35.4073C25.0408 34.877 24.5375 34.4625 23.987 34.3286C23.7103 34.2591 23.4166 34.2543 23.1417 34.324C22.8671 34.3928 22.6139 34.5406 22.3992 34.729C21.9677 35.1108 21.681 35.6406 21.5244 36.1974C21.4415 36.4778 21.4023 36.7615 21.3689 37.0595C21.3314 37.354 21.2953 37.6456 21.2935 37.9351C21.2985 38.5121 21.3507 39.1086 21.6038 39.6032Z" fill="#070E1D"/>
<path d="M23.2325 38.1857C23.0543 38.151 22.8346 38.1437 22.6501 38.25C22.468 38.3532 22.3389 38.5323 22.2889 38.7366C22.2383 38.9384 22.2894 39.1575 22.4144 39.3318C22.5379 39.5071 22.7254 39.636 22.9311 39.7039C23.0346 39.7388 23.1438 39.7538 23.2452 39.7484C23.3481 39.7384 23.447 39.6955 23.5331 39.6326C23.699 39.4973 23.8025 39.2923 23.8361 39.0867C23.919 38.6719 23.6018 38.2652 23.2325 38.1857ZM23.2931 37.9167C23.5576 37.9857 23.7746 38.1599 23.9053 38.3819C24.0411 38.6025 24.076 38.8846 24.007 39.1239C23.9433 39.3647 23.7996 39.5792 23.5987 39.7209C23.5011 39.7947 23.3837 39.8487 23.258 39.8628C23.1304 39.8721 23.0094 39.8546 22.8948 39.8185C22.665 39.747 22.4535 39.6065 22.3087 39.4083C22.1597 39.2161 22.086 38.9514 22.1405 38.7035C22.1902 38.4595 22.3454 38.2352 22.5575 38.1015C22.7606 37.9653 23.0212 37.8539 23.2931 37.9167Z" fill="#070E1D"/>
<path d="M38.8004 23.5901C38.2581 23.6293 37.6865 23.4981 37.1796 23.203C36.9472 23.0673 36.8348 22.7736 36.9531 22.5318C37.0845 22.2633 37.4141 22.17 37.6645 22.3203C38.1659 22.621 38.7797 22.6748 39.2287 22.4567C39.6813 22.2365 39.9549 21.7069 39.8384 21.2761C39.7839 21.0747 39.6137 20.8884 39.3935 20.7899C39.3231 20.7583 39.2514 20.7379 39.1826 20.7286C39.0258 20.7812 38.8623 20.8155 38.6966 20.8253C38.496 20.8369 38.2951 20.7379 38.2025 20.5599C38.0683 20.3018 38.1755 19.9979 38.4217 19.8742C38.6015 19.7843 38.7976 19.7314 38.9999 19.72C39.2997 19.5709 39.5361 19.277 39.5858 18.9492C39.6555 18.4916 39.3583 17.9899 38.9239 17.8303C38.4912 17.671 37.9416 17.8603 37.6979 18.2512C37.5669 18.4611 37.2927 18.5524 37.0664 18.4525C36.7801 18.3258 36.6805 17.9829 36.8387 17.7264C37.3281 16.9339 38.3956 16.5644 39.2707 16.8853C40.1451 17.2063 40.7207 18.1792 40.5809 19.1001C40.551 19.2976 40.4186 19.5727 40.3067 19.7784C40.2132 19.9507 40.2366 20.162 40.3639 20.3111C40.5351 20.5116 40.7514 20.7962 40.8102 21.0135C41.0501 21.9021 40.5489 22.9336 39.6686 23.3617C39.3999 23.4922 39.1048 23.568 38.8004 23.5901Z" fill="white"/>
<path d="M38.7916 23.4911C39.1259 23.4646 39.4571 23.371 39.7431 23.2015C40.0292 23.0333 40.2736 22.7929 40.448 22.5096C40.6227 22.2279 40.7335 21.9037 40.7519 21.575C40.7594 21.4112 40.7514 21.2452 40.7095 21.087C40.6809 20.9386 40.5894 20.7987 40.4936 20.6605C40.4446 20.5917 40.3928 20.5245 40.3385 20.4585C40.2904 20.4004 40.2101 20.3157 40.174 20.2115C40.1349 20.1105 40.1245 19.9986 40.1456 19.8919C40.1563 19.8385 40.1744 19.7868 40.1989 19.7387L40.2607 19.6224C40.3385 19.4713 40.4119 19.3151 40.4539 19.1616C40.4888 19.0134 40.4988 18.8384 40.485 18.6766C40.4359 18.0167 40.031 17.3827 39.4433 17.0719C38.856 16.756 38.1015 16.8168 37.5318 17.1664C37.3903 17.2551 37.2541 17.3554 37.1407 17.4783C37.0828 17.5382 37.0285 17.6022 36.9799 17.6696L36.9091 17.7724C36.8912 17.804 36.8746 17.8364 36.8648 17.8716C36.8208 18.0101 36.858 18.1724 36.9593 18.2784C37.0589 18.3869 37.2151 18.4371 37.3597 18.4005C37.4319 18.3835 37.4995 18.3479 37.5551 18.2984C37.5819 18.273 37.6067 18.2453 37.6269 18.2142C37.6527 18.1785 37.6789 18.1356 37.7106 18.1014C37.8323 17.9561 37.9928 17.8485 38.1664 17.782C38.5092 17.644 38.9375 17.6805 39.2283 17.9268C39.5161 18.1622 39.6891 18.5356 39.6521 18.9108C39.6115 19.2881 39.3523 19.609 39.024 19.772L39.0131 19.7775L39.0013 19.7779C38.8029 19.7888 38.6039 19.8433 38.4302 19.935C38.2672 20.0224 38.173 20.219 38.2077 20.4008C38.2366 20.5872 38.3927 20.7308 38.5789 20.7599C38.7607 20.7819 38.9748 20.7334 39.1623 20.6727L39.1759 20.6684L39.1886 20.6705C39.5098 20.7188 39.8053 20.9417 39.8998 21.2675C39.981 21.5898 39.8721 21.9273 39.676 22.1759C39.483 22.4333 39.1759 22.597 38.8628 22.6433C38.5485 22.6921 38.2261 22.6487 37.9315 22.538C37.8579 22.5096 37.786 22.4774 37.7159 22.4413L37.6139 22.385C37.586 22.3698 37.5567 22.3566 37.5265 22.348C37.4051 22.3116 37.2669 22.3332 37.1643 22.4074C37.0614 22.4801 36.9931 22.6013 36.9904 22.7245C36.9877 22.8492 37.0442 22.9767 37.1386 23.0623C37.2264 23.1413 37.3794 23.2089 37.5075 23.2682C37.6418 23.3265 37.781 23.3747 37.9229 23.4112C38.2062 23.4848 38.501 23.5131 38.7916 23.4911ZM38.8056 23.6884C38.4919 23.7086 38.1762 23.6743 37.8745 23.5926C37.7238 23.5515 37.576 23.4988 37.4335 23.435C37.3626 23.4028 37.2925 23.3681 37.224 23.3311C37.1595 23.2945 37.0816 23.2546 37.0169 23.1917C36.8894 23.0721 36.8124 22.8982 36.8181 22.7191C36.8249 22.5384 36.9236 22.37 37.0689 22.2699C37.214 22.1682 37.4053 22.1405 37.5737 22.1929C37.6157 22.2054 37.6559 22.2238 37.6941 22.2456L37.7903 22.3001C37.8545 22.3341 37.9204 22.3643 37.988 22.3915C38.2581 22.4966 38.5553 22.5393 38.8406 22.4982C39.1257 22.4581 39.3927 22.3191 39.5688 22.0912C39.7472 21.8715 39.8437 21.5707 39.7772 21.2992C39.7082 21.0357 39.446 20.8269 39.1729 20.786L39.1995 20.7835C38.9934 20.8468 38.7913 20.9004 38.5591 20.875C38.3321 20.8428 38.1267 20.6534 38.0927 20.4212C38.0489 20.1913 38.1678 19.9434 38.3737 19.8331C38.5673 19.7305 38.7786 19.6742 38.9947 19.661L38.972 19.6672C39.2658 19.5187 39.4953 19.2232 39.525 18.8979C39.5552 18.573 39.3967 18.2371 39.1421 18.0348C38.8885 17.8244 38.5237 17.7969 38.2207 17.9204C38.069 17.9801 37.9304 18.0759 37.8289 18.2001C37.8012 18.2303 37.7826 18.2632 37.7574 18.2982C37.7304 18.3411 37.6972 18.3794 37.6605 18.4141C37.586 18.482 37.4952 18.5311 37.3972 18.5553C37.2006 18.6078 36.9777 18.5404 36.8392 18.3912C36.6971 18.2444 36.6424 18.0196 36.7021 17.8233C36.7155 17.7738 36.738 17.7275 36.7632 17.683L36.8401 17.569C36.8928 17.4944 36.9513 17.4235 37.014 17.3573C37.1372 17.2217 37.2843 17.111 37.4376 17.0131C38.0532 16.6291 38.8744 16.5512 39.5345 16.8971C40.1894 17.2383 40.6364 17.9243 40.699 18.6595C40.7147 18.8457 40.7092 19.0245 40.6661 19.2173C40.6166 19.4018 40.5399 19.5643 40.4595 19.7248L40.3994 19.8406C40.3842 19.8703 40.3735 19.9019 40.3671 19.9346C40.3553 19.9997 40.3615 20.0685 40.3853 20.1307C40.4071 20.1945 40.4502 20.2394 40.5133 20.3152C40.5701 20.3847 40.625 20.456 40.6772 20.5297C40.7785 20.6773 40.8867 20.8375 40.9278 21.0346C40.9748 21.2155 40.9839 21.4034 40.9748 21.588C40.9535 21.9578 40.8307 22.3173 40.6332 22.626C40.4377 22.9366 40.166 23.1987 39.8473 23.3817C39.5286 23.566 39.1677 23.6629 38.8056 23.6884Z" fill="#070E1D"/>
<path d="M14.9659 36.2683C15.3615 36.4908 15.5127 37.0594 15.2794 37.4487C15.0462 37.838 14.4738 37.9728 14.091 37.729C13.0857 37.088 13.985 35.7176 14.9659 36.2683Z" fill="white"/>
<path d="M14.9179 36.3562C14.7391 36.2559 14.5327 36.2102 14.3366 36.2547C14.1414 36.2983 13.965 36.4277 13.8565 36.6002C13.7478 36.7736 13.7155 36.9895 13.7709 37.1797C13.8254 37.3718 13.9671 37.53 14.1412 37.6428C14.4742 37.8575 14.9906 37.7277 15.1831 37.3924C15.384 37.0637 15.2587 36.553 14.9179 36.3562ZM15.0169 36.18C15.4704 36.4329 15.6445 37.054 15.3753 37.5084C15.0934 37.9524 14.4694 38.0879 14.0349 37.8076C13.8345 37.6732 13.659 37.4737 13.5948 37.2276C13.528 36.9829 13.5814 36.7189 13.7099 36.5094C13.8381 36.2985 14.0501 36.1378 14.2937 36.0777C14.5379 36.0132 14.8008 36.065 15.0169 36.18Z" fill="#070E1D"/>
<path d="M8.24773 29.4276C8.64338 29.6498 8.79456 30.2184 8.56121 30.6077C8.32786 30.997 7.75537 31.1319 7.37289 30.8881C6.3673 30.2468 7.26688 28.8764 8.24773 29.4276Z" fill="white"/>
<path d="M8.19857 29.516C8.0197 29.4157 7.81359 29.3699 7.61746 29.4146C7.42225 29.4582 7.24588 29.5875 7.13715 29.7603C7.02865 29.9335 6.99641 30.1494 7.05179 30.3396C7.10627 30.5316 7.24792 30.6898 7.42202 30.8026C7.7548 31.0176 8.27143 30.8875 8.46393 30.5523C8.66482 30.2238 8.53929 29.7131 8.19857 29.516ZM8.29777 29.3399C8.7513 29.5928 8.92518 30.214 8.65596 30.6685C8.37426 31.1125 7.75026 31.2478 7.3158 30.9674C7.11536 30.8331 6.93989 30.6335 6.87565 30.3875C6.80869 30.1425 6.86226 29.8788 6.99051 29.6693C7.11899 29.4584 7.33078 29.2977 7.57457 29.2373C7.81881 29.1733 8.08144 29.2248 8.29777 29.3399Z" fill="#070E1D"/>
<path d="M31.9765 35.0039C31.5965 35.2518 31.4832 35.829 31.7413 36.202C31.9996 36.5751 32.5799 36.6725 32.9455 36.4038C33.9069 35.698 32.9192 34.3896 31.9765 35.0039Z" fill="white"/>
<path d="M31.9227 34.9191C32.1309 34.7901 32.3896 34.7214 32.6377 34.7695C32.8847 34.8135 33.1067 34.9602 33.2486 35.1617C33.3904 35.3624 33.4613 35.6225 33.4104 35.8709C33.3628 36.121 33.2007 36.3314 33.0093 36.4787C32.5944 36.787 31.9626 36.693 31.6526 36.2681C31.3539 35.8325 31.4866 35.2014 31.9227 34.9191ZM32.0332 35.0884C31.7061 35.3072 31.6144 35.825 31.8364 36.1398C32.0507 36.4617 32.5744 36.5575 32.8929 36.3214C33.059 36.1973 33.1898 36.03 33.2318 35.8348C33.2744 35.6416 33.2279 35.428 33.1083 35.2623C32.9887 35.097 32.8041 34.9799 32.6064 34.949C32.4078 34.9173 32.2049 34.9765 32.0332 35.0884Z" fill="#070E1D"/>
<path d="M37.6866 27.8592C37.3064 28.1068 37.1931 28.6841 37.4514 29.0573C37.7095 29.4305 38.2897 29.5276 38.6554 29.2591C39.6167 28.5531 38.6291 27.245 37.6866 27.8592Z" fill="white"/>
<path d="M37.6313 27.7745C37.8392 27.6455 38.098 27.5768 38.3461 27.6246C38.5931 27.6689 38.8149 27.8153 38.957 28.0173C39.0988 28.218 39.1697 28.4777 39.1188 28.7265C39.0709 28.9762 38.9093 29.1866 38.7179 29.3341C38.303 29.6424 37.671 29.5482 37.3607 29.1237C37.0625 28.6879 37.1953 28.0568 37.6313 27.7745ZM37.7416 27.944C37.4148 28.1626 37.3228 28.6806 37.5448 28.995C37.7591 29.3169 38.283 29.4129 38.601 29.1766C38.7674 29.0524 38.8984 28.8854 38.9399 28.6902C38.9831 28.4968 38.9365 28.2836 38.8167 28.1177C38.6968 27.9524 38.5123 27.8351 38.3148 27.8044C38.1162 27.7726 37.9135 27.8317 37.7416 27.944Z" fill="#070E1D"/>
<path d="M30.0817 9.55349C29.686 9.33127 29.5348 8.76265 29.7682 8.37335C30.0013 7.98406 30.574 7.84899 30.9565 8.09301C31.9621 8.73427 31.0625 10.1046 30.0817 9.55349Z" fill="white"/>
<path d="M30.1327 9.4654C30.3118 9.56573 30.5179 9.61158 30.714 9.56687C30.9092 9.52328 31.0856 9.3939 31.1943 9.22115C31.3028 9.04796 31.335 8.83186 31.2797 8.64186C31.2252 8.44983 31.0838 8.29138 30.9094 8.17857C30.5767 7.96383 30.06 8.0939 29.8675 8.42917C29.6669 8.75786 29.7922 9.26859 30.1327 9.4654ZM30.0339 9.64155C29.5804 9.38845 29.4063 8.76762 29.6755 8.31318C29.9572 7.86918 30.5812 7.73366 31.0157 8.01399C31.2163 8.14837 31.3916 8.34767 31.4558 8.59396C31.5228 8.83889 31.4692 9.10266 31.341 9.31217C31.2125 9.52305 31.0007 9.68377 30.7569 9.74415C30.5126 9.80816 30.2498 9.75664 30.0339 9.64155Z" fill="#070E1D"/>
<path d="M35.2472 13.7416C34.8514 13.5194 34.7004 12.9508 34.9338 12.5615C35.1669 12.1722 35.7396 12.0371 36.1221 12.2811C37.1274 12.9222 36.2281 14.2926 35.2472 13.7416Z" fill="white"/>
<path d="M35.2965 13.6534C35.4753 13.754 35.6817 13.7998 35.8778 13.7549C36.0728 13.7113 36.2494 13.5821 36.3579 13.4094C36.4666 13.2362 36.4989 13.0201 36.4432 12.8301C36.389 12.6381 36.2473 12.4796 36.0732 12.3668C35.7402 12.1521 35.2238 12.2819 35.0311 12.6174C34.8304 12.9459 34.9557 13.4566 35.2965 13.6534ZM35.1975 13.8298C34.744 13.5767 34.5698 12.9556 34.8391 12.5012C35.1208 12.0572 35.745 11.9219 36.1792 12.202C36.3799 12.3366 36.5554 12.5359 36.6194 12.7822C36.6863 13.0269 36.633 13.2909 36.5048 13.5004C36.3761 13.7111 36.1643 13.872 35.9207 13.9324C35.6762 13.9964 35.4136 13.9449 35.1975 13.8298Z" fill="#070E1D"/>
<path d="M13.5062 10.5223C13.8865 10.2744 13.9997 9.69716 13.7414 9.32398C13.4831 8.95103 12.9029 8.85364 12.5372 9.1224C11.5761 9.82813 12.5635 11.1365 13.5062 10.5223Z" fill="white"/>
<path d="M13.5617 10.6067C13.3538 10.7357 13.0947 10.8042 12.8469 10.7563C12.5997 10.7123 12.3779 10.5656 12.2358 10.3638C12.0939 10.1632 12.0233 9.90325 12.074 9.65469C12.1219 9.40477 12.2837 9.19435 12.4751 9.04703C12.89 8.73877 13.5217 8.83297 13.832 9.25745C14.1305 9.69328 13.9977 10.3243 13.5617 10.6067ZM13.4514 10.4374C13.7782 10.2185 13.8699 9.70055 13.6479 9.38593C13.4339 9.06406 12.91 8.96826 12.5917 9.20434C12.4253 9.32851 12.2946 9.4958 12.2528 9.69079C12.2099 9.88419 12.2565 10.0976 12.3761 10.2635C12.4959 10.4285 12.6805 10.5461 12.878 10.5765C13.0766 10.6083 13.2793 10.5493 13.4514 10.4374Z" fill="#070E1D"/>
<path d="M8.52133 15.1153C8.90155 14.8677 9.01504 14.2904 8.7565 13.9172C8.4984 13.5441 7.91821 13.4469 7.55229 13.7154C6.5912 14.4214 7.57885 15.7298 8.52133 15.1153Z" fill="white"/>
<path d="M8.57716 15.2C8.36924 15.3287 8.11047 15.3975 7.86236 15.3496C7.61539 15.3053 7.39339 15.1589 7.25152 14.9571C7.10965 14.7565 7.03883 14.4965 7.08967 14.248C7.13734 13.9981 7.29942 13.7876 7.49055 13.6401C7.90572 13.3321 8.53745 13.4263 8.84775 13.8508C9.14602 14.2864 9.01322 14.9176 8.57716 15.2ZM8.46685 15.0304C8.79395 14.8116 8.88542 14.2938 8.66365 13.9792C8.44937 13.6573 7.92546 13.5613 7.60722 13.7976C7.44106 13.9218 7.31008 14.0889 7.26854 14.2841C7.22541 14.4775 7.27195 14.6909 7.39181 14.8566C7.51166 15.0218 7.69598 15.1392 7.89369 15.1698C8.09231 15.2016 8.29501 15.1426 8.46685 15.0304Z" fill="#070E1D"/>
<path d="M20.7149 9.94416L19.8274 10.0082L19.4226 5.69619C19.4017 5.47442 19.2698 5.26943 19.0637 5.18477C18.7811 5.069 18.469 5.18204 18.3249 5.43764L17.3138 7.22681C17.1863 7.45289 17.2323 7.75094 17.4444 7.90075C17.6884 8.07304 18.0209 7.99382 18.1644 7.74027L18.5233 7.10514C18.5324 7.08925 18.5566 7.09424 18.5582 7.11285L18.837 10.0797L18.0318 10.1378C17.7728 10.1564 17.5504 10.36 17.5431 10.6195C17.5349 10.9182 17.7849 11.1513 18.0752 11.1302L20.8146 10.9327C21.1049 10.9116 21.3189 10.6451 21.2679 10.3507C21.2234 10.0949 20.9739 9.92554 20.7149 9.94416Z" fill="white"/>
<path d="M20.708 9.84498C20.8732 9.83317 21.0412 9.88675 21.169 9.99434C21.2977 10.1001 21.3778 10.2722 21.3742 10.439C21.3749 10.6075 21.2988 10.7736 21.1724 10.8842C21.1095 10.9398 21.0346 10.9818 20.9543 11.0065C20.9139 11.0185 20.8725 11.0265 20.8308 11.0303L20.7248 11.0385L19.0498 11.1593L18.2122 11.2197C18.1427 11.2233 18.0764 11.2342 17.987 11.2276C17.9032 11.2206 17.8211 11.1949 17.748 11.1538C17.6013 11.0721 17.4921 10.9257 17.4576 10.7607C17.4206 10.5986 17.4595 10.4134 17.5655 10.2829C17.6683 10.1503 17.8222 10.064 17.9865 10.0429L18.8298 9.9805L18.7381 10.0888V10.0876C18.7116 9.53649 18.67 8.98649 18.6289 8.43648L18.5577 7.61248L18.5218 7.20027L18.5173 7.14896L18.515 7.12308C18.512 7.10379 18.5182 7.13852 18.5291 7.13716C18.5381 7.14215 18.5531 7.13897 18.5601 7.12921L18.5504 7.14715L18.5252 7.19232L18.424 7.37278L18.2219 7.73347C18.1579 7.86286 18.034 7.97546 17.8887 8.017C17.7443 8.06171 17.5807 8.04173 17.4511 7.96342C17.3189 7.88715 17.2266 7.7471 17.2011 7.59842C17.1732 7.45042 17.2104 7.28948 17.2869 7.16758L17.4892 6.80665L17.8932 6.08504L18.3023 5.36025C18.4703 5.10102 18.8348 5.00296 19.1124 5.13734C19.2536 5.20135 19.3635 5.32166 19.4259 5.45922C19.4579 5.528 19.4772 5.60223 19.4863 5.67714L19.5067 5.88416L19.5871 6.70747L19.9264 9.99865L19.8204 9.90899L20.708 9.84498ZM20.7223 10.0429L19.8347 10.1069H19.7364L19.7287 10.0173L19.4493 6.7204L19.3751 5.89664L19.3562 5.69167C19.3492 5.63015 19.334 5.56886 19.3079 5.51256C19.2577 5.39929 19.1699 5.30282 19.0593 5.25198C18.8353 5.14188 18.5402 5.21837 18.4017 5.42812L17.9929 6.14133L17.5834 6.86L17.3786 7.21933C17.3085 7.33079 17.2813 7.45586 17.3017 7.58071C17.3348 7.83426 17.6186 8.00383 17.861 7.92484C17.9822 7.8892 18.0807 7.80452 18.1407 7.68762L18.3454 7.32829L18.4478 7.14851L18.4734 7.10357L18.4891 7.07679C18.5061 7.05227 18.542 7.04478 18.5665 7.05749C18.5947 7.06317 18.6062 7.11718 18.6028 7.11491L18.6055 7.14056L18.6108 7.19209L18.6521 7.60364L18.7356 8.4265C18.7976 8.97446 18.8591 9.52264 18.9358 10.0692V10.0702L18.9492 10.1707L18.8441 10.1784L18.0126 10.2397C17.7804 10.2649 17.5929 10.4949 17.6517 10.7189C17.6746 10.8285 17.7475 10.9262 17.8456 10.9806C17.9484 11.0406 18.0471 11.0362 18.1979 11.0217L19.0355 10.9613L20.7105 10.8404L20.8135 10.8326C20.8417 10.8299 20.8691 10.8245 20.8959 10.8165C20.9493 10.8004 20.9992 10.7723 21.0412 10.7353C21.1256 10.661 21.176 10.5507 21.1756 10.4386C21.1865 10.2084 20.9538 10.0218 20.7223 10.0429Z" fill="#070E1D"/>
<path d="M24.7921 10.6458L22.2296 10.8305C22.0712 10.8419 21.9086 10.786 21.8092 10.6621C21.653 10.4669 21.6803 10.194 21.8523 10.032C22.7018 9.23158 23.2377 8.10683 23.323 6.94598C23.3435 6.66905 23.3317 6.45749 23.2865 6.2802C23.2372 6.08748 23.1433 5.92904 23.022 5.83347C22.8534 5.70091 22.5948 5.68048 22.4069 5.78444C22.2246 5.88568 22.107 6.10632 22.122 6.31447C22.1375 6.56281 22.3402 6.56076 22.4475 6.55282C22.7247 6.53216 22.7385 6.33172 22.9263 6.40345C23.0956 6.46815 23.1741 6.66428 23.124 6.83861C23.028 7.17139 22.6695 7.37385 22.2466 7.33935C21.7568 7.29872 21.3779 6.95369 21.2817 6.46066C21.2792 6.44908 21.2774 6.43728 21.2762 6.42548C21.2149 5.86821 21.5032 5.31116 21.9929 5.03899C22.4834 4.7666 23.1085 4.817 23.5489 5.16316C23.8172 5.37404 24.0174 5.69569 24.1128 6.06932C24.2029 6.42275 24.1908 6.7746 24.1734 7.0084C24.0994 8.01535 23.7382 8.99937 23.1546 9.82517C23.1294 9.86081 23.156 9.9087 23.1993 9.90575L24.7066 9.7968C24.9293 9.78091 25.1433 9.92641 25.1814 10.1459C25.2253 10.3988 25.0416 10.6276 24.7921 10.6458Z" fill="white"/>
<path d="M24.7873 10.5717C24.8956 10.564 24.9966 10.5027 25.0551 10.4121C25.1148 10.3227 25.1264 10.2035 25.0905 10.1045C25.0545 10.0056 24.9657 9.92679 24.8617 9.89433C24.8086 9.87731 24.7571 9.87209 24.6981 9.87754L24.5024 9.89229L23.72 9.95177L23.3288 9.98127L23.231 9.98876L23.2067 9.99058C23.1883 9.99217 23.1647 9.98945 23.1443 9.98105C23.1025 9.96425 23.0721 9.92657 23.063 9.88412C23.0501 9.84417 23.0746 9.78606 23.0889 9.7713L23.1161 9.73136L23.1709 9.65168C23.7452 8.79704 24.0813 7.77738 24.1083 6.74796C24.1222 6.24063 23.9946 5.71582 23.6453 5.35013C23.3068 4.98421 22.7514 4.8462 22.2758 4.99489C21.795 5.13426 21.4271 5.57644 21.3513 6.06993C21.2419 6.56069 21.5517 7.09731 22.0318 7.23442C22.2663 7.30592 22.533 7.29911 22.7496 7.18856C22.8572 7.13431 22.9511 7.05259 23.0101 6.95044C23.0721 6.84807 23.1005 6.73071 23.0617 6.62561C23.0433 6.57386 23.0117 6.52755 22.9697 6.49509C22.9287 6.46331 22.871 6.44129 22.8349 6.44924C22.7968 6.45446 22.7471 6.501 22.6849 6.53823C22.6231 6.57704 22.5487 6.60019 22.4772 6.60791C22.4075 6.61563 22.3351 6.6179 22.2583 6.59452C22.1816 6.57273 22.1103 6.50395 22.087 6.42768C22.0411 6.27763 22.0693 6.13145 22.1314 6.00252C22.1943 5.8754 22.3008 5.76486 22.4368 5.7097C22.5711 5.65431 22.7207 5.6509 22.8581 5.69017C22.9965 5.72898 23.1182 5.82591 23.1949 5.94168C23.2746 6.05722 23.3234 6.18888 23.3509 6.32213C23.4044 6.58998 23.3874 6.85829 23.3584 7.12001C23.3286 7.38287 23.275 7.64255 23.2035 7.89701C23.0603 8.40593 22.8311 8.89033 22.5303 9.32548C22.38 9.5434 22.212 9.74883 22.0277 9.93905L21.8877 10.0784C21.8468 10.1186 21.8146 10.1674 21.7937 10.2205C21.7503 10.3272 21.7574 10.4516 21.8091 10.5531C21.8607 10.6575 21.9564 10.7285 22.0695 10.7565C22.1267 10.7701 22.1825 10.7739 22.2447 10.7678L22.4404 10.7526L23.2226 10.6924L24.7873 10.5717ZM24.7977 10.7201L23.2322 10.8255L22.4492 10.8779L22.2536 10.8913C22.1855 10.8976 22.1092 10.8927 22.0395 10.8745C21.8986 10.8402 21.7664 10.7394 21.704 10.6062C21.6382 10.4743 21.63 10.3143 21.6861 10.1781C21.7135 10.11 21.7551 10.0476 21.808 9.99626L21.9465 9.85961C22.1271 9.67506 22.2919 9.47507 22.4399 9.26306C22.7359 8.83926 22.9627 8.3662 23.1053 7.86886C23.1774 7.6203 23.2269 7.36539 23.2558 7.10866C23.2835 6.85238 23.2975 6.59043 23.2467 6.34392C23.1974 6.10376 23.0603 5.85792 22.8272 5.7955C22.7135 5.76326 22.587 5.76689 22.4794 5.81229C22.3721 5.8561 22.2844 5.94622 22.2327 6.05268C22.18 6.15619 22.1619 6.28807 22.1946 6.38908C22.2236 6.48873 22.3414 6.50962 22.4638 6.49305C22.5219 6.48601 22.5752 6.46944 22.6245 6.43834C22.6751 6.41178 22.72 6.35618 22.8124 6.33393C22.9958 6.31691 23.1216 6.44583 23.1738 6.58634C23.2283 6.73162 23.1867 6.89324 23.1141 7.01173C23.0424 7.13635 22.93 7.23374 22.8054 7.29729C22.553 7.42577 22.2588 7.43258 21.995 7.35426C21.4516 7.20241 21.1023 6.59361 21.2217 6.0495C21.3022 5.50812 21.7029 5.02031 22.2347 4.86232C22.7586 4.69571 23.372 4.84394 23.7515 5.24912C24.1381 5.64932 24.275 6.22133 24.2627 6.75C24.2398 7.81393 23.8993 8.86151 23.3121 9.74588L23.256 9.82828L23.2281 9.86959C23.2224 9.88026 23.2349 9.85575 23.2296 9.84826C23.2276 9.83759 23.2199 9.82828 23.2085 9.82374C23.2035 9.82147 23.1963 9.82079 23.1945 9.82124L23.2188 9.81965L23.3168 9.81307L23.7082 9.78605L24.4908 9.73249L24.6865 9.7191C24.758 9.71274 24.8388 9.72023 24.9103 9.74475C25.0547 9.79083 25.1823 9.90273 25.2356 10.0512C25.288 10.1983 25.2683 10.3663 25.1823 10.4952C25.098 10.6241 24.9516 10.7104 24.7977 10.7201Z" fill="#070E1D"/>
</svg>
