<svg width="20" height="16" viewBox="0 0 20 16" fill="none" xmlns="http://www.w3.org/2000/svg">
<path d="M8.16675 7.38892H10.0001V8.61114H8.16675V7.38892Z" fill="#64CBB9"/>
<path d="M15.1638 5.65942C14.08 3.88585 12.6014 2.38638 10.8433 1.27775C10.0311 0.762977 9.10516 0.454855 8.14645 0.380288C7.18773 0.305721 6.22533 0.466976 5.34328 0.849974C4.57175 1.21389 3.90041 1.76015 3.38722 2.44156C2.87403 3.12297 2.53442 3.91906 2.39772 4.76109C2.34883 5.04831 2.31217 5.32331 2.2755 5.5922C1.70335 5.68494 1.18276 5.97797 0.806653 6.419C0.430547 6.86003 0.223395 7.42035 0.222168 7.99997V11.7461C0.222168 12.0702 0.350937 12.3811 0.580149 12.6103C0.80936 12.8395 1.12024 12.9683 1.44439 12.9683V7.99997C1.44439 7.67582 1.57316 7.36494 1.80237 7.13573C2.03158 6.90652 2.34246 6.77775 2.66661 6.77775H14.1127C15.2905 6.77937 16.4196 7.24796 17.2525 8.0808C18.0853 8.91363 18.5539 10.0427 18.5555 11.2205V11.6666H17.3333C17.0752 11.0373 16.5944 10.525 15.9827 10.2275C15.3709 9.92996 14.6711 9.86811 14.0166 10.0537C13.3622 10.2393 12.799 10.6594 12.4345 11.2337C12.0701 11.8081 11.9298 12.4965 12.0406 13.1677C12.1513 13.8389 12.5053 14.4458 13.0349 14.8726C13.5646 15.2994 14.2329 15.5163 14.9123 15.4818C15.5916 15.4473 16.2345 15.1639 16.7183 14.6857C17.202 14.2074 17.4927 13.5678 17.5349 12.8889H18.5555C18.8797 12.8889 19.1905 12.7601 19.4197 12.5309C19.649 12.3017 19.7777 11.9908 19.7777 11.6666V11.2205C19.7753 9.90171 19.3132 8.62498 18.4711 7.61C17.629 6.59503 16.4595 5.90527 15.1638 5.65942ZM5.72217 5.55553H3.23495C3.23495 5.36609 3.28995 5.17053 3.32661 4.94442C3.43219 4.27309 3.70773 3.63992 4.12702 3.10511C4.54632 2.57029 5.09543 2.15161 5.72217 1.88886V5.55553ZM6.94439 5.55553V1.6322C8.08531 1.48404 9.24238 1.73445 10.2199 2.34108C11.5545 3.1723 12.7062 4.26589 13.6055 5.55553H6.94439ZM14.7666 14.3433C14.4644 14.3433 14.1691 14.2537 13.9178 14.0858C13.6666 13.918 13.4708 13.6793 13.3551 13.4002C13.2395 13.121 13.2092 12.8138 13.2682 12.5175C13.3271 12.2211 13.4726 11.9489 13.6863 11.7352C13.9 11.5216 14.1722 11.3761 14.4686 11.3171C14.7649 11.2582 15.0721 11.2884 15.3513 11.404C15.6304 11.5197 15.869 11.7155 16.0369 11.9667C16.2048 12.218 16.2944 12.5134 16.2944 12.8155C16.2944 13.2207 16.1334 13.6093 15.8469 13.8958C15.5604 14.1823 15.1718 14.3433 14.7666 14.3433Z" fill="#64CBB9"/>
<path d="M7.6595 11.6667C7.4014 11.0373 6.92061 10.525 6.30887 10.2275C5.69714 9.93002 4.99728 9.86817 4.34285 10.0538C3.68842 10.2394 3.12523 10.6594 2.76075 11.2338C2.39628 11.8081 2.25603 12.4966 2.36677 13.1677C2.47752 13.8389 2.83149 14.4458 3.36116 14.8726C3.89084 15.2995 4.55911 15.5163 5.23848 15.4818C5.91785 15.4474 6.56074 15.164 7.04448 14.6857C7.52822 14.2075 7.81894 13.5678 7.86117 12.8889H11.1001V12.7361C11.088 12.3756 11.1292 12.0152 11.2223 11.6667H7.6595ZM5.11117 14.3434C4.809 14.3434 4.51362 14.2538 4.26238 14.0859C4.01114 13.918 3.81532 13.6794 3.69969 13.4002C3.58405 13.1211 3.5538 12.8139 3.61275 12.5175C3.6717 12.2212 3.8172 11.9489 4.03087 11.7353C4.24453 11.5216 4.51675 11.3761 4.81311 11.3172C5.10947 11.2582 5.41666 11.2885 5.69582 11.4041C5.97499 11.5197 6.2136 11.7156 6.38147 11.9668C6.54934 12.218 6.63895 12.5134 6.63895 12.8156C6.63895 13.2208 6.47798 13.6094 6.19147 13.8959C5.90496 14.1824 5.51636 14.3434 5.11117 14.3434Z" fill="#64CBB9"/>
</svg>
