<svg width="25" height="26" viewBox="0 0 25 26" fill="none" xmlns="http://www.w3.org/2000/svg">
<path d="M21.3568 3.65585C20.2049 2.49266 18.8329 1.57038 17.321 0.942734C15.809 0.315091 14.1873 -0.00535574 12.5502 6.77074e-05C5.69095 6.77074e-05 0.100503 5.59052 0.100503 12.4498C0.100503 14.6483 0.678392 16.784 1.75879 18.6684L0 25.1257L6.59548 23.392C8.41708 24.3845 10.4648 24.9121 12.5502 24.9121C19.4095 24.9121 25 19.3217 25 12.4624C25 9.13323 23.706 6.00509 21.3568 3.65585ZM12.5502 22.8016C10.691 22.8016 8.86935 22.2991 7.27387 21.3568L6.89698 21.1307L2.97739 22.1609L4.0201 18.3418L3.76884 17.9523C2.73561 16.3029 2.18709 14.3961 2.18593 12.4498C2.18593 6.7463 6.83417 2.09806 12.5377 2.09806C15.3015 2.09806 17.902 3.17846 19.8492 5.13826C20.8136 6.09789 21.5778 7.23944 22.0975 8.49671C22.6172 9.75398 22.8822 11.1019 22.8769 12.4624C22.902 18.1659 18.2538 22.8016 12.5502 22.8016ZM18.2286 15.0629C17.9146 14.9121 16.3819 14.1584 16.1055 14.0453C15.8166 13.9448 15.6156 13.8945 15.402 14.196C15.1884 14.5101 14.598 15.2136 14.4221 15.4146C14.2462 15.6282 14.0578 15.6533 13.7437 15.49C13.4296 15.3393 12.4246 15.0001 11.2437 13.9448C10.3141 13.1156 9.69849 12.0981 9.51005 11.784C9.33417 11.4699 9.48492 11.3066 9.64824 11.1433C9.78643 11.0051 9.96231 10.779 10.1131 10.6031C10.2638 10.4272 10.3266 10.289 10.4271 10.088C10.5276 9.87444 10.4774 9.69856 10.402 9.54781C10.3266 9.39705 9.69849 7.86439 9.44723 7.23625C9.19598 6.63323 8.93216 6.70861 8.74372 6.69605H8.1407C7.92713 6.69605 7.6005 6.77142 7.31156 7.08549C7.03517 7.39956 6.23115 8.15333 6.23115 9.686C6.23115 11.2187 7.34925 12.7011 7.5 12.9021C7.65075 13.1156 9.69849 16.2563 12.8141 17.6006C13.5553 17.9272 14.1332 18.1156 14.5854 18.2538C15.3266 18.4925 16.005 18.4548 16.5452 18.3795C17.1482 18.2915 18.392 17.6257 18.6432 16.8971C18.907 16.1684 18.907 15.5528 18.8191 15.4146C18.7312 15.2765 18.5427 15.2136 18.2286 15.0629Z" fill="white"/>
</svg>
