<svg width="128" height="70" viewBox="0 0 128 70" fill="none" xmlns="http://www.w3.org/2000/svg">
<path d="M126.996 16.6087C126.996 24.9946 118.477 32.8675 108.752 37.8445C107.552 37.4347 106.142 37.1737 104.362 37.1737C95.7418 37.1737 95.7417 43.2551 87.1217 43.2551C78.5077 43.2551 78.5077 37.1737 69.8877 37.1737C61.2678 37.1737 61.2678 43.2551 52.6538 43.2551C44.0398 43.2551 44.0398 37.1737 35.4198 37.1737C27.0209 37.1737 26.8059 42.9541 18.8192 43.2408L13.9805 22.6071L126.978 15.8787C126.99 16.12 126.996 16.3673 126.996 16.6087Z" fill="#FDC436"/>
<path d="M69.8881 36.3691C74.452 36.3691 76.7459 37.9903 78.968 39.5577C81.0767 41.0457 83.0719 42.4518 87.1221 42.4518C91.1782 42.4518 93.1674 41.0457 95.2761 39.5577C97.4983 37.9903 99.7982 36.3691 104.362 36.3691C105.951 36.3691 107.367 36.5675 108.681 36.976C117.164 32.5683 126.106 24.9977 126.19 16.7312L14.9844 23.3532L19.4527 42.3992C22.6785 42.1406 24.4585 40.8832 26.3402 39.5571C28.5624 37.9897 30.8563 36.3691 35.4202 36.3691C39.984 36.3691 42.2839 37.9903 44.5001 39.5577C46.6088 41.0457 48.604 42.4518 52.6541 42.4518C56.7103 42.4518 58.6995 41.0463 60.8082 39.5589C63.0244 37.9909 65.3242 36.3691 69.8881 36.3691ZM87.1221 44.0598C82.5582 44.0598 80.2643 42.4393 78.0421 40.8718C75.9334 39.3833 73.9442 37.9772 69.8881 37.9772C65.832 37.9772 63.8428 39.3839 61.7341 40.8718C59.5119 42.4393 57.218 44.0598 52.6541 44.0598C48.0903 44.0598 45.7964 42.4393 43.5742 40.8718C41.4655 39.3833 39.4763 37.9772 35.4202 37.9772C31.3701 37.9772 29.3749 39.3827 27.2662 40.8713C25.1575 42.358 22.9832 43.8961 18.8494 44.0443C18.4611 44.0515 18.1265 43.7976 18.0369 43.4243L13.1983 22.7905C13.1445 22.56 13.1983 22.3169 13.3357 22.1263C13.479 21.9364 13.7001 21.8187 13.933 21.8043L126.93 15.076C127.367 15.0413 127.755 15.3866 127.779 15.8298C127.797 16.0879 127.803 16.3507 127.803 16.6087C127.803 24.3681 120.813 32.5737 109.117 38.5596C108.92 38.6593 108.699 38.6761 108.49 38.605C107.253 38.1827 105.903 37.9772 104.362 37.9772C100.306 37.9772 98.3168 39.3833 96.2081 40.8718C93.9859 42.4393 91.6859 44.0598 87.1221 44.0598Z" fill="#070E1D"/>
<path d="M18.7346 43.2456C18.5614 43.2504 18.3762 43.2551 18.191 43.2551C16.6558 43.2551 15.3953 43.0628 14.3141 42.7474L8.87207 19.5732L13.1194 19.3217L18.7346 43.2456Z" fill="#3F4D63"/>
<path d="M14.9834 42.0952C15.8316 42.3025 16.7337 42.4183 17.7253 42.4452L12.4924 20.1647L9.86995 20.32L14.9834 42.0952ZM18.1913 44.0598C16.68 44.0598 15.3358 43.883 14.0873 43.5198C13.8066 43.4386 13.5975 43.214 13.5318 42.9309L8.08982 19.7573C8.03606 19.5267 8.08384 19.283 8.2272 19.093C8.3646 18.9031 8.58562 18.7848 8.82457 18.7711L13.0718 18.519C13.4601 18.4903 13.8126 18.7573 13.9022 19.1378L19.5174 43.0623C19.5771 43.2976 19.5233 43.5455 19.374 43.7367C19.2247 43.9284 18.9977 44.0431 18.7588 44.0491L18.7349 43.2463L18.7228 44.0503C18.5496 44.055 18.3705 44.0598 18.1913 44.0598Z" fill="#070E1D"/>
<path d="M15.4172 19.0652L6.0326 19.6243C3.34446 19.7844 1.03268 17.7349 0.877361 15.0469L0.811616 14.0129C0.650327 11.3249 2.70527 9.01622 5.39341 8.85614L14.778 8.29704C17.4661 8.13695 19.778 10.1864 19.9333 12.875L19.999 13.9084C20.1603 16.597 18.1053 18.9057 15.4172 19.0652Z" fill="#FDC436"/>
<path d="M15.0697 9.09232C14.9921 9.09232 14.9085 9.09472 14.8249 9.0995L5.44023 9.65801C4.35302 9.72312 3.35542 10.2064 2.63261 11.0205C1.9098 11.8341 1.55138 12.88 1.61709 13.9654L1.67683 14.9994C1.80825 17.2406 3.74972 18.9489 5.98386 18.8217L15.3684 18.2626C17.6145 18.1294 19.329 16.197 19.1916 13.9558L19.1318 12.9218C19.0661 11.8365 18.5822 10.8413 17.7698 10.1186C17.0171 9.45193 16.0673 9.09232 15.0697 9.09232ZM5.73891 20.4375C2.75806 20.4375 0.249165 18.1067 0.0699556 15.0943L0.0102192 14.0603C-0.0793854 12.5461 0.422389 11.0874 1.43193 9.95248C2.43551 8.81754 3.82737 8.14257 5.34467 8.05297L14.7292 7.49387C16.2465 7.40845 17.7041 7.90959 18.8391 8.9161C19.9741 9.9238 20.6492 11.3126 20.7388 12.8269L20.7985 13.8602C20.9837 16.9867 18.5942 19.6819 15.464 19.8676L6.07942 20.4273C5.96592 20.4333 5.85241 20.4375 5.73891 20.4375Z" fill="#070E1D"/>
<path d="M15.3828 29.3877C14.9587 29.3877 14.6063 29.0586 14.5824 28.6315C14.5525 28.1877 14.893 27.8072 15.335 27.7809L125.806 21.2036C126.248 21.1702 126.63 21.5148 126.654 21.9587C126.684 22.4025 126.343 22.783 125.901 22.8092L15.4306 29.3865C15.4127 29.3877 15.4007 29.3877 15.3828 29.3877Z" fill="#070E1D"/>
<path d="M121.806 16.1862L80.5876 1.0444C78.2699 0.192602 75.7609 1.69671 75.4144 4.14219L73.2998 19.0737L121.806 16.1862Z" fill="#64CBB9"/>
<path d="M79.2479 1.60868C78.6984 1.60868 78.1547 1.75622 77.6709 2.04653C76.8704 2.52559 76.3388 3.32961 76.2073 4.25369L74.236 18.211L117.909 15.612L80.3112 1.79864C79.9647 1.67141 79.6064 1.60868 79.2479 1.60868ZM73.2982 19.877C73.0772 19.877 72.8621 19.7838 72.7128 19.6177C72.5455 19.4409 72.4738 19.199 72.5037 18.9601L74.6124 4.02849C74.8155 2.62177 75.6278 1.39545 76.8465 0.665512C78.0651 -0.0632362 79.5347 -0.200642 80.8668 0.289173L122.085 15.4304C122.437 15.5618 122.658 15.9256 122.599 16.3025C122.545 16.68 122.234 16.9662 121.852 16.9883L73.3459 19.8758C73.334 19.8764 73.3161 19.877 73.2982 19.877Z" fill="#070E1D"/>
<path d="M0.83777 15.3298C0.419615 15.3298 0.0612316 15.0007 0.0373371 14.5736C0.0134425 14.1298 0.347943 13.7499 0.789993 13.7236L19.9175 12.5851C20.3536 12.5534 20.736 12.8957 20.7659 13.3395C20.7898 13.7827 20.4553 14.1632 20.0132 14.1895L0.885548 15.328C0.8736 15.3292 0.855691 15.3298 0.83777 15.3298Z" fill="#070E1D"/>
<path d="M121.594 44.0598C117.031 44.0598 114.737 42.4393 112.515 40.8719C111.26 39.9878 110.077 39.1527 108.488 38.6044C107.252 38.1827 105.902 37.9772 104.361 37.9772C100.304 37.9772 98.3152 39.3833 96.2065 40.8719C93.9843 42.4393 91.6844 44.0598 87.1205 44.0598C82.5566 44.0598 80.2628 42.4393 78.0406 40.8719C75.9319 39.3833 73.9426 37.9772 69.8865 37.9772C65.8304 37.9772 63.8412 39.3839 61.7325 40.8719C59.5103 42.4393 57.2164 44.0598 52.6526 44.0598C48.0887 44.0598 45.7948 42.4393 43.5726 40.8719C41.4639 39.3833 39.4747 37.9772 35.4186 37.9772C31.3685 37.9772 29.3733 39.3827 27.2646 40.8713C25.1678 42.3532 22.9935 43.8866 18.8896 44.0425C18.8358 44.0479 18.788 44.0497 18.7343 44.0497C16.996 44.098 15.4905 43.9266 14.0867 43.5198C11.99 42.9093 10.5265 41.8736 9.10476 40.8719C7.00204 39.3833 5.00681 37.9772 0.956683 37.9772C0.514634 37.9772 0.15625 37.6176 0.15625 37.1737C0.15625 36.7293 0.514634 36.3691 0.956683 36.3691C5.52055 36.3691 7.81443 37.9903 10.0366 39.5583C11.4046 40.526 12.7009 41.4405 14.5348 41.9751C15.6399 42.2959 16.8347 42.4518 18.1907 42.4518C18.358 42.4518 18.5192 42.4476 18.6805 42.4428C18.6865 42.4428 18.7104 42.4422 18.7283 42.4416C18.7463 42.4393 18.7701 42.4375 18.794 42.4369C22.4439 42.306 24.3375 40.9704 26.3387 39.5571C28.5609 37.9897 30.8547 36.3691 35.4186 36.3691C39.9825 36.3691 42.2823 37.9903 44.4985 39.5577C46.6072 41.0457 48.6024 42.4518 52.6526 42.4518C56.7087 42.4518 58.6979 41.0463 60.8066 39.5589C63.0228 37.9909 65.3227 36.3691 69.8865 36.3691C74.4504 36.3691 76.7443 37.9903 78.9665 39.5577C81.0752 41.0457 83.0704 42.4518 87.1205 42.4518C91.1766 42.4518 93.1658 41.0457 95.2745 39.5577C97.4967 37.9903 99.7967 36.3691 104.361 36.3691C106.081 36.3691 107.604 36.6033 109.008 37.0829C110.818 37.7066 112.15 38.6474 113.44 39.5577C115.549 41.0457 117.538 42.4518 121.594 42.4518C122.037 42.4518 122.401 42.812 122.401 43.2558C122.401 43.6996 122.037 44.0598 121.594 44.0598Z" fill="#070E1D"/>
<path d="M87.1198 55.6482C82.5559 55.6482 80.2621 54.0276 78.0399 52.4602C75.9312 50.9717 73.9419 49.5667 69.8858 49.5667C65.8297 49.5667 63.8405 50.9723 61.7318 52.4608C59.5096 54.0282 57.2157 55.6482 52.6519 55.6482C48.088 55.6482 45.7941 54.0276 43.5719 52.4602C41.4633 50.9717 39.474 49.5667 35.4179 49.5667C31.3678 49.5667 29.3726 50.9717 27.2639 52.4596C25.1552 53.9476 22.9809 55.4851 18.8471 55.6333C18.4111 55.6685 18.0347 55.3023 18.0168 54.8585C17.9989 54.4147 18.3453 54.042 18.7934 54.0258C22.4432 53.8956 24.3368 52.5594 26.338 51.1455C28.5602 49.5781 30.8541 47.9581 35.4179 47.9581C39.9818 47.9581 42.2816 49.5787 44.4979 51.1461C46.6066 52.6346 48.6018 54.0402 52.6519 54.0402C56.708 54.0402 58.6972 52.6347 60.8059 51.1473C63.0221 49.5793 65.322 47.9581 69.8858 47.9581C74.4497 47.9581 76.7436 49.5787 78.9658 51.1461C81.0745 52.6346 83.0697 54.0402 87.1198 54.0402C91.1759 54.0402 93.1651 52.6346 95.2738 51.1461C97.496 49.5787 99.796 47.9581 104.36 47.9581C106.08 47.9581 107.597 48.1917 109.007 48.6725C109.425 48.8159 109.652 49.2728 109.509 49.6934C109.366 50.1139 108.912 50.3391 108.488 50.1939C107.251 49.771 105.901 49.5667 104.36 49.5667C100.304 49.5667 98.3145 50.9717 96.2058 52.4602C93.9836 54.0276 91.6837 55.6482 87.1198 55.6482Z" fill="#070E1D"/>
<path d="M87.1197 70C82.5558 70 80.2619 68.3788 78.0397 66.8114C75.931 65.3241 73.9418 63.918 69.8857 63.918C65.8296 63.918 63.8404 65.3241 61.7317 66.8126C59.5095 68.3794 57.2156 70 52.6517 70C48.0879 70 45.794 68.3788 43.5718 66.8114C41.4631 65.3241 39.4739 63.918 35.4178 63.918C34.9757 63.918 34.6113 63.5583 34.6113 63.1139C34.6113 62.6701 34.9757 62.3099 35.4178 62.3099C39.9816 62.3099 42.2815 63.9311 44.4977 65.4985C46.6064 66.9859 48.6016 68.3914 52.6517 68.3914C56.7078 68.3914 58.6971 66.9865 60.8058 65.4991C63.022 63.9311 65.3218 62.3099 69.8857 62.3099C74.4496 62.3099 76.7434 63.9311 78.9656 65.4985C81.0743 66.9859 83.0695 68.3914 87.1197 68.3914C91.1758 68.3914 93.165 66.9859 95.2737 65.4985C96.1817 64.8593 97.1136 64.1993 98.2187 63.6497C98.619 63.4526 99.0968 63.6133 99.2999 64.0105C99.4971 64.4084 99.3358 64.8916 98.9356 65.0893C97.944 65.5845 97.0957 66.1807 96.2057 66.8114C93.9835 68.3788 91.6835 70 87.1197 70Z" fill="#070E1D"/>
</svg>
